<?xml version="1.0" encoding="utf-8" standalone="no"?>
<!DOCTYPE svg PUBLIC "-//W3C//DTD SVG 1.1//EN"
  "http://www.w3.org/Graphics/SVG/1.1/DTD/svg11.dtd">
<svg xmlns:xlink="http://www.w3.org/1999/xlink" width="460.8pt" height="345.6pt" viewBox="0 0 460.8 345.6" xmlns="http://www.w3.org/2000/svg" version="1.1">
 <metadata>
  <rdf:RDF xmlns:dc="http://purl.org/dc/elements/1.1/" xmlns:cc="http://creativecommons.org/ns#" xmlns:rdf="http://www.w3.org/1999/02/22-rdf-syntax-ns#">
   <cc:Work>
    <dc:type rdf:resource="http://purl.org/dc/dcmitype/StillImage"/>
    <dc:date>2025-12-02T14:57:37.092802</dc:date>
    <dc:format>image/svg+xml</dc:format>
    <dc:creator>
     <cc:Agent>
      <dc:title>Matplotlib v3.10.6, https://matplotlib.org/</dc:title>
     </cc:Agent>
    </dc:creator>
   </cc:Work>
  </rdf:RDF>
 </metadata>
 <defs>
  <style type="text/css">*{stroke-linejoin: round; stroke-linecap: butt}</style>
 </defs>
 <g id="figure_1">
  <g id="patch_1">
   <path d="M 0 345.6 
L 460.8 345.6 
L 460.8 0 
L 0 0 
z
" style="fill: #ffffff"/>
  </g>
  <g id="axes_1">
   <g id="patch_2">
    <path d="M 46.555 317.72 
L 450 317.72 
L 450 10.8 
L 46.555 10.8 
z
" style="fill: #ffffff"/>
   </g>
   <g id="matplotlib.axis_1">
    <g id="xtick_1">
     <g id="line2d_1">
      <path d="M 64.856729 317.72 
L 64.856729 10.8 
" clip-path="url(#pb301918b4c)" style="fill: none; stroke: #b0b0b0; stroke-width: 0.8; stroke-linecap: square"/>
     </g>
     <g id="line2d_2">
      <defs>
       <path id="mde3fcff43d" d="M 0 0 
L 0 3.5 
" style="stroke: #000000; stroke-width: 0.8"/>
      </defs>
      <g>
       <use xlink:href="#mde3fcff43d" x="64.856729" y="317.72" style="stroke: #000000; stroke-width: 0.8"/>
      </g>
     </g>
     <g id="text_1">
      <!-- 0 -->
      <g transform="translate(61.675479 332.318437) scale(0.1 -0.1)">
       <defs>
        <path id="DejaVuSans-30" d="M 2034 4250 
Q 1547 4250 1301 3770 
Q 1056 3291 1056 2328 
Q 1056 1369 1301 889 
Q 1547 409 2034 409 
Q 2525 409 2770 889 
Q 3016 1369 3016 2328 
Q 3016 3291 2770 3770 
Q 2525 4250 2034 4250 
z
M 2034 4750 
Q 2819 4750 3233 4129 
Q 3647 3509 3647 2328 
Q 3647 1150 3233 529 
Q 2819 -91 2034 -91 
Q 1250 -91 836 529 
Q 422 1150 422 2328 
Q 422 3509 836 4129 
Q 1250 4750 2034 4750 
z
" transform="scale(0.015625)"/>
       </defs>
       <use xlink:href="#DejaVuSans-30"/>
      </g>
     </g>
    </g>
    <g id="xtick_2">
     <g id="line2d_3">
      <path d="M 138.217701 317.72 
L 138.217701 10.8 
" clip-path="url(#pb301918b4c)" style="fill: none; stroke: #b0b0b0; stroke-width: 0.8; stroke-linecap: square"/>
     </g>
     <g id="line2d_4">
      <g>
       <use xlink:href="#mde3fcff43d" x="138.217701" y="317.72" style="stroke: #000000; stroke-width: 0.8"/>
      </g>
     </g>
     <g id="text_2">
      <!-- 2000 -->
      <g transform="translate(125.492701 332.318437) scale(0.1 -0.1)">
       <defs>
        <path id="DejaVuSans-32" d="M 1228 531 
L 3431 531 
L 3431 0 
L 469 0 
L 469 531 
Q 828 903 1448 1529 
Q 2069 2156 2228 2338 
Q 2531 2678 2651 2914 
Q 2772 3150 2772 3378 
Q 2772 3750 2511 3984 
Q 2250 4219 1831 4219 
Q 1534 4219 1204 4116 
Q 875 4013 500 3803 
L 500 4441 
Q 881 4594 1212 4672 
Q 1544 4750 1819 4750 
Q 2544 4750 2975 4387 
Q 3406 4025 3406 3419 
Q 3406 3131 3298 2873 
Q 3191 2616 2906 2266 
Q 2828 2175 2409 1742 
Q 1991 1309 1228 531 
z
" transform="scale(0.015625)"/>
       </defs>
       <use xlink:href="#DejaVuSans-32"/>
       <use xlink:href="#DejaVuSans-30" transform="translate(63.623047 0)"/>
       <use xlink:href="#DejaVuSans-30" transform="translate(127.246094 0)"/>
       <use xlink:href="#DejaVuSans-30" transform="translate(190.869141 0)"/>
      </g>
     </g>
    </g>
    <g id="xtick_3">
     <g id="line2d_5">
      <path d="M 211.578674 317.72 
L 211.578674 10.8 
" clip-path="url(#pb301918b4c)" style="fill: none; stroke: #b0b0b0; stroke-width: 0.8; stroke-linecap: square"/>
     </g>
     <g id="line2d_6">
      <g>
       <use xlink:href="#mde3fcff43d" x="211.578674" y="317.72" style="stroke: #000000; stroke-width: 0.8"/>
      </g>
     </g>
     <g id="text_3">
      <!-- 4000 -->
      <g transform="translate(198.853674 332.318437) scale(0.1 -0.1)">
       <defs>
        <path id="DejaVuSans-34" d="M 2419 4116 
L 825 1625 
L 2419 1625 
L 2419 4116 
z
M 2253 4666 
L 3047 4666 
L 3047 1625 
L 3713 1625 
L 3713 1100 
L 3047 1100 
L 3047 0 
L 2419 0 
L 2419 1100 
L 313 1100 
L 313 1709 
L 2253 4666 
z
" transform="scale(0.015625)"/>
       </defs>
       <use xlink:href="#DejaVuSans-34"/>
       <use xlink:href="#DejaVuSans-30" transform="translate(63.623047 0)"/>
       <use xlink:href="#DejaVuSans-30" transform="translate(127.246094 0)"/>
       <use xlink:href="#DejaVuSans-30" transform="translate(190.869141 0)"/>
      </g>
     </g>
    </g>
    <g id="xtick_4">
     <g id="line2d_7">
      <path d="M 284.939646 317.72 
L 284.939646 10.8 
" clip-path="url(#pb301918b4c)" style="fill: none; stroke: #b0b0b0; stroke-width: 0.8; stroke-linecap: square"/>
     </g>
     <g id="line2d_8">
      <g>
       <use xlink:href="#mde3fcff43d" x="284.939646" y="317.72" style="stroke: #000000; stroke-width: 0.8"/>
      </g>
     </g>
     <g id="text_4">
      <!-- 6000 -->
      <g transform="translate(272.214646 332.318437) scale(0.1 -0.1)">
       <defs>
        <path id="DejaVuSans-36" d="M 2113 2584 
Q 1688 2584 1439 2293 
Q 1191 2003 1191 1497 
Q 1191 994 1439 701 
Q 1688 409 2113 409 
Q 2538 409 2786 701 
Q 3034 994 3034 1497 
Q 3034 2003 2786 2293 
Q 2538 2584 2113 2584 
z
M 3366 4563 
L 3366 3988 
Q 3128 4100 2886 4159 
Q 2644 4219 2406 4219 
Q 1781 4219 1451 3797 
Q 1122 3375 1075 2522 
Q 1259 2794 1537 2939 
Q 1816 3084 2150 3084 
Q 2853 3084 3261 2657 
Q 3669 2231 3669 1497 
Q 3669 778 3244 343 
Q 2819 -91 2113 -91 
Q 1303 -91 875 529 
Q 447 1150 447 2328 
Q 447 3434 972 4092 
Q 1497 4750 2381 4750 
Q 2619 4750 2861 4703 
Q 3103 4656 3366 4563 
z
" transform="scale(0.015625)"/>
       </defs>
       <use xlink:href="#DejaVuSans-36"/>
       <use xlink:href="#DejaVuSans-30" transform="translate(63.623047 0)"/>
       <use xlink:href="#DejaVuSans-30" transform="translate(127.246094 0)"/>
       <use xlink:href="#DejaVuSans-30" transform="translate(190.869141 0)"/>
      </g>
     </g>
    </g>
    <g id="xtick_5">
     <g id="line2d_9">
      <path d="M 358.300618 317.72 
L 358.300618 10.8 
" clip-path="url(#pb301918b4c)" style="fill: none; stroke: #b0b0b0; stroke-width: 0.8; stroke-linecap: square"/>
     </g>
     <g id="line2d_10">
      <g>
       <use xlink:href="#mde3fcff43d" x="358.300618" y="317.72" style="stroke: #000000; stroke-width: 0.8"/>
      </g>
     </g>
     <g id="text_5">
      <!-- 8000 -->
      <g transform="translate(345.575618 332.318437) scale(0.1 -0.1)">
       <defs>
        <path id="DejaVuSans-38" d="M 2034 2216 
Q 1584 2216 1326 1975 
Q 1069 1734 1069 1313 
Q 1069 891 1326 650 
Q 1584 409 2034 409 
Q 2484 409 2743 651 
Q 3003 894 3003 1313 
Q 3003 1734 2745 1975 
Q 2488 2216 2034 2216 
z
M 1403 2484 
Q 997 2584 770 2862 
Q 544 3141 544 3541 
Q 544 4100 942 4425 
Q 1341 4750 2034 4750 
Q 2731 4750 3128 4425 
Q 3525 4100 3525 3541 
Q 3525 3141 3298 2862 
Q 3072 2584 2669 2484 
Q 3125 2378 3379 2068 
Q 3634 1759 3634 1313 
Q 3634 634 3220 271 
Q 2806 -91 2034 -91 
Q 1263 -91 848 271 
Q 434 634 434 1313 
Q 434 1759 690 2068 
Q 947 2378 1403 2484 
z
M 1172 3481 
Q 1172 3119 1398 2916 
Q 1625 2713 2034 2713 
Q 2441 2713 2670 2916 
Q 2900 3119 2900 3481 
Q 2900 3844 2670 4047 
Q 2441 4250 2034 4250 
Q 1625 4250 1398 4047 
Q 1172 3844 1172 3481 
z
" transform="scale(0.015625)"/>
       </defs>
       <use xlink:href="#DejaVuSans-38"/>
       <use xlink:href="#DejaVuSans-30" transform="translate(63.623047 0)"/>
       <use xlink:href="#DejaVuSans-30" transform="translate(127.246094 0)"/>
       <use xlink:href="#DejaVuSans-30" transform="translate(190.869141 0)"/>
      </g>
     </g>
    </g>
    <g id="xtick_6">
     <g id="line2d_11">
      <path d="M 431.661591 317.72 
L 431.661591 10.8 
" clip-path="url(#pb301918b4c)" style="fill: none; stroke: #b0b0b0; stroke-width: 0.8; stroke-linecap: square"/>
     </g>
     <g id="line2d_12">
      <g>
       <use xlink:href="#mde3fcff43d" x="431.661591" y="317.72" style="stroke: #000000; stroke-width: 0.8"/>
      </g>
     </g>
     <g id="text_6">
      <!-- 10000 -->
      <g transform="translate(415.755341 332.318437) scale(0.1 -0.1)">
       <defs>
        <path id="DejaVuSans-31" d="M 794 531 
L 1825 531 
L 1825 4091 
L 703 3866 
L 703 4441 
L 1819 4666 
L 2450 4666 
L 2450 531 
L 3481 531 
L 3481 0 
L 794 0 
L 794 531 
z
" transform="scale(0.015625)"/>
       </defs>
       <use xlink:href="#DejaVuSans-31"/>
       <use xlink:href="#DejaVuSans-30" transform="translate(63.623047 0)"/>
       <use xlink:href="#DejaVuSans-30" transform="translate(127.246094 0)"/>
       <use xlink:href="#DejaVuSans-30" transform="translate(190.869141 0)"/>
       <use xlink:href="#DejaVuSans-30" transform="translate(254.492188 0)"/>
      </g>
     </g>
    </g>
   </g>
   <g id="matplotlib.axis_2">
    <g id="ytick_1">
     <g id="line2d_13">
      <path d="M 46.555 303.787806 
L 450 303.787806 
" clip-path="url(#pb301918b4c)" style="fill: none; stroke: #b0b0b0; stroke-width: 0.8; stroke-linecap: square"/>
     </g>
     <g id="line2d_14">
      <defs>
       <path id="mbbbc1740e2" d="M 0 0 
L -3.5 0 
" style="stroke: #000000; stroke-width: 0.8"/>
      </defs>
      <g>
       <use xlink:href="#mbbbc1740e2" x="46.555" y="303.787806" style="stroke: #000000; stroke-width: 0.8"/>
      </g>
     </g>
     <g id="text_7">
      <!-- 0.000 -->
      <g transform="translate(10.926875 307.587025) scale(0.1 -0.1)">
       <defs>
        <path id="DejaVuSans-2e" d="M 684 794 
L 1344 794 
L 1344 0 
L 684 0 
L 684 794 
z
" transform="scale(0.015625)"/>
       </defs>
       <use xlink:href="#DejaVuSans-30"/>
       <use xlink:href="#DejaVuSans-2e" transform="translate(63.623047 0)"/>
       <use xlink:href="#DejaVuSans-30" transform="translate(95.410156 0)"/>
       <use xlink:href="#DejaVuSans-30" transform="translate(159.033203 0)"/>
       <use xlink:href="#DejaVuSans-30" transform="translate(222.65625 0)"/>
      </g>
     </g>
    </g>
    <g id="ytick_2">
     <g id="line2d_15">
      <path d="M 46.555 254.726982 
L 450 254.726982 
" clip-path="url(#pb301918b4c)" style="fill: none; stroke: #b0b0b0; stroke-width: 0.8; stroke-linecap: square"/>
     </g>
     <g id="line2d_16">
      <g>
       <use xlink:href="#mbbbc1740e2" x="46.555" y="254.726982" style="stroke: #000000; stroke-width: 0.8"/>
      </g>
     </g>
     <g id="text_8">
      <!-- 0.005 -->
      <g transform="translate(10.926875 258.526201) scale(0.1 -0.1)">
       <defs>
        <path id="DejaVuSans-35" d="M 691 4666 
L 3169 4666 
L 3169 4134 
L 1269 4134 
L 1269 2991 
Q 1406 3038 1543 3061 
Q 1681 3084 1819 3084 
Q 2600 3084 3056 2656 
Q 3513 2228 3513 1497 
Q 3513 744 3044 326 
Q 2575 -91 1722 -91 
Q 1428 -91 1123 -41 
Q 819 9 494 109 
L 494 744 
Q 775 591 1075 516 
Q 1375 441 1709 441 
Q 2250 441 2565 725 
Q 2881 1009 2881 1497 
Q 2881 1984 2565 2268 
Q 2250 2553 1709 2553 
Q 1456 2553 1204 2497 
Q 953 2441 691 2322 
L 691 4666 
z
" transform="scale(0.015625)"/>
       </defs>
       <use xlink:href="#DejaVuSans-30"/>
       <use xlink:href="#DejaVuSans-2e" transform="translate(63.623047 0)"/>
       <use xlink:href="#DejaVuSans-30" transform="translate(95.410156 0)"/>
       <use xlink:href="#DejaVuSans-30" transform="translate(159.033203 0)"/>
       <use xlink:href="#DejaVuSans-35" transform="translate(222.65625 0)"/>
      </g>
     </g>
    </g>
    <g id="ytick_3">
     <g id="line2d_17">
      <path d="M 46.555 205.666159 
L 450 205.666159 
" clip-path="url(#pb301918b4c)" style="fill: none; stroke: #b0b0b0; stroke-width: 0.8; stroke-linecap: square"/>
     </g>
     <g id="line2d_18">
      <g>
       <use xlink:href="#mbbbc1740e2" x="46.555" y="205.666159" style="stroke: #000000; stroke-width: 0.8"/>
      </g>
     </g>
     <g id="text_9">
      <!-- 0.010 -->
      <g transform="translate(10.926875 209.465378) scale(0.1 -0.1)">
       <use xlink:href="#DejaVuSans-30"/>
       <use xlink:href="#DejaVuSans-2e" transform="translate(63.623047 0)"/>
       <use xlink:href="#DejaVuSans-30" transform="translate(95.410156 0)"/>
       <use xlink:href="#DejaVuSans-31" transform="translate(159.033203 0)"/>
       <use xlink:href="#DejaVuSans-30" transform="translate(222.65625 0)"/>
      </g>
     </g>
    </g>
    <g id="ytick_4">
     <g id="line2d_19">
      <path d="M 46.555 156.605335 
L 450 156.605335 
" clip-path="url(#pb301918b4c)" style="fill: none; stroke: #b0b0b0; stroke-width: 0.8; stroke-linecap: square"/>
     </g>
     <g id="line2d_20">
      <g>
       <use xlink:href="#mbbbc1740e2" x="46.555" y="156.605335" style="stroke: #000000; stroke-width: 0.8"/>
      </g>
     </g>
     <g id="text_10">
      <!-- 0.015 -->
      <g transform="translate(10.926875 160.404554) scale(0.1 -0.1)">
       <use xlink:href="#DejaVuSans-30"/>
       <use xlink:href="#DejaVuSans-2e" transform="translate(63.623047 0)"/>
       <use xlink:href="#DejaVuSans-30" transform="translate(95.410156 0)"/>
       <use xlink:href="#DejaVuSans-31" transform="translate(159.033203 0)"/>
       <use xlink:href="#DejaVuSans-35" transform="translate(222.65625 0)"/>
      </g>
     </g>
    </g>
    <g id="ytick_5">
     <g id="line2d_21">
      <path d="M 46.555 107.544511 
L 450 107.544511 
" clip-path="url(#pb301918b4c)" style="fill: none; stroke: #b0b0b0; stroke-width: 0.8; stroke-linecap: square"/>
     </g>
     <g id="line2d_22">
      <g>
       <use xlink:href="#mbbbc1740e2" x="46.555" y="107.544511" style="stroke: #000000; stroke-width: 0.8"/>
      </g>
     </g>
     <g id="text_11">
      <!-- 0.020 -->
      <g transform="translate(10.926875 111.34373) scale(0.1 -0.1)">
       <use xlink:href="#DejaVuSans-30"/>
       <use xlink:href="#DejaVuSans-2e" transform="translate(63.623047 0)"/>
       <use xlink:href="#DejaVuSans-30" transform="translate(95.410156 0)"/>
       <use xlink:href="#DejaVuSans-32" transform="translate(159.033203 0)"/>
       <use xlink:href="#DejaVuSans-30" transform="translate(222.65625 0)"/>
      </g>
     </g>
    </g>
    <g id="ytick_6">
     <g id="line2d_23">
      <path d="M 46.555 58.483688 
L 450 58.483688 
" clip-path="url(#pb301918b4c)" style="fill: none; stroke: #b0b0b0; stroke-width: 0.8; stroke-linecap: square"/>
     </g>
     <g id="line2d_24">
      <g>
       <use xlink:href="#mbbbc1740e2" x="46.555" y="58.483688" style="stroke: #000000; stroke-width: 0.8"/>
      </g>
     </g>
     <g id="text_12">
      <!-- 0.025 -->
      <g transform="translate(10.926875 62.282906) scale(0.1 -0.1)">
       <use xlink:href="#DejaVuSans-30"/>
       <use xlink:href="#DejaVuSans-2e" transform="translate(63.623047 0)"/>
       <use xlink:href="#DejaVuSans-30" transform="translate(95.410156 0)"/>
       <use xlink:href="#DejaVuSans-32" transform="translate(159.033203 0)"/>
       <use xlink:href="#DejaVuSans-35" transform="translate(222.65625 0)"/>
      </g>
     </g>
    </g>
   </g>
   <g id="line2d_25">
    <path d="M 64.893409 303.738679 
L 67.094238 303.769091 
L 81.032823 303.221671 
L 84.700872 302.943282 
L 85.434481 302.973694 
L 85.801286 302.875439 
L 86.168091 302.917548 
L 86.534896 302.786542 
L 86.901701 302.838009 
L 87.635311 302.690626 
L 88.36892 302.620444 
L 88.735725 302.669572 
L 89.469335 302.531547 
L 90.569749 302.423935 
L 91.670164 302.28591 
L 92.036969 302.32568 
L 92.770579 302.171279 
L 94.971408 301.923302 
L 95.338213 301.942018 
L 96.071822 301.766562 
L 96.805432 301.677665 
L 97.172237 301.530283 
L 98.639456 301.511568 
L 100.106676 301.2285 
L 100.473481 301.256573 
L 100.840286 301.125566 
L 101.20709 301.158318 
L 104.141529 300.610898 
L 104.875139 300.578146 
L 105.645429 300.372279 
L 106.012234 300.257648 
L 106.379039 300.302097 
L 107.479454 300.040084 
L 108.579868 299.911416 
L 108.946673 299.675137 
L 109.313478 299.724264 
L 109.680283 299.616652 
L 110.047088 299.693852 
L 110.413893 299.537112 
L 110.780697 299.569864 
L 111.147502 299.333584 
L 111.881112 299.354639 
L 112.614722 299.050516 
L 112.981527 299.155789 
L 113.348331 298.980334 
L 113.715136 298.999049 
L 114.081941 298.844649 
L 114.448746 298.854007 
L 114.815551 298.6458 
L 115.915965 298.393144 
L 116.28277 298.205992 
L 116.649575 297.740451 
L 117.01638 297.967373 
L 117.383185 298.0165 
L 117.74999 297.929943 
L 118.116795 297.457383 
L 118.483599 297.78256 
L 118.850404 297.635178 
L 119.217209 297.616463 
L 119.584014 297.251516 
L 120.317624 297.349771 
L 120.684429 297.069043 
L 121.051234 297.19537 
L 121.418038 296.900606 
L 121.784843 296.996521 
L 122.518453 296.839781 
L 122.885258 296.626895 
L 123.618868 296.535659 
L 123.985672 296.498228 
L 124.352477 296.252591 
L 124.719282 296.304058 
L 125.086087 296.072457 
L 125.452892 295.988239 
L 125.819697 296.421028 
L 126.186502 296.554374 
L 126.920111 296.084154 
L 128.020526 295.634989 
L 128.387331 295.681777 
L 128.754136 295.387012 
L 129.12094 295.408067 
L 129.487745 295.183484 
L 130.221355 295.174127 
L 130.58816 294.989314 
L 130.954965 295.00569 
L 135.356623 293.721358 
L 136.457038 293.35875 
L 137.190647 293.162241 
L 138.291062 292.846421 
L 138.657867 292.652251 
L 139.391477 292.600784 
L 139.758281 292.261571 
L 140.125086 292.268589 
L 140.491891 291.976164 
L 140.858696 292.02997 
L 141.592306 291.777314 
L 144.15994 291.028706 
L 144.526745 290.836875 
L 144.89355 290.804123 
L 145.627159 290.317527 
L 145.993964 290.404085 
L 146.764254 290.195878 
L 147.131059 289.95258 
L 148.598279 289.589973 
L 148.965084 289.199293 
L 149.331888 290.041478 
L 149.698693 285.105339 
L 150.065498 271.83157 
L 150.432303 277.483566 
L 150.799108 276.872982 
L 151.165913 288.256514 
L 151.899522 275.214346 
L 152.266327 276.718581 
L 152.633132 287.872852 
L 152.999937 284.712319 
L 153.366742 282.719148 
L 153.733547 277.088207 
L 154.100352 283.566012 
L 154.467156 286.960485 
L 154.833961 287.664645 
L 155.200766 287.21548 
L 155.567571 287.17571 
L 157.401595 286.368616 
L 157.7684 286.321828 
L 158.868815 285.734638 
L 159.23562 285.704226 
L 159.602425 285.517074 
L 160.336034 285.350976 
L 161.069644 284.90649 
L 161.436449 284.936902 
L 162.170059 284.527506 
L 162.536863 284.546222 
L 162.903668 284.232742 
L 163.637278 283.989444 
L 164.004083 283.640873 
L 164.737693 283.420969 
L 165.104497 283.49583 
L 166.571717 282.850155 
L 166.938522 282.723827 
L 167.305327 282.445438 
L 168.038936 282.24191 
L 168.405741 281.916733 
L 168.772546 281.907376 
L 169.872961 281.397386 
L 170.239766 281.336562 
L 170.60657 281.093264 
L 170.973375 281.034779 
L 171.706985 280.583274 
L 172.07379 280.356352 
L 172.440595 280.454607 
L 173.174204 280.042872 
L 173.907814 279.720034 
L 174.274619 279.560955 
L 174.641424 279.10945 
L 175.375034 279.081378 
L 176.108643 278.709413 
L 176.842253 278.510563 
L 177.575863 278.061398 
L 177.942668 278.519921 
L 178.676277 277.874246 
L 179.409887 277.198159 
L 179.776692 277.109261 
L 180.510302 276.550144 
L 180.877107 276.596932 
L 181.243911 276.196895 
L 182.344326 275.892772 
L 184.545155 274.772198 
L 184.91196 274.685641 
L 185.278765 274.402573 
L 185.64557 274.292621 
L 186.012375 273.997856 
L 187.14947 273.536994 
L 190.450713 271.780103 
L 190.817518 271.721618 
L 191.551128 271.340295 
L 191.917933 271.171858 
L 192.284738 270.818608 
L 192.651543 270.818608 
L 193.018347 270.514486 
L 193.751957 270.250134 
L 194.485567 269.571707 
L 194.852372 269.590422 
L 195.585982 269.258227 
L 196.686396 268.58214 
L 197.053201 268.514297 
L 199.620835 267.031116 
L 200.354445 266.726994 
L 200.72125 266.394799 
L 201.088054 266.352689 
L 201.454859 266.053246 
L 201.821664 265.924579 
L 202.188469 265.440322 
L 202.555274 265.522201 
L 204.022493 264.644926 
L 204.389298 263.96182 
L 204.756103 264.296355 
L 205.489713 263.833153 
L 205.856518 263.154726 
L 206.223323 263.440133 
L 206.590127 262.990968 
L 206.956932 262.969913 
L 207.323737 262.637718 
L 208.057347 262.399099 
L 208.424152 261.996722 
L 208.790957 261.938237 
L 209.157761 261.6926 
L 209.524566 261.044585 
L 209.891371 259.800023 
L 210.258176 260.445698 
L 210.991786 259.879563 
L 211.358591 260.927615 
L 211.725395 260.389553 
L 212.0922 260.193043 
L 212.459005 259.671356 
L 212.82581 259.633926 
L 213.192615 259.327464 
L 213.55942 259.268979 
L 213.926225 257.238378 
L 214.29303 256.967007 
L 214.659834 258.513352 
L 215.026639 241.852128 
L 215.393444 210.415239 
L 215.760249 238.506783 
L 216.127054 228.978397 
L 216.493859 257.317917 
L 216.860664 257.219662 
L 217.961078 256.347065 
L 218.327883 256.199683 
L 218.694688 255.727124 
L 219.061493 255.699051 
L 219.428298 255.376213 
L 219.795102 255.254564 
L 220.161907 254.934066 
L 220.528712 254.814757 
L 221.995932 253.864959 
L 222.362736 253.698862 
L 222.729541 253.3152 
L 223.096346 253.216945 
L 225.297175 251.841376 
L 225.66398 251.429642 
L 226.030785 251.31969 
L 227.1312 250.468147 
L 227.498005 250.400305 
L 228.268295 249.83183 
L 228.6351 249.880957 
L 229.001904 249.761648 
L 229.368709 249.153403 
L 230.102319 248.809511 
L 230.469124 248.416491 
L 230.835929 247.857374 
L 231.202734 246.219792 
L 231.569539 245.740215 
L 231.936343 247.967326 
L 232.303148 247.445639 
L 232.669953 247.672561 
L 233.036758 246.690012 
L 233.403563 246.523915 
L 233.770368 247.663204 
L 234.137173 245.964798 
L 234.503977 245.571778 
L 234.870782 245.534348 
L 235.237587 245.022018 
L 235.604392 245.44545 
L 235.971197 245.44545 
L 236.338002 244.526065 
L 236.704807 244.345931 
L 237.438416 243.433564 
L 238.538831 242.963344 
L 238.905636 242.596058 
L 239.272441 242.422942 
L 239.639245 241.959741 
L 240.00605 241.84511 
L 240.372855 241.578418 
L 240.73966 241.145629 
L 241.47327 240.724536 
L 241.840075 240.469541 
L 242.20688 240.371287 
L 242.573684 239.950194 
L 243.307294 239.498689 
L 243.674099 239.178191 
L 244.040904 239.0659 
L 245.141318 237.975739 
L 245.508123 237.861108 
L 245.874928 237.594416 
L 246.241733 236.986171 
L 246.608538 237.114838 
L 246.975343 236.740534 
L 247.342148 236.691407 
L 247.708952 236.057429 
L 248.075757 235.867937 
L 248.442562 237.234148 
L 248.809367 235.495972 
L 249.542977 234.873691 
L 250.276586 234.366041 
L 252.110611 232.976436 
L 253.211025 232.071087 
L 253.57783 231.226563 
L 253.944635 229.048579 
L 254.31144 231.402018 
L 256.145464 229.881406 
L 256.879074 226.732571 
L 257.245879 226.351248 
L 257.979489 230.64873 
L 258.346293 229.439259 
L 259.079903 229.008809 
L 259.446708 227.251918 
L 259.813513 226.987566 
L 260.180318 226.475236 
L 260.547123 226.526703 
L 261.647537 225.555851 
L 263.481562 224.133495 
L 264.215171 223.64222 
L 264.948781 223.064388 
L 265.315586 222.407016 
L 265.682391 222.392979 
L 266.049196 222.238579 
L 266.416 221.522722 
L 266.782805 221.522722 
L 267.516415 220.619712 
L 268.250025 220.348342 
L 269.020315 219.599733 
L 269.38712 218.930664 
L 269.753925 219.108458 
L 270.12073 218.893233 
L 270.854339 217.980866 
L 271.587949 217.608901 
L 271.954754 217.087215 
L 272.321559 216.998317 
L 274.522388 214.789922 
L 274.889193 213.996864 
L 275.255998 210.728719 
L 275.622802 209.00458 
L 275.989607 214.722079 
L 276.356412 213.828427 
L 276.723217 212.406071 
L 277.090022 212.850557 
L 277.456827 212.230615 
L 277.823632 212.190846 
L 278.190437 211.907778 
L 278.557241 212.700835 
L 278.924046 211.093666 
L 279.290851 210.328681 
L 279.657656 210.464367 
L 280.758071 209.619842 
L 281.124875 208.96247 
L 281.858485 208.64899 
L 282.592095 207.961206 
L 284.426119 206.609031 
L 285.159729 205.586713 
L 285.526534 204.594806 
L 285.893339 207.011409 
L 286.260143 207.530756 
L 286.626948 205.303645 
L 286.993753 204.73517 
L 287.360558 203.820464 
L 287.727363 204.194768 
L 288.094168 204.204126 
L 288.460973 204.634576 
L 288.827778 203.01337 
L 289.194582 202.164167 
L 289.928192 201.406201 
L 290.294997 201.233085 
L 290.661802 200.711398 
L 291.028607 200.564016 
L 292.862631 198.905379 
L 293.229436 198.014067 
L 293.596241 200.100814 
L 293.963046 198.060855 
L 294.32985 196.708681 
L 294.696655 198.74864 
L 295.06346 197.052573 
L 295.430265 197.983655 
L 295.79707 197.33564 
L 296.163875 196.264194 
L 296.53068 195.677004 
L 296.897484 195.305039 
L 297.264289 191.781899 
L 297.997899 196.140206 
L 298.364704 193.821858 
L 299.098314 192.841649 
L 299.465119 192.647478 
L 299.831923 192.202992 
L 300.198728 192.076664 
L 300.565533 191.477777 
L 300.932338 191.468419 
L 301.299143 190.832102 
L 302.032753 190.242572 
L 302.399557 189.954826 
L 303.133167 189.220254 
L 305.333996 186.983785 
L 305.700801 183.783483 
L 306.067606 186.256231 
L 306.434411 185.912339 
L 306.801216 185.362579 
L 307.168021 185.341524 
L 307.90163 184.508697 
L 308.268435 184.864286 
L 308.63524 183.746052 
L 309.40553 183.058268 
L 310.13914 182.314338 
L 310.87275 181.785633 
L 313.073579 179.350315 
L 313.807189 178.517488 
L 314.173994 177.808649 
L 314.540798 179.01578 
L 314.907603 177.682321 
L 315.274408 176.90564 
L 315.641213 176.819082 
L 316.008018 176.180425 
L 316.374823 176.00497 
L 316.741628 175.473925 
L 317.108432 175.434155 
L 317.475237 174.914808 
L 317.842042 171.520335 
L 318.208847 174.039872 
L 318.575652 173.866756 
L 319.309262 172.87251 
L 319.676066 173.188329 
L 320.042871 172.725127 
L 320.409676 170.301507 
L 320.776481 171.167086 
L 321.143286 169.508449 
L 321.510091 170.577556 
L 321.876896 170.224306 
L 322.2437 167.536333 
L 322.610505 169.438267 
L 323.71092 168.397233 
L 324.44453 167.7422 
L 324.811335 167.110562 
L 325.178139 166.907034 
L 325.544944 166.289432 
L 325.911749 166.144389 
L 326.278554 165.444907 
L 326.645359 165.377065 
L 327.012164 164.96533 
L 327.745773 161.977913 
L 328.479383 161.109995 
L 328.846188 160.756745 
L 329.579798 159.795251 
L 330.313407 158.864168 
L 330.680212 158.730822 
L 331.047017 158.204457 
L 331.413822 158.499222 
L 331.780627 157.388006 
L 332.147432 158.007947 
L 332.514237 156.527105 
L 333.614651 155.397174 
L 333.981456 154.328067 
L 334.348261 152.758328 
L 334.715066 154.131557 
L 335.081871 153.747895 
L 335.448676 148.636301 
L 335.81548 151.504409 
L 336.182285 152.522049 
L 336.54909 151.817888 
L 336.915895 151.845961 
L 337.2827 151.560554 
L 337.649505 150.837679 
L 338.01631 150.435302 
L 338.383114 149.747517 
L 339.116724 149.382571 
L 339.850334 148.325161 
L 340.217139 148.233924 
L 340.950748 146.928538 
L 341.317553 146.928538 
L 342.051163 145.70503 
L 342.417968 145.450035 
L 342.784773 144.624226 
L 343.151578 144.605511 
L 343.518382 144.418359 
L 343.885187 143.896672 
L 344.251992 144.046394 
L 344.618797 142.645092 
L 344.985602 137.814226 
L 345.352407 142.310557 
L 345.719212 137.273824 
L 346.086017 140.481145 
L 346.452821 136.548609 
L 346.819626 140.406284 
L 347.186431 140.034319 
L 347.553236 137.882069 
L 347.920041 139.374607 
L 349.020455 137.657486 
L 349.38726 126.442391 
L 349.754065 133.586926 
L 350.157551 136.265541 
L 350.524355 136.069032 
L 350.89116 133.133082 
L 351.257965 109.329663 
L 351.62477 135.783625 
L 351.991575 134.461862 
L 352.35838 134.03843 
L 352.725185 135.060749 
L 353.091989 135.659636 
L 353.458794 135.231526 
L 353.825599 135.009282 
L 354.192404 134.656033 
L 354.559209 133.397434 
L 354.926014 133.862975 
L 356.026428 132.545892 
L 356.393233 132.103745 
L 356.760038 131.486142 
L 357.126843 131.308348 
L 357.493648 130.632261 
L 358.227257 129.916403 
L 358.594062 128.24841 
L 358.960867 129.015734 
L 359.327672 128.561889 
L 359.694477 125.244617 
L 360.061282 127.85539 
L 360.428087 127.237788 
L 360.794892 126.87518 
L 361.161696 125.480897 
L 361.528501 127.422601 
L 361.895306 124.772058 
L 362.262111 124.88201 
L 362.628916 124.245692 
L 362.995721 124.117025 
L 363.72933 123.146173 
L 364.46294 122.558983 
L 364.829745 121.389282 
L 365.19655 121.27933 
L 365.93016 120.10495 
L 366.296964 120.33889 
L 366.663769 119.330608 
L 367.030574 119.407808 
L 367.397379 118.769151 
L 368.130989 118.179622 
L 368.497794 117.20877 
L 368.864598 117.40528 
L 369.231403 116.591168 
L 369.598208 115.365321 
L 370.331818 115.344266 
L 370.698623 115.6016 
L 371.065428 113.7254 
L 371.432233 114.111401 
L 371.799037 113.079725 
L 372.532647 111.949793 
L 372.899452 111.666726 
L 373.266257 110.499364 
L 373.633062 110.819862 
L 373.999867 110.567206 
L 374.366671 109.937907 
L 375.100281 108.995128 
L 375.467086 108.211428 
L 375.833891 108.417296 
L 376.200696 107.121267 
L 376.567501 107.114248 
L 376.934305 106.150415 
L 377.30111 106.09193 
L 377.667915 105.62171 
L 378.03472 103.656612 
L 378.401525 99.050329 
L 378.76833 104.150226 
L 379.135135 102.982864 
L 379.501939 102.795712 
L 379.868744 102.185128 
L 380.235549 101.892702 
L 380.602354 102.746584 
L 380.969159 101.167488 
L 381.335964 100.107738 
L 381.702769 94.886192 
L 382.069574 99.293626 
L 382.803183 99.057347 
L 383.169988 98.191768 
L 383.536793 97.9859 
L 383.903598 96.965921 
L 384.637208 96.329604 
L 385.737622 94.66161 
L 386.104427 93.215859 
L 386.471232 91.000445 
L 386.838037 92.549129 
L 387.204842 92.612293 
L 387.571646 92.359638 
L 387.938451 91.000445 
L 388.305256 90.892832 
L 388.672061 90.382843 
L 389.038866 90.137205 
L 389.772476 88.979201 
L 390.506085 88.055137 
L 391.276376 87.095982 
L 391.64318 86.604708 
L 392.009985 86.862042 
L 392.37679 85.004557 
L 393.1104 83.888662 
L 393.477205 81.022894 
L 393.84401 83.505 
L 394.210814 83.603255 
L 394.577619 82.943543 
L 395.311229 80.17837 
L 395.678034 79.441458 
L 396.044839 79.312791 
L 396.411644 79.020365 
L 397.512058 77.029534 
L 398.245668 76.292622 
L 398.612473 75.36154 
L 398.979278 75.146315 
L 399.346083 76.135882 
L 399.712887 73.730977 
L 400.079692 74.123996 
L 400.813302 72.378802 
L 401.180107 71.202083 
L 401.546912 71.024288 
L 402.280521 69.866284 
L 402.647326 70.299073 
L 403.014131 69.601931 
L 403.380936 69.248682 
L 403.747741 68.62874 
L 404.481351 67.903525 
L 404.848155 66.263604 
L 405.21496 66.294016 
L 405.581765 65.1056 
L 406.315375 64.3219 
L 406.68218 64.862302 
L 407.048985 63.800214 
L 407.41579 63.182611 
L 407.782594 63.082017 
L 408.516204 61.053755 
L 408.883009 61.280677 
L 409.249814 60.033776 
L 409.616619 59.809193 
L 409.983424 58.60908 
L 410.350228 58.943614 
L 410.717033 58.103769 
L 411.083838 51.303126 
L 411.450643 48.299333 
L 411.817448 49.887788 
L 412.551058 55.743312 
L 412.917862 54.391137 
L 413.284667 53.733765 
L 413.651472 53.616795 
L 414.018277 53.350103 
L 414.385082 52.566403 
L 414.751887 50.760385 
L 415.118692 46.90505 
L 415.485496 49.003494 
L 415.852301 48.690014 
L 416.585911 47.277015 
L 416.952716 47.150687 
L 417.686326 45.040546 
L 418.053131 45.590305 
L 418.419935 44.551611 
L 418.78674 44.308313 
L 419.153545 43.34214 
L 419.52035 44.886145 
L 419.887155 42.588852 
L 420.25396 43.089484 
L 420.620765 42.874259 
L 420.987569 39.26924 
L 421.354374 41.332593 
L 421.721179 41.400436 
L 422.087984 38.466825 
L 422.454789 38.60485 
L 422.821594 37.809453 
L 423.188399 36.611679 
L 423.555203 36.396454 
L 423.922008 35.898161 
L 424.288813 34.405623 
L 424.655618 34.157646 
L 425.022423 34.159985 
L 425.389228 33.607886 
L 425.756033 32.826526 
L 426.122837 28.762984 
L 426.489642 26.007168 
L 426.856447 30.206395 
L 427.590057 30.77721 
L 427.956862 31.865032 
L 428.323667 31.04858 
L 428.690472 29.088161 
L 429.057276 29.223846 
L 429.424081 28.891651 
L 429.790886 27.534798 
L 430.157691 27.380397 
L 430.524496 25.897216 
L 430.891301 25.885519 
L 431.661591 24.750909 
L 431.661591 24.750909 
" clip-path="url(#pb301918b4c)" style="fill: none; stroke: #1f77b4; stroke-width: 1.5; stroke-linecap: square"/>
   </g>
   <g id="line2d_26">
    <path d="M 64.893409 292.504868 
L 65.260214 303.602993 
L 66.360629 303.680194 
L 66.727433 303.563224 
L 67.461043 303.628727 
L 67.827848 303.642763 
L 68.194653 303.474326 
L 68.561458 303.619369 
L 68.928263 303.640424 
L 69.295067 303.464969 
L 69.661872 303.621709 
L 70.028677 303.406484 
L 70.395482 303.612351 
L 70.762287 303.406484 
L 71.129092 303.598315 
L 71.495897 303.602993 
L 72.229506 303.364374 
L 72.596311 303.289513 
L 72.963116 303.638084 
L 73.329921 303.266119 
L 73.696726 303.563224 
L 74.063531 303.289513 
L 74.79714 303.130434 
L 75.163945 303.570242 
L 75.53075 303.453272 
L 75.897555 303.071949 
L 76.26436 303.572581 
L 76.631165 303.170204 
L 77.731579 303.130434 
L 78.465189 303.535151 
L 78.831994 303.109379 
L 79.198799 303.397126 
L 79.565604 303.376071 
L 79.932408 302.91287 
L 80.299213 303.453272 
L 80.666018 303.474326 
L 81.032823 302.933924 
L 81.399628 303.404144 
L 81.766433 302.926906 
L 82.133238 302.933924 
L 82.500042 303.413502 
L 82.866847 303.219331 
L 83.233652 303.483684 
L 83.600457 302.856724 
L 83.967262 300.863553 
L 84.334067 302.629802 
L 84.700872 303.296532 
L 85.067677 302.816954 
L 85.434481 303.277816 
L 85.801286 302.814615 
L 86.168091 303.404144 
L 86.534896 302.601729 
L 86.901701 302.814615 
L 87.268506 303.345659 
L 88.002115 303.06961 
L 88.36892 303.259101 
L 88.735725 302.590032 
L 89.469335 302.601729 
L 89.83614 302.728057 
L 90.202945 302.414577 
L 90.569749 302.59939 
L 90.936554 303.385429 
L 91.670164 302.494117 
L 92.036969 302.24614 
L 92.403774 303.062591 
L 92.770579 303.366714 
L 93.137383 303.022822 
L 93.504188 302.356092 
L 93.870993 303.259101 
L 94.237798 302.082382 
L 94.604603 301.81569 
L 95.338213 302.395862 
L 95.705018 303.100022 
L 96.071822 303.443914 
L 96.438627 302.299946 
L 96.805432 302.304625 
L 97.172237 302.180637 
L 97.539042 302.618105 
L 97.905847 301.50221 
L 98.272652 302.0122 
L 98.639456 301.883533 
L 99.006261 302.073024 
L 99.373066 303.308229 
L 99.739871 302.199352 
L 100.106676 302.657875 
L 100.473481 301.883533 
L 100.840286 302.896494 
L 101.20709 301.942018 
L 101.573895 303.151489 
L 101.9407 302.884797 
L 102.67431 301.474137 
L 103.041115 301.923302 
L 103.40792 301.680005 
L 103.774724 302.746772 
L 104.141529 301.754865 
L 104.508334 301.184051 
L 104.875139 301.54198 
L 105.241944 302.749111 
L 105.645429 303.209974 
L 106.012234 301.803993 
L 106.379039 302.709342 
L 106.745844 301.834405 
L 107.112649 303.081307 
L 107.479454 302.531547 
L 107.846258 302.7959 
L 108.213063 301.628538 
L 108.579868 301.687023 
L 108.946673 302.718699 
L 109.313478 301.219142 
L 109.680283 301.544319 
L 110.413893 301.532622 
L 110.780697 301.420331 
L 111.147502 302.952639 
L 111.514307 301.249555 
L 111.881112 301.303361 
L 112.247917 303.041537 
L 112.614722 301.235518 
L 112.981527 302.552602 
L 113.348331 301.401616 
L 113.715136 300.648328 
L 114.081941 301.361846 
L 114.448746 302.7959 
L 114.815551 300.433103 
L 115.182356 301.088136 
L 115.549161 300.922038 
L 115.915965 302.861403 
L 116.28277 301.167675 
L 116.649575 300.079853 
L 117.01638 300.99222 
L 117.383185 301.050705 
L 117.74999 302.718699 
L 118.116795 299.962883 
L 118.483599 302.255498 
L 118.850404 302.267195 
L 119.217209 300.086872 
L 119.584014 300.884608 
L 119.950819 302.994749 
L 120.317624 301.050705 
L 120.684429 300.744244 
L 121.051234 300.786353 
L 121.418038 300.627274 
L 121.784843 301.934999 
L 122.151648 300.412049 
L 122.518453 300.905662 
L 122.885258 300.461176 
L 123.252063 300.940753 
L 123.618868 300.245951 
L 123.985672 300.313794 
L 124.352477 302.531547 
L 124.719282 299.438857 
L 125.086087 302.583014 
L 125.452892 299.902059 
L 125.819697 299.211935 
L 126.553306 302.423935 
L 126.920111 299.972241 
L 127.286916 301.963072 
L 128.020526 300.863553 
L 128.387331 300.009671 
L 128.754136 302.737414 
L 129.487745 300.430764 
L 129.85455 300.215539 
L 130.221355 300.206181 
L 130.58816 300.360582 
L 130.954965 299.371014 
L 131.32177 299.382711 
L 131.688575 300.002653 
L 132.055379 302.650857 
L 132.422184 301.450743 
L 132.788989 302.699984 
L 133.155794 302.140867 
L 133.522599 300.461176 
L 133.889404 301.787617 
L 134.256209 301.911605 
L 134.623013 298.912492 
L 135.356623 302.473062 
L 135.723428 299.511379 
L 136.090233 300.077514 
L 136.457038 300.252969 
L 136.823843 300.138338 
L 137.190647 299.618991 
L 137.557452 299.469269 
L 137.924257 297.929943 
L 138.291062 299.312529 
L 138.657867 300.028387 
L 139.024672 299.382711 
L 139.758281 299.331245 
L 140.125086 299.324226 
L 140.491891 302.501135 
L 140.858696 299.511379 
L 141.225501 299.499682 
L 141.592306 301.401616 
L 141.959111 299.665779 
L 142.325916 301.296343 
L 142.69272 299.469269 
L 143.059525 302.707002 
L 143.42633 299.665779 
L 143.793135 299.038819 
L 144.15994 301.219142 
L 144.526745 301.216803 
L 144.89355 299.502021 
L 145.260354 299.422481 
L 145.627159 302.248479 
L 145.993964 298.547545 
L 146.397449 301.303361 
L 146.764254 302.201691 
L 147.131059 302.573656 
L 147.497864 302.12917 
L 147.864669 299.001389 
L 148.231474 301.637895 
L 148.598279 301.69638 
L 148.965084 299.413124 
L 149.331888 299.607294 
L 149.698693 258.955499 
L 150.065498 287.028328 
L 150.799108 298.13581 
L 151.165913 297.263213 
L 151.532718 301.179372 
L 151.899522 297.459723 
L 152.266327 298.243423 
L 152.633132 302.16894 
L 152.999937 299.766373 
L 153.366742 290.591237 
L 153.733547 301.97243 
L 154.467156 298.559242 
L 154.833961 301.317397 
L 155.200766 298.390805 
L 155.567571 301.97243 
L 155.934376 299.048177 
L 156.301181 299.057535 
L 156.667986 302.503474 
L 157.034791 301.944357 
L 157.401595 298.727679 
L 157.7684 297.497153 
L 158.135205 301.207445 
L 158.50201 299.525415 
L 158.868815 302.267195 
L 159.23562 302.896494 
L 159.602425 298.40952 
L 159.969229 301.745508 
L 160.336034 299.029462 
L 160.702839 302.393522 
L 161.069644 299.071571 
L 161.436449 302.620444 
L 161.803254 300.519661 
L 162.170059 296.762581 
L 162.536863 301.766562 
L 162.903668 297.969712 
L 163.270473 301.883533 
L 163.637278 298.224707 
L 164.004083 301.729132 
L 164.370888 302.316322 
L 164.737693 302.55728 
L 165.104497 298.362732 
L 165.471302 298.774467 
L 165.838107 298.549884 
L 166.204912 302.342055 
L 166.571717 298.781485 
L 166.938522 301.951375 
L 167.305327 298.783824 
L 167.672132 301.553677 
L 168.038936 302.854385 
L 168.405741 297.714718 
L 168.772546 300.924378 
L 169.139351 298.910152 
L 170.239766 298.900795 
L 170.60657 297.441007 
L 170.973375 301.069421 
L 171.34018 302.073024 
L 171.706985 297.859761 
L 172.07379 298.028197 
L 172.440595 302.058988 
L 172.8074 300.727868 
L 173.174204 296.025669 
L 173.541009 301.392258 
L 173.907814 301.572392 
L 174.274619 295.293436 
L 174.641424 302.423935 
L 175.008229 298.432914 
L 175.375034 298.432914 
L 175.741838 301.963072 
L 176.108643 297.359128 
L 176.475448 297.703021 
L 176.842253 301.846102 
L 177.209058 302.749111 
L 177.575863 297.380183 
L 177.942668 300.126641 
L 178.309473 296.970788 
L 178.676277 301.041348 
L 179.043082 301.158318 
L 179.409887 298.067967 
L 179.776692 298.21301 
L 180.143497 298.002464 
L 180.510302 300.606219 
L 180.877107 302.0122 
L 181.243911 301.81569 
L 181.610716 301.099833 
L 181.977521 298.224707 
L 182.344326 301.53964 
L 182.711131 297.045648 
L 183.444741 297.033951 
L 183.811545 295.897002 
L 184.17835 295.880626 
L 184.545155 302.119812 
L 184.91196 302.061327 
L 185.278765 300.409709 
L 185.64557 296.743866 
L 186.012375 296.596483 
L 186.379179 301.640235 
L 186.745984 293.915528 
L 187.14947 299.303172 
L 187.516275 297.302983 
L 187.883079 297.450365 
L 188.249884 301.352488 
L 188.616689 297.193031 
L 188.983494 299.254044 
L 189.350299 296.970788 
L 189.717104 297.31234 
L 190.083909 297.223443 
L 190.450713 297.302983 
L 190.817518 300.393333 
L 191.184323 297.74279 
L 191.551128 297.831688 
L 191.917933 296.673684 
L 192.284738 296.968448 
L 192.651543 296.968448 
L 193.385152 301.993485 
L 193.751957 296.907624 
L 194.118762 301.904587 
L 194.485567 296.505247 
L 194.852372 296.537998 
L 195.219177 299.902059 
L 195.585982 295.574164 
L 195.952786 297.291286 
L 196.319591 297.490135 
L 196.686396 297.408256 
L 197.053201 294.944865 
L 197.420006 300.746583 
L 197.786811 294.935508 
L 198.153616 300.971166 
L 198.887225 292.446383 
L 199.25403 296.977806 
L 199.620835 300.098569 
L 199.98764 296.261949 
L 200.354445 298.713642 
L 200.72125 295.00569 
L 201.088054 296.977806 
L 201.454859 296.926339 
L 201.821664 299.03648 
L 202.188469 296.956751 
L 202.555274 295.798747 
L 202.922079 297.672608 
L 203.288884 295.831499 
L 203.655689 300.903323 
L 204.022493 293.847685 
L 204.389298 293.466363 
L 204.756103 295.847874 
L 205.122908 295.918057 
L 205.489713 300.83548 
L 205.856518 295.758977 
L 206.223323 296.360204 
L 206.590127 294.072268 
L 206.956932 296.290022 
L 208.424152 296.643271 
L 208.790957 300.531358 
L 209.157761 295.309812 
L 209.524566 295.751959 
L 209.891371 295.801086 
L 210.258176 295.663062 
L 210.624981 292.404274 
L 210.991786 291.227555 
L 211.358591 295.967184 
L 211.725395 294.427857 
L 212.0922 296.645611 
L 212.459005 296.762581 
L 212.82581 294.837253 
L 213.192615 295.833838 
L 213.55942 300.138338 
L 213.926225 301.127906 
L 214.29303 293.227744 
L 214.659834 280.580935 
L 215.026639 272.470227 
L 215.393444 277.560766 
L 215.760249 291.648647 
L 216.127054 294.163505 
L 216.493859 294.827895 
L 216.860664 294.996332 
L 217.227468 300.178108 
L 217.594273 296.250252 
L 218.327883 296.299379 
L 218.694688 295.897002 
L 219.061493 295.31917 
L 219.428298 299.520736 
L 219.795102 295.398709 
L 220.161907 293.405538 
L 220.528712 300.381636 
L 220.895517 294.778768 
L 221.262322 295.094587 
L 221.629127 300.99222 
L 221.995932 295.033762 
L 222.362736 295.033762 
L 222.729541 297.616463 
L 223.096346 294.76941 
L 223.463151 294.673494 
L 223.829956 299.331245 
L 224.196761 299.77807 
L 224.563566 292.495511 
L 224.930371 295.064175 
L 225.297175 295.202199 
L 225.66398 294.996332 
L 226.030785 298.620066 
L 226.39759 294.600973 
L 226.764395 298.989692 
L 227.1312 292.317716 
L 227.498005 292.572711 
L 227.90149 292.53996 
L 228.6351 295.496964 
L 229.001904 295.857232 
L 229.368709 294.507397 
L 229.735514 294.476985 
L 230.102319 301.453083 
L 230.469124 294.977617 
L 230.835929 295.015047 
L 231.202734 294.53547 
L 231.569539 294.554185 
L 231.936343 293.866401 
L 232.303148 293.681588 
L 232.669953 294.615009 
L 233.036758 294.940186 
L 233.403563 294.69221 
L 233.770368 295.23963 
L 234.137173 293.82897 
L 234.503977 293.592691 
L 234.870782 300.098569 
L 235.237587 289.592313 
L 235.604392 297.761506 
L 235.971197 292.907246 
L 236.338002 292.167995 
L 237.071611 293.700303 
L 237.438416 296.046724 
L 237.805221 292.532941 
L 238.172026 293.260495 
L 238.905636 293.269853 
L 239.272441 294.397445 
L 239.639245 294.505058 
L 240.00605 294.397445 
L 240.372855 294.5729 
L 240.73966 294.320245 
L 241.106465 292.228819 
L 241.47327 291.20884 
L 242.20688 291.264985 
L 242.573684 292.628857 
L 242.940489 298.872722 
L 243.307294 299.635367 
L 243.674099 293.159901 
L 244.407709 293.110774 
L 244.774514 292.102491 
L 245.141318 292.151619 
L 245.508123 299.675137 
L 245.874928 293.297926 
L 246.241733 299.735961 
L 246.608538 293.534206 
L 246.975343 289.451948 
L 247.342148 289.473003 
L 247.708952 288.478757 
L 248.075757 293.466363 
L 248.442562 294.45593 
L 248.809367 294.703907 
L 249.176172 294.605652 
L 249.542977 294.645422 
L 249.909782 299.321887 
L 250.276586 292.729451 
L 250.643391 291.101227 
L 251.010196 294.179881 
L 251.377001 293.328338 
L 251.743806 292.904906 
L 252.110611 297.693663 
L 252.477416 294.738998 
L 252.844221 292.904906 
L 253.211025 296.369561 
L 253.57783 293.641818 
L 253.944635 298.900795 
L 254.31144 292.446383 
L 254.678245 292.837064 
L 255.04505 290.001708 
L 255.411855 289.854326 
L 255.778659 292.495511 
L 256.145464 292.757524 
L 256.512269 299.665779 
L 256.879074 299.11368 
L 257.245879 292.160976 
L 257.612684 296.025669 
L 257.979489 291.79603 
L 258.346293 296.212821 
L 258.713098 291.110585 
L 259.079903 287.697397 
L 259.446708 294.10502 
L 259.813513 286.920715 
L 260.180318 291.613556 
L 260.547123 291.962127 
L 260.913928 291.936394 
L 261.280732 293.328338 
L 261.647537 293.349393 
L 262.014342 293.131828 
L 262.381147 297.880815 
L 262.747952 293.260495 
L 263.114757 290.474267 
L 263.481562 300.737225 
L 263.848366 289.117414 
L 264.215171 289.196954 
L 264.581976 289.138468 
L 264.948781 290.128036 
L 265.315586 290.018084 
L 265.682391 292.357486 
L 266.049196 291.875569 
L 266.416 299.902059 
L 266.782805 290.481285 
L 267.14961 290.925772 
L 267.516415 295.408067 
L 267.88322 291.150355 
L 268.250025 289.95258 
L 269.020315 289.940883 
L 269.38712 299.247026 
L 269.753925 291.688417 
L 270.12073 298.900795 
L 270.487534 296.196445 
L 270.854339 291.424065 
L 271.221144 288.509169 
L 271.587949 299.527754 
L 271.954754 289.765428 
L 272.321559 289.706943 
L 272.688364 290.864947 
L 273.055168 287.989822 
L 273.421973 292.827706 
L 273.788778 287.931337 
L 274.155583 288.165277 
L 274.522388 297.733433 
L 274.889193 292.277946 
L 275.255998 291.059118 
L 275.622802 291.344525 
L 275.989607 292.631196 
L 276.723217 288.460042 
L 277.090022 299.567524 
L 277.456827 288.460042 
L 277.823632 288.539581 
L 278.190437 291.304755 
L 278.924046 291.501265 
L 280.391266 291.798369 
L 280.758071 290.3456 
L 281.124875 290.259042 
L 281.49168 294.797483 
L 281.858485 287.727809 
L 282.22529 287.538317 
L 282.592095 288.715037 
L 282.9589 298.147507 
L 283.325705 284.546222 
L 283.692509 295.721547 
L 284.059314 298.500757 
L 284.426119 284.104075 
L 284.792924 291.709472 
L 285.159729 288.960674 
L 285.526534 289.905792 
L 285.893339 296.212821 
L 286.260143 290.099963 
L 286.626948 290.364315 
L 286.993753 289.304566 
L 287.360558 290.511698 
L 287.727363 290.551467 
L 288.460973 291.414707 
L 288.827778 290.572522 
L 289.194582 294.855968 
L 289.561387 288.813292 
L 289.928192 289.356033 
L 290.294997 288.862419 
L 290.661802 289.325621 
L 291.028607 297.564996 
L 291.395412 288.008537 
L 291.762216 287.95941 
L 292.129021 288.754806 
L 292.862631 288.834346 
L 293.229436 287.863494 
L 293.596241 289.856665 
L 294.32985 290.984257 
L 294.696655 290.179503 
L 295.06346 289.019159 
L 295.430265 289.482361 
L 295.79707 289.13145 
L 296.163875 288.511509 
L 296.53068 289.940883 
L 296.897484 289.334978 
L 297.264289 289.356033 
L 297.631094 299.539451 
L 297.997899 290.158448 
L 298.364704 289.356033 
L 298.731509 288.984068 
L 299.098314 298.931207 
L 299.465119 290.216933 
L 299.831923 289.236723 
L 300.198728 298.615387 
L 300.565533 289.325621 
L 300.932338 287.755882 
L 301.299143 288.31032 
L 302.032753 288.469399 
L 302.399557 289.99235 
L 302.766362 295.515679 
L 303.133167 286.497283 
L 303.866777 286.58618 
L 304.233582 286.555768 
L 304.600387 288.560636 
L 304.967191 297.426971 
L 305.333996 288.572333 
L 305.700801 288.354769 
L 306.067606 289.267136 
L 306.434411 289.285851 
L 306.801216 289.101038 
L 307.168021 288.284587 
L 307.534826 290.303491 
L 307.90163 282.7519 
L 308.268435 283.397575 
L 308.63524 283.280605 
L 309.002045 298.961619 
L 309.40553 286.410725 
L 309.772335 286.684435 
L 310.13914 289.765428 
L 310.505945 290.219272 
L 310.87275 290.207575 
L 311.239555 295.429121 
L 311.606359 287.105528 
L 311.973164 287.37222 
L 312.339969 289.079983 
L 312.706774 286.202518 
L 313.073579 286.127658 
L 313.440384 288.247156 
L 313.807189 288.195689 
L 314.173994 287.823724 
L 314.540798 285.098321 
L 314.907603 288.548939 
L 315.274408 297.478438 
L 315.641213 294.640743 
L 316.008018 288.577012 
L 316.374823 288.834346 
L 316.741628 287.575748 
L 317.108432 288.410914 
L 317.475237 288.293944 
L 317.842042 288.008537 
L 318.208847 288.401557 
L 318.575652 297.31234 
L 318.942457 287.774597 
L 319.309262 287.812027 
L 319.676066 281.965861 
L 320.042871 281.954164 
L 320.409676 282.230213 
L 320.776481 281.554126 
L 321.143286 288.609764 
L 321.510091 289.725658 
L 321.876896 287.872852 
L 322.2437 287.835421 
L 322.610505 297.03863 
L 322.97731 288.139544 
L 323.344115 289.323281 
L 323.71092 287.01897 
L 324.077725 287.271625 
L 324.44453 286.684435 
L 324.811335 284.546222 
L 325.178139 295.985899 
L 325.544944 286.569805 
L 325.911749 286.644666 
L 326.278554 286.880945 
L 326.645359 288.511509 
L 327.012164 289.049571 
L 327.378969 287.805009 
L 327.745773 287.264607 
L 328.112578 285.500698 
L 328.479383 287.166352 
L 328.846188 285.959221 
L 329.212993 295.288757 
L 329.579798 285.166163 
L 329.946603 280.384425 
L 330.313407 280.101357 
L 330.680212 281.603253 
L 331.047017 281.327204 
L 331.413822 283.388217 
L 331.780627 298.980334 
L 332.147432 294.937847 
L 332.514237 274.762841 
L 332.881041 274.80495 
L 333.247846 274.348767 
L 333.614651 285.538128 
L 333.981456 292.701378 
L 334.348261 285.987293 
L 334.715066 284.564937 
L 335.081871 284.361409 
L 335.448676 267.414778 
L 335.81548 294.198596 
L 336.182285 280.945881 
L 336.54909 282.209159 
L 336.915895 290.591237 
L 337.2827 285.832893 
L 337.649505 284.644476 
L 338.383114 285.449231 
L 339.116724 285.245703 
L 339.483529 297.43165 
L 339.850334 295.426782 
L 340.217139 284.557919 
L 341.317553 284.967314 
L 341.684358 296.566071 
L 342.051163 291.826442 
L 342.417968 283.954353 
L 343.151578 285.430516 
L 343.518382 282.024346 
L 343.885187 281.149409 
L 344.251992 281.720224 
L 344.618797 282.728506 
L 344.985602 276.894036 
L 345.352407 282.801027 
L 345.719212 285.596613 
L 346.086017 286.934751 
L 346.452821 287.126582 
L 346.819626 283.044325 
L 347.186431 283.201065 
L 347.553236 283.645552 
L 347.920041 294.940186 
L 348.286846 293.258156 
L 348.653651 281.710866 
L 349.020455 284.270172 
L 349.38726 284.330997 
L 349.754065 284.270172 
L 350.157551 295.819802 
L 350.524355 294.968259 
L 350.89116 283.172992 
L 351.257965 282.94607 
L 351.62477 292.682663 
L 351.991575 292.474456 
L 352.35838 298.781485 
L 352.725185 294.317905 
L 353.091989 285.636383 
L 353.458794 286.342883 
L 353.825599 291.48255 
L 354.192404 286.029403 
L 354.559209 299.845913 
L 354.926014 285.751014 
L 355.292819 285.729959 
L 355.659623 292.093134 
L 356.026428 293.347053 
L 356.393233 298.028197 
L 356.760038 279.30596 
L 357.126843 278.700055 
L 357.493648 278.805328 
L 357.860453 295.897002 
L 358.227257 286.635308 
L 358.594062 284.429251 
L 358.960867 284.653834 
L 359.327672 297.819991 
L 359.694477 287.767579 
L 360.061282 297.047988 
L 360.428087 287.744185 
L 360.794892 285.477304 
L 361.161696 285.467946 
L 361.528501 284.064305 
L 361.895306 293.75177 
L 362.262111 296.790654 
L 362.995721 279.640495 
L 363.362526 298.999049 
L 363.72933 279.708337 
L 364.096135 279.383161 
L 364.46294 299.871647 
L 364.829745 280.190254 
L 365.19655 292.565693 
L 365.563355 283.84674 
L 365.93016 296.926339 
L 366.296964 289.178238 
L 367.030574 285.372031 
L 367.397379 285.605971 
L 367.764184 285.163824 
L 368.130989 285.566201 
L 368.497794 297.35211 
L 368.864598 297.831688 
L 369.231403 281.729581 
L 369.598208 282.63259 
L 369.965013 277.932731 
L 370.698623 296.900606 
L 371.065428 297.410595 
L 371.432233 285.182539 
L 371.799037 286.595538 
L 372.165842 286.530035 
L 372.532647 296.458458 
L 372.899452 285.926469 
L 373.266257 295.90636 
L 373.633062 297.595408 
L 373.999867 284.16256 
L 374.366671 300.442461 
L 374.733476 291.994879 
L 375.100281 287.217819 
L 375.467086 280.856984 
L 375.833891 282.964786 
L 376.200696 294.425518 
L 376.567501 293.159901 
L 376.934305 293.230083 
L 377.30111 285.320564 
L 377.667915 285.507716 
L 378.03472 283.987104 
L 378.401525 283.987104 
L 378.76833 290.090605 
L 379.135135 289.550203 
L 379.501939 293.239441 
L 379.868744 283.594085 
L 380.235549 288.481096 
L 380.602354 284.328657 
L 380.969159 284.469021 
L 381.335964 297.302983 
L 381.702769 285.135751 
L 382.069574 281.797424 
L 382.436378 281.860588 
L 382.803183 281.083906 
L 383.169988 294.083965 
L 383.536793 291.681399 
L 383.903598 296.273646 
L 384.270403 297.663251 
L 384.637208 282.328468 
L 385.004012 282.337826 
L 385.370817 282.054758 
L 385.737622 282.316771 
L 386.104427 291.248609 
L 386.471232 289.611028 
L 386.838037 283.126204 
L 387.204842 297.036291 
L 387.571646 297.319359 
L 387.938451 282.86887 
L 388.305256 283.41629 
L 388.672061 292.984446 
L 389.038866 294.243044 
L 389.405671 278.580746 
L 389.772476 279.160917 
L 390.13928 278.739825 
L 390.506085 293.103755 
L 390.909571 278.227496 
L 391.276376 295.153072 
L 391.64318 281.797424 
L 392.009985 280.91313 
L 392.37679 283.06304 
L 392.743595 290.326885 
L 393.1104 284.684246 
L 393.477205 294.6501 
L 393.84401 276.068227 
L 394.210814 274.716053 
L 394.577619 283.783576 
L 395.311229 283.743807 
L 395.678034 284.230402 
L 396.044839 284.274851 
L 396.411644 284.695943 
L 396.778449 284.272512 
L 397.145253 295.567146 
L 397.512058 284.16256 
L 397.878863 281.044136 
L 398.245668 290.549128 
L 398.612473 281.437156 
L 398.979278 281.423119 
L 399.346083 280.580935 
L 399.712887 281.682793 
L 400.079692 281.855909 
L 400.446497 291.814745 
L 400.813302 281.790406 
L 401.180107 282.122601 
L 401.546912 279.029911 
L 401.913717 294.790465 
L 402.280521 284.712319 
L 402.647326 284.211687 
L 403.014131 283.004555 
L 403.380936 283.594085 
L 403.747741 283.224459 
L 404.114546 282.131958 
L 404.481351 282.024346 
L 404.848155 280.583274 
L 405.21496 280.630062 
L 405.581765 275.619062 
L 405.94857 275.871718 
L 406.315375 274.360464 
L 406.68218 279.514167 
L 407.41579 279.766823 
L 407.782594 279.249815 
L 408.149399 283.427987 
L 408.516204 283.329732 
L 408.883009 282.995198 
L 409.249814 282.377596 
L 409.616619 283.947335 
L 409.983424 279.610083 
L 410.350228 297.370825 
L 410.717033 279.77618 
L 411.083838 279.591367 
L 411.450643 280.721299 
L 411.817448 278.807668 
L 412.184253 279.589028 
L 412.551058 289.795841 
L 412.917862 280.218327 
L 413.284667 288.031931 
L 413.651472 277.991216 
L 414.018277 277.422741 
L 414.385082 294.06525 
L 414.751887 282.98584 
L 415.118692 289.580616 
L 415.485496 284.429251 
L 415.852301 285.566201 
L 416.219106 285.479643 
L 416.585911 285.243364 
L 416.952716 294.624367 
L 417.319521 281.572841 
L 417.686326 281.729581 
L 418.053131 290.668438 
L 418.419935 278.688358 
L 418.78674 278.323411 
L 419.153545 287.52662 
L 419.52035 277.511639 
L 419.887155 278.608818 
L 420.25396 281.895679 
L 420.620765 287.13594 
L 420.987569 282.585802 
L 421.354374 295.623292 
L 421.721179 282.702773 
L 422.087984 283.327393 
L 422.454789 288.871777 
L 422.821594 284.00582 
L 423.188399 284.398839 
L 423.555203 293.847685 
L 423.922008 284.171917 
L 424.288813 284.300584 
L 424.655618 279.493112 
L 425.022423 279.89549 
L 425.389228 279.81595 
L 426.122837 278.737486 
L 426.489642 277.401687 
L 426.856447 295.429121 
L 427.223252 279.050965 
L 427.590057 278.667303 
L 427.956862 277.205177 
L 428.323667 287.206122 
L 429.057276 272.397705 
L 429.424081 287.44942 
L 429.790886 271.616345 
L 430.157691 271.534466 
L 430.524496 272.37899 
L 430.891301 272.566142 
L 431.258106 284.300584 
L 431.661591 284.377785 
L 431.661591 284.377785 
" clip-path="url(#pb301918b4c)" style="fill: none; stroke: #ff7f0e; stroke-width: 1.5; stroke-linecap: square"/>
   </g>
   <g id="patch_3">
    <path d="M 46.555 317.72 
L 46.555 10.8 
" style="fill: none; stroke: #000000; stroke-width: 0.8; stroke-linejoin: miter; stroke-linecap: square"/>
   </g>
   <g id="patch_4">
    <path d="M 450 317.72 
L 450 10.8 
" style="fill: none; stroke: #000000; stroke-width: 0.8; stroke-linejoin: miter; stroke-linecap: square"/>
   </g>
   <g id="patch_5">
    <path d="M 46.555 317.72 
L 450 317.72 
" style="fill: none; stroke: #000000; stroke-width: 0.8; stroke-linejoin: miter; stroke-linecap: square"/>
   </g>
   <g id="patch_6">
    <path d="M 46.555 10.8 
L 450 10.8 
" style="fill: none; stroke: #000000; stroke-width: 0.8; stroke-linejoin: miter; stroke-linecap: square"/>
   </g>
   <g id="legend_1">
    <g id="patch_7">
     <path d="M 53.555 48.15625 
L 172.947188 48.15625 
Q 174.947188 48.15625 174.947188 46.15625 
L 174.947188 17.8 
Q 174.947188 15.8 172.947188 15.8 
L 53.555 15.8 
Q 51.555 15.8 51.555 17.8 
L 51.555 46.15625 
Q 51.555 48.15625 53.555 48.15625 
z
" style="fill: #ffffff; opacity: 0.8; stroke: #cccccc; stroke-linejoin: miter"/>
    </g>
    <g id="line2d_27">
     <path d="M 55.555 23.898438 
L 65.555 23.898438 
L 75.555 23.898438 
" style="fill: none; stroke: #1f77b4; stroke-width: 1.5; stroke-linecap: square"/>
    </g>
    <g id="text_13">
     <!-- Convolution Time -->
     <g transform="translate(83.555 27.398438) scale(0.1 -0.1)">
      <defs>
       <path id="DejaVuSans-43" d="M 4122 4306 
L 4122 3641 
Q 3803 3938 3442 4084 
Q 3081 4231 2675 4231 
Q 1875 4231 1450 3742 
Q 1025 3253 1025 2328 
Q 1025 1406 1450 917 
Q 1875 428 2675 428 
Q 3081 428 3442 575 
Q 3803 722 4122 1019 
L 4122 359 
Q 3791 134 3420 21 
Q 3050 -91 2638 -91 
Q 1578 -91 968 557 
Q 359 1206 359 2328 
Q 359 3453 968 4101 
Q 1578 4750 2638 4750 
Q 3056 4750 3426 4639 
Q 3797 4528 4122 4306 
z
" transform="scale(0.015625)"/>
       <path id="DejaVuSans-6f" d="M 1959 3097 
Q 1497 3097 1228 2736 
Q 959 2375 959 1747 
Q 959 1119 1226 758 
Q 1494 397 1959 397 
Q 2419 397 2687 759 
Q 2956 1122 2956 1747 
Q 2956 2369 2687 2733 
Q 2419 3097 1959 3097 
z
M 1959 3584 
Q 2709 3584 3137 3096 
Q 3566 2609 3566 1747 
Q 3566 888 3137 398 
Q 2709 -91 1959 -91 
Q 1206 -91 779 398 
Q 353 888 353 1747 
Q 353 2609 779 3096 
Q 1206 3584 1959 3584 
z
" transform="scale(0.015625)"/>
       <path id="DejaVuSans-6e" d="M 3513 2113 
L 3513 0 
L 2938 0 
L 2938 2094 
Q 2938 2591 2744 2837 
Q 2550 3084 2163 3084 
Q 1697 3084 1428 2787 
Q 1159 2491 1159 1978 
L 1159 0 
L 581 0 
L 581 3500 
L 1159 3500 
L 1159 2956 
Q 1366 3272 1645 3428 
Q 1925 3584 2291 3584 
Q 2894 3584 3203 3211 
Q 3513 2838 3513 2113 
z
" transform="scale(0.015625)"/>
       <path id="DejaVuSans-76" d="M 191 3500 
L 800 3500 
L 1894 563 
L 2988 3500 
L 3597 3500 
L 2284 0 
L 1503 0 
L 191 3500 
z
" transform="scale(0.015625)"/>
       <path id="DejaVuSans-6c" d="M 603 4863 
L 1178 4863 
L 1178 0 
L 603 0 
L 603 4863 
z
" transform="scale(0.015625)"/>
       <path id="DejaVuSans-75" d="M 544 1381 
L 544 3500 
L 1119 3500 
L 1119 1403 
Q 1119 906 1312 657 
Q 1506 409 1894 409 
Q 2359 409 2629 706 
Q 2900 1003 2900 1516 
L 2900 3500 
L 3475 3500 
L 3475 0 
L 2900 0 
L 2900 538 
Q 2691 219 2414 64 
Q 2138 -91 1772 -91 
Q 1169 -91 856 284 
Q 544 659 544 1381 
z
M 1991 3584 
L 1991 3584 
z
" transform="scale(0.015625)"/>
       <path id="DejaVuSans-74" d="M 1172 4494 
L 1172 3500 
L 2356 3500 
L 2356 3053 
L 1172 3053 
L 1172 1153 
Q 1172 725 1289 603 
Q 1406 481 1766 481 
L 2356 481 
L 2356 0 
L 1766 0 
Q 1100 0 847 248 
Q 594 497 594 1153 
L 594 3053 
L 172 3053 
L 172 3500 
L 594 3500 
L 594 4494 
L 1172 4494 
z
" transform="scale(0.015625)"/>
       <path id="DejaVuSans-69" d="M 603 3500 
L 1178 3500 
L 1178 0 
L 603 0 
L 603 3500 
z
M 603 4863 
L 1178 4863 
L 1178 4134 
L 603 4134 
L 603 4863 
z
" transform="scale(0.015625)"/>
       <path id="DejaVuSans-20" transform="scale(0.015625)"/>
       <path id="DejaVuSans-54" d="M -19 4666 
L 3928 4666 
L 3928 4134 
L 2272 4134 
L 2272 0 
L 1638 0 
L 1638 4134 
L -19 4134 
L -19 4666 
z
" transform="scale(0.015625)"/>
       <path id="DejaVuSans-6d" d="M 3328 2828 
Q 3544 3216 3844 3400 
Q 4144 3584 4550 3584 
Q 5097 3584 5394 3201 
Q 5691 2819 5691 2113 
L 5691 0 
L 5113 0 
L 5113 2094 
Q 5113 2597 4934 2840 
Q 4756 3084 4391 3084 
Q 3944 3084 3684 2787 
Q 3425 2491 3425 1978 
L 3425 0 
L 2847 0 
L 2847 2094 
Q 2847 2600 2669 2842 
Q 2491 3084 2119 3084 
Q 1678 3084 1418 2786 
Q 1159 2488 1159 1978 
L 1159 0 
L 581 0 
L 581 3500 
L 1159 3500 
L 1159 2956 
Q 1356 3278 1631 3431 
Q 1906 3584 2284 3584 
Q 2666 3584 2933 3390 
Q 3200 3197 3328 2828 
z
" transform="scale(0.015625)"/>
       <path id="DejaVuSans-65" d="M 3597 1894 
L 3597 1613 
L 953 1613 
Q 991 1019 1311 708 
Q 1631 397 2203 397 
Q 2534 397 2845 478 
Q 3156 559 3463 722 
L 3463 178 
Q 3153 47 2828 -22 
Q 2503 -91 2169 -91 
Q 1331 -91 842 396 
Q 353 884 353 1716 
Q 353 2575 817 3079 
Q 1281 3584 2069 3584 
Q 2775 3584 3186 3129 
Q 3597 2675 3597 1894 
z
M 3022 2063 
Q 3016 2534 2758 2815 
Q 2500 3097 2075 3097 
Q 1594 3097 1305 2825 
Q 1016 2553 972 2059 
L 3022 2063 
z
" transform="scale(0.015625)"/>
      </defs>
      <use xlink:href="#DejaVuSans-43"/>
      <use xlink:href="#DejaVuSans-6f" transform="translate(69.824219 0)"/>
      <use xlink:href="#DejaVuSans-6e" transform="translate(131.005859 0)"/>
      <use xlink:href="#DejaVuSans-76" transform="translate(194.384766 0)"/>
      <use xlink:href="#DejaVuSans-6f" transform="translate(253.564453 0)"/>
      <use xlink:href="#DejaVuSans-6c" transform="translate(314.746094 0)"/>
      <use xlink:href="#DejaVuSans-75" transform="translate(342.529297 0)"/>
      <use xlink:href="#DejaVuSans-74" transform="translate(405.908203 0)"/>
      <use xlink:href="#DejaVuSans-69" transform="translate(445.117188 0)"/>
      <use xlink:href="#DejaVuSans-6f" transform="translate(472.900391 0)"/>
      <use xlink:href="#DejaVuSans-6e" transform="translate(534.082031 0)"/>
      <use xlink:href="#DejaVuSans-20" transform="translate(597.460938 0)"/>
      <use xlink:href="#DejaVuSans-54" transform="translate(629.248047 0)"/>
      <use xlink:href="#DejaVuSans-69" transform="translate(687.207031 0)"/>
      <use xlink:href="#DejaVuSans-6d" transform="translate(714.990234 0)"/>
      <use xlink:href="#DejaVuSans-65" transform="translate(812.402344 0)"/>
     </g>
    </g>
    <g id="line2d_28">
     <path d="M 55.555 38.576563 
L 65.555 38.576563 
L 75.555 38.576563 
" style="fill: none; stroke: #ff7f0e; stroke-width: 1.5; stroke-linecap: square"/>
    </g>
    <g id="text_14">
     <!-- FFT Time -->
     <g transform="translate(83.555 42.076563) scale(0.1 -0.1)">
      <defs>
       <path id="DejaVuSans-46" d="M 628 4666 
L 3309 4666 
L 3309 4134 
L 1259 4134 
L 1259 2759 
L 3109 2759 
L 3109 2228 
L 1259 2228 
L 1259 0 
L 628 0 
L 628 4666 
z
" transform="scale(0.015625)"/>
      </defs>
      <use xlink:href="#DejaVuSans-46"/>
      <use xlink:href="#DejaVuSans-46" transform="translate(57.519531 0)"/>
      <use xlink:href="#DejaVuSans-54" transform="translate(113.289062 0)"/>
      <use xlink:href="#DejaVuSans-20" transform="translate(174.373047 0)"/>
      <use xlink:href="#DejaVuSans-54" transform="translate(206.160156 0)"/>
      <use xlink:href="#DejaVuSans-69" transform="translate(264.119141 0)"/>
      <use xlink:href="#DejaVuSans-6d" transform="translate(291.902344 0)"/>
      <use xlink:href="#DejaVuSans-65" transform="translate(389.314453 0)"/>
     </g>
    </g>
   </g>
  </g>
 </g>
 <defs>
  <clipPath id="pb301918b4c">
   <rect x="46.555" y="10.8" width="403.445" height="306.92"/>
  </clipPath>
 </defs>
</svg>
