<?xml version="1.0" encoding="utf-8" standalone="no"?>
<!DOCTYPE svg PUBLIC "-//W3C//DTD SVG 1.1//EN"
  "http://www.w3.org/Graphics/SVG/1.1/DTD/svg11.dtd">
<svg xmlns:xlink="http://www.w3.org/1999/xlink" width="720pt" height="432pt" viewBox="0 0 720 432" xmlns="http://www.w3.org/2000/svg" version="1.1">
 <metadata>
  <rdf:RDF xmlns:dc="http://purl.org/dc/elements/1.1/" xmlns:cc="http://creativecommons.org/ns#" xmlns:rdf="http://www.w3.org/1999/02/22-rdf-syntax-ns#">
   <cc:Work>
    <dc:type rdf:resource="http://purl.org/dc/dcmitype/StillImage"/>
    <dc:date>2025-12-02T15:01:29.592689</dc:date>
    <dc:format>image/svg+xml</dc:format>
    <dc:creator>
     <cc:Agent>
      <dc:title>Matplotlib v3.10.6, https://matplotlib.org/</dc:title>
     </cc:Agent>
    </dc:creator>
   </cc:Work>
  </rdf:RDF>
 </metadata>
 <defs>
  <style type="text/css">*{stroke-linejoin: round; stroke-linecap: butt}</style>
 </defs>
 <g id="figure_1">
  <g id="patch_1">
   <path d="M 0 432 
L 720 432 
L 720 0 
L 0 0 
z
" style="fill: #ffffff"/>
  </g>
  <g id="axes_1">
   <g id="patch_2">
    <path d="M 48.49 404.12 
L 709.2 404.12 
L 709.2 26.16 
L 48.49 26.16 
z
" style="fill: #ffffff"/>
   </g>
   <g id="matplotlib.axis_1">
    <g id="xtick_1">
     <g id="line2d_1">
      <path d="M 78.522273 404.12 
L 78.522273 26.16 
" clip-path="url(#p360b782012)" style="fill: none; stroke: #b0b0b0; stroke-width: 0.8; stroke-linecap: square"/>
     </g>
     <g id="line2d_2">
      <defs>
       <path id="me6902476a2" d="M 0 0 
L 0 3.5 
" style="stroke: #000000; stroke-width: 0.8"/>
      </defs>
      <g>
       <use xlink:href="#me6902476a2" x="78.522273" y="404.12" style="stroke: #000000; stroke-width: 0.8"/>
      </g>
     </g>
     <g id="text_1">
      <!-- 0.000 -->
      <g transform="translate(64.20821 418.718437) scale(0.1 -0.1)">
       <defs>
        <path id="DejaVuSans-30" d="M 2034 4250 
Q 1547 4250 1301 3770 
Q 1056 3291 1056 2328 
Q 1056 1369 1301 889 
Q 1547 409 2034 409 
Q 2525 409 2770 889 
Q 3016 1369 3016 2328 
Q 3016 3291 2770 3770 
Q 2525 4250 2034 4250 
z
M 2034 4750 
Q 2819 4750 3233 4129 
Q 3647 3509 3647 2328 
Q 3647 1150 3233 529 
Q 2819 -91 2034 -91 
Q 1250 -91 836 529 
Q 422 1150 422 2328 
Q 422 3509 836 4129 
Q 1250 4750 2034 4750 
z
" transform="scale(0.015625)"/>
        <path id="DejaVuSans-2e" d="M 684 794 
L 1344 794 
L 1344 0 
L 684 0 
L 684 794 
z
" transform="scale(0.015625)"/>
       </defs>
       <use xlink:href="#DejaVuSans-30"/>
       <use xlink:href="#DejaVuSans-2e" transform="translate(63.623047 0)"/>
       <use xlink:href="#DejaVuSans-30" transform="translate(95.410156 0)"/>
       <use xlink:href="#DejaVuSans-30" transform="translate(159.033203 0)"/>
       <use xlink:href="#DejaVuSans-30" transform="translate(222.65625 0)"/>
      </g>
     </g>
    </g>
    <g id="xtick_2">
     <g id="line2d_3">
      <path d="M 153.980244 404.12 
L 153.980244 26.16 
" clip-path="url(#p360b782012)" style="fill: none; stroke: #b0b0b0; stroke-width: 0.8; stroke-linecap: square"/>
     </g>
     <g id="line2d_4">
      <g>
       <use xlink:href="#me6902476a2" x="153.980244" y="404.12" style="stroke: #000000; stroke-width: 0.8"/>
      </g>
     </g>
     <g id="text_2">
      <!-- 0.025 -->
      <g transform="translate(139.666182 418.718437) scale(0.1 -0.1)">
       <defs>
        <path id="DejaVuSans-32" d="M 1228 531 
L 3431 531 
L 3431 0 
L 469 0 
L 469 531 
Q 828 903 1448 1529 
Q 2069 2156 2228 2338 
Q 2531 2678 2651 2914 
Q 2772 3150 2772 3378 
Q 2772 3750 2511 3984 
Q 2250 4219 1831 4219 
Q 1534 4219 1204 4116 
Q 875 4013 500 3803 
L 500 4441 
Q 881 4594 1212 4672 
Q 1544 4750 1819 4750 
Q 2544 4750 2975 4387 
Q 3406 4025 3406 3419 
Q 3406 3131 3298 2873 
Q 3191 2616 2906 2266 
Q 2828 2175 2409 1742 
Q 1991 1309 1228 531 
z
" transform="scale(0.015625)"/>
        <path id="DejaVuSans-35" d="M 691 4666 
L 3169 4666 
L 3169 4134 
L 1269 4134 
L 1269 2991 
Q 1406 3038 1543 3061 
Q 1681 3084 1819 3084 
Q 2600 3084 3056 2656 
Q 3513 2228 3513 1497 
Q 3513 744 3044 326 
Q 2575 -91 1722 -91 
Q 1428 -91 1123 -41 
Q 819 9 494 109 
L 494 744 
Q 775 591 1075 516 
Q 1375 441 1709 441 
Q 2250 441 2565 725 
Q 2881 1009 2881 1497 
Q 2881 1984 2565 2268 
Q 2250 2553 1709 2553 
Q 1456 2553 1204 2497 
Q 953 2441 691 2322 
L 691 4666 
z
" transform="scale(0.015625)"/>
       </defs>
       <use xlink:href="#DejaVuSans-30"/>
       <use xlink:href="#DejaVuSans-2e" transform="translate(63.623047 0)"/>
       <use xlink:href="#DejaVuSans-30" transform="translate(95.410156 0)"/>
       <use xlink:href="#DejaVuSans-32" transform="translate(159.033203 0)"/>
       <use xlink:href="#DejaVuSans-35" transform="translate(222.65625 0)"/>
      </g>
     </g>
    </g>
    <g id="xtick_3">
     <g id="line2d_5">
      <path d="M 229.438216 404.12 
L 229.438216 26.16 
" clip-path="url(#p360b782012)" style="fill: none; stroke: #b0b0b0; stroke-width: 0.8; stroke-linecap: square"/>
     </g>
     <g id="line2d_6">
      <g>
       <use xlink:href="#me6902476a2" x="229.438216" y="404.12" style="stroke: #000000; stroke-width: 0.8"/>
      </g>
     </g>
     <g id="text_3">
      <!-- 0.050 -->
      <g transform="translate(215.124154 418.718437) scale(0.1 -0.1)">
       <use xlink:href="#DejaVuSans-30"/>
       <use xlink:href="#DejaVuSans-2e" transform="translate(63.623047 0)"/>
       <use xlink:href="#DejaVuSans-30" transform="translate(95.410156 0)"/>
       <use xlink:href="#DejaVuSans-35" transform="translate(159.033203 0)"/>
       <use xlink:href="#DejaVuSans-30" transform="translate(222.65625 0)"/>
      </g>
     </g>
    </g>
    <g id="xtick_4">
     <g id="line2d_7">
      <path d="M 304.896188 404.12 
L 304.896188 26.16 
" clip-path="url(#p360b782012)" style="fill: none; stroke: #b0b0b0; stroke-width: 0.8; stroke-linecap: square"/>
     </g>
     <g id="line2d_8">
      <g>
       <use xlink:href="#me6902476a2" x="304.896188" y="404.12" style="stroke: #000000; stroke-width: 0.8"/>
      </g>
     </g>
     <g id="text_4">
      <!-- 0.075 -->
      <g transform="translate(290.582125 418.718437) scale(0.1 -0.1)">
       <defs>
        <path id="DejaVuSans-37" d="M 525 4666 
L 3525 4666 
L 3525 4397 
L 1831 0 
L 1172 0 
L 2766 4134 
L 525 4134 
L 525 4666 
z
" transform="scale(0.015625)"/>
       </defs>
       <use xlink:href="#DejaVuSans-30"/>
       <use xlink:href="#DejaVuSans-2e" transform="translate(63.623047 0)"/>
       <use xlink:href="#DejaVuSans-30" transform="translate(95.410156 0)"/>
       <use xlink:href="#DejaVuSans-37" transform="translate(159.033203 0)"/>
       <use xlink:href="#DejaVuSans-35" transform="translate(222.65625 0)"/>
      </g>
     </g>
    </g>
    <g id="xtick_5">
     <g id="line2d_9">
      <path d="M 380.354159 404.12 
L 380.354159 26.16 
" clip-path="url(#p360b782012)" style="fill: none; stroke: #b0b0b0; stroke-width: 0.8; stroke-linecap: square"/>
     </g>
     <g id="line2d_10">
      <g>
       <use xlink:href="#me6902476a2" x="380.354159" y="404.12" style="stroke: #000000; stroke-width: 0.8"/>
      </g>
     </g>
     <g id="text_5">
      <!-- 0.100 -->
      <g transform="translate(366.040097 418.718437) scale(0.1 -0.1)">
       <defs>
        <path id="DejaVuSans-31" d="M 794 531 
L 1825 531 
L 1825 4091 
L 703 3866 
L 703 4441 
L 1819 4666 
L 2450 4666 
L 2450 531 
L 3481 531 
L 3481 0 
L 794 0 
L 794 531 
z
" transform="scale(0.015625)"/>
       </defs>
       <use xlink:href="#DejaVuSans-30"/>
       <use xlink:href="#DejaVuSans-2e" transform="translate(63.623047 0)"/>
       <use xlink:href="#DejaVuSans-31" transform="translate(95.410156 0)"/>
       <use xlink:href="#DejaVuSans-30" transform="translate(159.033203 0)"/>
       <use xlink:href="#DejaVuSans-30" transform="translate(222.65625 0)"/>
      </g>
     </g>
    </g>
    <g id="xtick_6">
     <g id="line2d_11">
      <path d="M 455.812131 404.12 
L 455.812131 26.16 
" clip-path="url(#p360b782012)" style="fill: none; stroke: #b0b0b0; stroke-width: 0.8; stroke-linecap: square"/>
     </g>
     <g id="line2d_12">
      <g>
       <use xlink:href="#me6902476a2" x="455.812131" y="404.12" style="stroke: #000000; stroke-width: 0.8"/>
      </g>
     </g>
     <g id="text_6">
      <!-- 0.125 -->
      <g transform="translate(441.498069 418.718437) scale(0.1 -0.1)">
       <use xlink:href="#DejaVuSans-30"/>
       <use xlink:href="#DejaVuSans-2e" transform="translate(63.623047 0)"/>
       <use xlink:href="#DejaVuSans-31" transform="translate(95.410156 0)"/>
       <use xlink:href="#DejaVuSans-32" transform="translate(159.033203 0)"/>
       <use xlink:href="#DejaVuSans-35" transform="translate(222.65625 0)"/>
      </g>
     </g>
    </g>
    <g id="xtick_7">
     <g id="line2d_13">
      <path d="M 531.270103 404.12 
L 531.270103 26.16 
" clip-path="url(#p360b782012)" style="fill: none; stroke: #b0b0b0; stroke-width: 0.8; stroke-linecap: square"/>
     </g>
     <g id="line2d_14">
      <g>
       <use xlink:href="#me6902476a2" x="531.270103" y="404.12" style="stroke: #000000; stroke-width: 0.8"/>
      </g>
     </g>
     <g id="text_7">
      <!-- 0.150 -->
      <g transform="translate(516.95604 418.718437) scale(0.1 -0.1)">
       <use xlink:href="#DejaVuSans-30"/>
       <use xlink:href="#DejaVuSans-2e" transform="translate(63.623047 0)"/>
       <use xlink:href="#DejaVuSans-31" transform="translate(95.410156 0)"/>
       <use xlink:href="#DejaVuSans-35" transform="translate(159.033203 0)"/>
       <use xlink:href="#DejaVuSans-30" transform="translate(222.65625 0)"/>
      </g>
     </g>
    </g>
    <g id="xtick_8">
     <g id="line2d_15">
      <path d="M 606.728074 404.12 
L 606.728074 26.16 
" clip-path="url(#p360b782012)" style="fill: none; stroke: #b0b0b0; stroke-width: 0.8; stroke-linecap: square"/>
     </g>
     <g id="line2d_16">
      <g>
       <use xlink:href="#me6902476a2" x="606.728074" y="404.12" style="stroke: #000000; stroke-width: 0.8"/>
      </g>
     </g>
     <g id="text_8">
      <!-- 0.175 -->
      <g transform="translate(592.414012 418.718437) scale(0.1 -0.1)">
       <use xlink:href="#DejaVuSans-30"/>
       <use xlink:href="#DejaVuSans-2e" transform="translate(63.623047 0)"/>
       <use xlink:href="#DejaVuSans-31" transform="translate(95.410156 0)"/>
       <use xlink:href="#DejaVuSans-37" transform="translate(159.033203 0)"/>
       <use xlink:href="#DejaVuSans-35" transform="translate(222.65625 0)"/>
      </g>
     </g>
    </g>
    <g id="xtick_9">
     <g id="line2d_17">
      <path d="M 682.186046 404.12 
L 682.186046 26.16 
" clip-path="url(#p360b782012)" style="fill: none; stroke: #b0b0b0; stroke-width: 0.8; stroke-linecap: square"/>
     </g>
     <g id="line2d_18">
      <g>
       <use xlink:href="#me6902476a2" x="682.186046" y="404.12" style="stroke: #000000; stroke-width: 0.8"/>
      </g>
     </g>
     <g id="text_9">
      <!-- 0.200 -->
      <g transform="translate(667.871984 418.718437) scale(0.1 -0.1)">
       <use xlink:href="#DejaVuSans-30"/>
       <use xlink:href="#DejaVuSans-2e" transform="translate(63.623047 0)"/>
       <use xlink:href="#DejaVuSans-32" transform="translate(95.410156 0)"/>
       <use xlink:href="#DejaVuSans-30" transform="translate(159.033203 0)"/>
       <use xlink:href="#DejaVuSans-30" transform="translate(222.65625 0)"/>
      </g>
     </g>
    </g>
   </g>
   <g id="matplotlib.axis_2">
    <g id="ytick_1">
     <g id="line2d_19">
      <path d="M 48.49 395.78121 
L 709.2 395.78121 
" clip-path="url(#p360b782012)" style="fill: none; stroke: #b0b0b0; stroke-width: 0.8; stroke-linecap: square"/>
     </g>
     <g id="line2d_20">
      <defs>
       <path id="m72ec5a0cff" d="M 0 0 
L -3.5 0 
" style="stroke: #000000; stroke-width: 0.8"/>
      </defs>
      <g>
       <use xlink:href="#m72ec5a0cff" x="48.49" y="395.78121" style="stroke: #000000; stroke-width: 0.8"/>
      </g>
     </g>
     <g id="text_10">
      <!-- −1.00 -->
      <g transform="translate(10.844687 399.580429) scale(0.1 -0.1)">
       <defs>
        <path id="DejaVuSans-2212" d="M 678 2272 
L 4684 2272 
L 4684 1741 
L 678 1741 
L 678 2272 
z
" transform="scale(0.015625)"/>
       </defs>
       <use xlink:href="#DejaVuSans-2212"/>
       <use xlink:href="#DejaVuSans-31" transform="translate(83.789062 0)"/>
       <use xlink:href="#DejaVuSans-2e" transform="translate(147.412109 0)"/>
       <use xlink:href="#DejaVuSans-30" transform="translate(179.199219 0)"/>
       <use xlink:href="#DejaVuSans-30" transform="translate(242.822266 0)"/>
      </g>
     </g>
    </g>
    <g id="ytick_2">
     <g id="line2d_21">
      <path d="M 48.49 350.620908 
L 709.2 350.620908 
" clip-path="url(#p360b782012)" style="fill: none; stroke: #b0b0b0; stroke-width: 0.8; stroke-linecap: square"/>
     </g>
     <g id="line2d_22">
      <g>
       <use xlink:href="#m72ec5a0cff" x="48.49" y="350.620908" style="stroke: #000000; stroke-width: 0.8"/>
      </g>
     </g>
     <g id="text_11">
      <!-- −0.75 -->
      <g transform="translate(10.844687 354.420126) scale(0.1 -0.1)">
       <use xlink:href="#DejaVuSans-2212"/>
       <use xlink:href="#DejaVuSans-30" transform="translate(83.789062 0)"/>
       <use xlink:href="#DejaVuSans-2e" transform="translate(147.412109 0)"/>
       <use xlink:href="#DejaVuSans-37" transform="translate(179.199219 0)"/>
       <use xlink:href="#DejaVuSans-35" transform="translate(242.822266 0)"/>
      </g>
     </g>
    </g>
    <g id="ytick_3">
     <g id="line2d_23">
      <path d="M 48.49 305.460605 
L 709.2 305.460605 
" clip-path="url(#p360b782012)" style="fill: none; stroke: #b0b0b0; stroke-width: 0.8; stroke-linecap: square"/>
     </g>
     <g id="line2d_24">
      <g>
       <use xlink:href="#m72ec5a0cff" x="48.49" y="305.460605" style="stroke: #000000; stroke-width: 0.8"/>
      </g>
     </g>
     <g id="text_12">
      <!-- −0.50 -->
      <g transform="translate(10.844687 309.259824) scale(0.1 -0.1)">
       <use xlink:href="#DejaVuSans-2212"/>
       <use xlink:href="#DejaVuSans-30" transform="translate(83.789062 0)"/>
       <use xlink:href="#DejaVuSans-2e" transform="translate(147.412109 0)"/>
       <use xlink:href="#DejaVuSans-35" transform="translate(179.199219 0)"/>
       <use xlink:href="#DejaVuSans-30" transform="translate(242.822266 0)"/>
      </g>
     </g>
    </g>
    <g id="ytick_4">
     <g id="line2d_25">
      <path d="M 48.49 260.300303 
L 709.2 260.300303 
" clip-path="url(#p360b782012)" style="fill: none; stroke: #b0b0b0; stroke-width: 0.8; stroke-linecap: square"/>
     </g>
     <g id="line2d_26">
      <g>
       <use xlink:href="#m72ec5a0cff" x="48.49" y="260.300303" style="stroke: #000000; stroke-width: 0.8"/>
      </g>
     </g>
     <g id="text_13">
      <!-- −0.25 -->
      <g transform="translate(10.844687 264.099521) scale(0.1 -0.1)">
       <use xlink:href="#DejaVuSans-2212"/>
       <use xlink:href="#DejaVuSans-30" transform="translate(83.789062 0)"/>
       <use xlink:href="#DejaVuSans-2e" transform="translate(147.412109 0)"/>
       <use xlink:href="#DejaVuSans-32" transform="translate(179.199219 0)"/>
       <use xlink:href="#DejaVuSans-35" transform="translate(242.822266 0)"/>
      </g>
     </g>
    </g>
    <g id="ytick_5">
     <g id="line2d_27">
      <path d="M 48.49 215.14 
L 709.2 215.14 
" clip-path="url(#p360b782012)" style="fill: none; stroke: #b0b0b0; stroke-width: 0.8; stroke-linecap: square"/>
     </g>
     <g id="line2d_28">
      <g>
       <use xlink:href="#m72ec5a0cff" x="48.49" y="215.14" style="stroke: #000000; stroke-width: 0.8"/>
      </g>
     </g>
     <g id="text_14">
      <!-- 0.00 -->
      <g transform="translate(19.224375 218.939219) scale(0.1 -0.1)">
       <use xlink:href="#DejaVuSans-30"/>
       <use xlink:href="#DejaVuSans-2e" transform="translate(63.623047 0)"/>
       <use xlink:href="#DejaVuSans-30" transform="translate(95.410156 0)"/>
       <use xlink:href="#DejaVuSans-30" transform="translate(159.033203 0)"/>
      </g>
     </g>
    </g>
    <g id="ytick_6">
     <g id="line2d_29">
      <path d="M 48.49 169.979697 
L 709.2 169.979697 
" clip-path="url(#p360b782012)" style="fill: none; stroke: #b0b0b0; stroke-width: 0.8; stroke-linecap: square"/>
     </g>
     <g id="line2d_30">
      <g>
       <use xlink:href="#m72ec5a0cff" x="48.49" y="169.979697" style="stroke: #000000; stroke-width: 0.8"/>
      </g>
     </g>
     <g id="text_15">
      <!-- 0.25 -->
      <g transform="translate(19.224375 173.778916) scale(0.1 -0.1)">
       <use xlink:href="#DejaVuSans-30"/>
       <use xlink:href="#DejaVuSans-2e" transform="translate(63.623047 0)"/>
       <use xlink:href="#DejaVuSans-32" transform="translate(95.410156 0)"/>
       <use xlink:href="#DejaVuSans-35" transform="translate(159.033203 0)"/>
      </g>
     </g>
    </g>
    <g id="ytick_7">
     <g id="line2d_31">
      <path d="M 48.49 124.819395 
L 709.2 124.819395 
" clip-path="url(#p360b782012)" style="fill: none; stroke: #b0b0b0; stroke-width: 0.8; stroke-linecap: square"/>
     </g>
     <g id="line2d_32">
      <g>
       <use xlink:href="#m72ec5a0cff" x="48.49" y="124.819395" style="stroke: #000000; stroke-width: 0.8"/>
      </g>
     </g>
     <g id="text_16">
      <!-- 0.50 -->
      <g transform="translate(19.224375 128.618614) scale(0.1 -0.1)">
       <use xlink:href="#DejaVuSans-30"/>
       <use xlink:href="#DejaVuSans-2e" transform="translate(63.623047 0)"/>
       <use xlink:href="#DejaVuSans-35" transform="translate(95.410156 0)"/>
       <use xlink:href="#DejaVuSans-30" transform="translate(159.033203 0)"/>
      </g>
     </g>
    </g>
    <g id="ytick_8">
     <g id="line2d_33">
      <path d="M 48.49 79.659092 
L 709.2 79.659092 
" clip-path="url(#p360b782012)" style="fill: none; stroke: #b0b0b0; stroke-width: 0.8; stroke-linecap: square"/>
     </g>
     <g id="line2d_34">
      <g>
       <use xlink:href="#m72ec5a0cff" x="48.49" y="79.659092" style="stroke: #000000; stroke-width: 0.8"/>
      </g>
     </g>
     <g id="text_17">
      <!-- 0.75 -->
      <g transform="translate(19.224375 83.458311) scale(0.1 -0.1)">
       <use xlink:href="#DejaVuSans-30"/>
       <use xlink:href="#DejaVuSans-2e" transform="translate(63.623047 0)"/>
       <use xlink:href="#DejaVuSans-37" transform="translate(95.410156 0)"/>
       <use xlink:href="#DejaVuSans-35" transform="translate(159.033203 0)"/>
      </g>
     </g>
    </g>
    <g id="ytick_9">
     <g id="line2d_35">
      <path d="M 48.49 34.49879 
L 709.2 34.49879 
" clip-path="url(#p360b782012)" style="fill: none; stroke: #b0b0b0; stroke-width: 0.8; stroke-linecap: square"/>
     </g>
     <g id="line2d_36">
      <g>
       <use xlink:href="#m72ec5a0cff" x="48.49" y="34.49879" style="stroke: #000000; stroke-width: 0.8"/>
      </g>
     </g>
     <g id="text_18">
      <!-- 1.00 -->
      <g transform="translate(19.224375 38.298009) scale(0.1 -0.1)">
       <use xlink:href="#DejaVuSans-31"/>
       <use xlink:href="#DejaVuSans-2e" transform="translate(63.623047 0)"/>
       <use xlink:href="#DejaVuSans-30" transform="translate(95.410156 0)"/>
       <use xlink:href="#DejaVuSans-30" transform="translate(159.033203 0)"/>
      </g>
     </g>
    </g>
   </g>
   <g id="line2d_37">
    <path d="M 78.522273 215.14 
L 81.540592 108.961761 
L 84.55891 43.34 
L 87.577229 43.34 
L 90.595548 108.961761 
L 96.632186 321.318239 
L 99.650505 386.94 
L 102.668824 386.94 
L 105.687143 321.318239 
L 111.72378 108.961761 
L 114.742099 43.34 
L 117.760418 43.34 
L 120.778737 108.961761 
L 126.815375 321.318239 
L 129.833693 386.94 
L 132.852012 386.94 
L 135.870331 321.318239 
L 141.906969 108.961761 
L 144.925288 43.34 
L 147.943607 43.34 
L 150.961926 108.961761 
L 156.998563 321.318239 
L 160.016882 386.94 
L 163.035201 386.94 
L 166.05352 321.318239 
L 172.090158 108.961761 
L 175.108476 43.34 
L 178.126795 43.34 
L 181.145114 108.961761 
L 187.181752 321.318239 
L 190.200071 386.94 
L 193.21839 386.94 
L 196.236709 321.318239 
L 202.273346 108.961761 
L 205.291665 43.34 
L 208.309984 43.34 
L 211.328303 108.961761 
L 217.364941 321.318239 
L 220.383259 386.94 
L 223.401578 386.94 
L 226.419897 321.318239 
L 232.456535 108.961761 
L 235.474854 43.34 
L 238.493173 43.34 
L 241.511492 108.961761 
L 247.548129 321.318239 
L 250.566448 386.94 
L 253.584767 386.94 
L 256.603086 321.318239 
L 262.639724 108.961761 
L 265.658042 43.34 
L 268.676361 43.34 
L 271.69468 108.961761 
L 277.731318 321.318239 
L 280.749637 386.94 
L 283.767956 386.94 
L 286.786275 321.318239 
L 292.822912 108.961761 
L 295.841231 43.34 
L 298.85955 43.34 
L 301.877869 108.961761 
L 307.914507 321.318239 
L 310.932825 386.94 
L 313.951144 386.94 
L 316.969463 321.318239 
L 323.006101 108.961761 
L 326.02442 43.34 
L 329.042739 43.34 
L 332.061058 108.961761 
L 338.097695 321.318239 
L 341.116014 386.94 
L 344.134333 386.94 
L 347.152652 321.318239 
L 353.18929 108.961761 
L 356.207608 43.34 
L 359.225927 43.34 
L 362.244246 108.961761 
L 368.280884 321.318239 
L 371.299203 386.94 
L 374.317522 386.94 
L 377.335841 321.318239 
L 383.372478 108.961761 
L 386.390797 43.34 
L 389.409116 43.34 
L 392.427435 108.961761 
L 398.464073 321.318239 
L 401.482392 386.94 
L 404.50071 386.94 
L 407.519029 321.318239 
L 413.555667 108.961761 
L 416.573986 43.34 
L 419.592305 43.34 
L 422.610624 108.961761 
L 428.647261 321.318239 
L 431.66558 386.94 
L 434.683899 386.94 
L 437.702218 321.318239 
L 443.738856 108.961761 
L 446.757175 43.34 
L 449.775493 43.34 
L 452.793812 108.961761 
L 458.83045 321.318239 
L 461.848769 386.94 
L 464.867088 386.94 
L 467.885407 321.318239 
L 473.922044 108.961761 
L 476.940363 43.34 
L 479.958682 43.34 
L 482.977001 108.961761 
L 489.013639 321.318239 
L 492.031958 386.94 
L 495.050276 386.94 
L 498.068595 321.318239 
L 504.105233 108.961761 
L 507.123552 43.34 
L 510.141871 43.34 
L 513.16019 108.961761 
L 519.196827 321.318239 
L 522.215146 386.94 
L 525.233465 386.94 
L 528.251784 321.318239 
L 534.288422 108.961761 
L 537.306741 43.34 
L 540.325059 43.34 
L 543.343378 108.961761 
L 549.380016 321.318239 
L 552.398335 386.94 
L 555.416654 386.94 
L 558.434973 321.318239 
L 564.47161 108.961761 
L 567.489929 43.34 
L 570.508248 43.34 
L 573.526567 108.961761 
L 579.563205 321.318239 
L 582.581524 386.94 
L 585.599842 386.94 
L 588.618161 321.318239 
L 594.654799 108.961761 
L 597.673118 43.34 
L 600.691437 43.34 
L 603.709756 108.961761 
L 609.746393 321.318239 
L 612.764712 386.94 
L 615.783031 386.94 
L 618.80135 321.318239 
L 624.837988 108.961761 
L 627.856307 43.34 
L 630.874625 43.34 
L 633.892944 108.961761 
L 639.929582 321.318239 
L 642.947901 386.94 
L 645.96622 386.94 
L 648.984539 321.318239 
L 655.021176 108.961761 
L 658.039495 43.34 
L 661.057814 43.34 
L 664.076133 108.961761 
L 670.112771 321.318239 
L 673.13109 386.94 
L 676.149408 386.94 
L 679.167727 321.318239 
L 679.167727 321.318239 
" clip-path="url(#p360b782012)" style="fill: none; stroke: #0000ff; stroke-width: 1.5; stroke-linecap: square"/>
   </g>
   <g id="line2d_38">
    <path d="M 78.522273 215.14 
L 81.540592 215.11354 
L 90.595548 214.717164 
L 93.613867 215.14 
L 96.632186 216.0898 
L 99.650505 217.229509 
L 102.668824 217.865753 
L 105.687143 217.269069 
L 108.705461 215.14 
L 111.72378 211.970108 
L 114.742099 209.047751 
L 117.760418 208.004942 
L 120.778737 210.037276 
L 123.797056 215.14 
L 126.815375 221.77152 
L 129.833693 227.219878 
L 132.852012 228.643318 
L 135.870331 224.409844 
L 138.88865 215.14 
L 141.906969 203.89141 
L 144.925288 195.236519 
L 147.943607 193.467852 
L 150.961926 200.613211 
L 153.980244 215.14 
L 156.998563 232.046271 
L 160.016882 244.508476 
L 163.035201 246.578382 
L 166.05352 235.882813 
L 169.071839 215.14 
L 172.090158 191.676148 
L 175.108476 174.90054 
L 178.126795 172.580874 
L 181.145114 187.376681 
L 184.163433 215.14 
L 187.181752 245.89824 
L 190.200071 267.386064 
L 193.21839 269.897796 
L 196.236709 250.553701 
L 199.255027 215.14 
L 202.273346 176.531983 
L 205.291665 150.05033 
L 208.309984 147.409 
L 211.328303 171.636315 
L 214.346622 215.14 
L 217.364941 261.957952 
L 220.383259 293.590848 
L 223.401578 296.296084 
L 226.419897 266.972068 
L 229.438216 215.14 
L 232.456535 159.956143 
L 235.474854 123.142706 
L 238.493173 120.440847 
L 241.511492 154.948285 
L 244.52981 215.14 
L 247.548129 278.637664 
L 250.566448 320.532094 
L 253.584767 323.16338 
L 256.603086 283.514715 
L 259.621405 215.14 
L 262.639724 143.5874 
L 265.658042 96.837892 
L 268.676361 94.342622 
L 271.69468 138.962453 
L 274.712999 215.14 
L 277.731318 294.288334 
L 280.749637 345.546253 
L 283.767956 347.843447 
L 286.786275 298.54615 
L 292.822912 129.044049 
L 295.841231 73.736513 
L 298.85955 71.694528 
L 301.877869 125.259259 
L 307.914507 307.362659 
L 310.932825 366.1603 
L 313.951144 367.89629 
L 316.969463 310.580292 
L 323.006101 117.763919 
L 326.02442 56.122487 
L 329.042739 54.735668 
L 332.061058 115.193469 
L 338.097695 316.568046 
L 341.116014 380.336228 
L 344.134333 381.339385 
L 347.152652 318.427384 
L 353.18929 110.86222 
L 356.207608 45.737225 
L 359.225927 45.14268 
L 362.244246 109.760238 
L 368.280884 320.994405 
L 371.299203 386.672532 
L 374.317522 386.84368 
L 377.335841 321.311624 
L 383.372478 109.02129 
L 386.390797 43.607468 
L 389.409116 43.863975 
L 392.427435 109.496723 
L 398.464073 320.204122 
L 401.482392 384.542775 
L 404.50071 383.864992 
L 407.519029 318.947861 
L 413.555667 112.423131 
L 416.573986 49.943772 
L 419.592305 51.025973 
L 422.610624 114.428976 
L 428.647261 314.275329 
L 431.66558 374.157513 
L 434.683899 372.697809 
L 437.702218 311.569788 
L 443.738856 120.731421 
L 446.757175 64.1197 
L 449.775493 65.920603 
L 452.793812 124.069369 
L 458.83045 303.794177 
L 461.848769 356.543487 
L 464.867088 354.446175 
L 467.885407 299.906839 
L 473.922044 133.124759 
L 476.940363 84.733747 
L 479.958682 87.075306 
L 482.977001 137.464805 
L 485.99532 215.14 
L 489.013639 289.796885 
L 492.031958 333.442108 
L 495.050276 330.914539 
L 498.068595 285.112072 
L 501.086914 215.14 
L 504.105233 148.37788 
L 507.123552 109.747906 
L 510.141871 112.398622 
L 513.16019 153.290944 
L 516.178508 215.14 
L 519.196827 273.667295 
L 522.215146 307.137294 
L 525.233465 304.429356 
L 528.251784 268.648172 
L 531.270103 215.14 
L 534.288422 164.982782 
L 537.306741 136.689152 
L 540.325059 139.386962 
L 543.343378 169.983135 
L 546.361697 215.14 
L 549.380016 257.00006 
L 552.398335 280.22967 
L 555.416654 277.609084 
L 558.434973 252.142841 
L 561.453291 215.14 
L 564.47161 181.297821 
L 567.489929 162.893936 
L 570.508248 165.372122 
L 573.526567 185.891102 
L 576.544886 215.14 
L 579.563205 241.442986 
L 582.581524 255.37946 
L 585.599842 253.10531 
L 588.618161 237.227881 
L 591.63648 215.14 
L 594.654799 195.710011 
L 597.673118 185.771524 
L 600.691437 187.785079 
L 603.709756 199.442106 
L 606.728074 215.14 
L 609.746393 228.534124 
L 612.764712 235.043481 
L 615.783031 233.340601 
L 618.80135 225.37786 
L 621.819669 215.14 
L 624.837988 206.794491 
L 627.856307 203.060122 
L 630.874625 204.409975 
L 633.892944 209.296425 
L 636.911263 215.14 
L 639.929582 219.549708 
L 642.947901 221.232249 
L 645.96622 220.268993 
L 652.002857 215.14 
L 655.021176 213.455392 
L 658.039495 213.050491 
L 661.057814 213.603191 
L 664.076133 214.479813 
L 667.094452 215.14 
L 670.112771 215.377984 
L 679.167727 215.14 
L 679.167727 215.14 
" clip-path="url(#p360b782012)" style="fill: none; stroke: #ffa500; stroke-width: 1.5; stroke-linecap: square"/>
   </g>
   <g id="patch_3">
    <path d="M 48.49 404.12 
L 48.49 26.16 
" style="fill: none; stroke: #000000; stroke-width: 0.8; stroke-linejoin: miter; stroke-linecap: square"/>
   </g>
   <g id="patch_4">
    <path d="M 709.2 404.12 
L 709.2 26.16 
" style="fill: none; stroke: #000000; stroke-width: 0.8; stroke-linejoin: miter; stroke-linecap: square"/>
   </g>
   <g id="patch_5">
    <path d="M 48.49 404.12 
L 709.2 404.12 
" style="fill: none; stroke: #000000; stroke-width: 0.8; stroke-linejoin: miter; stroke-linecap: square"/>
   </g>
   <g id="patch_6">
    <path d="M 48.49 26.16 
L 709.2 26.16 
" style="fill: none; stroke: #000000; stroke-width: 0.8; stroke-linejoin: miter; stroke-linecap: square"/>
   </g>
   <g id="text_19">
    <!-- Signal with Rectangular and Hanning Windows -->
    <g transform="translate(238.866875 20.16) scale(0.12 -0.12)">
     <defs>
      <path id="DejaVuSans-53" d="M 3425 4513 
L 3425 3897 
Q 3066 4069 2747 4153 
Q 2428 4238 2131 4238 
Q 1616 4238 1336 4038 
Q 1056 3838 1056 3469 
Q 1056 3159 1242 3001 
Q 1428 2844 1947 2747 
L 2328 2669 
Q 3034 2534 3370 2195 
Q 3706 1856 3706 1288 
Q 3706 609 3251 259 
Q 2797 -91 1919 -91 
Q 1588 -91 1214 -16 
Q 841 59 441 206 
L 441 856 
Q 825 641 1194 531 
Q 1563 422 1919 422 
Q 2459 422 2753 634 
Q 3047 847 3047 1241 
Q 3047 1584 2836 1778 
Q 2625 1972 2144 2069 
L 1759 2144 
Q 1053 2284 737 2584 
Q 422 2884 422 3419 
Q 422 4038 858 4394 
Q 1294 4750 2059 4750 
Q 2388 4750 2728 4690 
Q 3069 4631 3425 4513 
z
" transform="scale(0.015625)"/>
      <path id="DejaVuSans-69" d="M 603 3500 
L 1178 3500 
L 1178 0 
L 603 0 
L 603 3500 
z
M 603 4863 
L 1178 4863 
L 1178 4134 
L 603 4134 
L 603 4863 
z
" transform="scale(0.015625)"/>
      <path id="DejaVuSans-67" d="M 2906 1791 
Q 2906 2416 2648 2759 
Q 2391 3103 1925 3103 
Q 1463 3103 1205 2759 
Q 947 2416 947 1791 
Q 947 1169 1205 825 
Q 1463 481 1925 481 
Q 2391 481 2648 825 
Q 2906 1169 2906 1791 
z
M 3481 434 
Q 3481 -459 3084 -895 
Q 2688 -1331 1869 -1331 
Q 1566 -1331 1297 -1286 
Q 1028 -1241 775 -1147 
L 775 -588 
Q 1028 -725 1275 -790 
Q 1522 -856 1778 -856 
Q 2344 -856 2625 -561 
Q 2906 -266 2906 331 
L 2906 616 
Q 2728 306 2450 153 
Q 2172 0 1784 0 
Q 1141 0 747 490 
Q 353 981 353 1791 
Q 353 2603 747 3093 
Q 1141 3584 1784 3584 
Q 2172 3584 2450 3431 
Q 2728 3278 2906 2969 
L 2906 3500 
L 3481 3500 
L 3481 434 
z
" transform="scale(0.015625)"/>
      <path id="DejaVuSans-6e" d="M 3513 2113 
L 3513 0 
L 2938 0 
L 2938 2094 
Q 2938 2591 2744 2837 
Q 2550 3084 2163 3084 
Q 1697 3084 1428 2787 
Q 1159 2491 1159 1978 
L 1159 0 
L 581 0 
L 581 3500 
L 1159 3500 
L 1159 2956 
Q 1366 3272 1645 3428 
Q 1925 3584 2291 3584 
Q 2894 3584 3203 3211 
Q 3513 2838 3513 2113 
z
" transform="scale(0.015625)"/>
      <path id="DejaVuSans-61" d="M 2194 1759 
Q 1497 1759 1228 1600 
Q 959 1441 959 1056 
Q 959 750 1161 570 
Q 1363 391 1709 391 
Q 2188 391 2477 730 
Q 2766 1069 2766 1631 
L 2766 1759 
L 2194 1759 
z
M 3341 1997 
L 3341 0 
L 2766 0 
L 2766 531 
Q 2569 213 2275 61 
Q 1981 -91 1556 -91 
Q 1019 -91 701 211 
Q 384 513 384 1019 
Q 384 1609 779 1909 
Q 1175 2209 1959 2209 
L 2766 2209 
L 2766 2266 
Q 2766 2663 2505 2880 
Q 2244 3097 1772 3097 
Q 1472 3097 1187 3025 
Q 903 2953 641 2809 
L 641 3341 
Q 956 3463 1253 3523 
Q 1550 3584 1831 3584 
Q 2591 3584 2966 3190 
Q 3341 2797 3341 1997 
z
" transform="scale(0.015625)"/>
      <path id="DejaVuSans-6c" d="M 603 4863 
L 1178 4863 
L 1178 0 
L 603 0 
L 603 4863 
z
" transform="scale(0.015625)"/>
      <path id="DejaVuSans-20" transform="scale(0.015625)"/>
      <path id="DejaVuSans-77" d="M 269 3500 
L 844 3500 
L 1563 769 
L 2278 3500 
L 2956 3500 
L 3675 769 
L 4391 3500 
L 4966 3500 
L 4050 0 
L 3372 0 
L 2619 2869 
L 1863 0 
L 1184 0 
L 269 3500 
z
" transform="scale(0.015625)"/>
      <path id="DejaVuSans-74" d="M 1172 4494 
L 1172 3500 
L 2356 3500 
L 2356 3053 
L 1172 3053 
L 1172 1153 
Q 1172 725 1289 603 
Q 1406 481 1766 481 
L 2356 481 
L 2356 0 
L 1766 0 
Q 1100 0 847 248 
Q 594 497 594 1153 
L 594 3053 
L 172 3053 
L 172 3500 
L 594 3500 
L 594 4494 
L 1172 4494 
z
" transform="scale(0.015625)"/>
      <path id="DejaVuSans-68" d="M 3513 2113 
L 3513 0 
L 2938 0 
L 2938 2094 
Q 2938 2591 2744 2837 
Q 2550 3084 2163 3084 
Q 1697 3084 1428 2787 
Q 1159 2491 1159 1978 
L 1159 0 
L 581 0 
L 581 4863 
L 1159 4863 
L 1159 2956 
Q 1366 3272 1645 3428 
Q 1925 3584 2291 3584 
Q 2894 3584 3203 3211 
Q 3513 2838 3513 2113 
z
" transform="scale(0.015625)"/>
      <path id="DejaVuSans-52" d="M 2841 2188 
Q 3044 2119 3236 1894 
Q 3428 1669 3622 1275 
L 4263 0 
L 3584 0 
L 2988 1197 
Q 2756 1666 2539 1819 
Q 2322 1972 1947 1972 
L 1259 1972 
L 1259 0 
L 628 0 
L 628 4666 
L 2053 4666 
Q 2853 4666 3247 4331 
Q 3641 3997 3641 3322 
Q 3641 2881 3436 2590 
Q 3231 2300 2841 2188 
z
M 1259 4147 
L 1259 2491 
L 2053 2491 
Q 2509 2491 2742 2702 
Q 2975 2913 2975 3322 
Q 2975 3731 2742 3939 
Q 2509 4147 2053 4147 
L 1259 4147 
z
" transform="scale(0.015625)"/>
      <path id="DejaVuSans-65" d="M 3597 1894 
L 3597 1613 
L 953 1613 
Q 991 1019 1311 708 
Q 1631 397 2203 397 
Q 2534 397 2845 478 
Q 3156 559 3463 722 
L 3463 178 
Q 3153 47 2828 -22 
Q 2503 -91 2169 -91 
Q 1331 -91 842 396 
Q 353 884 353 1716 
Q 353 2575 817 3079 
Q 1281 3584 2069 3584 
Q 2775 3584 3186 3129 
Q 3597 2675 3597 1894 
z
M 3022 2063 
Q 3016 2534 2758 2815 
Q 2500 3097 2075 3097 
Q 1594 3097 1305 2825 
Q 1016 2553 972 2059 
L 3022 2063 
z
" transform="scale(0.015625)"/>
      <path id="DejaVuSans-63" d="M 3122 3366 
L 3122 2828 
Q 2878 2963 2633 3030 
Q 2388 3097 2138 3097 
Q 1578 3097 1268 2742 
Q 959 2388 959 1747 
Q 959 1106 1268 751 
Q 1578 397 2138 397 
Q 2388 397 2633 464 
Q 2878 531 3122 666 
L 3122 134 
Q 2881 22 2623 -34 
Q 2366 -91 2075 -91 
Q 1284 -91 818 406 
Q 353 903 353 1747 
Q 353 2603 823 3093 
Q 1294 3584 2113 3584 
Q 2378 3584 2631 3529 
Q 2884 3475 3122 3366 
z
" transform="scale(0.015625)"/>
      <path id="DejaVuSans-75" d="M 544 1381 
L 544 3500 
L 1119 3500 
L 1119 1403 
Q 1119 906 1312 657 
Q 1506 409 1894 409 
Q 2359 409 2629 706 
Q 2900 1003 2900 1516 
L 2900 3500 
L 3475 3500 
L 3475 0 
L 2900 0 
L 2900 538 
Q 2691 219 2414 64 
Q 2138 -91 1772 -91 
Q 1169 -91 856 284 
Q 544 659 544 1381 
z
M 1991 3584 
L 1991 3584 
z
" transform="scale(0.015625)"/>
      <path id="DejaVuSans-72" d="M 2631 2963 
Q 2534 3019 2420 3045 
Q 2306 3072 2169 3072 
Q 1681 3072 1420 2755 
Q 1159 2438 1159 1844 
L 1159 0 
L 581 0 
L 581 3500 
L 1159 3500 
L 1159 2956 
Q 1341 3275 1631 3429 
Q 1922 3584 2338 3584 
Q 2397 3584 2469 3576 
Q 2541 3569 2628 3553 
L 2631 2963 
z
" transform="scale(0.015625)"/>
      <path id="DejaVuSans-64" d="M 2906 2969 
L 2906 4863 
L 3481 4863 
L 3481 0 
L 2906 0 
L 2906 525 
Q 2725 213 2448 61 
Q 2172 -91 1784 -91 
Q 1150 -91 751 415 
Q 353 922 353 1747 
Q 353 2572 751 3078 
Q 1150 3584 1784 3584 
Q 2172 3584 2448 3432 
Q 2725 3281 2906 2969 
z
M 947 1747 
Q 947 1113 1208 752 
Q 1469 391 1925 391 
Q 2381 391 2643 752 
Q 2906 1113 2906 1747 
Q 2906 2381 2643 2742 
Q 2381 3103 1925 3103 
Q 1469 3103 1208 2742 
Q 947 2381 947 1747 
z
" transform="scale(0.015625)"/>
      <path id="DejaVuSans-48" d="M 628 4666 
L 1259 4666 
L 1259 2753 
L 3553 2753 
L 3553 4666 
L 4184 4666 
L 4184 0 
L 3553 0 
L 3553 2222 
L 1259 2222 
L 1259 0 
L 628 0 
L 628 4666 
z
" transform="scale(0.015625)"/>
      <path id="DejaVuSans-57" d="M 213 4666 
L 850 4666 
L 1831 722 
L 2809 4666 
L 3519 4666 
L 4500 722 
L 5478 4666 
L 6119 4666 
L 4947 0 
L 4153 0 
L 3169 4050 
L 2175 0 
L 1381 0 
L 213 4666 
z
" transform="scale(0.015625)"/>
      <path id="DejaVuSans-6f" d="M 1959 3097 
Q 1497 3097 1228 2736 
Q 959 2375 959 1747 
Q 959 1119 1226 758 
Q 1494 397 1959 397 
Q 2419 397 2687 759 
Q 2956 1122 2956 1747 
Q 2956 2369 2687 2733 
Q 2419 3097 1959 3097 
z
M 1959 3584 
Q 2709 3584 3137 3096 
Q 3566 2609 3566 1747 
Q 3566 888 3137 398 
Q 2709 -91 1959 -91 
Q 1206 -91 779 398 
Q 353 888 353 1747 
Q 353 2609 779 3096 
Q 1206 3584 1959 3584 
z
" transform="scale(0.015625)"/>
      <path id="DejaVuSans-73" d="M 2834 3397 
L 2834 2853 
Q 2591 2978 2328 3040 
Q 2066 3103 1784 3103 
Q 1356 3103 1142 2972 
Q 928 2841 928 2578 
Q 928 2378 1081 2264 
Q 1234 2150 1697 2047 
L 1894 2003 
Q 2506 1872 2764 1633 
Q 3022 1394 3022 966 
Q 3022 478 2636 193 
Q 2250 -91 1575 -91 
Q 1294 -91 989 -36 
Q 684 19 347 128 
L 347 722 
Q 666 556 975 473 
Q 1284 391 1588 391 
Q 1994 391 2212 530 
Q 2431 669 2431 922 
Q 2431 1156 2273 1281 
Q 2116 1406 1581 1522 
L 1381 1569 
Q 847 1681 609 1914 
Q 372 2147 372 2553 
Q 372 3047 722 3315 
Q 1072 3584 1716 3584 
Q 2034 3584 2315 3537 
Q 2597 3491 2834 3397 
z
" transform="scale(0.015625)"/>
     </defs>
     <use xlink:href="#DejaVuSans-53"/>
     <use xlink:href="#DejaVuSans-69" transform="translate(63.476562 0)"/>
     <use xlink:href="#DejaVuSans-67" transform="translate(91.259766 0)"/>
     <use xlink:href="#DejaVuSans-6e" transform="translate(154.736328 0)"/>
     <use xlink:href="#DejaVuSans-61" transform="translate(218.115234 0)"/>
     <use xlink:href="#DejaVuSans-6c" transform="translate(279.394531 0)"/>
     <use xlink:href="#DejaVuSans-20" transform="translate(307.177734 0)"/>
     <use xlink:href="#DejaVuSans-77" transform="translate(338.964844 0)"/>
     <use xlink:href="#DejaVuSans-69" transform="translate(420.751953 0)"/>
     <use xlink:href="#DejaVuSans-74" transform="translate(448.535156 0)"/>
     <use xlink:href="#DejaVuSans-68" transform="translate(487.744141 0)"/>
     <use xlink:href="#DejaVuSans-20" transform="translate(551.123047 0)"/>
     <use xlink:href="#DejaVuSans-52" transform="translate(582.910156 0)"/>
     <use xlink:href="#DejaVuSans-65" transform="translate(647.892578 0)"/>
     <use xlink:href="#DejaVuSans-63" transform="translate(709.416016 0)"/>
     <use xlink:href="#DejaVuSans-74" transform="translate(764.396484 0)"/>
     <use xlink:href="#DejaVuSans-61" transform="translate(803.605469 0)"/>
     <use xlink:href="#DejaVuSans-6e" transform="translate(864.884766 0)"/>
     <use xlink:href="#DejaVuSans-67" transform="translate(928.263672 0)"/>
     <use xlink:href="#DejaVuSans-75" transform="translate(991.740234 0)"/>
     <use xlink:href="#DejaVuSans-6c" transform="translate(1055.119141 0)"/>
     <use xlink:href="#DejaVuSans-61" transform="translate(1082.902344 0)"/>
     <use xlink:href="#DejaVuSans-72" transform="translate(1144.181641 0)"/>
     <use xlink:href="#DejaVuSans-20" transform="translate(1185.294922 0)"/>
     <use xlink:href="#DejaVuSans-61" transform="translate(1217.082031 0)"/>
     <use xlink:href="#DejaVuSans-6e" transform="translate(1278.361328 0)"/>
     <use xlink:href="#DejaVuSans-64" transform="translate(1341.740234 0)"/>
     <use xlink:href="#DejaVuSans-20" transform="translate(1405.216797 0)"/>
     <use xlink:href="#DejaVuSans-48" transform="translate(1437.003906 0)"/>
     <use xlink:href="#DejaVuSans-61" transform="translate(1512.199219 0)"/>
     <use xlink:href="#DejaVuSans-6e" transform="translate(1573.478516 0)"/>
     <use xlink:href="#DejaVuSans-6e" transform="translate(1636.857422 0)"/>
     <use xlink:href="#DejaVuSans-69" transform="translate(1700.236328 0)"/>
     <use xlink:href="#DejaVuSans-6e" transform="translate(1728.019531 0)"/>
     <use xlink:href="#DejaVuSans-67" transform="translate(1791.398438 0)"/>
     <use xlink:href="#DejaVuSans-20" transform="translate(1854.875 0)"/>
     <use xlink:href="#DejaVuSans-57" transform="translate(1886.662109 0)"/>
     <use xlink:href="#DejaVuSans-69" transform="translate(1983.289062 0)"/>
     <use xlink:href="#DejaVuSans-6e" transform="translate(2011.072266 0)"/>
     <use xlink:href="#DejaVuSans-64" transform="translate(2074.451172 0)"/>
     <use xlink:href="#DejaVuSans-6f" transform="translate(2137.927734 0)"/>
     <use xlink:href="#DejaVuSans-77" transform="translate(2199.109375 0)"/>
     <use xlink:href="#DejaVuSans-73" transform="translate(2280.896484 0)"/>
    </g>
   </g>
   <g id="legend_1">
    <g id="patch_7">
     <path d="M 55.49 399.12 
L 190.330625 399.12 
Q 192.330625 399.12 192.330625 397.12 
L 192.330625 368.76375 
Q 192.330625 366.76375 190.330625 366.76375 
L 55.49 366.76375 
Q 53.49 366.76375 53.49 368.76375 
L 53.49 397.12 
Q 53.49 399.12 55.49 399.12 
z
" style="fill: #ffffff; opacity: 0.8; stroke: #cccccc; stroke-linejoin: miter"/>
    </g>
    <g id="line2d_39">
     <path d="M 57.49 374.862188 
L 67.49 374.862188 
L 77.49 374.862188 
" style="fill: none; stroke: #0000ff; stroke-width: 1.5; stroke-linecap: square"/>
    </g>
    <g id="text_20">
     <!-- Rectangular Window -->
     <g transform="translate(85.49 378.362188) scale(0.1 -0.1)">
      <use xlink:href="#DejaVuSans-52"/>
      <use xlink:href="#DejaVuSans-65" transform="translate(64.982422 0)"/>
      <use xlink:href="#DejaVuSans-63" transform="translate(126.505859 0)"/>
      <use xlink:href="#DejaVuSans-74" transform="translate(181.486328 0)"/>
      <use xlink:href="#DejaVuSans-61" transform="translate(220.695312 0)"/>
      <use xlink:href="#DejaVuSans-6e" transform="translate(281.974609 0)"/>
      <use xlink:href="#DejaVuSans-67" transform="translate(345.353516 0)"/>
      <use xlink:href="#DejaVuSans-75" transform="translate(408.830078 0)"/>
      <use xlink:href="#DejaVuSans-6c" transform="translate(472.208984 0)"/>
      <use xlink:href="#DejaVuSans-61" transform="translate(499.992188 0)"/>
      <use xlink:href="#DejaVuSans-72" transform="translate(561.271484 0)"/>
      <use xlink:href="#DejaVuSans-20" transform="translate(602.384766 0)"/>
      <use xlink:href="#DejaVuSans-57" transform="translate(634.171875 0)"/>
      <use xlink:href="#DejaVuSans-69" transform="translate(730.798828 0)"/>
      <use xlink:href="#DejaVuSans-6e" transform="translate(758.582031 0)"/>
      <use xlink:href="#DejaVuSans-64" transform="translate(821.960938 0)"/>
      <use xlink:href="#DejaVuSans-6f" transform="translate(885.4375 0)"/>
      <use xlink:href="#DejaVuSans-77" transform="translate(946.619141 0)"/>
     </g>
    </g>
    <g id="line2d_40">
     <path d="M 57.49 389.540312 
L 67.49 389.540312 
L 77.49 389.540312 
" style="fill: none; stroke: #ffa500; stroke-width: 1.5; stroke-linecap: square"/>
    </g>
    <g id="text_21">
     <!-- Hanning Window -->
     <g transform="translate(85.49 393.040312) scale(0.1 -0.1)">
      <use xlink:href="#DejaVuSans-48"/>
      <use xlink:href="#DejaVuSans-61" transform="translate(75.195312 0)"/>
      <use xlink:href="#DejaVuSans-6e" transform="translate(136.474609 0)"/>
      <use xlink:href="#DejaVuSans-6e" transform="translate(199.853516 0)"/>
      <use xlink:href="#DejaVuSans-69" transform="translate(263.232422 0)"/>
      <use xlink:href="#DejaVuSans-6e" transform="translate(291.015625 0)"/>
      <use xlink:href="#DejaVuSans-67" transform="translate(354.394531 0)"/>
      <use xlink:href="#DejaVuSans-20" transform="translate(417.871094 0)"/>
      <use xlink:href="#DejaVuSans-57" transform="translate(449.658203 0)"/>
      <use xlink:href="#DejaVuSans-69" transform="translate(546.285156 0)"/>
      <use xlink:href="#DejaVuSans-6e" transform="translate(574.068359 0)"/>
      <use xlink:href="#DejaVuSans-64" transform="translate(637.447266 0)"/>
      <use xlink:href="#DejaVuSans-6f" transform="translate(700.923828 0)"/>
      <use xlink:href="#DejaVuSans-77" transform="translate(762.105469 0)"/>
     </g>
    </g>
   </g>
  </g>
 </g>
 <defs>
  <clipPath id="p360b782012">
   <rect x="48.49" y="26.16" width="660.71" height="377.96"/>
  </clipPath>
 </defs>
</svg>
