<?xml version="1.0" encoding="utf-8" standalone="no"?>
<!DOCTYPE svg PUBLIC "-//W3C//DTD SVG 1.1//EN"
  "http://www.w3.org/Graphics/SVG/1.1/DTD/svg11.dtd">
<svg xmlns:xlink="http://www.w3.org/1999/xlink" width="720pt" height="288pt" viewBox="0 0 720 288" xmlns="http://www.w3.org/2000/svg" version="1.1">
 <metadata>
  <rdf:RDF xmlns:dc="http://purl.org/dc/elements/1.1/" xmlns:cc="http://creativecommons.org/ns#" xmlns:rdf="http://www.w3.org/1999/02/22-rdf-syntax-ns#">
   <cc:Work>
    <dc:type rdf:resource="http://purl.org/dc/dcmitype/StillImage"/>
    <dc:date>2025-12-02T17:57:09.080688</dc:date>
    <dc:format>image/svg+xml</dc:format>
    <dc:creator>
     <cc:Agent>
      <dc:title>Matplotlib v3.10.6, https://matplotlib.org/</dc:title>
     </cc:Agent>
    </dc:creator>
   </cc:Work>
  </rdf:RDF>
 </metadata>
 <defs>
  <style type="text/css">*{stroke-linejoin: round; stroke-linecap: butt}</style>
 </defs>
 <g id="figure_1">
  <g id="patch_1">
   <path d="M 0 288 
L 720 288 
L 720 0 
L 0 0 
z
" style="fill: #ffffff"/>
  </g>
  <g id="axes_1">
   <g id="patch_2">
    <path d="M 90 256.32 
L 648 256.32 
L 648 34.56 
L 90 34.56 
z
" style="fill: #ffffff"/>
   </g>
   <g id="matplotlib.axis_1">
    <g id="xtick_1">
     <g id="line2d_1">
      <defs>
       <path id="mf08dec7ed9" d="M 0 0 
L 0 3.5 
" style="stroke: #000000; stroke-width: 0.8"/>
      </defs>
      <g>
       <use xlink:href="#mf08dec7ed9" x="115.363636" y="256.32" style="stroke: #000000; stroke-width: 0.8"/>
      </g>
     </g>
     <g id="text_1">
      <!-- 0 -->
      <g transform="translate(112.182386 270.918437) scale(0.1 -0.1)">
       <defs>
        <path id="DejaVuSans-30" d="M 2034 4250 
Q 1547 4250 1301 3770 
Q 1056 3291 1056 2328 
Q 1056 1369 1301 889 
Q 1547 409 2034 409 
Q 2525 409 2770 889 
Q 3016 1369 3016 2328 
Q 3016 3291 2770 3770 
Q 2525 4250 2034 4250 
z
M 2034 4750 
Q 2819 4750 3233 4129 
Q 3647 3509 3647 2328 
Q 3647 1150 3233 529 
Q 2819 -91 2034 -91 
Q 1250 -91 836 529 
Q 422 1150 422 2328 
Q 422 3509 836 4129 
Q 1250 4750 2034 4750 
z
" transform="scale(0.015625)"/>
       </defs>
       <use xlink:href="#DejaVuSans-30"/>
      </g>
     </g>
    </g>
    <g id="xtick_2">
     <g id="line2d_2">
      <g>
       <use xlink:href="#mf08dec7ed9" x="216.919738" y="256.32" style="stroke: #000000; stroke-width: 0.8"/>
      </g>
     </g>
     <g id="text_2">
      <!-- 200 -->
      <g transform="translate(207.375988 270.918437) scale(0.1 -0.1)">
       <defs>
        <path id="DejaVuSans-32" d="M 1228 531 
L 3431 531 
L 3431 0 
L 469 0 
L 469 531 
Q 828 903 1448 1529 
Q 2069 2156 2228 2338 
Q 2531 2678 2651 2914 
Q 2772 3150 2772 3378 
Q 2772 3750 2511 3984 
Q 2250 4219 1831 4219 
Q 1534 4219 1204 4116 
Q 875 4013 500 3803 
L 500 4441 
Q 881 4594 1212 4672 
Q 1544 4750 1819 4750 
Q 2544 4750 2975 4387 
Q 3406 4025 3406 3419 
Q 3406 3131 3298 2873 
Q 3191 2616 2906 2266 
Q 2828 2175 2409 1742 
Q 1991 1309 1228 531 
z
" transform="scale(0.015625)"/>
       </defs>
       <use xlink:href="#DejaVuSans-32"/>
       <use xlink:href="#DejaVuSans-30" transform="translate(63.623047 0)"/>
       <use xlink:href="#DejaVuSans-30" transform="translate(127.246094 0)"/>
      </g>
     </g>
    </g>
    <g id="xtick_3">
     <g id="line2d_3">
      <g>
       <use xlink:href="#mf08dec7ed9" x="318.475839" y="256.32" style="stroke: #000000; stroke-width: 0.8"/>
      </g>
     </g>
     <g id="text_3">
      <!-- 400 -->
      <g transform="translate(308.932089 270.918437) scale(0.1 -0.1)">
       <defs>
        <path id="DejaVuSans-34" d="M 2419 4116 
L 825 1625 
L 2419 1625 
L 2419 4116 
z
M 2253 4666 
L 3047 4666 
L 3047 1625 
L 3713 1625 
L 3713 1100 
L 3047 1100 
L 3047 0 
L 2419 0 
L 2419 1100 
L 313 1100 
L 313 1709 
L 2253 4666 
z
" transform="scale(0.015625)"/>
       </defs>
       <use xlink:href="#DejaVuSans-34"/>
       <use xlink:href="#DejaVuSans-30" transform="translate(63.623047 0)"/>
       <use xlink:href="#DejaVuSans-30" transform="translate(127.246094 0)"/>
      </g>
     </g>
    </g>
    <g id="xtick_4">
     <g id="line2d_4">
      <g>
       <use xlink:href="#mf08dec7ed9" x="420.031941" y="256.32" style="stroke: #000000; stroke-width: 0.8"/>
      </g>
     </g>
     <g id="text_4">
      <!-- 600 -->
      <g transform="translate(410.488191 270.918437) scale(0.1 -0.1)">
       <defs>
        <path id="DejaVuSans-36" d="M 2113 2584 
Q 1688 2584 1439 2293 
Q 1191 2003 1191 1497 
Q 1191 994 1439 701 
Q 1688 409 2113 409 
Q 2538 409 2786 701 
Q 3034 994 3034 1497 
Q 3034 2003 2786 2293 
Q 2538 2584 2113 2584 
z
M 3366 4563 
L 3366 3988 
Q 3128 4100 2886 4159 
Q 2644 4219 2406 4219 
Q 1781 4219 1451 3797 
Q 1122 3375 1075 2522 
Q 1259 2794 1537 2939 
Q 1816 3084 2150 3084 
Q 2853 3084 3261 2657 
Q 3669 2231 3669 1497 
Q 3669 778 3244 343 
Q 2819 -91 2113 -91 
Q 1303 -91 875 529 
Q 447 1150 447 2328 
Q 447 3434 972 4092 
Q 1497 4750 2381 4750 
Q 2619 4750 2861 4703 
Q 3103 4656 3366 4563 
z
" transform="scale(0.015625)"/>
       </defs>
       <use xlink:href="#DejaVuSans-36"/>
       <use xlink:href="#DejaVuSans-30" transform="translate(63.623047 0)"/>
       <use xlink:href="#DejaVuSans-30" transform="translate(127.246094 0)"/>
      </g>
     </g>
    </g>
    <g id="xtick_5">
     <g id="line2d_5">
      <g>
       <use xlink:href="#mf08dec7ed9" x="521.588043" y="256.32" style="stroke: #000000; stroke-width: 0.8"/>
      </g>
     </g>
     <g id="text_5">
      <!-- 800 -->
      <g transform="translate(512.044293 270.918437) scale(0.1 -0.1)">
       <defs>
        <path id="DejaVuSans-38" d="M 2034 2216 
Q 1584 2216 1326 1975 
Q 1069 1734 1069 1313 
Q 1069 891 1326 650 
Q 1584 409 2034 409 
Q 2484 409 2743 651 
Q 3003 894 3003 1313 
Q 3003 1734 2745 1975 
Q 2488 2216 2034 2216 
z
M 1403 2484 
Q 997 2584 770 2862 
Q 544 3141 544 3541 
Q 544 4100 942 4425 
Q 1341 4750 2034 4750 
Q 2731 4750 3128 4425 
Q 3525 4100 3525 3541 
Q 3525 3141 3298 2862 
Q 3072 2584 2669 2484 
Q 3125 2378 3379 2068 
Q 3634 1759 3634 1313 
Q 3634 634 3220 271 
Q 2806 -91 2034 -91 
Q 1263 -91 848 271 
Q 434 634 434 1313 
Q 434 1759 690 2068 
Q 947 2378 1403 2484 
z
M 1172 3481 
Q 1172 3119 1398 2916 
Q 1625 2713 2034 2713 
Q 2441 2713 2670 2916 
Q 2900 3119 2900 3481 
Q 2900 3844 2670 4047 
Q 2441 4250 2034 4250 
Q 1625 4250 1398 4047 
Q 1172 3844 1172 3481 
z
" transform="scale(0.015625)"/>
       </defs>
       <use xlink:href="#DejaVuSans-38"/>
       <use xlink:href="#DejaVuSans-30" transform="translate(63.623047 0)"/>
       <use xlink:href="#DejaVuSans-30" transform="translate(127.246094 0)"/>
      </g>
     </g>
    </g>
    <g id="xtick_6">
     <g id="line2d_6">
      <g>
       <use xlink:href="#mf08dec7ed9" x="623.144144" y="256.32" style="stroke: #000000; stroke-width: 0.8"/>
      </g>
     </g>
     <g id="text_6">
      <!-- 1000 -->
      <g transform="translate(610.419144 270.918437) scale(0.1 -0.1)">
       <defs>
        <path id="DejaVuSans-31" d="M 794 531 
L 1825 531 
L 1825 4091 
L 703 3866 
L 703 4441 
L 1819 4666 
L 2450 4666 
L 2450 531 
L 3481 531 
L 3481 0 
L 794 0 
L 794 531 
z
" transform="scale(0.015625)"/>
       </defs>
       <use xlink:href="#DejaVuSans-31"/>
       <use xlink:href="#DejaVuSans-30" transform="translate(63.623047 0)"/>
       <use xlink:href="#DejaVuSans-30" transform="translate(127.246094 0)"/>
       <use xlink:href="#DejaVuSans-30" transform="translate(190.869141 0)"/>
      </g>
     </g>
    </g>
   </g>
   <g id="matplotlib.axis_2">
    <g id="ytick_1">
     <g id="line2d_7">
      <defs>
       <path id="me88b33d5aa" d="M 0 0 
L -3.5 0 
" style="stroke: #000000; stroke-width: 0.8"/>
      </defs>
      <g>
       <use xlink:href="#me88b33d5aa" x="90" y="249.060531" style="stroke: #000000; stroke-width: 0.8"/>
      </g>
     </g>
     <g id="text_7">
      <!-- −400 -->
      <g transform="translate(55.532812 252.85975) scale(0.1 -0.1)">
       <defs>
        <path id="DejaVuSans-2212" d="M 678 2272 
L 4684 2272 
L 4684 1741 
L 678 1741 
L 678 2272 
z
" transform="scale(0.015625)"/>
       </defs>
       <use xlink:href="#DejaVuSans-2212"/>
       <use xlink:href="#DejaVuSans-34" transform="translate(83.789062 0)"/>
       <use xlink:href="#DejaVuSans-30" transform="translate(147.412109 0)"/>
       <use xlink:href="#DejaVuSans-30" transform="translate(211.035156 0)"/>
      </g>
     </g>
    </g>
    <g id="ytick_2">
     <g id="line2d_8">
      <g>
       <use xlink:href="#me88b33d5aa" x="90" y="219.857598" style="stroke: #000000; stroke-width: 0.8"/>
      </g>
     </g>
     <g id="text_8">
      <!-- −200 -->
      <g transform="translate(55.532812 223.656817) scale(0.1 -0.1)">
       <use xlink:href="#DejaVuSans-2212"/>
       <use xlink:href="#DejaVuSans-32" transform="translate(83.789062 0)"/>
       <use xlink:href="#DejaVuSans-30" transform="translate(147.412109 0)"/>
       <use xlink:href="#DejaVuSans-30" transform="translate(211.035156 0)"/>
      </g>
     </g>
    </g>
    <g id="ytick_3">
     <g id="line2d_9">
      <g>
       <use xlink:href="#me88b33d5aa" x="90" y="190.654665" style="stroke: #000000; stroke-width: 0.8"/>
      </g>
     </g>
     <g id="text_9">
      <!-- 0 -->
      <g transform="translate(76.6375 194.453884) scale(0.1 -0.1)">
       <use xlink:href="#DejaVuSans-30"/>
      </g>
     </g>
    </g>
    <g id="ytick_4">
     <g id="line2d_10">
      <g>
       <use xlink:href="#me88b33d5aa" x="90" y="161.451732" style="stroke: #000000; stroke-width: 0.8"/>
      </g>
     </g>
     <g id="text_10">
      <!-- 200 -->
      <g transform="translate(63.9125 165.250951) scale(0.1 -0.1)">
       <use xlink:href="#DejaVuSans-32"/>
       <use xlink:href="#DejaVuSans-30" transform="translate(63.623047 0)"/>
       <use xlink:href="#DejaVuSans-30" transform="translate(127.246094 0)"/>
      </g>
     </g>
    </g>
    <g id="ytick_5">
     <g id="line2d_11">
      <g>
       <use xlink:href="#me88b33d5aa" x="90" y="132.248799" style="stroke: #000000; stroke-width: 0.8"/>
      </g>
     </g>
     <g id="text_11">
      <!-- 400 -->
      <g transform="translate(63.9125 136.048018) scale(0.1 -0.1)">
       <use xlink:href="#DejaVuSans-34"/>
       <use xlink:href="#DejaVuSans-30" transform="translate(63.623047 0)"/>
       <use xlink:href="#DejaVuSans-30" transform="translate(127.246094 0)"/>
      </g>
     </g>
    </g>
    <g id="ytick_6">
     <g id="line2d_12">
      <g>
       <use xlink:href="#me88b33d5aa" x="90" y="103.045866" style="stroke: #000000; stroke-width: 0.8"/>
      </g>
     </g>
     <g id="text_12">
      <!-- 600 -->
      <g transform="translate(63.9125 106.845085) scale(0.1 -0.1)">
       <use xlink:href="#DejaVuSans-36"/>
       <use xlink:href="#DejaVuSans-30" transform="translate(63.623047 0)"/>
       <use xlink:href="#DejaVuSans-30" transform="translate(127.246094 0)"/>
      </g>
     </g>
    </g>
    <g id="ytick_7">
     <g id="line2d_13">
      <g>
       <use xlink:href="#me88b33d5aa" x="90" y="73.842933" style="stroke: #000000; stroke-width: 0.8"/>
      </g>
     </g>
     <g id="text_13">
      <!-- 800 -->
      <g transform="translate(63.9125 77.642152) scale(0.1 -0.1)">
       <use xlink:href="#DejaVuSans-38"/>
       <use xlink:href="#DejaVuSans-30" transform="translate(63.623047 0)"/>
       <use xlink:href="#DejaVuSans-30" transform="translate(127.246094 0)"/>
      </g>
     </g>
    </g>
    <g id="ytick_8">
     <g id="line2d_14">
      <g>
       <use xlink:href="#me88b33d5aa" x="90" y="44.64" style="stroke: #000000; stroke-width: 0.8"/>
      </g>
     </g>
     <g id="text_14">
      <!-- 1000 -->
      <g transform="translate(57.55 48.439219) scale(0.1 -0.1)">
       <use xlink:href="#DejaVuSans-31"/>
       <use xlink:href="#DejaVuSans-30" transform="translate(63.623047 0)"/>
       <use xlink:href="#DejaVuSans-30" transform="translate(127.246094 0)"/>
       <use xlink:href="#DejaVuSans-30" transform="translate(190.869141 0)"/>
      </g>
     </g>
    </g>
   </g>
   <g id="line2d_15">
    <path d="M 115.363636 44.64 
L 115.871417 49.37366 
L 116.379197 50.041543 
L 118.410319 53.608399 
L 118.9181 54.368341 
L 119.42588 55.710381 
L 119.933661 56.073605 
L 120.441441 56.929448 
L 121.964783 57.25616 
L 122.980344 57.026314 
L 123.488124 57.211265 
L 123.995905 57.00516 
L 125.519247 57.373911 
L 126.534808 58.872211 
L 127.042588 59.341753 
L 129.581491 64.335196 
L 130.089271 64.649334 
L 131.104832 65.823617 
L 131.612613 65.752182 
L 132.120393 66.043036 
L 132.628174 65.703494 
L 133.135954 65.797085 
L 133.643735 65.62707 
L 135.167076 65.888494 
L 135.674857 66.183899 
L 136.182637 66.669875 
L 137.198198 68.095963 
L 138.72154 70.899047 
L 139.737101 72.876528 
L 140.244881 73.465736 
L 140.752662 74.245852 
L 141.768223 74.741512 
L 142.276003 74.534738 
L 142.783784 74.71787 
L 143.799345 74.557832 
L 144.307125 74.430673 
L 144.814906 74.465937 
L 145.322686 74.73627 
L 146.338247 75.503448 
L 146.846028 76.092653 
L 148.87715 79.876788 
L 150.908272 82.801748 
L 151.416052 83.226476 
L 152.431613 83.654343 
L 152.939394 83.756965 
L 153.447174 83.62304 
L 154.462735 83.602459 
L 154.970516 83.574374 
L 155.478296 83.695669 
L 156.493857 84.47614 
L 157.001638 85.008485 
L 157.509419 86.14313 
L 158.017199 86.792962 
L 158.52498 87.6316 
L 159.540541 89.780811 
L 160.556102 91.301567 
L 162.587224 92.429134 
L 163.095004 92.50866 
L 163.602785 92.383401 
L 164.618346 92.429837 
L 165.126126 92.473771 
L 165.633907 92.647439 
L 166.141687 93.094136 
L 166.649468 93.300582 
L 167.157248 93.803495 
L 170.203931 99.02384 
L 171.219492 100.053842 
L 171.727273 100.672858 
L 172.742834 100.859077 
L 173.758395 100.733607 
L 174.266175 100.792329 
L 174.773956 100.981849 
L 175.281736 100.87139 
L 176.805078 101.838219 
L 177.312858 102.43534 
L 177.820639 103.402025 
L 178.8362 104.946616 
L 179.34398 106.151771 
L 179.851761 106.967953 
L 180.359541 107.484453 
L 180.867322 108.277639 
L 181.375102 108.502473 
L 181.882883 109.022791 
L 182.898444 109.634604 
L 183.914005 109.393706 
L 184.421785 109.146767 
L 185.437346 109.190446 
L 185.945127 109.231875 
L 186.452907 110.066974 
L 186.960688 110.53673 
L 187.468468 110.723352 
L 188.99181 112.927328 
L 190.007371 114.762081 
L 190.515152 115.392173 
L 191.022932 116.248644 
L 191.530713 116.583702 
L 192.038493 117.197342 
L 192.546274 117.595319 
L 193.054054 117.520551 
L 194.069615 117.586277 
L 194.577396 117.475283 
L 195.085176 117.539624 
L 195.592957 117.88257 
L 196.100737 117.687104 
L 196.608518 118.016424 
L 197.624079 119.072925 
L 198.63964 120.813629 
L 199.14742 121.479026 
L 199.655201 122.51804 
L 200.162981 123.162311 
L 201.178542 124.84204 
L 201.686323 125.367423 
L 202.194103 125.42264 
L 202.701884 125.920823 
L 203.717445 125.73881 
L 204.225225 126.104026 
L 204.733006 126.072485 
L 205.240786 125.763572 
L 205.748567 126.03441 
L 206.256347 126.017959 
L 207.271908 126.96581 
L 207.779689 127.27257 
L 208.287469 127.76565 
L 209.30303 129.472379 
L 209.810811 130.210637 
L 210.318591 131.338655 
L 210.826372 132.048567 
L 212.349713 133.619157 
L 213.365274 133.902362 
L 213.873055 134.191754 
L 214.380835 133.9809 
L 214.888616 133.937255 
L 215.396396 133.675866 
L 215.904177 134.051134 
L 216.411957 134.044777 
L 217.427518 134.770769 
L 217.935299 135.189654 
L 218.443079 135.840875 
L 218.95086 136.96071 
L 219.966421 138.227382 
L 220.981982 139.836909 
L 221.997543 141.177658 
L 223.013104 141.442951 
L 223.520885 141.341469 
L 224.028665 141.52843 
L 224.536446 141.386225 
L 225.044226 141.507054 
L 226.059787 141.496667 
L 226.567568 141.888298 
L 227.075348 141.88853 
L 228.090909 142.716034 
L 229.614251 145.092665 
L 230.122031 145.540765 
L 231.137592 147.303957 
L 232.153153 148.397007 
L 232.660934 148.841094 
L 233.168714 149.028016 
L 233.676495 149.424727 
L 234.692056 149.520999 
L 235.199836 149.226376 
L 236.215397 149.726826 
L 236.723178 149.748614 
L 237.230958 150.004452 
L 238.246519 151.112982 
L 238.7543 151.433567 
L 239.26208 152.443781 
L 239.769861 153.011246 
L 240.785422 154.76862 
L 242.308763 156.533035 
L 242.816544 156.827623 
L 243.324324 157.259243 
L 244.339885 157.312362 
L 244.847666 157.090695 
L 245.355446 157.240083 
L 245.863227 157.116003 
L 246.371007 157.211159 
L 246.878788 157.490234 
L 247.386568 157.587091 
L 248.402129 158.516265 
L 248.90991 159.154566 
L 249.41769 159.506667 
L 251.448812 162.466764 
L 252.464373 163.650021 
L 252.972154 164.328655 
L 253.987715 164.492233 
L 254.495495 164.547805 
L 255.003276 164.175559 
L 255.511057 164.405347 
L 256.018837 164.298505 
L 257.034398 164.487547 
L 257.542179 164.668805 
L 258.049959 165.027022 
L 262.112203 170.196644 
L 262.619984 170.653013 
L 263.127764 170.896306 
L 265.666667 170.957003 
L 266.174447 171.242958 
L 266.682228 170.986799 
L 267.697789 171.323102 
L 268.71335 172.144395 
L 270.236691 174.241362 
L 270.744472 175.069618 
L 271.252252 175.446893 
L 271.760033 176.247585 
L 272.267813 176.82939 
L 272.775594 176.939254 
L 273.283374 177.538928 
L 274.298935 178.105588 
L 274.806716 177.961549 
L 275.314496 177.96272 
L 275.822277 177.683796 
L 276.330057 177.621274 
L 276.837838 177.876656 
L 278.361179 178.147967 
L 278.86896 178.623896 
L 279.37674 179.673121 
L 279.884521 180.261894 
L 280.900082 181.911377 
L 281.407862 182.34261 
L 282.423423 183.673064 
L 283.438984 184.141221 
L 283.946765 184.734469 
L 284.454545 184.60558 
L 285.470106 184.77308 
L 285.977887 184.658907 
L 286.993448 184.79781 
L 287.501229 184.743782 
L 288.009009 185.214081 
L 288.51679 185.32958 
L 289.02457 185.704025 
L 289.532351 186.476822 
L 290.547912 187.366826 
L 291.563473 188.785842 
L 292.071253 189.26511 
L 292.579034 190.057048 
L 294.102375 190.785603 
L 294.610156 191.164481 
L 295.117936 190.962417 
L 295.625717 191.076412 
L 296.133497 190.887451 
L 298.164619 190.876478 
L 298.6724 191.229056 
L 299.18018 191.844749 
L 299.687961 192.263096 
L 300.195741 193.077812 
L 300.703522 193.533016 
L 301.211302 194.380246 
L 301.719083 194.959775 
L 302.734644 196.329039 
L 303.242424 196.432165 
L 304.257985 196.937795 
L 304.765766 197.078164 
L 305.781327 196.939505 
L 306.796888 196.996814 
L 307.304668 196.851311 
L 307.812449 196.963395 
L 309.33579 197.853325 
L 310.859132 199.558811 
L 311.874693 200.846828 
L 314.413595 202.793687 
L 314.921376 203.00816 
L 315.429156 202.993617 
L 315.936937 202.669969 
L 316.444717 203.023498 
L 316.952498 202.893493 
L 318.475839 203.218011 
L 318.98362 203.351267 
L 320.506962 204.569876 
L 321.522523 206.171245 
L 322.030303 206.439552 
L 322.538084 207.026926 
L 324.061425 208.275496 
L 324.569206 208.290189 
L 325.076986 208.418829 
L 325.584767 208.18297 
L 326.092547 208.270946 
L 326.600328 208.158672 
L 327.108108 208.272798 
L 327.615889 208.501814 
L 328.123669 208.453425 
L 330.154791 209.24896 
L 331.170352 210.435218 
L 331.678133 211.273058 
L 332.185913 211.62219 
L 332.693694 212.201633 
L 333.201474 212.490321 
L 333.709255 213.038667 
L 334.217035 213.260888 
L 334.724816 213.21324 
L 335.232596 213.443576 
L 336.248157 213.477179 
L 337.263718 213.551363 
L 337.771499 213.422737 
L 338.78706 213.580135 
L 340.818182 214.775574 
L 341.325962 215.470481 
L 341.833743 215.775552 
L 343.357084 217.366831 
L 343.864865 217.484294 
L 344.372645 217.806571 
L 344.880426 217.715571 
L 345.388206 218.013711 
L 346.403767 217.89548 
L 347.927109 217.675184 
L 349.45045 218.023865 
L 349.958231 218.525789 
L 350.466011 218.657461 
L 350.973792 219.088662 
L 351.481572 219.80872 
L 351.989353 220.038332 
L 353.512695 221.441388 
L 354.020475 221.718485 
L 354.528256 222.360896 
L 355.036036 222.146182 
L 355.543817 222.308569 
L 356.051597 222.606394 
L 356.559378 222.396331 
L 357.067158 222.427921 
L 357.574939 222.251358 
L 358.082719 222.396106 
L 358.5905 222.276105 
L 359.09828 222.496234 
L 359.606061 222.409201 
L 360.621622 223.460643 
L 361.129402 223.640545 
L 361.637183 224.41178 
L 362.144963 224.63135 
L 362.652744 225.29489 
L 364.176085 226.399367 
L 364.683866 226.686223 
L 365.699427 226.537087 
L 366.207207 226.81421 
L 366.714988 226.612757 
L 367.222768 226.603792 
L 367.730549 226.805952 
L 368.238329 226.547459 
L 368.74611 226.468849 
L 369.25389 226.795495 
L 369.761671 226.755081 
L 370.269451 227.181658 
L 371.792793 228.056707 
L 372.808354 229.002035 
L 373.823915 229.664815 
L 374.331695 230.185616 
L 376.362817 230.556727 
L 376.870598 230.414495 
L 377.378378 230.388269 
L 378.393939 230.102942 
L 379.4095 230.208742 
L 379.917281 230.439292 
L 380.932842 230.651798 
L 381.440622 231.009848 
L 382.963964 232.623808 
L 384.487305 233.376014 
L 384.995086 233.454238 
L 385.502867 233.699496 
L 386.010647 233.460014 
L 387.026208 233.462936 
L 387.533989 233.467574 
L 388.041769 233.304787 
L 389.565111 233.369185 
L 391.088452 233.828315 
L 393.627355 235.50353 
L 394.135135 236.003508 
L 395.658477 236.431378 
L 396.674038 236.160394 
L 397.181818 236.329392 
L 397.689599 236.279941 
L 398.197379 236.095611 
L 398.70516 236.297144 
L 400.228501 236.235644 
L 400.736282 236.316994 
L 401.244062 236.553465 
L 401.751843 237.058738 
L 402.767404 237.471196 
L 403.275184 237.804466 
L 403.782965 237.988084 
L 404.798526 238.644196 
L 406.321867 238.956923 
L 407.337428 238.560862 
L 407.845209 238.655009 
L 408.352989 238.44995 
L 408.86077 238.464723 
L 409.36855 238.655032 
L 409.876331 238.575376 
L 411.399672 239.118228 
L 413.938575 240.406146 
L 414.446355 240.773121 
L 415.969697 241.263896 
L 416.477477 241.18773 
L 416.985258 240.92487 
L 418.000819 240.935612 
L 418.5086 240.799224 
L 419.01638 240.95773 
L 420.031941 240.766047 
L 421.555283 241.173093 
L 423.586405 242.114806 
L 425.109746 242.548975 
L 425.617527 242.53826 
L 426.125307 242.780725 
L 426.633088 242.830052 
L 429.17199 242.373792 
L 429.679771 242.677261 
L 430.187551 242.451444 
L 431.710893 242.724592 
L 432.218673 242.911646 
L 432.726454 243.25355 
L 434.249795 243.974555 
L 434.757576 243.902717 
L 435.773137 244.463971 
L 436.280917 244.532238 
L 437.296478 244.443229 
L 437.804259 244.175555 
L 438.312039 244.112295 
L 438.81982 243.871967 
L 440.850942 243.760795 
L 441.358722 243.997685 
L 441.866503 244.005423 
L 443.389844 244.554103 
L 443.897625 244.812374 
L 444.913186 245.057254 
L 445.420966 245.383285 
L 445.928747 245.533037 
L 446.436527 245.35496 
L 447.452088 245.245661 
L 447.959869 245.006327 
L 448.97543 245.076168 
L 449.990991 244.772492 
L 451.514333 245.079851 
L 452.022113 245.080387 
L 452.529894 245.310446 
L 453.545455 245.547842 
L 454.561016 245.811413 
L 455.576577 245.848428 
L 456.084357 246.106489 
L 456.592138 245.951189 
L 457.607699 245.9562 
L 458.115479 245.734341 
L 459.13104 245.564622 
L 459.638821 245.256906 
L 460.654382 245.246319 
L 461.669943 245.117664 
L 463.193284 245.548608 
L 463.701065 245.815165 
L 465.224406 246.103557 
L 466.239967 246.139998 
L 466.747748 246.24 
L 467.255528 246.119961 
L 467.763309 246.128113 
L 468.271089 245.968951 
L 468.77887 245.952326 
L 469.28665 245.615014 
L 470.302211 245.254135 
L 471.825553 245.09638 
L 473.856675 245.369292 
L 474.364455 245.559453 
L 474.872236 245.62313 
L 475.380016 245.847263 
L 475.887797 245.862159 
L 476.395577 246.005979 
L 476.903358 245.893174 
L 477.411138 246.130986 
L 478.426699 245.766418 
L 478.93448 245.726504 
L 479.44226 245.440163 
L 479.950041 245.362913 
L 480.457821 245.0348 
L 480.965602 245.135006 
L 481.473382 244.841148 
L 481.981163 244.959011 
L 482.488943 244.77821 
L 484.012285 244.941949 
L 485.027846 245.321545 
L 486.551188 245.283469 
L 488.58231 244.727778 
L 489.09009 244.377427 
L 490.105651 244.281147 
L 490.613432 243.994516 
L 491.121212 244.260481 
L 492.136773 243.922842 
L 492.644554 243.952692 
L 493.152334 243.819335 
L 493.660115 243.956045 
L 494.167895 243.959604 
L 494.675676 244.207084 
L 496.199017 244.236151 
L 496.706798 244.146468 
L 497.214578 244.191903 
L 498.230139 243.877952 
L 499.2457 243.310236 
L 499.753481 243.227603 
L 501.276822 242.521101 
L 503.307944 242.361932 
L 503.815725 242.202969 
L 504.831286 242.22542 
L 505.339066 241.986422 
L 505.846847 242.094402 
L 506.354627 242.049216 
L 507.370188 241.729868 
L 507.877969 241.528402 
L 508.89353 241.326505 
L 509.40131 241.194343 
L 509.909091 240.846604 
L 510.416871 240.759426 
L 510.924652 240.427206 
L 512.447993 240.25212 
L 513.463554 239.926596 
L 514.986896 240.012721 
L 515.494676 239.953634 
L 516.002457 240.122306 
L 516.510238 239.829153 
L 517.018018 239.691061 
L 517.525799 239.718407 
L 519.556921 239.250313 
L 520.064701 238.823212 
L 521.080262 238.494049 
L 521.588043 238.151242 
L 522.095823 238.1427 
L 523.111384 237.745606 
L 524.126945 237.650631 
L 524.634726 237.769372 
L 525.650287 237.609768 
L 526.665848 237.454032 
L 527.173628 237.149381 
L 527.681409 237.174913 
L 528.189189 237.046072 
L 528.69697 236.62723 
L 529.712531 236.242283 
L 530.728092 235.773716 
L 531.743653 235.543201 
L 532.759214 235.304626 
L 533.266994 234.910583 
L 533.774775 234.930287 
L 535.298116 234.696777 
L 535.805897 234.646549 
L 536.313677 234.329368 
L 537.329238 234.260414 
L 538.344799 233.948288 
L 539.36036 233.522149 
L 539.868141 233.201098 
L 540.375921 233.117863 
L 540.883702 232.707706 
L 541.391482 232.570178 
L 541.899263 232.235656 
L 543.930385 231.554045 
L 544.438165 231.270529 
L 544.945946 231.244882 
L 545.453726 230.978235 
L 546.469287 230.842099 
L 552.054873 228.683744 
L 553.070434 228.196191 
L 558.65602 226.30458 
L 559.1638 225.964684 
L 560.179361 225.564145 
L 565.257166 222.908465 
L 566.780508 222.485782 
L 568.303849 221.931326 
L 569.31941 221.483703 
L 571.350532 220.528297 
L 571.858313 220.424243 
L 575.412776 218.6416 
L 584.552826 213.993268 
L 585.060606 213.566033 
L 585.568387 213.299487 
L 586.583948 212.551748 
L 588.107289 211.755399 
L 589.630631 210.958975 
L 590.138411 210.839791 
L 594.200655 208.431055 
L 599.27846 205.182767 
L 604.356265 202.555818 
L 606.895168 200.5576 
L 608.92629 199.50732 
L 609.43407 199.137449 
L 610.449631 198.620784 
L 612.988534 197.396972 
L 613.496314 197.07742 
L 614.511876 196.253423 
L 615.019656 195.922491 
L 616.035217 195.120729 
L 619.0819 192.921744 
L 620.097461 192.381771 
L 621.113022 191.954977 
L 622.636364 191.012101 
L 622.636364 191.012101 
" clip-path="url(#pabe8712282)" style="fill: none; stroke: #800080; stroke-width: 1.5; stroke-linecap: square"/>
   </g>
   <g id="patch_3">
    <path d="M 90 256.32 
L 90 34.56 
" style="fill: none; stroke: #000000; stroke-width: 0.8; stroke-linejoin: miter; stroke-linecap: square"/>
   </g>
   <g id="patch_4">
    <path d="M 648 256.32 
L 648 34.56 
" style="fill: none; stroke: #000000; stroke-width: 0.8; stroke-linejoin: miter; stroke-linecap: square"/>
   </g>
   <g id="patch_5">
    <path d="M 90 256.32 
L 648 256.32 
" style="fill: none; stroke: #000000; stroke-width: 0.8; stroke-linejoin: miter; stroke-linecap: square"/>
   </g>
   <g id="patch_6">
    <path d="M 90 34.56 
L 648 34.56 
" style="fill: none; stroke: #000000; stroke-width: 0.8; stroke-linejoin: miter; stroke-linecap: square"/>
   </g>
  </g>
 </g>
 <defs>
  <clipPath id="pabe8712282">
   <rect x="90" y="34.56" width="558" height="221.76"/>
  </clipPath>
 </defs>
</svg>
