<?xml version="1.0" encoding="utf-8" standalone="no"?>
<!DOCTYPE svg PUBLIC "-//W3C//DTD SVG 1.1//EN"
  "http://www.w3.org/Graphics/SVG/1.1/DTD/svg11.dtd">
<svg xmlns:xlink="http://www.w3.org/1999/xlink" width="720pt" height="288pt" viewBox="0 0 720 288" xmlns="http://www.w3.org/2000/svg" version="1.1">
 <metadata>
  <rdf:RDF xmlns:dc="http://purl.org/dc/elements/1.1/" xmlns:cc="http://creativecommons.org/ns#" xmlns:rdf="http://www.w3.org/1999/02/22-rdf-syntax-ns#">
   <cc:Work>
    <dc:type rdf:resource="http://purl.org/dc/dcmitype/StillImage"/>
    <dc:date>2025-12-02T17:57:10.414408</dc:date>
    <dc:format>image/svg+xml</dc:format>
    <dc:creator>
     <cc:Agent>
      <dc:title>Matplotlib v3.10.6, https://matplotlib.org/</dc:title>
     </cc:Agent>
    </dc:creator>
   </cc:Work>
  </rdf:RDF>
 </metadata>
 <defs>
  <style type="text/css">*{stroke-linejoin: round; stroke-linecap: butt}</style>
 </defs>
 <g id="figure_1">
  <g id="patch_1">
   <path d="M 0 288 
L 720 288 
L 720 0 
L 0 0 
z
" style="fill: #ffffff"/>
  </g>
  <g id="axes_1">
   <g id="patch_2">
    <path d="M 90 256.32 
L 648 256.32 
L 648 34.56 
L 90 34.56 
z
" style="fill: #ffffff"/>
   </g>
   <g id="matplotlib.axis_1">
    <g id="xtick_1">
     <g id="line2d_1">
      <defs>
       <path id="m4c4eeb8cb9" d="M 0 0 
L 0 3.5 
" style="stroke: #000000; stroke-width: 0.8"/>
      </defs>
      <g>
       <use xlink:href="#m4c4eeb8cb9" x="114.089082" y="256.32" style="stroke: #000000; stroke-width: 0.8"/>
      </g>
     </g>
     <g id="text_1">
      <!-- 0 -->
      <g transform="translate(110.907832 270.918437) scale(0.1 -0.1)">
       <defs>
        <path id="DejaVuSans-30" d="M 2034 4250 
Q 1547 4250 1301 3770 
Q 1056 3291 1056 2328 
Q 1056 1369 1301 889 
Q 1547 409 2034 409 
Q 2525 409 2770 889 
Q 3016 1369 3016 2328 
Q 3016 3291 2770 3770 
Q 2525 4250 2034 4250 
z
M 2034 4750 
Q 2819 4750 3233 4129 
Q 3647 3509 3647 2328 
Q 3647 1150 3233 529 
Q 2819 -91 2034 -91 
Q 1250 -91 836 529 
Q 422 1150 422 2328 
Q 422 3509 836 4129 
Q 1250 4750 2034 4750 
z
" transform="scale(0.015625)"/>
       </defs>
       <use xlink:href="#DejaVuSans-30"/>
      </g>
     </g>
    </g>
    <g id="xtick_2">
     <g id="line2d_2">
      <g>
       <use xlink:href="#m4c4eeb8cb9" x="177.816811" y="256.32" style="stroke: #000000; stroke-width: 0.8"/>
      </g>
     </g>
     <g id="text_2">
      <!-- 50 -->
      <g transform="translate(171.454311 270.918437) scale(0.1 -0.1)">
       <defs>
        <path id="DejaVuSans-35" d="M 691 4666 
L 3169 4666 
L 3169 4134 
L 1269 4134 
L 1269 2991 
Q 1406 3038 1543 3061 
Q 1681 3084 1819 3084 
Q 2600 3084 3056 2656 
Q 3513 2228 3513 1497 
Q 3513 744 3044 326 
Q 2575 -91 1722 -91 
Q 1428 -91 1123 -41 
Q 819 9 494 109 
L 494 744 
Q 775 591 1075 516 
Q 1375 441 1709 441 
Q 2250 441 2565 725 
Q 2881 1009 2881 1497 
Q 2881 1984 2565 2268 
Q 2250 2553 1709 2553 
Q 1456 2553 1204 2497 
Q 953 2441 691 2322 
L 691 4666 
z
" transform="scale(0.015625)"/>
       </defs>
       <use xlink:href="#DejaVuSans-35"/>
       <use xlink:href="#DejaVuSans-30" transform="translate(63.623047 0)"/>
      </g>
     </g>
    </g>
    <g id="xtick_3">
     <g id="line2d_3">
      <g>
       <use xlink:href="#m4c4eeb8cb9" x="241.544541" y="256.32" style="stroke: #000000; stroke-width: 0.8"/>
      </g>
     </g>
     <g id="text_3">
      <!-- 100 -->
      <g transform="translate(232.000791 270.918437) scale(0.1 -0.1)">
       <defs>
        <path id="DejaVuSans-31" d="M 794 531 
L 1825 531 
L 1825 4091 
L 703 3866 
L 703 4441 
L 1819 4666 
L 2450 4666 
L 2450 531 
L 3481 531 
L 3481 0 
L 794 0 
L 794 531 
z
" transform="scale(0.015625)"/>
       </defs>
       <use xlink:href="#DejaVuSans-31"/>
       <use xlink:href="#DejaVuSans-30" transform="translate(63.623047 0)"/>
       <use xlink:href="#DejaVuSans-30" transform="translate(127.246094 0)"/>
      </g>
     </g>
    </g>
    <g id="xtick_4">
     <g id="line2d_4">
      <g>
       <use xlink:href="#m4c4eeb8cb9" x="305.27227" y="256.32" style="stroke: #000000; stroke-width: 0.8"/>
      </g>
     </g>
     <g id="text_4">
      <!-- 150 -->
      <g transform="translate(295.72852 270.918437) scale(0.1 -0.1)">
       <use xlink:href="#DejaVuSans-31"/>
       <use xlink:href="#DejaVuSans-35" transform="translate(63.623047 0)"/>
       <use xlink:href="#DejaVuSans-30" transform="translate(127.246094 0)"/>
      </g>
     </g>
    </g>
    <g id="xtick_5">
     <g id="line2d_5">
      <g>
       <use xlink:href="#m4c4eeb8cb9" x="369" y="256.32" style="stroke: #000000; stroke-width: 0.8"/>
      </g>
     </g>
     <g id="text_5">
      <!-- 200 -->
      <g transform="translate(359.45625 270.918437) scale(0.1 -0.1)">
       <defs>
        <path id="DejaVuSans-32" d="M 1228 531 
L 3431 531 
L 3431 0 
L 469 0 
L 469 531 
Q 828 903 1448 1529 
Q 2069 2156 2228 2338 
Q 2531 2678 2651 2914 
Q 2772 3150 2772 3378 
Q 2772 3750 2511 3984 
Q 2250 4219 1831 4219 
Q 1534 4219 1204 4116 
Q 875 4013 500 3803 
L 500 4441 
Q 881 4594 1212 4672 
Q 1544 4750 1819 4750 
Q 2544 4750 2975 4387 
Q 3406 4025 3406 3419 
Q 3406 3131 3298 2873 
Q 3191 2616 2906 2266 
Q 2828 2175 2409 1742 
Q 1991 1309 1228 531 
z
" transform="scale(0.015625)"/>
       </defs>
       <use xlink:href="#DejaVuSans-32"/>
       <use xlink:href="#DejaVuSans-30" transform="translate(63.623047 0)"/>
       <use xlink:href="#DejaVuSans-30" transform="translate(127.246094 0)"/>
      </g>
     </g>
    </g>
    <g id="xtick_6">
     <g id="line2d_6">
      <g>
       <use xlink:href="#m4c4eeb8cb9" x="432.72773" y="256.32" style="stroke: #000000; stroke-width: 0.8"/>
      </g>
     </g>
     <g id="text_6">
      <!-- 250 -->
      <g transform="translate(423.18398 270.918437) scale(0.1 -0.1)">
       <use xlink:href="#DejaVuSans-32"/>
       <use xlink:href="#DejaVuSans-35" transform="translate(63.623047 0)"/>
       <use xlink:href="#DejaVuSans-30" transform="translate(127.246094 0)"/>
      </g>
     </g>
    </g>
    <g id="xtick_7">
     <g id="line2d_7">
      <g>
       <use xlink:href="#m4c4eeb8cb9" x="496.455459" y="256.32" style="stroke: #000000; stroke-width: 0.8"/>
      </g>
     </g>
     <g id="text_7">
      <!-- 300 -->
      <g transform="translate(486.911709 270.918437) scale(0.1 -0.1)">
       <defs>
        <path id="DejaVuSans-33" d="M 2597 2516 
Q 3050 2419 3304 2112 
Q 3559 1806 3559 1356 
Q 3559 666 3084 287 
Q 2609 -91 1734 -91 
Q 1441 -91 1130 -33 
Q 819 25 488 141 
L 488 750 
Q 750 597 1062 519 
Q 1375 441 1716 441 
Q 2309 441 2620 675 
Q 2931 909 2931 1356 
Q 2931 1769 2642 2001 
Q 2353 2234 1838 2234 
L 1294 2234 
L 1294 2753 
L 1863 2753 
Q 2328 2753 2575 2939 
Q 2822 3125 2822 3475 
Q 2822 3834 2567 4026 
Q 2313 4219 1838 4219 
Q 1578 4219 1281 4162 
Q 984 4106 628 3988 
L 628 4550 
Q 988 4650 1302 4700 
Q 1616 4750 1894 4750 
Q 2613 4750 3031 4423 
Q 3450 4097 3450 3541 
Q 3450 3153 3228 2886 
Q 3006 2619 2597 2516 
z
" transform="scale(0.015625)"/>
       </defs>
       <use xlink:href="#DejaVuSans-33"/>
       <use xlink:href="#DejaVuSans-30" transform="translate(63.623047 0)"/>
       <use xlink:href="#DejaVuSans-30" transform="translate(127.246094 0)"/>
      </g>
     </g>
    </g>
    <g id="xtick_8">
     <g id="line2d_8">
      <g>
       <use xlink:href="#m4c4eeb8cb9" x="560.183189" y="256.32" style="stroke: #000000; stroke-width: 0.8"/>
      </g>
     </g>
     <g id="text_8">
      <!-- 350 -->
      <g transform="translate(550.639439 270.918437) scale(0.1 -0.1)">
       <use xlink:href="#DejaVuSans-33"/>
       <use xlink:href="#DejaVuSans-35" transform="translate(63.623047 0)"/>
       <use xlink:href="#DejaVuSans-30" transform="translate(127.246094 0)"/>
      </g>
     </g>
    </g>
    <g id="xtick_9">
     <g id="line2d_9">
      <g>
       <use xlink:href="#m4c4eeb8cb9" x="623.910918" y="256.32" style="stroke: #000000; stroke-width: 0.8"/>
      </g>
     </g>
     <g id="text_9">
      <!-- 400 -->
      <g transform="translate(614.367168 270.918437) scale(0.1 -0.1)">
       <defs>
        <path id="DejaVuSans-34" d="M 2419 4116 
L 825 1625 
L 2419 1625 
L 2419 4116 
z
M 2253 4666 
L 3047 4666 
L 3047 1625 
L 3713 1625 
L 3713 1100 
L 3047 1100 
L 3047 0 
L 2419 0 
L 2419 1100 
L 313 1100 
L 313 1709 
L 2253 4666 
z
" transform="scale(0.015625)"/>
       </defs>
       <use xlink:href="#DejaVuSans-34"/>
       <use xlink:href="#DejaVuSans-30" transform="translate(63.623047 0)"/>
       <use xlink:href="#DejaVuSans-30" transform="translate(127.246094 0)"/>
      </g>
     </g>
    </g>
   </g>
   <g id="matplotlib.axis_2">
    <g id="ytick_1">
     <g id="line2d_10">
      <defs>
       <path id="mb9fc938515" d="M 0 0 
L -3.5 0 
" style="stroke: #000000; stroke-width: 0.8"/>
      </defs>
      <g>
       <use xlink:href="#mb9fc938515" x="90" y="240.500449" style="stroke: #000000; stroke-width: 0.8"/>
      </g>
     </g>
     <g id="text_10">
      <!-- 0.50 -->
      <g transform="translate(60.734375 244.299668) scale(0.1 -0.1)">
       <defs>
        <path id="DejaVuSans-2e" d="M 684 794 
L 1344 794 
L 1344 0 
L 684 0 
L 684 794 
z
" transform="scale(0.015625)"/>
       </defs>
       <use xlink:href="#DejaVuSans-30"/>
       <use xlink:href="#DejaVuSans-2e" transform="translate(63.623047 0)"/>
       <use xlink:href="#DejaVuSans-35" transform="translate(95.410156 0)"/>
       <use xlink:href="#DejaVuSans-30" transform="translate(159.033203 0)"/>
      </g>
     </g>
    </g>
    <g id="ytick_2">
     <g id="line2d_11">
      <g>
       <use xlink:href="#mb9fc938515" x="90" y="209.99098" style="stroke: #000000; stroke-width: 0.8"/>
      </g>
     </g>
     <g id="text_11">
      <!-- 0.75 -->
      <g transform="translate(60.734375 213.790199) scale(0.1 -0.1)">
       <defs>
        <path id="DejaVuSans-37" d="M 525 4666 
L 3525 4666 
L 3525 4397 
L 1831 0 
L 1172 0 
L 2766 4134 
L 525 4134 
L 525 4666 
z
" transform="scale(0.015625)"/>
       </defs>
       <use xlink:href="#DejaVuSans-30"/>
       <use xlink:href="#DejaVuSans-2e" transform="translate(63.623047 0)"/>
       <use xlink:href="#DejaVuSans-37" transform="translate(95.410156 0)"/>
       <use xlink:href="#DejaVuSans-35" transform="translate(159.033203 0)"/>
      </g>
     </g>
    </g>
    <g id="ytick_3">
     <g id="line2d_12">
      <g>
       <use xlink:href="#mb9fc938515" x="90" y="179.481511" style="stroke: #000000; stroke-width: 0.8"/>
      </g>
     </g>
     <g id="text_12">
      <!-- 1.00 -->
      <g transform="translate(60.734375 183.28073) scale(0.1 -0.1)">
       <use xlink:href="#DejaVuSans-31"/>
       <use xlink:href="#DejaVuSans-2e" transform="translate(63.623047 0)"/>
       <use xlink:href="#DejaVuSans-30" transform="translate(95.410156 0)"/>
       <use xlink:href="#DejaVuSans-30" transform="translate(159.033203 0)"/>
      </g>
     </g>
    </g>
    <g id="ytick_4">
     <g id="line2d_13">
      <g>
       <use xlink:href="#mb9fc938515" x="90" y="148.972042" style="stroke: #000000; stroke-width: 0.8"/>
      </g>
     </g>
     <g id="text_13">
      <!-- 1.25 -->
      <g transform="translate(60.734375 152.771261) scale(0.1 -0.1)">
       <use xlink:href="#DejaVuSans-31"/>
       <use xlink:href="#DejaVuSans-2e" transform="translate(63.623047 0)"/>
       <use xlink:href="#DejaVuSans-32" transform="translate(95.410156 0)"/>
       <use xlink:href="#DejaVuSans-35" transform="translate(159.033203 0)"/>
      </g>
     </g>
    </g>
    <g id="ytick_5">
     <g id="line2d_14">
      <g>
       <use xlink:href="#mb9fc938515" x="90" y="118.462573" style="stroke: #000000; stroke-width: 0.8"/>
      </g>
     </g>
     <g id="text_14">
      <!-- 1.50 -->
      <g transform="translate(60.734375 122.261792) scale(0.1 -0.1)">
       <use xlink:href="#DejaVuSans-31"/>
       <use xlink:href="#DejaVuSans-2e" transform="translate(63.623047 0)"/>
       <use xlink:href="#DejaVuSans-35" transform="translate(95.410156 0)"/>
       <use xlink:href="#DejaVuSans-30" transform="translate(159.033203 0)"/>
      </g>
     </g>
    </g>
    <g id="ytick_6">
     <g id="line2d_15">
      <g>
       <use xlink:href="#mb9fc938515" x="90" y="87.953104" style="stroke: #000000; stroke-width: 0.8"/>
      </g>
     </g>
     <g id="text_15">
      <!-- 1.75 -->
      <g transform="translate(60.734375 91.752323) scale(0.1 -0.1)">
       <use xlink:href="#DejaVuSans-31"/>
       <use xlink:href="#DejaVuSans-2e" transform="translate(63.623047 0)"/>
       <use xlink:href="#DejaVuSans-37" transform="translate(95.410156 0)"/>
       <use xlink:href="#DejaVuSans-35" transform="translate(159.033203 0)"/>
      </g>
     </g>
    </g>
    <g id="ytick_7">
     <g id="line2d_16">
      <g>
       <use xlink:href="#mb9fc938515" x="90" y="57.443635" style="stroke: #000000; stroke-width: 0.8"/>
      </g>
     </g>
     <g id="text_16">
      <!-- 2.00 -->
      <g transform="translate(60.734375 61.242854) scale(0.1 -0.1)">
       <use xlink:href="#DejaVuSans-32"/>
       <use xlink:href="#DejaVuSans-2e" transform="translate(63.623047 0)"/>
       <use xlink:href="#DejaVuSans-30" transform="translate(95.410156 0)"/>
       <use xlink:href="#DejaVuSans-30" transform="translate(159.033203 0)"/>
      </g>
     </g>
    </g>
   </g>
   <g id="line2d_17">
    <path d="M 115.363636 44.64 
L 116.638191 101.090723 
L 117.912746 112.158561 
L 119.1873 113.807468 
L 120.461855 114.549635 
L 121.736409 115.873435 
L 124.285519 116.475382 
L 125.560073 117.354119 
L 126.834628 118.008681 
L 128.109182 122.73101 
L 129.383737 129.470293 
L 130.658291 132.947044 
L 133.207401 141.913527 
L 134.481955 144.534861 
L 135.75651 149.796836 
L 137.031064 152.756372 
L 139.580174 162.015655 
L 140.854728 163.146715 
L 142.129283 164.035359 
L 143.403837 166.042246 
L 144.678392 166.579282 
L 145.952947 166.532677 
L 147.227501 166.738496 
L 149.77661 167.759469 
L 151.051165 167.651505 
L 152.32572 168.260718 
L 153.600274 169.153543 
L 156.149383 169.063018 
L 157.423938 169.194425 
L 158.698492 169.146941 
L 159.973047 169.85817 
L 161.247602 170.152339 
L 162.522156 170.160187 
L 163.796711 170.709259 
L 165.071265 171.134147 
L 167.620375 171.576768 
L 168.894929 171.526199 
L 171.444038 171.681283 
L 172.718593 171.560703 
L 173.993148 172.036954 
L 175.267702 172.750068 
L 176.542257 172.878221 
L 177.816811 173.790939 
L 179.091366 174.175501 
L 180.365921 174.42454 
L 181.640475 174.340714 
L 182.91503 174.501842 
L 191.836912 174.467668 
L 193.111466 175.149931 
L 194.386021 175.041712 
L 195.660576 175.323152 
L 196.93513 175.194232 
L 199.484239 175.319947 
L 200.758794 175.354581 
L 202.033349 175.636982 
L 203.307903 175.690215 
L 204.582458 176.150829 
L 205.857012 176.31971 
L 207.131567 176.736509 
L 208.406122 177.416332 
L 209.680676 177.316792 
L 210.955231 177.705933 
L 212.229785 177.77552 
L 213.50434 177.690019 
L 214.778894 178.026828 
L 216.053449 178.189946 
L 218.602558 178.731279 
L 221.151667 178.871051 
L 222.426222 179.787568 
L 223.700777 179.683676 
L 224.975331 180.194271 
L 226.249886 180.522052 
L 227.52444 180.988624 
L 230.07355 180.890168 
L 231.348104 181.308995 
L 232.622659 181.254593 
L 233.897213 181.598852 
L 235.171768 181.496642 
L 236.446323 181.814441 
L 237.720877 181.813673 
L 238.995432 181.985857 
L 244.09365 182.266286 
L 245.368205 182.33038 
L 246.642759 183.692292 
L 250.466423 183.665735 
L 251.740978 183.897131 
L 253.015532 183.823514 
L 254.290087 184.217915 
L 255.564641 185.059616 
L 256.839196 185.003412 
L 258.113751 185.119167 
L 259.388305 185.103808 
L 260.66286 186.064122 
L 261.937414 186.243075 
L 263.211969 186.253283 
L 265.761078 186.620918 
L 267.035633 186.59069 
L 268.310187 186.844384 
L 270.859296 186.812719 
L 272.133851 187.219619 
L 273.408406 187.143386 
L 274.68296 187.733947 
L 275.957515 188.037915 
L 277.232069 188.165753 
L 278.506624 188.686573 
L 281.055733 188.574497 
L 282.330288 188.569318 
L 283.604842 189.032379 
L 286.153952 189.17598 
L 287.428506 189.274905 
L 289.977615 189.100606 
L 291.25217 189.37621 
L 292.526725 190.0741 
L 293.801279 190.614049 
L 296.350388 190.773336 
L 297.624943 191.096421 
L 301.448607 190.92483 
L 302.723161 191.210158 
L 306.546825 191.533892 
L 309.095934 192.308344 
L 310.370489 192.402583 
L 311.645043 192.31013 
L 312.919598 192.471228 
L 314.194153 192.90036 
L 316.743262 193.367432 
L 321.84148 193.625582 
L 323.116035 193.531831 
L 324.390589 193.901091 
L 328.214253 194.286375 
L 330.763362 194.984535 
L 332.037917 194.862303 
L 333.312471 195.008082 
L 335.861581 194.806104 
L 337.136135 195.770503 
L 338.41069 196.442022 
L 340.959799 196.463642 
L 342.234354 196.364423 
L 343.508908 196.750662 
L 344.783463 196.96215 
L 346.058017 196.903265 
L 347.332572 197.060015 
L 348.607127 197.078206 
L 349.881681 197.599768 
L 351.156236 197.624668 
L 352.43079 198.673123 
L 353.705345 198.952878 
L 354.979899 198.856557 
L 356.254454 198.990715 
L 357.529009 199.612593 
L 360.078118 199.858127 
L 361.352672 200.704972 
L 362.627227 200.591259 
L 363.901782 200.887444 
L 365.176336 200.799444 
L 366.450891 200.90931 
L 367.725445 200.80358 
L 370.274555 200.887163 
L 371.549109 201.44837 
L 372.823664 201.798888 
L 374.098218 202.502522 
L 376.647328 202.447877 
L 377.921882 202.560922 
L 380.470991 202.418583 
L 381.745546 203.188932 
L 383.020101 203.136975 
L 384.294655 203.573025 
L 385.56921 203.700321 
L 388.118319 203.636408 
L 389.392873 204.389084 
L 391.941983 204.281071 
L 393.216537 204.732316 
L 394.491092 204.618571 
L 395.765646 204.668061 
L 397.040201 204.573167 
L 398.314756 204.874268 
L 402.138419 204.932818 
L 403.412974 204.985906 
L 404.687529 204.915099 
L 405.962083 204.976992 
L 411.060302 204.606167 
L 412.334856 205.040931 
L 413.609411 205.060301 
L 414.883965 206.03918 
L 418.707629 206.072058 
L 419.982184 205.973281 
L 421.256738 206.583285 
L 422.531293 206.677967 
L 423.805847 206.659326 
L 425.080402 207.227915 
L 426.354957 207.379348 
L 427.629511 208.324888 
L 428.904066 208.29985 
L 430.17862 208.693732 
L 431.453175 208.733952 
L 434.002284 209.612834 
L 435.276839 209.903566 
L 436.551393 209.98951 
L 437.825948 210.727553 
L 440.375057 210.661979 
L 441.649612 211.141444 
L 442.924166 211.143793 
L 444.198721 211.755631 
L 445.473275 212.06411 
L 446.74783 212.525871 
L 448.022385 212.605688 
L 449.296939 212.9372 
L 450.571494 212.874613 
L 451.846048 212.980701 
L 453.120603 212.940744 
L 455.669712 213.215512 
L 456.944267 213.525167 
L 458.218821 213.413815 
L 459.493376 214.627083 
L 460.767931 214.870481 
L 467.140704 215.05452 
L 468.415258 215.702766 
L 470.964367 215.693998 
L 472.238922 216.008969 
L 474.788031 215.950988 
L 476.062586 216.280222 
L 478.611695 216.27784 
L 479.886249 216.285422 
L 481.160804 216.445819 
L 483.709913 216.454852 
L 484.984468 216.754814 
L 487.533577 216.564465 
L 488.808132 216.678815 
L 490.082686 217.265567 
L 491.357241 217.391944 
L 492.631795 217.943859 
L 493.90635 217.952544 
L 495.180905 218.260095 
L 496.455459 218.299383 
L 497.730014 218.700497 
L 499.004568 218.729659 
L 501.553677 219.479931 
L 502.828232 220.147963 
L 504.102787 220.572013 
L 505.377341 220.675912 
L 506.651896 220.661455 
L 509.201005 221.662861 
L 510.47556 221.639155 
L 511.750114 221.964944 
L 513.024669 222.142469 
L 515.573778 222.023904 
L 516.848333 222.661363 
L 519.397442 222.813104 
L 521.946551 223.161219 
L 523.221106 223.539094 
L 524.49566 223.773292 
L 525.770215 224.238912 
L 528.319324 224.143864 
L 529.593878 224.080551 
L 530.868433 224.208083 
L 532.142988 224.217058 
L 534.692097 224.583243 
L 535.966651 224.55559 
L 538.515761 225.611628 
L 539.790315 225.67152 
L 541.06487 225.602777 
L 542.339424 226.51837 
L 543.613979 226.728873 
L 544.888534 226.616404 
L 546.163088 227.356411 
L 547.437643 228.684105 
L 548.712197 229.285846 
L 549.986752 229.280663 
L 552.535861 229.737741 
L 555.08497 229.759778 
L 556.359525 230.26556 
L 557.634079 230.305073 
L 561.457743 230.905712 
L 562.732298 230.810379 
L 564.006852 231.662865 
L 565.281407 231.931835 
L 567.830516 231.919484 
L 569.105071 232.088346 
L 570.379625 233.028404 
L 571.65418 233.101179 
L 572.928735 233.46314 
L 574.203289 233.404537 
L 575.477844 233.554601 
L 576.752398 234.457192 
L 578.026953 235.09582 
L 579.301508 235.421612 
L 580.576062 236.01688 
L 581.850617 237.125799 
L 583.125171 237.521271 
L 584.399726 238.072779 
L 585.67428 239.189172 
L 586.948835 239.337604 
L 588.22339 239.311853 
L 589.497944 239.659008 
L 590.772499 239.809825 
L 592.047053 240.131071 
L 593.321608 240.645281 
L 594.596163 240.831756 
L 595.870717 241.560666 
L 598.419826 241.500875 
L 600.968936 241.857236 
L 603.518045 242.794757 
L 604.792599 242.833795 
L 606.067154 243.227568 
L 607.341709 243.357408 
L 608.616263 244.625581 
L 611.165372 244.857209 
L 613.714481 245.315725 
L 617.538145 245.210572 
L 621.361809 245.570314 
L 622.636364 246.24 
L 622.636364 246.24 
" clip-path="url(#p80badc754b)" style="fill: none; stroke: #a52a2a; stroke-width: 1.5; stroke-linecap: square"/>
   </g>
   <g id="patch_3">
    <path d="M 90 256.32 
L 90 34.56 
" style="fill: none; stroke: #000000; stroke-width: 0.8; stroke-linejoin: miter; stroke-linecap: square"/>
   </g>
   <g id="patch_4">
    <path d="M 648 256.32 
L 648 34.56 
" style="fill: none; stroke: #000000; stroke-width: 0.8; stroke-linejoin: miter; stroke-linecap: square"/>
   </g>
   <g id="patch_5">
    <path d="M 90 256.32 
L 648 256.32 
" style="fill: none; stroke: #000000; stroke-width: 0.8; stroke-linejoin: miter; stroke-linecap: square"/>
   </g>
   <g id="patch_6">
    <path d="M 90 34.56 
L 648 34.56 
" style="fill: none; stroke: #000000; stroke-width: 0.8; stroke-linejoin: miter; stroke-linecap: square"/>
   </g>
  </g>
 </g>
 <defs>
  <clipPath id="p80badc754b">
   <rect x="90" y="34.56" width="558" height="221.76"/>
  </clipPath>
 </defs>
</svg>
