<?xml version="1.0" encoding="utf-8" standalone="no"?>
<!DOCTYPE svg PUBLIC "-//W3C//DTD SVG 1.1//EN"
  "http://www.w3.org/Graphics/SVG/1.1/DTD/svg11.dtd">
<svg xmlns:xlink="http://www.w3.org/1999/xlink" width="864pt" height="432pt" viewBox="0 0 864 432" xmlns="http://www.w3.org/2000/svg" version="1.1">
 <metadata>
  <rdf:RDF xmlns:dc="http://purl.org/dc/elements/1.1/" xmlns:cc="http://creativecommons.org/ns#" xmlns:rdf="http://www.w3.org/1999/02/22-rdf-syntax-ns#">
   <cc:Work>
    <dc:type rdf:resource="http://purl.org/dc/dcmitype/StillImage"/>
    <dc:date>2025-12-02T17:57:09.111356</dc:date>
    <dc:format>image/svg+xml</dc:format>
    <dc:creator>
     <cc:Agent>
      <dc:title>Matplotlib v3.10.6, https://matplotlib.org/</dc:title>
     </cc:Agent>
    </dc:creator>
   </cc:Work>
  </rdf:RDF>
 </metadata>
 <defs>
  <style type="text/css">*{stroke-linejoin: round; stroke-linecap: butt}</style>
 </defs>
 <g id="figure_1">
  <g id="patch_1">
   <path d="M 0 432 
L 864 432 
L 864 0 
L 0 0 
z
" style="fill: #ffffff"/>
  </g>
  <g id="axes_1">
   <g id="patch_2">
    <path d="M 30.58 404.12 
L 853.2 404.12 
L 853.2 10.8 
L 30.58 10.8 
z
" style="fill: #ffffff"/>
   </g>
   <g id="matplotlib.axis_1">
    <g id="xtick_1">
     <g id="line2d_1">
      <path d="M 67.971818 404.12 
L 67.971818 10.8 
" clip-path="url(#p6c6c930634)" style="fill: none; stroke: #b0b0b0; stroke-width: 0.8; stroke-linecap: square"/>
     </g>
     <g id="line2d_2">
      <defs>
       <path id="mc1a65ebbb0" d="M 0 0 
L 0 3.5 
" style="stroke: #000000; stroke-width: 0.8"/>
      </defs>
      <g>
       <use xlink:href="#mc1a65ebbb0" x="67.971818" y="404.12" style="stroke: #000000; stroke-width: 0.8"/>
      </g>
     </g>
     <g id="text_1">
      <!-- 0 -->
      <g transform="translate(64.790568 418.718437) scale(0.1 -0.1)">
       <defs>
        <path id="DejaVuSans-30" d="M 2034 4250 
Q 1547 4250 1301 3770 
Q 1056 3291 1056 2328 
Q 1056 1369 1301 889 
Q 1547 409 2034 409 
Q 2525 409 2770 889 
Q 3016 1369 3016 2328 
Q 3016 3291 2770 3770 
Q 2525 4250 2034 4250 
z
M 2034 4750 
Q 2819 4750 3233 4129 
Q 3647 3509 3647 2328 
Q 3647 1150 3233 529 
Q 2819 -91 2034 -91 
Q 1250 -91 836 529 
Q 422 1150 422 2328 
Q 422 3509 836 4129 
Q 1250 4750 2034 4750 
z
" transform="scale(0.015625)"/>
       </defs>
       <use xlink:href="#DejaVuSans-30"/>
      </g>
     </g>
    </g>
    <g id="xtick_2">
     <g id="line2d_3">
      <path d="M 217.688808 404.12 
L 217.688808 10.8 
" clip-path="url(#p6c6c930634)" style="fill: none; stroke: #b0b0b0; stroke-width: 0.8; stroke-linecap: square"/>
     </g>
     <g id="line2d_4">
      <g>
       <use xlink:href="#mc1a65ebbb0" x="217.688808" y="404.12" style="stroke: #000000; stroke-width: 0.8"/>
      </g>
     </g>
     <g id="text_2">
      <!-- 200 -->
      <g transform="translate(208.145058 418.718437) scale(0.1 -0.1)">
       <defs>
        <path id="DejaVuSans-32" d="M 1228 531 
L 3431 531 
L 3431 0 
L 469 0 
L 469 531 
Q 828 903 1448 1529 
Q 2069 2156 2228 2338 
Q 2531 2678 2651 2914 
Q 2772 3150 2772 3378 
Q 2772 3750 2511 3984 
Q 2250 4219 1831 4219 
Q 1534 4219 1204 4116 
Q 875 4013 500 3803 
L 500 4441 
Q 881 4594 1212 4672 
Q 1544 4750 1819 4750 
Q 2544 4750 2975 4387 
Q 3406 4025 3406 3419 
Q 3406 3131 3298 2873 
Q 3191 2616 2906 2266 
Q 2828 2175 2409 1742 
Q 1991 1309 1228 531 
z
" transform="scale(0.015625)"/>
       </defs>
       <use xlink:href="#DejaVuSans-32"/>
       <use xlink:href="#DejaVuSans-30" transform="translate(63.623047 0)"/>
       <use xlink:href="#DejaVuSans-30" transform="translate(127.246094 0)"/>
      </g>
     </g>
    </g>
    <g id="xtick_3">
     <g id="line2d_5">
      <path d="M 367.405798 404.12 
L 367.405798 10.8 
" clip-path="url(#p6c6c930634)" style="fill: none; stroke: #b0b0b0; stroke-width: 0.8; stroke-linecap: square"/>
     </g>
     <g id="line2d_6">
      <g>
       <use xlink:href="#mc1a65ebbb0" x="367.405798" y="404.12" style="stroke: #000000; stroke-width: 0.8"/>
      </g>
     </g>
     <g id="text_3">
      <!-- 400 -->
      <g transform="translate(357.862048 418.718437) scale(0.1 -0.1)">
       <defs>
        <path id="DejaVuSans-34" d="M 2419 4116 
L 825 1625 
L 2419 1625 
L 2419 4116 
z
M 2253 4666 
L 3047 4666 
L 3047 1625 
L 3713 1625 
L 3713 1100 
L 3047 1100 
L 3047 0 
L 2419 0 
L 2419 1100 
L 313 1100 
L 313 1709 
L 2253 4666 
z
" transform="scale(0.015625)"/>
       </defs>
       <use xlink:href="#DejaVuSans-34"/>
       <use xlink:href="#DejaVuSans-30" transform="translate(63.623047 0)"/>
       <use xlink:href="#DejaVuSans-30" transform="translate(127.246094 0)"/>
      </g>
     </g>
    </g>
    <g id="xtick_4">
     <g id="line2d_7">
      <path d="M 517.122787 404.12 
L 517.122787 10.8 
" clip-path="url(#p6c6c930634)" style="fill: none; stroke: #b0b0b0; stroke-width: 0.8; stroke-linecap: square"/>
     </g>
     <g id="line2d_8">
      <g>
       <use xlink:href="#mc1a65ebbb0" x="517.122787" y="404.12" style="stroke: #000000; stroke-width: 0.8"/>
      </g>
     </g>
     <g id="text_4">
      <!-- 600 -->
      <g transform="translate(507.579037 418.718437) scale(0.1 -0.1)">
       <defs>
        <path id="DejaVuSans-36" d="M 2113 2584 
Q 1688 2584 1439 2293 
Q 1191 2003 1191 1497 
Q 1191 994 1439 701 
Q 1688 409 2113 409 
Q 2538 409 2786 701 
Q 3034 994 3034 1497 
Q 3034 2003 2786 2293 
Q 2538 2584 2113 2584 
z
M 3366 4563 
L 3366 3988 
Q 3128 4100 2886 4159 
Q 2644 4219 2406 4219 
Q 1781 4219 1451 3797 
Q 1122 3375 1075 2522 
Q 1259 2794 1537 2939 
Q 1816 3084 2150 3084 
Q 2853 3084 3261 2657 
Q 3669 2231 3669 1497 
Q 3669 778 3244 343 
Q 2819 -91 2113 -91 
Q 1303 -91 875 529 
Q 447 1150 447 2328 
Q 447 3434 972 4092 
Q 1497 4750 2381 4750 
Q 2619 4750 2861 4703 
Q 3103 4656 3366 4563 
z
" transform="scale(0.015625)"/>
       </defs>
       <use xlink:href="#DejaVuSans-36"/>
       <use xlink:href="#DejaVuSans-30" transform="translate(63.623047 0)"/>
       <use xlink:href="#DejaVuSans-30" transform="translate(127.246094 0)"/>
      </g>
     </g>
    </g>
    <g id="xtick_5">
     <g id="line2d_9">
      <path d="M 666.839777 404.12 
L 666.839777 10.8 
" clip-path="url(#p6c6c930634)" style="fill: none; stroke: #b0b0b0; stroke-width: 0.8; stroke-linecap: square"/>
     </g>
     <g id="line2d_10">
      <g>
       <use xlink:href="#mc1a65ebbb0" x="666.839777" y="404.12" style="stroke: #000000; stroke-width: 0.8"/>
      </g>
     </g>
     <g id="text_5">
      <!-- 800 -->
      <g transform="translate(657.296027 418.718437) scale(0.1 -0.1)">
       <defs>
        <path id="DejaVuSans-38" d="M 2034 2216 
Q 1584 2216 1326 1975 
Q 1069 1734 1069 1313 
Q 1069 891 1326 650 
Q 1584 409 2034 409 
Q 2484 409 2743 651 
Q 3003 894 3003 1313 
Q 3003 1734 2745 1975 
Q 2488 2216 2034 2216 
z
M 1403 2484 
Q 997 2584 770 2862 
Q 544 3141 544 3541 
Q 544 4100 942 4425 
Q 1341 4750 2034 4750 
Q 2731 4750 3128 4425 
Q 3525 4100 3525 3541 
Q 3525 3141 3298 2862 
Q 3072 2584 2669 2484 
Q 3125 2378 3379 2068 
Q 3634 1759 3634 1313 
Q 3634 634 3220 271 
Q 2806 -91 2034 -91 
Q 1263 -91 848 271 
Q 434 634 434 1313 
Q 434 1759 690 2068 
Q 947 2378 1403 2484 
z
M 1172 3481 
Q 1172 3119 1398 2916 
Q 1625 2713 2034 2713 
Q 2441 2713 2670 2916 
Q 2900 3119 2900 3481 
Q 2900 3844 2670 4047 
Q 2441 4250 2034 4250 
Q 1625 4250 1398 4047 
Q 1172 3844 1172 3481 
z
" transform="scale(0.015625)"/>
       </defs>
       <use xlink:href="#DejaVuSans-38"/>
       <use xlink:href="#DejaVuSans-30" transform="translate(63.623047 0)"/>
       <use xlink:href="#DejaVuSans-30" transform="translate(127.246094 0)"/>
      </g>
     </g>
    </g>
    <g id="xtick_6">
     <g id="line2d_11">
      <path d="M 816.556767 404.12 
L 816.556767 10.8 
" clip-path="url(#p6c6c930634)" style="fill: none; stroke: #b0b0b0; stroke-width: 0.8; stroke-linecap: square"/>
     </g>
     <g id="line2d_12">
      <g>
       <use xlink:href="#mc1a65ebbb0" x="816.556767" y="404.12" style="stroke: #000000; stroke-width: 0.8"/>
      </g>
     </g>
     <g id="text_6">
      <!-- 1000 -->
      <g transform="translate(803.831767 418.718437) scale(0.1 -0.1)">
       <defs>
        <path id="DejaVuSans-31" d="M 794 531 
L 1825 531 
L 1825 4091 
L 703 3866 
L 703 4441 
L 1819 4666 
L 2450 4666 
L 2450 531 
L 3481 531 
L 3481 0 
L 794 0 
L 794 531 
z
" transform="scale(0.015625)"/>
       </defs>
       <use xlink:href="#DejaVuSans-31"/>
       <use xlink:href="#DejaVuSans-30" transform="translate(63.623047 0)"/>
       <use xlink:href="#DejaVuSans-30" transform="translate(127.246094 0)"/>
       <use xlink:href="#DejaVuSans-30" transform="translate(190.869141 0)"/>
      </g>
     </g>
    </g>
   </g>
   <g id="matplotlib.axis_2">
    <g id="ytick_1">
     <g id="line2d_13">
      <path d="M 30.58 337.680195 
L 853.2 337.680195 
" clip-path="url(#p6c6c930634)" style="fill: none; stroke: #b0b0b0; stroke-width: 0.8; stroke-linecap: square"/>
     </g>
     <g id="line2d_14">
      <defs>
       <path id="m5f5699e43a" d="M 0 0 
L -3.5 0 
" style="stroke: #000000; stroke-width: 0.8"/>
      </defs>
      <g>
       <use xlink:href="#m5f5699e43a" x="30.58" y="337.680195" style="stroke: #000000; stroke-width: 0.8"/>
      </g>
     </g>
     <g id="text_7">
      <!-- 25 -->
      <g transform="translate(10.855 341.479414) scale(0.1 -0.1)">
       <defs>
        <path id="DejaVuSans-35" d="M 691 4666 
L 3169 4666 
L 3169 4134 
L 1269 4134 
L 1269 2991 
Q 1406 3038 1543 3061 
Q 1681 3084 1819 3084 
Q 2600 3084 3056 2656 
Q 3513 2228 3513 1497 
Q 3513 744 3044 326 
Q 2575 -91 1722 -91 
Q 1428 -91 1123 -41 
Q 819 9 494 109 
L 494 744 
Q 775 591 1075 516 
Q 1375 441 1709 441 
Q 2250 441 2565 725 
Q 2881 1009 2881 1497 
Q 2881 1984 2565 2268 
Q 2250 2553 1709 2553 
Q 1456 2553 1204 2497 
Q 953 2441 691 2322 
L 691 4666 
z
" transform="scale(0.015625)"/>
       </defs>
       <use xlink:href="#DejaVuSans-32"/>
       <use xlink:href="#DejaVuSans-35" transform="translate(63.623047 0)"/>
      </g>
     </g>
    </g>
    <g id="ytick_2">
     <g id="line2d_15">
      <path d="M 30.58 263.22467 
L 853.2 263.22467 
" clip-path="url(#p6c6c930634)" style="fill: none; stroke: #b0b0b0; stroke-width: 0.8; stroke-linecap: square"/>
     </g>
     <g id="line2d_16">
      <g>
       <use xlink:href="#m5f5699e43a" x="30.58" y="263.22467" style="stroke: #000000; stroke-width: 0.8"/>
      </g>
     </g>
     <g id="text_8">
      <!-- 30 -->
      <g transform="translate(10.855 267.023889) scale(0.1 -0.1)">
       <defs>
        <path id="DejaVuSans-33" d="M 2597 2516 
Q 3050 2419 3304 2112 
Q 3559 1806 3559 1356 
Q 3559 666 3084 287 
Q 2609 -91 1734 -91 
Q 1441 -91 1130 -33 
Q 819 25 488 141 
L 488 750 
Q 750 597 1062 519 
Q 1375 441 1716 441 
Q 2309 441 2620 675 
Q 2931 909 2931 1356 
Q 2931 1769 2642 2001 
Q 2353 2234 1838 2234 
L 1294 2234 
L 1294 2753 
L 1863 2753 
Q 2328 2753 2575 2939 
Q 2822 3125 2822 3475 
Q 2822 3834 2567 4026 
Q 2313 4219 1838 4219 
Q 1578 4219 1281 4162 
Q 984 4106 628 3988 
L 628 4550 
Q 988 4650 1302 4700 
Q 1616 4750 1894 4750 
Q 2613 4750 3031 4423 
Q 3450 4097 3450 3541 
Q 3450 3153 3228 2886 
Q 3006 2619 2597 2516 
z
" transform="scale(0.015625)"/>
       </defs>
       <use xlink:href="#DejaVuSans-33"/>
       <use xlink:href="#DejaVuSans-30" transform="translate(63.623047 0)"/>
      </g>
     </g>
    </g>
    <g id="ytick_3">
     <g id="line2d_17">
      <path d="M 30.58 188.769145 
L 853.2 188.769145 
" clip-path="url(#p6c6c930634)" style="fill: none; stroke: #b0b0b0; stroke-width: 0.8; stroke-linecap: square"/>
     </g>
     <g id="line2d_18">
      <g>
       <use xlink:href="#m5f5699e43a" x="30.58" y="188.769145" style="stroke: #000000; stroke-width: 0.8"/>
      </g>
     </g>
     <g id="text_9">
      <!-- 35 -->
      <g transform="translate(10.855 192.568364) scale(0.1 -0.1)">
       <use xlink:href="#DejaVuSans-33"/>
       <use xlink:href="#DejaVuSans-35" transform="translate(63.623047 0)"/>
      </g>
     </g>
    </g>
    <g id="ytick_4">
     <g id="line2d_19">
      <path d="M 30.58 114.313619 
L 853.2 114.313619 
" clip-path="url(#p6c6c930634)" style="fill: none; stroke: #b0b0b0; stroke-width: 0.8; stroke-linecap: square"/>
     </g>
     <g id="line2d_20">
      <g>
       <use xlink:href="#m5f5699e43a" x="30.58" y="114.313619" style="stroke: #000000; stroke-width: 0.8"/>
      </g>
     </g>
     <g id="text_10">
      <!-- 40 -->
      <g transform="translate(10.855 118.112838) scale(0.1 -0.1)">
       <use xlink:href="#DejaVuSans-34"/>
       <use xlink:href="#DejaVuSans-30" transform="translate(63.623047 0)"/>
      </g>
     </g>
    </g>
    <g id="ytick_5">
     <g id="line2d_21">
      <path d="M 30.58 39.858094 
L 853.2 39.858094 
" clip-path="url(#p6c6c930634)" style="fill: none; stroke: #b0b0b0; stroke-width: 0.8; stroke-linecap: square"/>
     </g>
     <g id="line2d_22">
      <g>
       <use xlink:href="#m5f5699e43a" x="30.58" y="39.858094" style="stroke: #000000; stroke-width: 0.8"/>
      </g>
     </g>
     <g id="text_11">
      <!-- 45 -->
      <g transform="translate(10.855 43.657313) scale(0.1 -0.1)">
       <use xlink:href="#DejaVuSans-34"/>
       <use xlink:href="#DejaVuSans-35" transform="translate(63.623047 0)"/>
      </g>
     </g>
    </g>
   </g>
   <g id="line2d_23">
    <path d="M 67.971818 353.271963 
L 68.720403 340.720936 
L 69.468988 330.139908 
L 70.217573 339.741359 
L 70.966158 324.726502 
L 71.714743 302.129966 
L 72.463328 327.750155 
L 73.211913 322.091217 
L 73.960498 306.031455 
L 74.709083 337.328387 
L 75.457668 338.743448 
L 76.206253 366.150067 
L 76.954838 354.764923 
L 77.703423 360.831236 
L 78.452007 340.350552 
L 79.200592 371.341674 
L 79.949177 324.011923 
L 80.697762 358.24996 
L 81.446347 373.920199 
L 82.194932 338.546684 
L 83.692102 317.540002 
L 84.440687 309.673923 
L 85.189272 309.072087 
L 85.937857 323.965547 
L 86.686442 335.219897 
L 87.435027 307.10658 
L 88.183612 341.19381 
L 89.680782 296.676587 
L 90.429367 353.755271 
L 91.177952 342.812531 
L 91.926537 356.030365 
L 92.675121 337.797022 
L 94.172291 380.691521 
L 94.920876 366.108058 
L 95.669461 349.231456 
L 96.418046 338.402122 
L 97.166631 339.088198 
L 97.915216 311.824741 
L 98.663801 326.196014 
L 100.160971 314.631987 
L 100.909556 305.755385 
L 101.658141 306.023905 
L 102.406726 336.642644 
L 103.155311 339.499446 
L 103.903896 328.376482 
L 104.652481 359.946991 
L 105.401066 354.506275 
L 106.149651 344.992821 
L 106.898236 333.381332 
L 107.64682 362.755331 
L 108.395405 349.047166 
L 109.14399 366.682179 
L 109.892575 358.549081 
L 110.64116 353.966049 
L 111.389745 330.754234 
L 112.13833 337.320293 
L 112.886915 330.579996 
L 113.6355 352.674683 
L 114.384085 317.261459 
L 115.13267 338.238417 
L 115.881255 322.712049 
L 116.62984 298.517561 
L 117.378425 333.737524 
L 118.12701 329.649485 
L 118.875595 328.176604 
L 119.62418 338.016636 
L 120.372765 361.872026 
L 121.12135 335.798764 
L 121.869934 357.285016 
L 122.618519 373.570035 
L 123.367104 343.514104 
L 124.115689 379.182288 
L 124.864274 337.744302 
L 125.612859 341.6359 
L 126.361444 318.059374 
L 127.110029 360.502041 
L 127.858614 315.581255 
L 128.607199 323.738619 
L 129.355784 340.641982 
L 130.104369 305.91117 
L 130.852954 352.87317 
L 131.601539 321.195716 
L 132.350124 324.100688 
L 133.098709 339.864968 
L 133.847294 315.474421 
L 134.595879 337.299097 
L 135.344464 347.691009 
L 136.093049 363.037877 
L 136.841633 344.870547 
L 137.590218 332.491022 
L 138.338803 351.885298 
L 139.087388 327.942265 
L 139.835973 350.315914 
L 140.584558 365.258005 
L 141.333143 321.822084 
L 142.081728 349.745813 
L 142.830313 345.628461 
L 143.578898 307.220932 
L 144.327483 309.490496 
L 145.076068 276.744784 
L 145.824653 331.715746 
L 146.573238 331.305132 
L 147.321823 321.796671 
L 148.070408 326.273466 
L 148.818993 313.992041 
L 149.567578 354.441236 
L 150.316163 325.258501 
L 151.064747 336.070674 
L 151.813332 328.574858 
L 152.561917 351.539705 
L 153.310502 306.498359 
L 154.059087 352.131264 
L 154.807672 358.200336 
L 155.556257 358.752689 
L 156.304842 359.031824 
L 157.053427 349.577673 
L 157.802012 355.505228 
L 158.550597 330.544205 
L 159.299182 321.452967 
L 160.047767 336.305589 
L 161.544937 318.961697 
L 162.293522 324.011193 
L 163.042107 297.565234 
L 163.790692 311.287761 
L 164.539277 331.758012 
L 166.036446 354.818816 
L 166.785031 354.704863 
L 167.533616 352.987145 
L 168.282201 336.366443 
L 169.030786 360.374502 
L 169.779371 351.352768 
L 170.527956 346.647442 
L 171.276541 348.913295 
L 172.025126 361.203141 
L 172.773711 331.589957 
L 173.522296 332.899347 
L 174.270881 306.732151 
L 175.019466 299.021548 
L 175.768051 306.221315 
L 176.516636 320.381712 
L 177.265221 327.473118 
L 178.013806 289.344722 
L 178.762391 344.403025 
L 179.510976 321.768589 
L 180.25956 344.927367 
L 181.008145 319.520629 
L 181.75673 324.136066 
L 182.505315 360.94927 
L 183.2539 346.317738 
L 184.75107 371.095591 
L 185.499655 330.878055 
L 186.24824 354.754478 
L 186.996825 323.323677 
L 187.74541 335.250464 
L 188.493995 339.304966 
L 189.24258 335.425073 
L 189.991165 325.027589 
L 190.73975 289.772099 
L 191.488335 325.229062 
L 192.23692 326.23897 
L 192.985505 316.361513 
L 193.73409 315.83274 
L 194.482674 331.420028 
L 195.231259 324.170135 
L 195.979844 325.269294 
L 196.728429 329.404155 
L 197.477014 340.989543 
L 198.225599 386.241818 
L 198.974184 343.729993 
L 199.722769 332.215124 
L 200.471354 351.832231 
L 201.219939 344.700925 
L 201.968524 307.359512 
L 202.717109 318.637375 
L 203.465694 314.262422 
L 204.214279 319.058381 
L 204.962864 316.413285 
L 205.711449 335.368346 
L 206.460034 309.456705 
L 207.208619 345.629059 
L 208.705789 311.523231 
L 209.454373 332.83965 
L 210.202958 339.993469 
L 210.951543 354.574268 
L 211.700128 330.699934 
L 212.448713 319.233071 
L 213.197298 333.06891 
L 213.945883 329.454432 
L 214.694468 324.826502 
L 215.443053 362.086087 
L 216.191638 337.228029 
L 216.940223 328.110007 
L 217.688808 337.625166 
L 218.437393 305.383734 
L 219.185978 330.902808 
L 219.934563 338.632562 
L 220.683148 301.264536 
L 221.431733 286.751768 
L 222.180318 335.639363 
L 222.928903 301.021153 
L 223.677487 317.814835 
L 224.426072 357.542809 
L 225.174657 330.369507 
L 225.923242 311.434375 
L 226.671827 323.715307 
L 227.420412 330.822881 
L 228.168997 354.690011 
L 228.917582 321.19654 
L 229.666167 354.458686 
L 230.414752 354.332275 
L 231.163337 321.108817 
L 231.911922 327.917677 
L 232.660507 323.20462 
L 233.409092 322.137631 
L 234.157677 321.884729 
L 234.906262 331.928227 
L 235.654847 304.987407 
L 236.403432 287.676813 
L 237.152017 307.849783 
L 237.900602 305.529394 
L 238.649186 333.689997 
L 239.397771 325.63071 
L 240.146356 334.353143 
L 240.894941 328.03101 
L 241.643526 339.006158 
L 242.392111 359.996193 
L 243.140696 330.258375 
L 243.889281 353.710964 
L 244.637866 354.21534 
L 245.386451 323.101086 
L 246.135036 323.352331 
L 246.883621 332.399411 
L 247.632206 339.494255 
L 248.380791 306.741624 
L 249.129376 312.239278 
L 249.877961 341.276832 
L 250.626546 325.905392 
L 251.375131 331.365316 
L 252.123716 302.210386 
L 252.8723 299.625694 
L 253.620885 294.228406 
L 254.36947 296.167778 
L 255.118055 330.315534 
L 255.86664 331.764562 
L 256.615225 339.150091 
L 257.36381 305.800366 
L 258.112395 346.370148 
L 258.86098 333.843393 
L 259.609565 358.085979 
L 260.35815 317.623989 
L 261.106735 347.642374 
L 261.85532 298.201224 
L 262.603905 286.37589 
L 263.35249 308.135222 
L 264.101075 301.373389 
L 264.84966 308.324218 
L 265.598245 304.595216 
L 266.34683 316.312967 
L 267.095415 310.026733 
L 267.843999 330.321483 
L 268.592584 332.885877 
L 269.341169 320.736998 
L 270.089754 344.253492 
L 270.838339 302.035832 
L 271.586924 320.141276 
L 272.335509 309.704368 
L 273.084094 313.914051 
L 273.832679 346.758938 
L 274.581264 318.007088 
L 275.329849 352.899497 
L 276.078434 326.108578 
L 276.827019 329.519311 
L 277.575604 327.291569 
L 278.324189 308.206442 
L 279.072774 302.886896 
L 279.821359 320.451448 
L 280.569944 307.429814 
L 281.318529 303.777962 
L 282.067113 298.929047 
L 282.815698 299.551071 
L 283.564283 301.074472 
L 284.312868 285.010338 
L 285.061453 295.843856 
L 285.810038 297.843352 
L 286.558623 332.021221 
L 287.307208 335.784095 
L 288.055793 324.703038 
L 288.804378 315.990882 
L 289.552963 330.918148 
L 290.301548 336.078794 
L 291.050133 332.033646 
L 291.798718 325.418843 
L 292.547303 340.279005 
L 293.295888 308.910756 
L 294.044473 317.453159 
L 294.793058 307.403243 
L 295.541643 314.871271 
L 297.038812 277.650914 
L 297.787397 297.844875 
L 298.535982 283.316777 
L 299.284567 298.878854 
L 300.033152 305.322031 
L 300.781737 314.58385 
L 301.530322 330.048094 
L 302.278907 323.347738 
L 303.027492 331.848811 
L 303.776077 302.361661 
L 304.524662 305.885952 
L 305.273247 296.383882 
L 306.021832 344.686226 
L 306.770417 322.194242 
L 307.519002 311.644141 
L 308.267587 296.265157 
L 309.016172 314.256909 
L 309.764757 301.005831 
L 310.513342 302.768177 
L 311.261926 306.615485 
L 312.010511 273.521454 
L 312.759096 300.244649 
L 313.507681 296.151864 
L 314.256266 277.926241 
L 315.004851 320.944617 
L 315.753436 310.55717 
L 316.502021 329.132582 
L 317.250606 333.086509 
L 317.999191 331.709341 
L 318.747776 315.344501 
L 320.244946 321.190568 
L 320.993531 294.698016 
L 321.742116 300.333965 
L 322.490701 282.339369 
L 323.239286 294.539648 
L 323.987871 294.381502 
L 324.736456 273.524882 
L 325.48504 281.204217 
L 326.233625 282.553697 
L 326.98221 302.788949 
L 327.730795 288.192773 
L 328.47938 318.682208 
L 329.97655 267.229482 
L 330.725135 314.169955 
L 331.47372 335.288554 
L 332.222305 309.02749 
L 332.97089 296.90408 
L 333.719475 325.546508 
L 334.46806 319.311586 
L 335.216645 335.083302 
L 335.96523 292.058077 
L 336.713815 322.373353 
L 337.4624 299.421257 
L 338.210985 297.465214 
L 338.95957 277.682536 
L 339.708155 305.268098 
L 340.456739 300.752042 
L 341.205324 294.737433 
L 341.953909 279.156911 
L 342.702494 279.481456 
L 343.451079 290.394286 
L 344.199664 273.809043 
L 344.948249 277.473352 
L 345.696834 309.608615 
L 346.445419 318.76727 
L 347.194004 292.68406 
L 347.942589 310.066809 
L 348.691174 309.591671 
L 349.439759 324.799756 
L 350.188344 306.38668 
L 350.936929 294.118877 
L 351.685514 293.405374 
L 352.434099 291.399034 
L 353.182684 270.905677 
L 353.931269 288.395227 
L 354.679853 268.359841 
L 355.428438 280.583676 
L 356.177023 266.691848 
L 356.925608 276.062066 
L 357.674193 269.620395 
L 358.422778 284.93377 
L 359.171363 307.262321 
L 359.919948 289.620224 
L 360.668533 316.676296 
L 361.417118 317.153628 
L 362.165703 319.494006 
L 362.914288 308.937719 
L 363.662873 317.56937 
L 364.411458 292.96037 
L 365.160043 311.178224 
L 365.908628 308.072565 
L 366.657213 302.850207 
L 367.405798 293.536751 
L 368.154383 293.149415 
L 368.902968 280.132178 
L 369.651552 260.859144 
L 370.400137 262.837355 
L 371.148722 285.606815 
L 371.897307 297.682641 
L 372.645892 280.631897 
L 373.394477 279.363828 
L 374.143062 278.77187 
L 374.891647 285.40775 
L 375.640232 299.579423 
L 376.388817 292.109553 
L 377.137402 309.723983 
L 377.885987 301.961234 
L 378.634572 284.385809 
L 379.383157 310.242713 
L 380.131742 301.121119 
L 380.880327 313.825077 
L 381.628912 281.030084 
L 382.377497 290.225241 
L 383.126082 256.039741 
L 383.874666 258.90018 
L 384.623251 292.242841 
L 385.371836 245.148759 
L 386.120421 311.018119 
L 386.869006 262.59382 
L 387.617591 263.480335 
L 389.114761 293.245036 
L 389.863346 291.781801 
L 390.611931 295.205288 
L 391.360516 294.954399 
L 392.109101 267.179792 
L 392.857686 331.830727 
L 393.606271 323.236025 
L 394.354856 297.443581 
L 395.103441 277.885538 
L 395.852026 294.260776 
L 396.600611 294.525665 
L 397.349196 307.278863 
L 398.097781 283.225863 
L 398.846365 283.20957 
L 399.59495 273.0395 
L 400.343535 271.663798 
L 401.09212 239.773166 
L 401.840705 274.596407 
L 402.58929 287.382533 
L 403.337875 295.800145 
L 404.08646 288.611774 
L 404.835045 288.198169 
L 405.58363 293.733697 
L 406.332215 281.826111 
L 407.0808 265.777531 
L 407.829385 296.300113 
L 408.57797 286.299294 
L 409.326555 318.926142 
L 410.07514 329.406271 
L 411.57231 287.794646 
L 412.320895 281.770395 
L 413.069479 282.730717 
L 413.818064 257.225036 
L 414.566649 258.425421 
L 415.315234 247.104813 
L 416.063819 263.799353 
L 416.812404 255.436039 
L 417.560989 305.168774 
L 418.309574 254.829644 
L 419.806744 311.078549 
L 420.555329 265.548147 
L 421.303914 272.507347 
L 422.052499 260.40386 
L 422.801084 279.925764 
L 424.298254 300.897811 
L 425.046839 280.102422 
L 425.795424 299.227219 
L 426.544009 269.500168 
L 427.292594 274.265685 
L 428.041178 276.658641 
L 428.789763 279.694617 
L 429.538348 262.204371 
L 430.286933 229.181689 
L 431.035518 277.671443 
L 431.784103 263.650311 
L 432.532688 265.199512 
L 433.281273 268.197142 
L 434.029858 248.103392 
L 434.778443 261.63092 
L 435.527028 271.136426 
L 436.275613 248.64229 
L 437.024198 274.886623 
L 437.772783 295.850279 
L 438.521368 275.111029 
L 439.269953 292.590111 
L 440.018538 300.32489 
L 440.767123 277.963235 
L 441.515708 283.380447 
L 442.264292 271.699825 
L 443.012877 284.93531 
L 443.761462 250.519878 
L 444.510047 240.506774 
L 445.258632 258.853959 
L 446.007217 265.771926 
L 446.755802 224.052171 
L 448.252972 261.121133 
L 449.001557 266.972115 
L 449.750142 240.511081 
L 450.498727 300.19414 
L 451.247312 246.12311 
L 451.995897 287.120639 
L 452.744482 279.275701 
L 453.493067 255.573394 
L 454.241652 275.289281 
L 454.990237 239.492979 
L 455.738822 246.469308 
L 456.487406 268.25648 
L 457.235991 314.002151 
L 457.984576 235.153756 
L 459.481746 245.22242 
L 460.230331 229.925203 
L 460.978916 259.460929 
L 461.727501 264.022063 
L 462.476086 233.03896 
L 463.224671 235.700831 
L 463.973256 239.662671 
L 464.721841 233.894942 
L 465.470426 253.187663 
L 466.219011 279.001577 
L 466.967596 293.339647 
L 467.716181 269.566694 
L 468.464766 259.388967 
L 469.213351 287.707747 
L 469.961936 250.204506 
L 470.710521 265.780665 
L 471.459105 264.978621 
L 472.20769 275.131624 
L 472.956275 248.2733 
L 473.70486 248.118459 
L 474.453445 255.436916 
L 475.20203 240.435937 
L 475.950615 269.933814 
L 476.6992 206.432987 
L 477.447785 246.147421 
L 478.19637 279.907057 
L 478.944955 251.167714 
L 479.69354 274.842615 
L 480.442125 266.38876 
L 481.19071 260.105472 
L 481.939295 245.114344 
L 482.68788 289.387041 
L 483.436465 272.09732 
L 484.18505 293.736689 
L 484.933635 283.465067 
L 485.682219 278.53639 
L 486.430804 241.337709 
L 487.179389 254.180768 
L 487.927974 244.808384 
L 488.676559 241.374696 
L 489.425144 235.541382 
L 490.173729 242.349795 
L 490.922314 216.518187 
L 491.670899 237.253353 
L 492.419484 227.859083 
L 493.916654 268.311963 
L 494.665239 239.585269 
L 495.413824 254.16355 
L 496.162409 252.375823 
L 496.910994 263.90689 
L 497.659579 227.449275 
L 498.408164 234.171252 
L 499.156749 238.588984 
L 499.905334 266.114353 
L 500.653918 279.774939 
L 502.151088 228.950821 
L 502.899673 259.574098 
L 503.648258 214.946212 
L 505.145428 234.481199 
L 505.894013 230.671391 
L 506.642598 217.975921 
L 507.391183 238.320801 
L 508.139768 228.613142 
L 508.888353 241.688943 
L 509.636938 245.145806 
L 510.385523 239.994927 
L 511.134108 239.730643 
L 511.882693 234.135048 
L 512.631278 256.308792 
L 513.379863 246.290327 
L 514.128448 245.927648 
L 514.877032 255.848036 
L 515.625617 257.952318 
L 516.374202 227.382211 
L 517.122787 235.864582 
L 517.871372 235.785128 
L 518.619957 218.326572 
L 519.368542 224.269697 
L 520.117127 214.260305 
L 520.865712 233.540956 
L 521.614297 199.783843 
L 522.362882 206.378631 
L 523.111467 233.422358 
L 523.860052 200.192489 
L 524.608637 237.057 
L 525.357222 242.978978 
L 526.105807 233.225411 
L 526.854392 242.229299 
L 527.602977 261.008273 
L 528.351562 210.190965 
L 529.100147 225.806599 
L 529.848731 252.292156 
L 530.597316 262.698703 
L 531.345901 215.096407 
L 532.094486 199.626901 
L 532.843071 236.024901 
L 533.591656 199.481122 
L 534.340241 213.556337 
L 535.088826 234.069285 
L 535.837411 210.00999 
L 536.585996 200.534756 
L 538.083166 229.558051 
L 538.831751 212.788542 
L 539.580336 223.03932 
L 540.328921 220.856542 
L 541.077506 225.156968 
L 541.826091 217.000736 
L 542.574676 214.509426 
L 543.323261 236.672669 
L 544.071845 229.318489 
L 544.82043 228.914907 
L 545.569015 227.931722 
L 546.3176 218.724735 
L 547.066185 238.784759 
L 547.81477 232.186936 
L 548.563355 224.378655 
L 549.31194 205.688124 
L 550.060525 222.233679 
L 550.80911 188.649971 
L 551.557695 201.99872 
L 552.30628 229.971318 
L 553.054865 204.271636 
L 553.80345 213.805455 
L 554.552035 229.436392 
L 555.30062 197.274905 
L 556.049205 205.122377 
L 556.79779 241.628689 
L 557.546375 250.462245 
L 558.29496 228.990948 
L 559.043544 217.689373 
L 559.792129 226.622015 
L 560.540714 229.23047 
L 561.289299 217.810019 
L 562.037884 204.234405 
L 562.786469 215.656576 
L 563.535054 190.618613 
L 564.283639 183.733791 
L 565.032224 203.477789 
L 565.780809 192.380571 
L 566.529394 193.3388 
L 567.277979 191.588059 
L 568.026564 170.484103 
L 568.775149 194.609908 
L 569.523734 233.191435 
L 570.272319 201.779258 
L 571.020904 239.693949 
L 571.769489 213.179419 
L 572.518074 212.190663 
L 573.266658 216.218513 
L 574.015243 210.058223 
L 574.763828 175.318116 
L 575.512413 208.586111 
L 576.260998 247.450236 
L 577.009583 207.821027 
L 577.758168 187.019451 
L 578.506753 185.752083 
L 579.255338 192.699321 
L 580.003923 208.651901 
L 580.752508 209.738406 
L 581.501093 213.374622 
L 582.998263 153.177953 
L 583.746848 187.230165 
L 584.495433 200.523217 
L 585.244018 188.466356 
L 585.992603 188.254716 
L 586.741188 227.691713 
L 587.489772 226.154867 
L 588.238357 222.163495 
L 588.986942 209.27137 
L 589.735527 180.693297 
L 591.232697 221.7909 
L 591.981282 210.738482 
L 592.729867 205.197725 
L 593.478452 183.233071 
L 594.227037 186.53207 
L 594.975622 170.884637 
L 596.472792 201.951799 
L 597.221377 191.973968 
L 597.969962 201.201549 
L 598.718547 215.621206 
L 599.467132 188.797416 
L 600.215717 190.528708 
L 600.964302 219.902647 
L 601.712887 217.985402 
L 602.461471 187.873048 
L 603.210056 238.309574 
L 603.958641 190.465276 
L 604.707226 218.834005 
L 605.455811 180.966395 
L 606.204396 192.913022 
L 606.952981 168.506264 
L 607.701566 197.987905 
L 608.450151 182.010447 
L 609.198736 202.441833 
L 609.947321 160.149331 
L 610.695906 172.531711 
L 611.444491 199.855465 
L 612.193076 163.65788 
L 612.941661 178.173112 
L 613.690246 185.902563 
L 614.438831 170.817242 
L 615.187416 197.180858 
L 615.936001 185.637967 
L 616.684585 192.477508 
L 618.181755 199.176711 
L 618.93034 197.725701 
L 619.678925 207.765701 
L 620.42751 189.375572 
L 621.176095 204.292779 
L 621.92468 195.75046 
L 622.673265 146.946644 
L 623.42185 190.829646 
L 624.170435 151.874047 
L 624.91902 165.653072 
L 625.667605 168.278997 
L 626.41619 202.593259 
L 627.164775 181.442195 
L 627.91336 153.67198 
L 628.661945 154.941863 
L 629.41053 184.95067 
L 630.159115 169.651037 
L 630.9077 162.429272 
L 631.656284 175.394475 
L 632.404869 183.24242 
L 633.153454 170.008075 
L 633.902039 215.632164 
L 634.650624 184.857544 
L 635.399209 170.687945 
L 636.147794 163.143728 
L 636.896379 182.165695 
L 637.644964 170.654873 
L 638.393549 151.452329 
L 639.142134 146.883112 
L 639.890719 148.515286 
L 640.639304 161.608246 
L 641.387889 153.722566 
L 642.136474 107.618124 
L 642.885059 157.455595 
L 643.633644 156.222032 
L 644.382229 146.52386 
L 645.130814 181.617415 
L 645.879398 149.400945 
L 646.627983 165.559521 
L 647.376568 190.501474 
L 648.125153 162.604786 
L 648.873738 182.966649 
L 649.622323 167.638343 
L 650.370908 187.741163 
L 651.119493 190.086784 
L 651.868078 180.636105 
L 652.616663 155.266494 
L 653.365248 142.088832 
L 654.113833 158.688596 
L 654.862418 156.80418 
L 655.611003 162.723468 
L 656.359588 142.328131 
L 657.108173 136.899826 
L 657.856758 162.997537 
L 658.605343 145.593219 
L 659.353928 183.340343 
L 660.102513 194.100261 
L 660.851097 166.877831 
L 661.599682 164.445779 
L 662.348267 179.441914 
L 663.096852 165.217292 
L 663.845437 171.213963 
L 664.594022 166.766826 
L 665.342607 171.618631 
L 666.091192 131.532175 
L 666.839777 150.859799 
L 667.588362 153.787886 
L 668.336947 152.80547 
L 669.085532 155.250282 
L 669.834117 150.783584 
L 670.582702 140.749389 
L 671.331287 117.825504 
L 672.079872 134.353373 
L 672.828457 144.481165 
L 673.577042 150.149962 
L 674.325627 129.90257 
L 675.074211 173.180092 
L 675.822796 129.844367 
L 676.571381 139.147143 
L 677.319966 156.437431 
L 678.068551 193.633086 
L 678.817136 151.451409 
L 679.565721 164.791591 
L 680.314306 187.004426 
L 681.062891 156.527677 
L 681.811476 134.969847 
L 682.560061 157.647867 
L 683.308646 105.557352 
L 684.057231 154.75644 
L 684.805816 131.534041 
L 685.554401 134.965385 
L 686.302986 140.267834 
L 687.051571 117.33125 
L 687.800156 114.348074 
L 688.548741 128.133983 
L 689.297326 144.244198 
L 690.04591 125.426467 
L 690.794495 163.141135 
L 691.54308 140.064458 
L 692.291665 145.084479 
L 693.04025 153.19655 
L 693.788835 169.645329 
L 694.53742 129.206899 
L 695.286005 146.652473 
L 696.03459 125.439615 
L 696.783175 129.549179 
L 697.53176 156.913293 
L 698.280345 111.179544 
L 699.02893 131.626551 
L 699.777515 95.00969 
L 700.5261 115.031985 
L 701.274685 114.27828 
L 702.02327 128.861346 
L 702.771855 109.869692 
L 703.52044 112.307292 
L 704.269024 129.911103 
L 705.017609 123.925337 
L 705.766194 124.962663 
L 706.514779 137.994861 
L 707.263364 127.31891 
L 708.011949 146.915492 
L 708.760534 141.258157 
L 709.509119 144.589241 
L 710.257704 134.189632 
L 711.006289 131.550508 
L 711.754874 159.786246 
L 712.503459 139.149672 
L 713.252044 102.206926 
L 714.000629 112.750398 
L 714.749214 119.55004 
L 715.497799 140.260503 
L 716.246384 101.759733 
L 716.994969 112.293692 
L 718.492139 98.044122 
L 719.240723 120.290224 
L 720.737893 153.056241 
L 721.486478 111.027962 
L 722.235063 135.724171 
L 722.983648 135.726268 
L 723.732233 130.173949 
L 724.480818 134.395436 
L 725.229403 117.55526 
L 725.977988 123.477749 
L 726.726573 104.807527 
L 727.475158 108.413552 
L 728.223743 94.670907 
L 728.972328 86.144863 
L 729.720913 111.594628 
L 730.469498 68.05308 
L 731.218083 103.362 
L 731.966668 91.011497 
L 732.715253 96.932769 
L 733.463837 109.402104 
L 734.212422 114.644768 
L 734.961007 117.510601 
L 735.709592 132.130151 
L 736.458177 114.104951 
L 737.206762 125.72406 
L 737.955347 115.010826 
L 738.703932 99.387513 
L 739.452517 122.851426 
L 740.201102 117.137672 
L 740.949687 130.876068 
L 741.698272 109.982934 
L 742.446857 94.608962 
L 743.195442 93.680485 
L 743.944027 85.471409 
L 744.692612 74.774862 
L 745.441197 80.313703 
L 746.189782 72.554954 
L 746.938367 57.556125 
L 747.686951 97.409401 
L 748.435536 100.845473 
L 749.184121 100.767047 
L 749.932706 117.906216 
L 750.681291 86.694202 
L 751.429876 114.723733 
L 752.178461 111.450556 
L 752.927046 120.033865 
L 753.675631 109.949503 
L 754.424216 94.865297 
L 755.172801 111.185579 
L 755.921386 56.578361 
L 756.669971 110.122154 
L 757.418556 93.869264 
L 758.167141 83.852489 
L 758.915726 80.698638 
L 759.664311 53.236111 
L 760.412896 55.964661 
L 761.161481 49.889214 
L 761.910066 70.743586 
L 762.65865 80.064688 
L 763.407235 106.955003 
L 764.15582 94.230898 
L 764.904405 63.978769 
L 766.401575 105.803671 
L 767.15016 107.639069 
L 767.898745 102.164283 
L 769.395915 65.053198 
L 770.1445 97.137852 
L 770.893085 74.888126 
L 771.64167 90.694583 
L 772.390255 86.869539 
L 773.13884 94.713458 
L 774.63601 50.824403 
L 775.384595 67.251204 
L 776.13318 58.733588 
L 776.881764 80.418576 
L 777.630349 59.828811 
L 778.378934 91.579778 
L 779.127519 53.284513 
L 779.876104 67.346133 
L 780.624689 60.916951 
L 781.373274 105.070866 
L 782.121859 64.860829 
L 782.870444 97.581515 
L 783.619029 75.74427 
L 784.367614 81.328553 
L 785.864784 78.658726 
L 786.613369 92.353758 
L 787.361954 69.263346 
L 788.110539 69.859903 
L 788.859124 51.388253 
L 789.607709 45.457296 
L 790.356294 56.528981 
L 791.104879 60.976932 
L 791.853463 36.088625 
L 792.602048 78.934365 
L 793.350633 62.758248 
L 794.099218 53.212108 
L 794.847803 60.575059 
L 795.596388 57.016077 
L 796.344973 90.123027 
L 797.093558 74.70613 
L 797.842143 92.638645 
L 798.590728 51.971497 
L 799.339313 89.917296 
L 800.087898 58.041831 
L 800.836483 67.901278 
L 801.585068 60.64865 
L 802.333653 67.497257 
L 803.082238 53.901306 
L 803.830823 34.352367 
L 804.579408 28.678182 
L 805.327993 53.243157 
L 806.076577 58.103098 
L 806.825162 46.559143 
L 807.573747 43.326719 
L 808.322332 35.04812 
L 809.070917 36.465455 
L 809.819502 56.484432 
L 810.568087 55.446748 
L 811.316672 81.300707 
L 812.065257 72.569269 
L 812.813842 79.209702 
L 813.562427 60.587016 
L 814.311012 71.089367 
L 815.059597 59.121772 
L 815.808182 69.009115 
L 815.808182 69.009115 
" clip-path="url(#p6c6c930634)" style="fill: none; stroke: #008000; stroke-width: 1.5; stroke-linecap: square"/>
   </g>
   <g id="line2d_24">
    <path d="M 142.830313 328.66836 
L 143.578898 318.778962 
L 144.327483 325.204506 
L 145.076068 322.975241 
L 145.824653 323.407186 
L 146.573238 314.829498 
L 147.321823 320.90653 
L 148.070408 318.251693 
L 148.818993 324.328404 
L 149.567578 328.022092 
L 150.316163 331.104407 
L 151.064747 345.388415 
L 151.813332 343.97784 
L 153.310502 347.805425 
L 154.059087 341.193768 
L 154.807672 355.628069 
L 155.556257 339.160958 
L 156.304842 340.065344 
L 157.053427 336.617236 
L 157.802012 332.564565 
L 158.550597 317.378246 
L 160.047767 309.589992 
L 160.796352 318.800621 
L 161.544937 313.648874 
L 162.293522 322.990408 
L 163.042107 315.70994 
L 163.790692 330.630302 
L 164.539277 333.311988 
L 166.036446 347.364303 
L 166.785031 346.637658 
L 167.533616 342.566139 
L 168.282201 342.164355 
L 169.030786 345.490908 
L 169.779371 347.041572 
L 170.527956 341.149135 
L 171.276541 344.091728 
L 172.025126 332.39704 
L 172.773711 331.883147 
L 173.522296 329.213243 
L 175.019466 316.754527 
L 175.768051 316.212827 
L 176.516636 314.283478 
L 177.265221 314.502817 
L 178.013806 312.726698 
L 178.762391 321.461577 
L 179.510976 326.235128 
L 180.25956 334.601156 
L 181.008145 340.9461 
L 181.75673 349.895675 
L 182.505315 346.877944 
L 183.2539 348.311991 
L 184.002485 347.957382 
L 184.75107 340.141542 
L 185.499655 340.643146 
L 188.493995 322.960707 
L 189.24258 322.803839 
L 189.991165 314.118058 
L 190.73975 312.461392 
L 191.488335 315.424172 
L 192.23692 312.280072 
L 192.985505 317.877544 
L 193.73409 326.91221 
L 194.482674 332.853607 
L 195.231259 326.506605 
L 195.979844 328.119875 
L 196.728429 333.578061 
L 197.477014 343.586991 
L 198.225599 351.703375 
L 198.974184 353.87945 
L 199.722769 350.376948 
L 200.471354 341.878886 
L 201.219939 338.856984 
L 201.968524 328.916806 
L 202.717109 328.435826 
L 203.465694 319.560401 
L 204.214279 317.659595 
L 204.962864 303.530699 
L 205.711449 309.003109 
L 206.460034 316.451142 
L 207.208619 312.389459 
L 207.957204 313.006432 
L 208.705789 315.657294 
L 209.454373 322.684554 
L 210.202958 332.40519 
L 210.951543 330.480945 
L 211.700128 341.456058 
L 212.448713 341.04168 
L 213.197298 339.8265 
L 213.945883 347.203746 
L 214.694468 331.632372 
L 215.443053 349.116571 
L 216.191638 340.915928 
L 217.688808 331.452005 
L 218.437393 329.915629 
L 219.185978 322.014562 
L 219.934563 322.333907 
L 220.683148 313.628622 
L 221.431733 303.265558 
L 222.180318 313.941421 
L 222.928903 311.07906 
L 223.677487 313.098378 
L 224.426072 320.076074 
L 225.174657 324.120821 
L 225.923242 329.843689 
L 226.671827 325.24625 
L 227.420412 330.459064 
L 228.168997 339.926625 
L 228.917582 347.693336 
L 229.666167 340.698933 
L 230.414752 338.287327 
L 231.163337 332.604612 
L 231.911922 328.665504 
L 232.660507 328.896456 
L 233.409092 321.357059 
L 234.157677 310.825924 
L 234.906262 323.765056 
L 235.654847 303.166958 
L 236.403432 307.12028 
L 237.152017 305.352312 
L 237.900602 311.169765 
L 238.649186 311.57468 
L 239.397771 317.715216 
L 240.894941 331.43855 
L 241.643526 329.222395 
L 242.392111 328.131351 
L 243.889281 340.228596 
L 244.637866 335.872925 
L 245.386451 330.207127 
L 246.135036 326.768365 
L 246.883621 331.646537 
L 247.632206 326.334213 
L 248.380791 318.363654 
L 249.129376 321.698411 
L 249.877961 324.309082 
L 250.626546 309.64028 
L 251.375131 308.520873 
L 252.123716 313.879426 
L 252.8723 315.380536 
L 253.620885 312.765398 
L 254.36947 311.519689 
L 255.118055 316.581787 
L 255.86664 333.517944 
L 256.615225 331.674823 
L 257.36381 340.583755 
L 258.112395 328.45877 
L 258.86098 336.910418 
L 259.609565 337.93856 
L 260.35815 328.067702 
L 261.106735 328.438095 
L 261.85532 330.44346 
L 262.603905 315.203683 
L 263.35249 304.648713 
L 264.101075 307.834595 
L 264.84966 309.472589 
L 265.598245 304.738594 
L 266.34683 310.441983 
L 267.095415 300.269628 
L 267.843999 314.479059 
L 268.592584 315.004775 
L 269.341169 321.223378 
L 270.089754 322.590151 
L 270.838339 320.710819 
L 271.586924 324.507495 
L 272.335509 323.577642 
L 273.084094 327.254492 
L 273.832679 336.676832 
L 274.581264 329.942164 
L 275.329849 329.986964 
L 276.078434 317.433754 
L 276.827019 325.484888 
L 277.575604 310.52744 
L 278.324189 320.504925 
L 279.072774 304.79726 
L 279.821359 298.318853 
L 280.569944 308.295417 
L 281.318529 305.185452 
L 282.067113 307.141295 
L 282.815698 305.3874 
L 283.564283 311.461714 
L 284.312868 308.194498 
L 285.061453 315.612314 
L 285.810038 316.830081 
L 286.558623 320.648079 
L 287.307208 318.939777 
L 288.055793 322.567821 
L 288.804378 324.337477 
L 289.552963 318.428449 
L 290.301548 327.39261 
L 291.050133 325.916701 
L 291.798718 322.829305 
L 292.547303 313.685655 
L 293.295888 311.492908 
L 294.793058 297.360179 
L 295.541643 299.174993 
L 296.290228 296.621774 
L 297.038812 290.104025 
L 297.787397 304.832343 
L 298.535982 300.950823 
L 299.284567 310.460684 
L 300.033152 303.575174 
L 300.781737 318.799995 
L 301.530322 327.122607 
L 302.278907 326.026933 
L 303.027492 328.344313 
L 303.776077 320.25069 
L 304.524662 316.985768 
L 305.273247 319.262003 
L 306.021832 311.400308 
L 306.770417 316.996838 
L 307.519002 310.823133 
L 308.267587 311.34518 
L 309.016172 297.791819 
L 309.764757 300.770032 
L 310.513342 296.044271 
L 311.261926 300.814428 
L 312.010511 290.070302 
L 312.759096 290.319897 
L 313.507681 286.664702 
L 314.256266 294.026312 
L 315.004851 296.924995 
L 315.753436 303.995377 
L 316.502021 308.280211 
L 317.250606 317.757092 
L 317.999191 321.804124 
L 318.747776 316.830426 
L 319.496361 326.282451 
L 320.244946 326.047458 
L 320.993531 316.263195 
L 321.742116 314.398251 
L 322.490701 299.197189 
L 323.239286 298.735241 
L 323.987871 293.808987 
L 324.736456 290.439493 
L 325.48504 291.109742 
L 326.233625 287.414051 
L 326.98221 288.950867 
L 327.730795 293.877171 
L 329.227965 296.833304 
L 329.97655 295.743231 
L 330.725135 296.99073 
L 331.47372 302.72986 
L 332.222305 312.448064 
L 332.97089 314.172123 
L 333.719475 311.473154 
L 334.46806 304.717751 
L 335.216645 310.754513 
L 335.96523 307.058147 
L 336.713815 307.514198 
L 337.4624 301.499792 
L 338.210985 300.931676 
L 338.95957 297.530152 
L 339.708155 290.988608 
L 340.456739 286.773259 
L 341.205324 289.076643 
L 341.953909 287.984558 
L 342.702494 286.157392 
L 343.451079 284.86525 
L 344.199664 289.190749 
L 344.948249 291.724018 
L 345.696834 304.149689 
L 346.445419 300.500671 
L 347.194004 294.516146 
L 347.942589 301.861161 
L 349.439759 310.587977 
L 350.188344 311.462191 
L 350.936929 312.601447 
L 351.685514 298.588297 
L 352.434099 294.778041 
L 353.182684 296.083701 
L 353.931269 287.659716 
L 354.679853 285.410491 
L 355.428438 272.92449 
L 356.177023 276.781997 
L 356.925608 279.568385 
L 357.674193 280.799315 
L 358.422778 284.518495 
L 359.171363 290.018325 
L 359.919948 286.052053 
L 360.668533 296.856154 
L 361.417118 292.825609 
L 362.165703 301.993972 
L 362.914288 301.079297 
L 363.662873 306.997215 
L 364.411458 299.284965 
L 365.160043 300.502915 
L 365.908628 294.810622 
L 366.657213 294.958923 
L 367.405798 290.484466 
L 368.154383 284.816458 
L 368.902968 283.818864 
L 369.651552 276.963226 
L 370.400137 283.240565 
L 371.148722 277.246824 
L 371.897307 276.580939 
L 372.645892 270.943859 
L 373.394477 283.696081 
L 374.143062 288.902294 
L 374.891647 288.745791 
L 375.640232 288.428874 
L 376.388817 299.4342 
L 377.137402 307.885708 
L 377.885987 305.546361 
L 378.634572 300.96263 
L 379.383157 301.747233 
L 380.131742 301.568095 
L 380.880327 299.321553 
L 381.628912 283.78479 
L 382.377497 283.509803 
L 383.126082 278.927214 
L 383.874666 269.243801 
L 384.623251 265.192611 
L 385.371836 267.081358 
L 386.120421 272.84669 
L 386.869006 272.495191 
L 387.617591 271.216924 
L 388.366176 273.957642 
L 389.114761 284.640689 
L 389.863346 288.740372 
L 390.611931 290.268513 
L 391.360516 299.56105 
L 392.109101 295.823829 
L 392.857686 298.840081 
L 393.606271 292.437982 
L 394.354856 302.138027 
L 395.103441 303.65716 
L 395.852026 290.109705 
L 396.600611 278.923211 
L 397.349196 280.526555 
L 398.097781 285.479869 
L 398.846365 278.728784 
L 399.59495 273.264268 
L 400.343535 258.892454 
L 401.09212 270.877591 
L 401.840705 268.858218 
L 402.58929 271.181596 
L 403.337875 274.507828 
L 404.08646 281.259865 
L 404.835045 285.307355 
L 405.58363 282.181269 
L 406.332215 286.732083 
L 407.0808 295.276446 
L 407.829385 302.059881 
L 408.57797 298.087444 
L 409.326555 286.118123 
L 410.07514 294.738733 
L 411.57231 291.805027 
L 412.320895 280.916256 
L 413.069479 272.995071 
L 413.818064 269.943545 
L 414.566649 270.115457 
L 415.315234 266.157995 
L 416.063819 255.011234 
L 416.812404 259.552441 
L 418.309574 273.775674 
L 419.058159 283.705035 
L 419.806744 287.709658 
L 420.555329 289.853964 
L 421.303914 289.098117 
L 422.052499 290.671916 
L 422.801084 298.174782 
L 423.549669 291.396097 
L 424.298254 303.587732 
L 425.046839 290.123558 
L 425.795424 283.740171 
L 426.544009 282.025502 
L 427.292594 274.206139 
L 428.041178 277.512375 
L 428.789763 265.207764 
L 429.538348 263.308089 
L 430.286933 255.634104 
L 431.035518 255.344447 
L 431.784103 255.555825 
L 432.532688 269.673661 
L 433.281273 263.871502 
L 434.029858 262.70649 
L 434.778443 271.309199 
L 435.527028 272.823127 
L 436.275613 287.491714 
L 437.024198 283.835182 
L 437.772783 282.138733 
L 438.521368 282.593601 
L 439.269953 284.766979 
L 440.018538 285.039544 
L 440.767123 271.016439 
L 441.515708 275.555977 
L 442.264292 274.345701 
L 443.012877 270.667616 
L 443.761462 259.993937 
L 445.258632 252.455769 
L 446.007217 250.06976 
L 446.755802 244.925744 
L 447.504387 250.291223 
L 448.252972 254.060241 
L 449.001557 259.204975 
L 449.750142 269.375787 
L 450.498727 275.328219 
L 451.247312 270.75717 
L 451.995897 272.551737 
L 452.744482 278.506222 
L 453.493067 281.055886 
L 454.241652 282.699997 
L 454.990237 274.350359 
L 455.738822 269.190378 
L 456.487406 267.925089 
L 457.235991 274.638597 
L 457.984576 252.861552 
L 458.733161 249.395334 
L 459.481746 246.594607 
L 460.230331 242.96783 
L 460.978916 249.197094 
L 461.727501 247.748446 
L 462.476086 247.41689 
L 463.224671 245.964674 
L 463.973256 240.635606 
L 464.721841 241.107778 
L 465.470426 255.067728 
L 466.219011 261.827187 
L 466.967596 266.473475 
L 467.716181 273.86254 
L 468.464766 263.936812 
L 469.213351 264.139662 
L 469.961936 260.706264 
L 470.710521 268.58919 
L 471.459105 271.63613 
L 472.956275 246.34417 
L 473.70486 243.289326 
L 474.453445 247.32653 
L 475.20203 236.470722 
L 475.950615 244.866181 
L 476.6992 230.683605 
L 477.447785 234.999023 
L 478.19637 232.511134 
L 478.944955 244.267557 
L 479.69354 251.256809 
L 480.442125 253.930146 
L 481.19071 263.739102 
L 481.939295 251.833028 
L 482.68788 266.325787 
L 483.436465 269.516315 
L 484.18505 266.875909 
L 486.430804 253.048612 
L 487.179389 255.580436 
L 487.927974 246.785675 
L 488.676559 257.013471 
L 490.173729 239.206436 
L 490.922314 243.882513 
L 491.670899 236.090787 
L 492.419484 241.638421 
L 493.168069 239.009721 
L 493.916654 243.334603 
L 494.665239 250.823977 
L 495.413824 248.682796 
L 496.162409 253.021755 
L 496.910994 261.063265 
L 497.659579 253.554986 
L 498.408164 256.176195 
L 499.905334 262.677697 
L 500.653918 263.412652 
L 501.402503 256.663802 
L 502.151088 251.953838 
L 502.899673 242.906137 
L 503.648258 239.865597 
L 504.396843 232.594909 
L 505.145428 231.331027 
L 505.894013 228.083569 
L 506.642598 225.461884 
L 507.391183 228.630843 
L 508.139768 229.811629 
L 508.888353 243.033648 
L 509.636938 246.909826 
L 510.385523 244.330263 
L 511.134108 249.163051 
L 511.882693 250.779175 
L 512.631278 249.704821 
L 513.379863 251.364966 
L 514.128448 250.56929 
L 514.877032 246.082912 
L 515.625617 249.475667 
L 516.374202 232.344359 
L 517.122787 234.446971 
L 517.871372 246.106349 
L 518.619957 232.685739 
L 519.368542 226.607451 
L 520.117127 222.235502 
L 520.865712 220.056986 
L 521.614297 216.892621 
L 522.362882 222.43301 
L 523.111467 219.018294 
L 523.860052 226.193765 
L 524.608637 235.905273 
L 525.357222 235.215692 
L 526.105807 237.194496 
L 527.602977 244.942655 
L 528.351562 245.050908 
L 529.100147 235.80736 
L 529.848731 248.911853 
L 530.597316 238.775805 
L 531.345901 235.424814 
L 532.094486 228.193075 
L 532.843071 218.827642 
L 533.591656 214.118421 
L 534.340241 218.546667 
L 535.088826 217.602411 
L 535.837411 220.948186 
L 536.585996 211.598805 
L 537.334581 210.582448 
L 538.083166 207.857321 
L 538.831751 214.023539 
L 539.580336 227.866381 
L 540.328921 226.323651 
L 541.077506 221.335918 
L 541.826091 232.200458 
L 542.574676 236.865217 
L 543.323261 235.933725 
L 544.071845 231.325512 
L 544.82043 232.6011 
L 545.569015 228.261141 
L 546.3176 220.217476 
L 547.066185 219.62017 
L 547.81477 212.690699 
L 548.563355 214.564787 
L 549.31194 204.546634 
L 550.80911 190.813804 
L 551.557695 202.823785 
L 552.30628 212.149346 
L 553.054865 210.421061 
L 553.80345 202.683965 
L 554.552035 213.884419 
L 555.30062 213.736834 
L 556.049205 213.772979 
L 556.79779 225.457815 
L 557.546375 225.278678 
L 558.29496 227.542642 
L 559.792129 220.397698 
L 560.540714 221.292714 
L 561.289299 220.43803 
L 562.037884 212.181685 
L 562.786469 214.136367 
L 563.535054 206.374055 
L 564.283639 207.108632 
L 565.032224 200.509149 
L 565.780809 195.883566 
L 566.529394 197.373612 
L 567.277979 202.711976 
L 568.026564 193.969542 
L 568.775149 201.015239 
L 569.523734 206.892937 
L 570.272319 208.797137 
L 571.020904 216.115046 
L 571.769489 216.727525 
L 572.518074 216.620739 
L 573.266658 214.356047 
L 574.015243 217.365546 
L 575.512413 207.337886 
L 576.260998 214.988955 
L 577.009583 204.456587 
L 577.758168 204.044048 
L 578.506753 198.269259 
L 579.255338 194.142693 
L 580.003923 186.473174 
L 580.752508 192.613854 
L 581.501093 194.968776 
L 582.249678 190.630857 
L 582.998263 183.811092 
L 584.495433 196.372939 
L 585.244018 199.496062 
L 585.992603 204.953702 
L 586.741188 215.8147 
L 587.489772 204.532205 
L 588.238357 211.94416 
L 588.986942 210.640402 
L 589.735527 201.415805 
L 590.484112 207.49273 
L 591.232697 207.19776 
L 591.981282 194.83916 
L 592.729867 187.742915 
L 593.478452 188.315416 
L 594.227037 186.07288 
L 594.975622 182.837797 
L 595.724207 182.910613 
L 596.472792 184.965956 
L 597.221377 182.258764 
L 597.969962 187.44841 
L 598.718547 196.456547 
L 599.467132 189.060569 
L 600.215717 190.568878 
L 600.964302 198.279499 
L 601.712887 202.735769 
L 602.461471 205.160164 
L 603.210056 210.264516 
L 603.958641 206.256784 
L 604.707226 195.016088 
L 605.455811 202.41914 
L 606.204396 206.16952 
L 606.952981 192.024583 
L 607.701566 184.809584 
L 608.450151 186.929442 
L 609.198736 190.437588 
L 609.947321 186.885442 
L 610.695906 179.810168 
L 611.444491 181.378389 
L 612.193076 173.784442 
L 612.941661 187.285378 
L 613.690246 185.06737 
L 614.438831 184.482044 
L 615.187416 183.083428 
L 615.936001 200.314549 
L 616.684585 189.118104 
L 617.43317 189.821005 
L 618.181755 202.473385 
L 618.93034 194.643671 
L 619.678925 197.332734 
L 620.42751 197.748413 
L 621.176095 189.451434 
L 621.92468 190.393257 
L 622.673265 181.309014 
L 623.42185 177.876525 
L 624.91902 165.849327 
L 625.667605 164.210426 
L 626.41619 171.778353 
L 627.164775 170.378366 
L 627.91336 177.40977 
L 628.661945 178.3727 
L 629.41053 166.651578 
L 630.159115 191.051707 
L 630.9077 191.830695 
L 631.656284 186.760282 
L 632.404869 186.957008 
L 633.153454 186.034891 
L 633.902039 187.999662 
L 634.650624 187.762417 
L 635.399209 179.603377 
L 636.147794 173.621621 
L 636.896379 175.949682 
L 637.644964 167.533575 
L 638.393549 172.49327 
L 639.142134 166.870895 
L 639.890719 160.166235 
L 640.639304 164.895628 
L 641.387889 156.311283 
L 642.136474 157.129256 
L 642.885059 163.971304 
L 643.633644 162.922099 
L 644.382229 170.509239 
L 645.130814 169.006778 
L 645.879398 161.966922 
L 646.627983 159.922593 
L 647.376568 171.682167 
L 648.125153 180.093209 
L 648.873738 182.787895 
L 649.622323 172.061379 
L 650.370908 166.569135 
L 651.119493 168.821615 
L 651.868078 172.931132 
L 652.616663 154.213017 
L 653.365248 146.001327 
L 654.113833 143.309836 
L 654.862418 151.75341 
L 655.611003 150.858908 
L 656.359588 147.927328 
L 657.108173 138.911351 
L 657.856758 146.168316 
L 658.605343 147.836665 
L 659.353928 165.568759 
L 660.102513 169.167161 
L 660.851097 166.554579 
L 661.599682 168.986342 
L 662.348267 169.74679 
L 663.096852 169.055927 
L 663.845437 162.818048 
L 664.594022 171.371324 
L 666.091192 159.310293 
L 666.839777 158.710136 
L 667.588362 146.487615 
L 668.336947 143.038391 
L 669.085532 154.925208 
L 669.834117 139.872239 
L 670.582702 140.436449 
L 671.331287 125.604967 
L 672.079872 140.994824 
L 672.828457 145.510563 
L 673.577042 143.461189 
L 674.325627 146.798514 
L 675.074211 148.409093 
L 675.822796 144.876804 
L 676.571381 158.542622 
L 677.319966 164.131339 
L 678.068551 165.512572 
L 678.817136 161.28161 
L 679.565721 163.657229 
L 681.062891 149.531831 
L 681.811476 146.793873 
L 682.560061 147.492889 
L 683.308646 144.14323 
L 684.057231 135.093925 
L 684.805816 139.169859 
L 685.554401 133.427906 
L 686.302986 126.201039 
L 687.051571 137.399857 
L 687.800156 129.90941 
L 688.548741 127.579652 
L 689.297326 145.721881 
L 690.04591 141.46961 
L 690.794495 152.765421 
L 691.54308 143.302442 
L 692.291665 145.583304 
L 693.04025 152.359036 
L 693.788835 147.117144 
L 694.53742 155.535772 
L 695.286005 153.981735 
L 696.03459 136.47977 
L 696.783175 136.915963 
L 697.53176 141.571855 
L 698.280345 125.5391 
L 699.02893 126.573981 
L 699.777515 116.50626 
L 700.5261 117.915563 
L 701.274685 112.910073 
L 702.02327 126.274341 
L 702.771855 124.926155 
L 703.52044 123.836089 
L 704.269024 126.462557 
L 705.017609 121.174847 
L 705.766194 131.597705 
L 706.514779 136.574449 
L 707.263364 139.063958 
L 708.011949 149.887272 
L 708.760534 139.693234 
L 709.509119 134.599348 
L 710.257704 137.107359 
L 711.006289 138.04665 
L 711.754874 137.425577 
L 712.503459 127.671055 
L 713.252044 122.090986 
L 714.000629 109.034056 
L 714.749214 112.08783 
L 715.497799 108.961555 
L 716.246384 111.510797 
L 716.994969 107.242626 
L 717.743554 106.711853 
L 718.492139 111.260804 
L 719.240723 124.791298 
L 719.989308 123.212096 
L 720.737893 137.630931 
L 721.486478 129.436211 
L 722.235063 129.404691 
L 722.983648 131.418463 
L 723.732233 137.636312 
L 724.480818 131.151458 
L 725.229403 125.803017 
L 725.977988 124.577537 
L 726.726573 122.431787 
L 727.475158 107.138642 
L 728.223743 107.251612 
L 728.972328 105.308795 
L 729.720913 100.831522 
L 730.469498 101.178769 
L 731.218083 102.278373 
L 731.966668 96.732417 
L 732.715253 97.890285 
L 733.463837 98.251583 
L 734.212422 106.802856 
L 734.961007 100.472607 
L 736.458177 119.087406 
L 737.206762 123.142786 
L 737.955347 124.323231 
L 738.703932 119.03004 
L 739.452517 119.155354 
L 740.201102 111.404923 
L 740.949687 119.246058 
L 741.698272 114.008878 
L 742.446857 110.716058 
L 743.195442 95.021362 
L 743.944027 95.815162 
L 744.692612 96.2118 
L 745.441197 89.433172 
L 746.189782 90.163453 
L 746.938367 80.019547 
L 747.686951 85.890567 
L 748.435536 93.602908 
L 749.932706 103.19082 
L 750.681291 103.138422 
L 751.429876 102.565709 
L 752.178461 108.05808 
L 752.927046 102.754301 
L 753.675631 111.73234 
L 754.424216 108.971559 
L 755.172801 108.470675 
L 755.921386 89.723213 
L 756.669971 92.651908 
L 757.418556 86.989646 
L 758.167141 90.253162 
L 759.664311 74.11288 
L 760.412896 72.592448 
L 761.161481 69.054926 
L 761.910066 77.248293 
L 763.407235 88.196476 
L 764.15582 81.040747 
L 764.904405 87.531566 
L 765.65299 90.174333 
L 766.401575 96.939069 
L 767.15016 101.883348 
L 767.898745 101.607691 
L 769.395915 89.891562 
L 770.1445 80.876609 
L 770.893085 82.445361 
L 771.64167 86.107263 
L 772.390255 81.025963 
L 773.887425 66.897539 
L 774.63601 62.494765 
L 775.384595 69.410346 
L 776.13318 60.065322 
L 776.881764 64.873536 
L 777.630349 62.678401 
L 778.378934 71.123313 
L 779.127519 75.988743 
L 779.876104 73.660631 
L 780.624689 84.433512 
L 781.373274 87.242115 
L 782.121859 88.932785 
L 782.870444 92.194283 
L 783.619029 89.064373 
L 784.367614 80.792898 
L 785.116199 78.123396 
L 787.361954 62.960826 
L 788.110539 62.744362 
L 788.859124 47.029282 
L 789.607709 48.464916 
L 790.356294 42.045291 
L 791.104879 51.857393 
L 791.853463 58.377367 
L 792.602048 54.641975 
L 793.350633 59.409155 
L 794.099218 58.51088 
L 794.847803 65.112193 
L 795.596388 76.697256 
L 796.344973 72.13992 
L 797.093558 82.951407 
L 797.842143 79.235616 
L 798.590728 76.703481 
L 800.087898 72.656936 
L 800.836483 72.977098 
L 801.585068 65.406307 
L 802.333653 51.998049 
L 803.082238 54.045564 
L 803.830823 49.075483 
L 804.579408 41.828272 
L 805.327993 43.682439 
L 806.076577 38.933228 
L 806.825162 44.588262 
L 807.573747 41.429066 
L 808.322332 44.033682 
L 809.070917 47.458552 
L 809.819502 54.03912 
L 810.568087 63.770755 
L 811.316672 60.780666 
L 812.065257 68.035304 
L 812.813842 65.901253 
L 814.311012 63.194627 
L 815.059597 66.180246 
L 815.808182 59.506408 
L 815.808182 59.506408 
" clip-path="url(#p6c6c930634)" style="fill: none; stroke-dasharray: 5.55,2.4; stroke-dashoffset: 0; stroke: #ff0000; stroke-width: 1.5"/>
   </g>
   <g id="patch_3">
    <path d="M 30.58 404.12 
L 30.58 10.8 
" style="fill: none; stroke: #000000; stroke-width: 0.8; stroke-linejoin: miter; stroke-linecap: square"/>
   </g>
   <g id="patch_4">
    <path d="M 853.2 404.12 
L 853.2 10.8 
" style="fill: none; stroke: #000000; stroke-width: 0.8; stroke-linejoin: miter; stroke-linecap: square"/>
   </g>
   <g id="patch_5">
    <path d="M 30.58 404.12 
L 853.2 404.12 
" style="fill: none; stroke: #000000; stroke-width: 0.8; stroke-linejoin: miter; stroke-linecap: square"/>
   </g>
   <g id="patch_6">
    <path d="M 30.58 10.8 
L 853.2 10.8 
" style="fill: none; stroke: #000000; stroke-width: 0.8; stroke-linejoin: miter; stroke-linecap: square"/>
   </g>
   <g id="legend_1">
    <g id="patch_7">
     <path d="M 37.58 48.15625 
L 144.74875 48.15625 
Q 146.74875 48.15625 146.74875 46.15625 
L 146.74875 17.8 
Q 146.74875 15.8 144.74875 15.8 
L 37.58 15.8 
Q 35.58 15.8 35.58 17.8 
L 35.58 46.15625 
Q 35.58 48.15625 37.58 48.15625 
z
" style="fill: #ffffff; opacity: 0.8; stroke: #cccccc; stroke-linejoin: miter"/>
    </g>
    <g id="line2d_25">
     <path d="M 39.58 23.898438 
L 49.58 23.898438 
L 59.58 23.898438 
" style="fill: none; stroke: #008000; stroke-width: 1.5; stroke-linecap: square"/>
    </g>
    <g id="text_12">
     <!-- Observed Data -->
     <g transform="translate(67.58 27.398438) scale(0.1 -0.1)">
      <defs>
       <path id="DejaVuSans-4f" d="M 2522 4238 
Q 1834 4238 1429 3725 
Q 1025 3213 1025 2328 
Q 1025 1447 1429 934 
Q 1834 422 2522 422 
Q 3209 422 3611 934 
Q 4013 1447 4013 2328 
Q 4013 3213 3611 3725 
Q 3209 4238 2522 4238 
z
M 2522 4750 
Q 3503 4750 4090 4092 
Q 4678 3434 4678 2328 
Q 4678 1225 4090 567 
Q 3503 -91 2522 -91 
Q 1538 -91 948 565 
Q 359 1222 359 2328 
Q 359 3434 948 4092 
Q 1538 4750 2522 4750 
z
" transform="scale(0.015625)"/>
       <path id="DejaVuSans-62" d="M 3116 1747 
Q 3116 2381 2855 2742 
Q 2594 3103 2138 3103 
Q 1681 3103 1420 2742 
Q 1159 2381 1159 1747 
Q 1159 1113 1420 752 
Q 1681 391 2138 391 
Q 2594 391 2855 752 
Q 3116 1113 3116 1747 
z
M 1159 2969 
Q 1341 3281 1617 3432 
Q 1894 3584 2278 3584 
Q 2916 3584 3314 3078 
Q 3713 2572 3713 1747 
Q 3713 922 3314 415 
Q 2916 -91 2278 -91 
Q 1894 -91 1617 61 
Q 1341 213 1159 525 
L 1159 0 
L 581 0 
L 581 4863 
L 1159 4863 
L 1159 2969 
z
" transform="scale(0.015625)"/>
       <path id="DejaVuSans-73" d="M 2834 3397 
L 2834 2853 
Q 2591 2978 2328 3040 
Q 2066 3103 1784 3103 
Q 1356 3103 1142 2972 
Q 928 2841 928 2578 
Q 928 2378 1081 2264 
Q 1234 2150 1697 2047 
L 1894 2003 
Q 2506 1872 2764 1633 
Q 3022 1394 3022 966 
Q 3022 478 2636 193 
Q 2250 -91 1575 -91 
Q 1294 -91 989 -36 
Q 684 19 347 128 
L 347 722 
Q 666 556 975 473 
Q 1284 391 1588 391 
Q 1994 391 2212 530 
Q 2431 669 2431 922 
Q 2431 1156 2273 1281 
Q 2116 1406 1581 1522 
L 1381 1569 
Q 847 1681 609 1914 
Q 372 2147 372 2553 
Q 372 3047 722 3315 
Q 1072 3584 1716 3584 
Q 2034 3584 2315 3537 
Q 2597 3491 2834 3397 
z
" transform="scale(0.015625)"/>
       <path id="DejaVuSans-65" d="M 3597 1894 
L 3597 1613 
L 953 1613 
Q 991 1019 1311 708 
Q 1631 397 2203 397 
Q 2534 397 2845 478 
Q 3156 559 3463 722 
L 3463 178 
Q 3153 47 2828 -22 
Q 2503 -91 2169 -91 
Q 1331 -91 842 396 
Q 353 884 353 1716 
Q 353 2575 817 3079 
Q 1281 3584 2069 3584 
Q 2775 3584 3186 3129 
Q 3597 2675 3597 1894 
z
M 3022 2063 
Q 3016 2534 2758 2815 
Q 2500 3097 2075 3097 
Q 1594 3097 1305 2825 
Q 1016 2553 972 2059 
L 3022 2063 
z
" transform="scale(0.015625)"/>
       <path id="DejaVuSans-72" d="M 2631 2963 
Q 2534 3019 2420 3045 
Q 2306 3072 2169 3072 
Q 1681 3072 1420 2755 
Q 1159 2438 1159 1844 
L 1159 0 
L 581 0 
L 581 3500 
L 1159 3500 
L 1159 2956 
Q 1341 3275 1631 3429 
Q 1922 3584 2338 3584 
Q 2397 3584 2469 3576 
Q 2541 3569 2628 3553 
L 2631 2963 
z
" transform="scale(0.015625)"/>
       <path id="DejaVuSans-76" d="M 191 3500 
L 800 3500 
L 1894 563 
L 2988 3500 
L 3597 3500 
L 2284 0 
L 1503 0 
L 191 3500 
z
" transform="scale(0.015625)"/>
       <path id="DejaVuSans-64" d="M 2906 2969 
L 2906 4863 
L 3481 4863 
L 3481 0 
L 2906 0 
L 2906 525 
Q 2725 213 2448 61 
Q 2172 -91 1784 -91 
Q 1150 -91 751 415 
Q 353 922 353 1747 
Q 353 2572 751 3078 
Q 1150 3584 1784 3584 
Q 2172 3584 2448 3432 
Q 2725 3281 2906 2969 
z
M 947 1747 
Q 947 1113 1208 752 
Q 1469 391 1925 391 
Q 2381 391 2643 752 
Q 2906 1113 2906 1747 
Q 2906 2381 2643 2742 
Q 2381 3103 1925 3103 
Q 1469 3103 1208 2742 
Q 947 2381 947 1747 
z
" transform="scale(0.015625)"/>
       <path id="DejaVuSans-20" transform="scale(0.015625)"/>
       <path id="DejaVuSans-44" d="M 1259 4147 
L 1259 519 
L 2022 519 
Q 2988 519 3436 956 
Q 3884 1394 3884 2338 
Q 3884 3275 3436 3711 
Q 2988 4147 2022 4147 
L 1259 4147 
z
M 628 4666 
L 1925 4666 
Q 3281 4666 3915 4102 
Q 4550 3538 4550 2338 
Q 4550 1131 3912 565 
Q 3275 0 1925 0 
L 628 0 
L 628 4666 
z
" transform="scale(0.015625)"/>
       <path id="DejaVuSans-61" d="M 2194 1759 
Q 1497 1759 1228 1600 
Q 959 1441 959 1056 
Q 959 750 1161 570 
Q 1363 391 1709 391 
Q 2188 391 2477 730 
Q 2766 1069 2766 1631 
L 2766 1759 
L 2194 1759 
z
M 3341 1997 
L 3341 0 
L 2766 0 
L 2766 531 
Q 2569 213 2275 61 
Q 1981 -91 1556 -91 
Q 1019 -91 701 211 
Q 384 513 384 1019 
Q 384 1609 779 1909 
Q 1175 2209 1959 2209 
L 2766 2209 
L 2766 2266 
Q 2766 2663 2505 2880 
Q 2244 3097 1772 3097 
Q 1472 3097 1187 3025 
Q 903 2953 641 2809 
L 641 3341 
Q 956 3463 1253 3523 
Q 1550 3584 1831 3584 
Q 2591 3584 2966 3190 
Q 3341 2797 3341 1997 
z
" transform="scale(0.015625)"/>
       <path id="DejaVuSans-74" d="M 1172 4494 
L 1172 3500 
L 2356 3500 
L 2356 3053 
L 1172 3053 
L 1172 1153 
Q 1172 725 1289 603 
Q 1406 481 1766 481 
L 2356 481 
L 2356 0 
L 1766 0 
Q 1100 0 847 248 
Q 594 497 594 1153 
L 594 3053 
L 172 3053 
L 172 3500 
L 594 3500 
L 594 4494 
L 1172 4494 
z
" transform="scale(0.015625)"/>
      </defs>
      <use xlink:href="#DejaVuSans-4f"/>
      <use xlink:href="#DejaVuSans-62" transform="translate(78.710938 0)"/>
      <use xlink:href="#DejaVuSans-73" transform="translate(142.1875 0)"/>
      <use xlink:href="#DejaVuSans-65" transform="translate(194.287109 0)"/>
      <use xlink:href="#DejaVuSans-72" transform="translate(255.810547 0)"/>
      <use xlink:href="#DejaVuSans-76" transform="translate(296.923828 0)"/>
      <use xlink:href="#DejaVuSans-65" transform="translate(356.103516 0)"/>
      <use xlink:href="#DejaVuSans-64" transform="translate(417.626953 0)"/>
      <use xlink:href="#DejaVuSans-20" transform="translate(481.103516 0)"/>
      <use xlink:href="#DejaVuSans-44" transform="translate(512.890625 0)"/>
      <use xlink:href="#DejaVuSans-61" transform="translate(589.892578 0)"/>
      <use xlink:href="#DejaVuSans-74" transform="translate(651.171875 0)"/>
      <use xlink:href="#DejaVuSans-61" transform="translate(690.380859 0)"/>
     </g>
    </g>
    <g id="line2d_26">
     <path d="M 39.58 38.576563 
L 49.58 38.576563 
L 59.58 38.576563 
" style="fill: none; stroke-dasharray: 5.55,2.4; stroke-dashoffset: 0; stroke: #ff0000; stroke-width: 1.5"/>
    </g>
    <g id="text_13">
     <!-- Predicted Data -->
     <g transform="translate(67.58 42.076563) scale(0.1 -0.1)">
      <defs>
       <path id="DejaVuSans-50" d="M 1259 4147 
L 1259 2394 
L 2053 2394 
Q 2494 2394 2734 2622 
Q 2975 2850 2975 3272 
Q 2975 3691 2734 3919 
Q 2494 4147 2053 4147 
L 1259 4147 
z
M 628 4666 
L 2053 4666 
Q 2838 4666 3239 4311 
Q 3641 3956 3641 3272 
Q 3641 2581 3239 2228 
Q 2838 1875 2053 1875 
L 1259 1875 
L 1259 0 
L 628 0 
L 628 4666 
z
" transform="scale(0.015625)"/>
       <path id="DejaVuSans-69" d="M 603 3500 
L 1178 3500 
L 1178 0 
L 603 0 
L 603 3500 
z
M 603 4863 
L 1178 4863 
L 1178 4134 
L 603 4134 
L 603 4863 
z
" transform="scale(0.015625)"/>
       <path id="DejaVuSans-63" d="M 3122 3366 
L 3122 2828 
Q 2878 2963 2633 3030 
Q 2388 3097 2138 3097 
Q 1578 3097 1268 2742 
Q 959 2388 959 1747 
Q 959 1106 1268 751 
Q 1578 397 2138 397 
Q 2388 397 2633 464 
Q 2878 531 3122 666 
L 3122 134 
Q 2881 22 2623 -34 
Q 2366 -91 2075 -91 
Q 1284 -91 818 406 
Q 353 903 353 1747 
Q 353 2603 823 3093 
Q 1294 3584 2113 3584 
Q 2378 3584 2631 3529 
Q 2884 3475 3122 3366 
z
" transform="scale(0.015625)"/>
      </defs>
      <use xlink:href="#DejaVuSans-50"/>
      <use xlink:href="#DejaVuSans-72" transform="translate(58.552734 0)"/>
      <use xlink:href="#DejaVuSans-65" transform="translate(97.416016 0)"/>
      <use xlink:href="#DejaVuSans-64" transform="translate(158.939453 0)"/>
      <use xlink:href="#DejaVuSans-69" transform="translate(222.416016 0)"/>
      <use xlink:href="#DejaVuSans-63" transform="translate(250.199219 0)"/>
      <use xlink:href="#DejaVuSans-74" transform="translate(305.179688 0)"/>
      <use xlink:href="#DejaVuSans-65" transform="translate(344.388672 0)"/>
      <use xlink:href="#DejaVuSans-64" transform="translate(405.912109 0)"/>
      <use xlink:href="#DejaVuSans-20" transform="translate(469.388672 0)"/>
      <use xlink:href="#DejaVuSans-44" transform="translate(501.175781 0)"/>
      <use xlink:href="#DejaVuSans-61" transform="translate(578.177734 0)"/>
      <use xlink:href="#DejaVuSans-74" transform="translate(639.457031 0)"/>
      <use xlink:href="#DejaVuSans-61" transform="translate(678.666016 0)"/>
     </g>
    </g>
   </g>
  </g>
 </g>
 <defs>
  <clipPath id="p6c6c930634">
   <rect x="30.58" y="10.8" width="822.62" height="393.32"/>
  </clipPath>
 </defs>
</svg>
