<?xml version="1.0" encoding="utf-8" standalone="no"?>
<!DOCTYPE svg PUBLIC "-//W3C//DTD SVG 1.1//EN"
  "http://www.w3.org/Graphics/SVG/1.1/DTD/svg11.dtd">
<svg xmlns:xlink="http://www.w3.org/1999/xlink" width="720pt" height="576pt" viewBox="0 0 720 576" xmlns="http://www.w3.org/2000/svg" version="1.1">
 <metadata>
  <rdf:RDF xmlns:dc="http://purl.org/dc/elements/1.1/" xmlns:cc="http://creativecommons.org/ns#" xmlns:rdf="http://www.w3.org/1999/02/22-rdf-syntax-ns#">
   <cc:Work>
    <dc:type rdf:resource="http://purl.org/dc/dcmitype/StillImage"/>
    <dc:date>2025-12-02T17:57:09.044904</dc:date>
    <dc:format>image/svg+xml</dc:format>
    <dc:creator>
     <cc:Agent>
      <dc:title>Matplotlib v3.10.6, https://matplotlib.org/</dc:title>
     </cc:Agent>
    </dc:creator>
   </cc:Work>
  </rdf:RDF>
 </metadata>
 <defs>
  <style type="text/css">*{stroke-linejoin: round; stroke-linecap: butt}</style>
 </defs>
 <g id="figure_1">
  <g id="patch_1">
   <path d="M 0 576 
L 720 576 
L 720 0 
L 0 0 
z
" style="fill: #ffffff"/>
  </g>
  <g id="axes_1">
   <g id="patch_2">
    <path d="M 42.1 171.32 
L 709.2 171.32 
L 709.2 26.16 
L 42.1 26.16 
z
" style="fill: #ffffff"/>
   </g>
   <g id="matplotlib.axis_1">
    <g id="xtick_1">
     <g id="line2d_1">
      <path d="M 72.422727 171.32 
L 72.422727 26.16 
" clip-path="url(#p72f32f8e4f)" style="fill: none; stroke: #b0b0b0; stroke-width: 0.8; stroke-linecap: square"/>
     </g>
     <g id="line2d_2">
      <defs>
       <path id="m96ca3d654e" d="M 0 0 
L 0 3.5 
" style="stroke: #000000; stroke-width: 0.8"/>
      </defs>
      <g>
       <use xlink:href="#m96ca3d654e" x="72.422727" y="171.32" style="stroke: #000000; stroke-width: 0.8"/>
      </g>
     </g>
     <g id="text_1">
      <!-- 0 -->
      <g transform="translate(69.241477 185.918438) scale(0.1 -0.1)">
       <defs>
        <path id="DejaVuSans-30" d="M 2034 4250 
Q 1547 4250 1301 3770 
Q 1056 3291 1056 2328 
Q 1056 1369 1301 889 
Q 1547 409 2034 409 
Q 2525 409 2770 889 
Q 3016 1369 3016 2328 
Q 3016 3291 2770 3770 
Q 2525 4250 2034 4250 
z
M 2034 4750 
Q 2819 4750 3233 4129 
Q 3647 3509 3647 2328 
Q 3647 1150 3233 529 
Q 2819 -91 2034 -91 
Q 1250 -91 836 529 
Q 422 1150 422 2328 
Q 422 3509 836 4129 
Q 1250 4750 2034 4750 
z
" transform="scale(0.015625)"/>
       </defs>
       <use xlink:href="#DejaVuSans-30"/>
      </g>
     </g>
    </g>
    <g id="xtick_2">
     <g id="line2d_3">
      <path d="M 193.835049 171.32 
L 193.835049 26.16 
" clip-path="url(#p72f32f8e4f)" style="fill: none; stroke: #b0b0b0; stroke-width: 0.8; stroke-linecap: square"/>
     </g>
     <g id="line2d_4">
      <g>
       <use xlink:href="#m96ca3d654e" x="193.835049" y="171.32" style="stroke: #000000; stroke-width: 0.8"/>
      </g>
     </g>
     <g id="text_2">
      <!-- 200 -->
      <g transform="translate(184.291299 185.918438) scale(0.1 -0.1)">
       <defs>
        <path id="DejaVuSans-32" d="M 1228 531 
L 3431 531 
L 3431 0 
L 469 0 
L 469 531 
Q 828 903 1448 1529 
Q 2069 2156 2228 2338 
Q 2531 2678 2651 2914 
Q 2772 3150 2772 3378 
Q 2772 3750 2511 3984 
Q 2250 4219 1831 4219 
Q 1534 4219 1204 4116 
Q 875 4013 500 3803 
L 500 4441 
Q 881 4594 1212 4672 
Q 1544 4750 1819 4750 
Q 2544 4750 2975 4387 
Q 3406 4025 3406 3419 
Q 3406 3131 3298 2873 
Q 3191 2616 2906 2266 
Q 2828 2175 2409 1742 
Q 1991 1309 1228 531 
z
" transform="scale(0.015625)"/>
       </defs>
       <use xlink:href="#DejaVuSans-32"/>
       <use xlink:href="#DejaVuSans-30" transform="translate(63.623047 0)"/>
       <use xlink:href="#DejaVuSans-30" transform="translate(127.246094 0)"/>
      </g>
     </g>
    </g>
    <g id="xtick_3">
     <g id="line2d_5">
      <path d="M 315.24737 171.32 
L 315.24737 26.16 
" clip-path="url(#p72f32f8e4f)" style="fill: none; stroke: #b0b0b0; stroke-width: 0.8; stroke-linecap: square"/>
     </g>
     <g id="line2d_6">
      <g>
       <use xlink:href="#m96ca3d654e" x="315.24737" y="171.32" style="stroke: #000000; stroke-width: 0.8"/>
      </g>
     </g>
     <g id="text_3">
      <!-- 400 -->
      <g transform="translate(305.70362 185.918438) scale(0.1 -0.1)">
       <defs>
        <path id="DejaVuSans-34" d="M 2419 4116 
L 825 1625 
L 2419 1625 
L 2419 4116 
z
M 2253 4666 
L 3047 4666 
L 3047 1625 
L 3713 1625 
L 3713 1100 
L 3047 1100 
L 3047 0 
L 2419 0 
L 2419 1100 
L 313 1100 
L 313 1709 
L 2253 4666 
z
" transform="scale(0.015625)"/>
       </defs>
       <use xlink:href="#DejaVuSans-34"/>
       <use xlink:href="#DejaVuSans-30" transform="translate(63.623047 0)"/>
       <use xlink:href="#DejaVuSans-30" transform="translate(127.246094 0)"/>
      </g>
     </g>
    </g>
    <g id="xtick_4">
     <g id="line2d_7">
      <path d="M 436.659692 171.32 
L 436.659692 26.16 
" clip-path="url(#p72f32f8e4f)" style="fill: none; stroke: #b0b0b0; stroke-width: 0.8; stroke-linecap: square"/>
     </g>
     <g id="line2d_8">
      <g>
       <use xlink:href="#m96ca3d654e" x="436.659692" y="171.32" style="stroke: #000000; stroke-width: 0.8"/>
      </g>
     </g>
     <g id="text_4">
      <!-- 600 -->
      <g transform="translate(427.115942 185.918438) scale(0.1 -0.1)">
       <defs>
        <path id="DejaVuSans-36" d="M 2113 2584 
Q 1688 2584 1439 2293 
Q 1191 2003 1191 1497 
Q 1191 994 1439 701 
Q 1688 409 2113 409 
Q 2538 409 2786 701 
Q 3034 994 3034 1497 
Q 3034 2003 2786 2293 
Q 2538 2584 2113 2584 
z
M 3366 4563 
L 3366 3988 
Q 3128 4100 2886 4159 
Q 2644 4219 2406 4219 
Q 1781 4219 1451 3797 
Q 1122 3375 1075 2522 
Q 1259 2794 1537 2939 
Q 1816 3084 2150 3084 
Q 2853 3084 3261 2657 
Q 3669 2231 3669 1497 
Q 3669 778 3244 343 
Q 2819 -91 2113 -91 
Q 1303 -91 875 529 
Q 447 1150 447 2328 
Q 447 3434 972 4092 
Q 1497 4750 2381 4750 
Q 2619 4750 2861 4703 
Q 3103 4656 3366 4563 
z
" transform="scale(0.015625)"/>
       </defs>
       <use xlink:href="#DejaVuSans-36"/>
       <use xlink:href="#DejaVuSans-30" transform="translate(63.623047 0)"/>
       <use xlink:href="#DejaVuSans-30" transform="translate(127.246094 0)"/>
      </g>
     </g>
    </g>
    <g id="xtick_5">
     <g id="line2d_9">
      <path d="M 558.072013 171.32 
L 558.072013 26.16 
" clip-path="url(#p72f32f8e4f)" style="fill: none; stroke: #b0b0b0; stroke-width: 0.8; stroke-linecap: square"/>
     </g>
     <g id="line2d_10">
      <g>
       <use xlink:href="#m96ca3d654e" x="558.072013" y="171.32" style="stroke: #000000; stroke-width: 0.8"/>
      </g>
     </g>
     <g id="text_5">
      <!-- 800 -->
      <g transform="translate(548.528263 185.918438) scale(0.1 -0.1)">
       <defs>
        <path id="DejaVuSans-38" d="M 2034 2216 
Q 1584 2216 1326 1975 
Q 1069 1734 1069 1313 
Q 1069 891 1326 650 
Q 1584 409 2034 409 
Q 2484 409 2743 651 
Q 3003 894 3003 1313 
Q 3003 1734 2745 1975 
Q 2488 2216 2034 2216 
z
M 1403 2484 
Q 997 2584 770 2862 
Q 544 3141 544 3541 
Q 544 4100 942 4425 
Q 1341 4750 2034 4750 
Q 2731 4750 3128 4425 
Q 3525 4100 3525 3541 
Q 3525 3141 3298 2862 
Q 3072 2584 2669 2484 
Q 3125 2378 3379 2068 
Q 3634 1759 3634 1313 
Q 3634 634 3220 271 
Q 2806 -91 2034 -91 
Q 1263 -91 848 271 
Q 434 634 434 1313 
Q 434 1759 690 2068 
Q 947 2378 1403 2484 
z
M 1172 3481 
Q 1172 3119 1398 2916 
Q 1625 2713 2034 2713 
Q 2441 2713 2670 2916 
Q 2900 3119 2900 3481 
Q 2900 3844 2670 4047 
Q 2441 4250 2034 4250 
Q 1625 4250 1398 4047 
Q 1172 3844 1172 3481 
z
" transform="scale(0.015625)"/>
       </defs>
       <use xlink:href="#DejaVuSans-38"/>
       <use xlink:href="#DejaVuSans-30" transform="translate(63.623047 0)"/>
       <use xlink:href="#DejaVuSans-30" transform="translate(127.246094 0)"/>
      </g>
     </g>
    </g>
    <g id="xtick_6">
     <g id="line2d_11">
      <path d="M 679.484334 171.32 
L 679.484334 26.16 
" clip-path="url(#p72f32f8e4f)" style="fill: none; stroke: #b0b0b0; stroke-width: 0.8; stroke-linecap: square"/>
     </g>
     <g id="line2d_12">
      <g>
       <use xlink:href="#m96ca3d654e" x="679.484334" y="171.32" style="stroke: #000000; stroke-width: 0.8"/>
      </g>
     </g>
     <g id="text_6">
      <!-- 1000 -->
      <g transform="translate(666.759334 185.918438) scale(0.1 -0.1)">
       <defs>
        <path id="DejaVuSans-31" d="M 794 531 
L 1825 531 
L 1825 4091 
L 703 3866 
L 703 4441 
L 1819 4666 
L 2450 4666 
L 2450 531 
L 3481 531 
L 3481 0 
L 794 0 
L 794 531 
z
" transform="scale(0.015625)"/>
       </defs>
       <use xlink:href="#DejaVuSans-31"/>
       <use xlink:href="#DejaVuSans-30" transform="translate(63.623047 0)"/>
       <use xlink:href="#DejaVuSans-30" transform="translate(127.246094 0)"/>
       <use xlink:href="#DejaVuSans-30" transform="translate(190.869141 0)"/>
      </g>
     </g>
    </g>
   </g>
   <g id="matplotlib.axis_2">
    <g id="ytick_1">
     <g id="line2d_13">
      <path d="M 42.1 164.700665 
L 709.2 164.700665 
" clip-path="url(#p72f32f8e4f)" style="fill: none; stroke: #b0b0b0; stroke-width: 0.8; stroke-linecap: square"/>
     </g>
     <g id="line2d_14">
      <defs>
       <path id="mc7a03d22e7" d="M 0 0 
L -3.5 0 
" style="stroke: #000000; stroke-width: 0.8"/>
      </defs>
      <g>
       <use xlink:href="#mc7a03d22e7" x="42.1" y="164.700665" style="stroke: #000000; stroke-width: 0.8"/>
      </g>
     </g>
     <g id="text_7">
      <!-- 25 -->
      <g transform="translate(22.375 168.499883) scale(0.1 -0.1)">
       <defs>
        <path id="DejaVuSans-35" d="M 691 4666 
L 3169 4666 
L 3169 4134 
L 1269 4134 
L 1269 2991 
Q 1406 3038 1543 3061 
Q 1681 3084 1819 3084 
Q 2600 3084 3056 2656 
Q 3513 2228 3513 1497 
Q 3513 744 3044 326 
Q 2575 -91 1722 -91 
Q 1428 -91 1123 -41 
Q 819 9 494 109 
L 494 744 
Q 775 591 1075 516 
Q 1375 441 1709 441 
Q 2250 441 2565 725 
Q 2881 1009 2881 1497 
Q 2881 1984 2565 2268 
Q 2250 2553 1709 2553 
Q 1456 2553 1204 2497 
Q 953 2441 691 2322 
L 691 4666 
z
" transform="scale(0.015625)"/>
       </defs>
       <use xlink:href="#DejaVuSans-32"/>
       <use xlink:href="#DejaVuSans-35" transform="translate(63.623047 0)"/>
      </g>
     </g>
    </g>
    <g id="ytick_2">
     <g id="line2d_15">
      <path d="M 42.1 130.800624 
L 709.2 130.800624 
" clip-path="url(#p72f32f8e4f)" style="fill: none; stroke: #b0b0b0; stroke-width: 0.8; stroke-linecap: square"/>
     </g>
     <g id="line2d_16">
      <g>
       <use xlink:href="#mc7a03d22e7" x="42.1" y="130.800624" style="stroke: #000000; stroke-width: 0.8"/>
      </g>
     </g>
     <g id="text_8">
      <!-- 30 -->
      <g transform="translate(22.375 134.599843) scale(0.1 -0.1)">
       <defs>
        <path id="DejaVuSans-33" d="M 2597 2516 
Q 3050 2419 3304 2112 
Q 3559 1806 3559 1356 
Q 3559 666 3084 287 
Q 2609 -91 1734 -91 
Q 1441 -91 1130 -33 
Q 819 25 488 141 
L 488 750 
Q 750 597 1062 519 
Q 1375 441 1716 441 
Q 2309 441 2620 675 
Q 2931 909 2931 1356 
Q 2931 1769 2642 2001 
Q 2353 2234 1838 2234 
L 1294 2234 
L 1294 2753 
L 1863 2753 
Q 2328 2753 2575 2939 
Q 2822 3125 2822 3475 
Q 2822 3834 2567 4026 
Q 2313 4219 1838 4219 
Q 1578 4219 1281 4162 
Q 984 4106 628 3988 
L 628 4550 
Q 988 4650 1302 4700 
Q 1616 4750 1894 4750 
Q 2613 4750 3031 4423 
Q 3450 4097 3450 3541 
Q 3450 3153 3228 2886 
Q 3006 2619 2597 2516 
z
" transform="scale(0.015625)"/>
       </defs>
       <use xlink:href="#DejaVuSans-33"/>
       <use xlink:href="#DejaVuSans-30" transform="translate(63.623047 0)"/>
      </g>
     </g>
    </g>
    <g id="ytick_3">
     <g id="line2d_17">
      <path d="M 42.1 96.900584 
L 709.2 96.900584 
" clip-path="url(#p72f32f8e4f)" style="fill: none; stroke: #b0b0b0; stroke-width: 0.8; stroke-linecap: square"/>
     </g>
     <g id="line2d_18">
      <g>
       <use xlink:href="#mc7a03d22e7" x="42.1" y="96.900584" style="stroke: #000000; stroke-width: 0.8"/>
      </g>
     </g>
     <g id="text_9">
      <!-- 35 -->
      <g transform="translate(22.375 100.699803) scale(0.1 -0.1)">
       <use xlink:href="#DejaVuSans-33"/>
       <use xlink:href="#DejaVuSans-35" transform="translate(63.623047 0)"/>
      </g>
     </g>
    </g>
    <g id="ytick_4">
     <g id="line2d_19">
      <path d="M 42.1 63.000543 
L 709.2 63.000543 
" clip-path="url(#p72f32f8e4f)" style="fill: none; stroke: #b0b0b0; stroke-width: 0.8; stroke-linecap: square"/>
     </g>
     <g id="line2d_20">
      <g>
       <use xlink:href="#mc7a03d22e7" x="42.1" y="63.000543" style="stroke: #000000; stroke-width: 0.8"/>
      </g>
     </g>
     <g id="text_10">
      <!-- 40 -->
      <g transform="translate(22.375 66.799762) scale(0.1 -0.1)">
       <use xlink:href="#DejaVuSans-34"/>
       <use xlink:href="#DejaVuSans-30" transform="translate(63.623047 0)"/>
      </g>
     </g>
    </g>
    <g id="ytick_5">
     <g id="line2d_21">
      <path d="M 42.1 29.100503 
L 709.2 29.100503 
" clip-path="url(#p72f32f8e4f)" style="fill: none; stroke: #b0b0b0; stroke-width: 0.8; stroke-linecap: square"/>
     </g>
     <g id="line2d_22">
      <g>
       <use xlink:href="#mc7a03d22e7" x="42.1" y="29.100503" style="stroke: #000000; stroke-width: 0.8"/>
      </g>
     </g>
     <g id="text_11">
      <!-- 45 -->
      <g transform="translate(22.375 32.899722) scale(0.1 -0.1)">
       <use xlink:href="#DejaVuSans-34"/>
       <use xlink:href="#DejaVuSans-35" transform="translate(63.623047 0)"/>
      </g>
     </g>
    </g>
   </g>
   <g id="line2d_23">
    <path d="M 72.422727 164.700665 
L 90.027514 164.684935 
L 107.6323 164.441126 
L 125.237087 163.969237 
L 142.841874 163.269269 
L 160.44666 162.341222 
L 178.051447 161.185095 
L 195.656234 159.800888 
L 213.26102 158.188602 
L 230.865807 156.348237 
L 248.470593 154.279792 
L 266.07538 151.983268 
L 283.680167 149.458664 
L 301.284953 146.705981 
L 318.88974 143.725218 
L 336.494526 140.516376 
L 354.099313 137.079454 
L 371.7041 133.414453 
L 389.308886 129.521372 
L 406.913673 125.400212 
L 424.518459 121.050973 
L 442.123246 116.473654 
L 459.728033 111.668255 
L 477.332819 106.634777 
L 494.937606 101.37322 
L 512.542392 95.883583 
L 530.147179 90.165866 
L 547.751966 84.22007 
L 565.356752 78.046195 
L 583.5686 71.419415 
L 601.780449 64.548555 
L 619.992297 57.433614 
L 638.204145 50.074594 
L 656.415993 42.471493 
L 674.627841 34.624311 
L 678.877273 32.758182 
L 678.877273 32.758182 
" clip-path="url(#p72f32f8e4f)" style="fill: none; stroke: #0000ff; stroke-width: 1.5; stroke-linecap: square"/>
   </g>
   <g id="patch_3">
    <path d="M 42.1 171.32 
L 42.1 26.16 
" style="fill: none; stroke: #000000; stroke-width: 0.8; stroke-linejoin: miter; stroke-linecap: square"/>
   </g>
   <g id="patch_4">
    <path d="M 709.2 171.32 
L 709.2 26.16 
" style="fill: none; stroke: #000000; stroke-width: 0.8; stroke-linejoin: miter; stroke-linecap: square"/>
   </g>
   <g id="patch_5">
    <path d="M 42.1 171.32 
L 709.2 171.32 
" style="fill: none; stroke: #000000; stroke-width: 0.8; stroke-linejoin: miter; stroke-linecap: square"/>
   </g>
   <g id="patch_6">
    <path d="M 42.1 26.16 
L 709.2 26.16 
" style="fill: none; stroke: #000000; stroke-width: 0.8; stroke-linejoin: miter; stroke-linecap: square"/>
   </g>
   <g id="text_12">
    <!-- Trend Component -->
    <g transform="translate(322.49375 20.16) scale(0.12 -0.12)">
     <defs>
      <path id="DejaVuSans-54" d="M -19 4666 
L 3928 4666 
L 3928 4134 
L 2272 4134 
L 2272 0 
L 1638 0 
L 1638 4134 
L -19 4134 
L -19 4666 
z
" transform="scale(0.015625)"/>
      <path id="DejaVuSans-72" d="M 2631 2963 
Q 2534 3019 2420 3045 
Q 2306 3072 2169 3072 
Q 1681 3072 1420 2755 
Q 1159 2438 1159 1844 
L 1159 0 
L 581 0 
L 581 3500 
L 1159 3500 
L 1159 2956 
Q 1341 3275 1631 3429 
Q 1922 3584 2338 3584 
Q 2397 3584 2469 3576 
Q 2541 3569 2628 3553 
L 2631 2963 
z
" transform="scale(0.015625)"/>
      <path id="DejaVuSans-65" d="M 3597 1894 
L 3597 1613 
L 953 1613 
Q 991 1019 1311 708 
Q 1631 397 2203 397 
Q 2534 397 2845 478 
Q 3156 559 3463 722 
L 3463 178 
Q 3153 47 2828 -22 
Q 2503 -91 2169 -91 
Q 1331 -91 842 396 
Q 353 884 353 1716 
Q 353 2575 817 3079 
Q 1281 3584 2069 3584 
Q 2775 3584 3186 3129 
Q 3597 2675 3597 1894 
z
M 3022 2063 
Q 3016 2534 2758 2815 
Q 2500 3097 2075 3097 
Q 1594 3097 1305 2825 
Q 1016 2553 972 2059 
L 3022 2063 
z
" transform="scale(0.015625)"/>
      <path id="DejaVuSans-6e" d="M 3513 2113 
L 3513 0 
L 2938 0 
L 2938 2094 
Q 2938 2591 2744 2837 
Q 2550 3084 2163 3084 
Q 1697 3084 1428 2787 
Q 1159 2491 1159 1978 
L 1159 0 
L 581 0 
L 581 3500 
L 1159 3500 
L 1159 2956 
Q 1366 3272 1645 3428 
Q 1925 3584 2291 3584 
Q 2894 3584 3203 3211 
Q 3513 2838 3513 2113 
z
" transform="scale(0.015625)"/>
      <path id="DejaVuSans-64" d="M 2906 2969 
L 2906 4863 
L 3481 4863 
L 3481 0 
L 2906 0 
L 2906 525 
Q 2725 213 2448 61 
Q 2172 -91 1784 -91 
Q 1150 -91 751 415 
Q 353 922 353 1747 
Q 353 2572 751 3078 
Q 1150 3584 1784 3584 
Q 2172 3584 2448 3432 
Q 2725 3281 2906 2969 
z
M 947 1747 
Q 947 1113 1208 752 
Q 1469 391 1925 391 
Q 2381 391 2643 752 
Q 2906 1113 2906 1747 
Q 2906 2381 2643 2742 
Q 2381 3103 1925 3103 
Q 1469 3103 1208 2742 
Q 947 2381 947 1747 
z
" transform="scale(0.015625)"/>
      <path id="DejaVuSans-20" transform="scale(0.015625)"/>
      <path id="DejaVuSans-43" d="M 4122 4306 
L 4122 3641 
Q 3803 3938 3442 4084 
Q 3081 4231 2675 4231 
Q 1875 4231 1450 3742 
Q 1025 3253 1025 2328 
Q 1025 1406 1450 917 
Q 1875 428 2675 428 
Q 3081 428 3442 575 
Q 3803 722 4122 1019 
L 4122 359 
Q 3791 134 3420 21 
Q 3050 -91 2638 -91 
Q 1578 -91 968 557 
Q 359 1206 359 2328 
Q 359 3453 968 4101 
Q 1578 4750 2638 4750 
Q 3056 4750 3426 4639 
Q 3797 4528 4122 4306 
z
" transform="scale(0.015625)"/>
      <path id="DejaVuSans-6f" d="M 1959 3097 
Q 1497 3097 1228 2736 
Q 959 2375 959 1747 
Q 959 1119 1226 758 
Q 1494 397 1959 397 
Q 2419 397 2687 759 
Q 2956 1122 2956 1747 
Q 2956 2369 2687 2733 
Q 2419 3097 1959 3097 
z
M 1959 3584 
Q 2709 3584 3137 3096 
Q 3566 2609 3566 1747 
Q 3566 888 3137 398 
Q 2709 -91 1959 -91 
Q 1206 -91 779 398 
Q 353 888 353 1747 
Q 353 2609 779 3096 
Q 1206 3584 1959 3584 
z
" transform="scale(0.015625)"/>
      <path id="DejaVuSans-6d" d="M 3328 2828 
Q 3544 3216 3844 3400 
Q 4144 3584 4550 3584 
Q 5097 3584 5394 3201 
Q 5691 2819 5691 2113 
L 5691 0 
L 5113 0 
L 5113 2094 
Q 5113 2597 4934 2840 
Q 4756 3084 4391 3084 
Q 3944 3084 3684 2787 
Q 3425 2491 3425 1978 
L 3425 0 
L 2847 0 
L 2847 2094 
Q 2847 2600 2669 2842 
Q 2491 3084 2119 3084 
Q 1678 3084 1418 2786 
Q 1159 2488 1159 1978 
L 1159 0 
L 581 0 
L 581 3500 
L 1159 3500 
L 1159 2956 
Q 1356 3278 1631 3431 
Q 1906 3584 2284 3584 
Q 2666 3584 2933 3390 
Q 3200 3197 3328 2828 
z
" transform="scale(0.015625)"/>
      <path id="DejaVuSans-70" d="M 1159 525 
L 1159 -1331 
L 581 -1331 
L 581 3500 
L 1159 3500 
L 1159 2969 
Q 1341 3281 1617 3432 
Q 1894 3584 2278 3584 
Q 2916 3584 3314 3078 
Q 3713 2572 3713 1747 
Q 3713 922 3314 415 
Q 2916 -91 2278 -91 
Q 1894 -91 1617 61 
Q 1341 213 1159 525 
z
M 3116 1747 
Q 3116 2381 2855 2742 
Q 2594 3103 2138 3103 
Q 1681 3103 1420 2742 
Q 1159 2381 1159 1747 
Q 1159 1113 1420 752 
Q 1681 391 2138 391 
Q 2594 391 2855 752 
Q 3116 1113 3116 1747 
z
" transform="scale(0.015625)"/>
      <path id="DejaVuSans-74" d="M 1172 4494 
L 1172 3500 
L 2356 3500 
L 2356 3053 
L 1172 3053 
L 1172 1153 
Q 1172 725 1289 603 
Q 1406 481 1766 481 
L 2356 481 
L 2356 0 
L 1766 0 
Q 1100 0 847 248 
Q 594 497 594 1153 
L 594 3053 
L 172 3053 
L 172 3500 
L 594 3500 
L 594 4494 
L 1172 4494 
z
" transform="scale(0.015625)"/>
     </defs>
     <use xlink:href="#DejaVuSans-54"/>
     <use xlink:href="#DejaVuSans-72" transform="translate(46.333984 0)"/>
     <use xlink:href="#DejaVuSans-65" transform="translate(85.197266 0)"/>
     <use xlink:href="#DejaVuSans-6e" transform="translate(146.720703 0)"/>
     <use xlink:href="#DejaVuSans-64" transform="translate(210.099609 0)"/>
     <use xlink:href="#DejaVuSans-20" transform="translate(273.576172 0)"/>
     <use xlink:href="#DejaVuSans-43" transform="translate(305.363281 0)"/>
     <use xlink:href="#DejaVuSans-6f" transform="translate(375.1875 0)"/>
     <use xlink:href="#DejaVuSans-6d" transform="translate(436.369141 0)"/>
     <use xlink:href="#DejaVuSans-70" transform="translate(533.78125 0)"/>
     <use xlink:href="#DejaVuSans-6f" transform="translate(597.257812 0)"/>
     <use xlink:href="#DejaVuSans-6e" transform="translate(658.439453 0)"/>
     <use xlink:href="#DejaVuSans-65" transform="translate(721.818359 0)"/>
     <use xlink:href="#DejaVuSans-6e" transform="translate(783.341797 0)"/>
     <use xlink:href="#DejaVuSans-74" transform="translate(846.720703 0)"/>
    </g>
   </g>
   <g id="legend_1">
    <g id="patch_7">
     <path d="M 49.1 48.838125 
L 108.457813 48.838125 
Q 110.457813 48.838125 110.457813 46.838125 
L 110.457813 33.16 
Q 110.457813 31.16 108.457813 31.16 
L 49.1 31.16 
Q 47.1 31.16 47.1 33.16 
L 47.1 46.838125 
Q 47.1 48.838125 49.1 48.838125 
z
" style="fill: #ffffff; opacity: 0.8; stroke: #cccccc; stroke-linejoin: miter"/>
    </g>
    <g id="line2d_24">
     <path d="M 51.1 39.258438 
L 61.1 39.258438 
L 71.1 39.258438 
" style="fill: none; stroke: #0000ff; stroke-width: 1.5; stroke-linecap: square"/>
    </g>
    <g id="text_13">
     <!-- Trend -->
     <g transform="translate(79.1 42.758438) scale(0.1 -0.1)">
      <use xlink:href="#DejaVuSans-54"/>
      <use xlink:href="#DejaVuSans-72" transform="translate(46.333984 0)"/>
      <use xlink:href="#DejaVuSans-65" transform="translate(85.197266 0)"/>
      <use xlink:href="#DejaVuSans-6e" transform="translate(146.720703 0)"/>
      <use xlink:href="#DejaVuSans-64" transform="translate(210.099609 0)"/>
     </g>
    </g>
   </g>
  </g>
  <g id="axes_2">
   <g id="patch_8">
    <path d="M 42.1 359.72 
L 709.2 359.72 
L 709.2 214.56 
L 42.1 214.56 
z
" style="fill: #ffffff"/>
   </g>
   <g id="matplotlib.axis_3">
    <g id="xtick_7">
     <g id="line2d_25">
      <path d="M 72.422727 359.72 
L 72.422727 214.56 
" clip-path="url(#pf55124d4f1)" style="fill: none; stroke: #b0b0b0; stroke-width: 0.8; stroke-linecap: square"/>
     </g>
     <g id="line2d_26">
      <g>
       <use xlink:href="#m96ca3d654e" x="72.422727" y="359.72" style="stroke: #000000; stroke-width: 0.8"/>
      </g>
     </g>
     <g id="text_14">
      <!-- 0 -->
      <g transform="translate(69.241477 374.318438) scale(0.1 -0.1)">
       <use xlink:href="#DejaVuSans-30"/>
      </g>
     </g>
    </g>
    <g id="xtick_8">
     <g id="line2d_27">
      <path d="M 193.835049 359.72 
L 193.835049 214.56 
" clip-path="url(#pf55124d4f1)" style="fill: none; stroke: #b0b0b0; stroke-width: 0.8; stroke-linecap: square"/>
     </g>
     <g id="line2d_28">
      <g>
       <use xlink:href="#m96ca3d654e" x="193.835049" y="359.72" style="stroke: #000000; stroke-width: 0.8"/>
      </g>
     </g>
     <g id="text_15">
      <!-- 200 -->
      <g transform="translate(184.291299 374.318438) scale(0.1 -0.1)">
       <use xlink:href="#DejaVuSans-32"/>
       <use xlink:href="#DejaVuSans-30" transform="translate(63.623047 0)"/>
       <use xlink:href="#DejaVuSans-30" transform="translate(127.246094 0)"/>
      </g>
     </g>
    </g>
    <g id="xtick_9">
     <g id="line2d_29">
      <path d="M 315.24737 359.72 
L 315.24737 214.56 
" clip-path="url(#pf55124d4f1)" style="fill: none; stroke: #b0b0b0; stroke-width: 0.8; stroke-linecap: square"/>
     </g>
     <g id="line2d_30">
      <g>
       <use xlink:href="#m96ca3d654e" x="315.24737" y="359.72" style="stroke: #000000; stroke-width: 0.8"/>
      </g>
     </g>
     <g id="text_16">
      <!-- 400 -->
      <g transform="translate(305.70362 374.318438) scale(0.1 -0.1)">
       <use xlink:href="#DejaVuSans-34"/>
       <use xlink:href="#DejaVuSans-30" transform="translate(63.623047 0)"/>
       <use xlink:href="#DejaVuSans-30" transform="translate(127.246094 0)"/>
      </g>
     </g>
    </g>
    <g id="xtick_10">
     <g id="line2d_31">
      <path d="M 436.659692 359.72 
L 436.659692 214.56 
" clip-path="url(#pf55124d4f1)" style="fill: none; stroke: #b0b0b0; stroke-width: 0.8; stroke-linecap: square"/>
     </g>
     <g id="line2d_32">
      <g>
       <use xlink:href="#m96ca3d654e" x="436.659692" y="359.72" style="stroke: #000000; stroke-width: 0.8"/>
      </g>
     </g>
     <g id="text_17">
      <!-- 600 -->
      <g transform="translate(427.115942 374.318438) scale(0.1 -0.1)">
       <use xlink:href="#DejaVuSans-36"/>
       <use xlink:href="#DejaVuSans-30" transform="translate(63.623047 0)"/>
       <use xlink:href="#DejaVuSans-30" transform="translate(127.246094 0)"/>
      </g>
     </g>
    </g>
    <g id="xtick_11">
     <g id="line2d_33">
      <path d="M 558.072013 359.72 
L 558.072013 214.56 
" clip-path="url(#pf55124d4f1)" style="fill: none; stroke: #b0b0b0; stroke-width: 0.8; stroke-linecap: square"/>
     </g>
     <g id="line2d_34">
      <g>
       <use xlink:href="#m96ca3d654e" x="558.072013" y="359.72" style="stroke: #000000; stroke-width: 0.8"/>
      </g>
     </g>
     <g id="text_18">
      <!-- 800 -->
      <g transform="translate(548.528263 374.318438) scale(0.1 -0.1)">
       <use xlink:href="#DejaVuSans-38"/>
       <use xlink:href="#DejaVuSans-30" transform="translate(63.623047 0)"/>
       <use xlink:href="#DejaVuSans-30" transform="translate(127.246094 0)"/>
      </g>
     </g>
    </g>
    <g id="xtick_12">
     <g id="line2d_35">
      <path d="M 679.484334 359.72 
L 679.484334 214.56 
" clip-path="url(#pf55124d4f1)" style="fill: none; stroke: #b0b0b0; stroke-width: 0.8; stroke-linecap: square"/>
     </g>
     <g id="line2d_36">
      <g>
       <use xlink:href="#m96ca3d654e" x="679.484334" y="359.72" style="stroke: #000000; stroke-width: 0.8"/>
      </g>
     </g>
     <g id="text_19">
      <!-- 1000 -->
      <g transform="translate(666.759334 374.318438) scale(0.1 -0.1)">
       <use xlink:href="#DejaVuSans-31"/>
       <use xlink:href="#DejaVuSans-30" transform="translate(63.623047 0)"/>
       <use xlink:href="#DejaVuSans-30" transform="translate(127.246094 0)"/>
       <use xlink:href="#DejaVuSans-30" transform="translate(190.869141 0)"/>
      </g>
     </g>
    </g>
   </g>
   <g id="matplotlib.axis_4">
    <g id="ytick_6">
     <g id="line2d_37">
      <path d="M 42.1 353.121818 
L 709.2 353.121818 
" clip-path="url(#pf55124d4f1)" style="fill: none; stroke: #b0b0b0; stroke-width: 0.8; stroke-linecap: square"/>
     </g>
     <g id="line2d_38">
      <g>
       <use xlink:href="#mc7a03d22e7" x="42.1" y="353.121818" style="stroke: #000000; stroke-width: 0.8"/>
      </g>
     </g>
     <g id="text_20">
      <!-- −1.0 -->
      <g transform="translate(10.817188 356.921037) scale(0.1 -0.1)">
       <defs>
        <path id="DejaVuSans-2212" d="M 678 2272 
L 4684 2272 
L 4684 1741 
L 678 1741 
L 678 2272 
z
" transform="scale(0.015625)"/>
        <path id="DejaVuSans-2e" d="M 684 794 
L 1344 794 
L 1344 0 
L 684 0 
L 684 794 
z
" transform="scale(0.015625)"/>
       </defs>
       <use xlink:href="#DejaVuSans-2212"/>
       <use xlink:href="#DejaVuSans-31" transform="translate(83.789062 0)"/>
       <use xlink:href="#DejaVuSans-2e" transform="translate(147.412109 0)"/>
       <use xlink:href="#DejaVuSans-30" transform="translate(179.199219 0)"/>
      </g>
     </g>
    </g>
    <g id="ytick_7">
     <g id="line2d_39">
      <path d="M 42.1 320.130909 
L 709.2 320.130909 
" clip-path="url(#pf55124d4f1)" style="fill: none; stroke: #b0b0b0; stroke-width: 0.8; stroke-linecap: square"/>
     </g>
     <g id="line2d_40">
      <g>
       <use xlink:href="#mc7a03d22e7" x="42.1" y="320.130909" style="stroke: #000000; stroke-width: 0.8"/>
      </g>
     </g>
     <g id="text_21">
      <!-- −0.5 -->
      <g transform="translate(10.817188 323.930128) scale(0.1 -0.1)">
       <use xlink:href="#DejaVuSans-2212"/>
       <use xlink:href="#DejaVuSans-30" transform="translate(83.789062 0)"/>
       <use xlink:href="#DejaVuSans-2e" transform="translate(147.412109 0)"/>
       <use xlink:href="#DejaVuSans-35" transform="translate(179.199219 0)"/>
      </g>
     </g>
    </g>
    <g id="ytick_8">
     <g id="line2d_41">
      <path d="M 42.1 287.14 
L 709.2 287.14 
" clip-path="url(#pf55124d4f1)" style="fill: none; stroke: #b0b0b0; stroke-width: 0.8; stroke-linecap: square"/>
     </g>
     <g id="line2d_42">
      <g>
       <use xlink:href="#mc7a03d22e7" x="42.1" y="287.14" style="stroke: #000000; stroke-width: 0.8"/>
      </g>
     </g>
     <g id="text_22">
      <!-- 0.0 -->
      <g transform="translate(19.196875 290.939219) scale(0.1 -0.1)">
       <use xlink:href="#DejaVuSans-30"/>
       <use xlink:href="#DejaVuSans-2e" transform="translate(63.623047 0)"/>
       <use xlink:href="#DejaVuSans-30" transform="translate(95.410156 0)"/>
      </g>
     </g>
    </g>
    <g id="ytick_9">
     <g id="line2d_43">
      <path d="M 42.1 254.149091 
L 709.2 254.149091 
" clip-path="url(#pf55124d4f1)" style="fill: none; stroke: #b0b0b0; stroke-width: 0.8; stroke-linecap: square"/>
     </g>
     <g id="line2d_44">
      <g>
       <use xlink:href="#mc7a03d22e7" x="42.1" y="254.149091" style="stroke: #000000; stroke-width: 0.8"/>
      </g>
     </g>
     <g id="text_23">
      <!-- 0.5 -->
      <g transform="translate(19.196875 257.94831) scale(0.1 -0.1)">
       <use xlink:href="#DejaVuSans-30"/>
       <use xlink:href="#DejaVuSans-2e" transform="translate(63.623047 0)"/>
       <use xlink:href="#DejaVuSans-35" transform="translate(95.410156 0)"/>
      </g>
     </g>
    </g>
    <g id="ytick_10">
     <g id="line2d_45">
      <path d="M 42.1 221.158182 
L 709.2 221.158182 
" clip-path="url(#pf55124d4f1)" style="fill: none; stroke: #b0b0b0; stroke-width: 0.8; stroke-linecap: square"/>
     </g>
     <g id="line2d_46">
      <g>
       <use xlink:href="#mc7a03d22e7" x="42.1" y="221.158182" style="stroke: #000000; stroke-width: 0.8"/>
      </g>
     </g>
     <g id="text_24">
      <!-- 1.0 -->
      <g transform="translate(19.196875 224.957401) scale(0.1 -0.1)">
       <use xlink:href="#DejaVuSans-31"/>
       <use xlink:href="#DejaVuSans-2e" transform="translate(63.623047 0)"/>
       <use xlink:href="#DejaVuSans-30" transform="translate(95.410156 0)"/>
      </g>
     </g>
    </g>
   </g>
   <g id="line2d_47">
    <path d="M 72.422727 287.14 
L 73.63685 248.35686 
L 74.243912 233.759588 
L 74.850974 224.387562 
L 75.458035 221.158182 
L 76.065097 224.387562 
L 76.672159 233.759588 
L 77.27922 248.35686 
L 78.493343 287.14 
L 79.707467 325.92314 
L 80.314528 340.520412 
L 80.92159 349.892438 
L 81.528651 353.121818 
L 82.135713 349.892438 
L 82.742775 340.520412 
L 83.349836 325.92314 
L 84.563959 287.14 
L 85.778083 248.35686 
L 86.385144 233.759588 
L 86.992206 224.387562 
L 87.599267 221.158182 
L 88.206329 224.387562 
L 88.813391 233.759588 
L 89.420452 248.35686 
L 90.634575 287.14 
L 91.848699 325.92314 
L 92.45576 340.520412 
L 93.062822 349.892438 
L 93.669884 353.121818 
L 94.276945 349.892438 
L 94.884007 340.520412 
L 95.491068 325.92314 
L 96.705192 287.14 
L 97.919315 248.35686 
L 98.526376 233.759588 
L 99.133438 224.387562 
L 99.7405 221.158182 
L 100.347561 224.387562 
L 100.954623 233.759588 
L 101.561684 248.35686 
L 102.775808 287.14 
L 103.989931 325.92314 
L 104.596992 340.520412 
L 105.204054 349.892438 
L 105.811116 353.121818 
L 106.418177 349.892438 
L 107.025239 340.520412 
L 107.6323 325.92314 
L 108.846424 287.14 
L 110.060547 248.35686 
L 110.667609 233.759588 
L 111.27467 224.387562 
L 111.881732 221.158182 
L 112.488793 224.387562 
L 113.095855 233.759588 
L 113.702917 248.35686 
L 114.91704 287.14 
L 116.131163 325.92314 
L 116.738225 340.520412 
L 117.345286 349.892438 
L 117.952348 353.121818 
L 118.559409 349.892438 
L 119.166471 340.520412 
L 119.773533 325.92314 
L 120.987656 287.14 
L 122.201779 248.35686 
L 122.808841 233.759588 
L 123.415902 224.387562 
L 124.022964 221.158182 
L 124.630025 224.387562 
L 125.237087 233.759588 
L 125.844149 248.35686 
L 127.058272 287.14 
L 128.272395 325.92314 
L 128.879457 340.520412 
L 129.486518 349.892438 
L 130.09358 353.121818 
L 130.700642 349.892438 
L 131.307703 340.520412 
L 131.914765 325.92314 
L 133.128888 287.14 
L 134.343011 248.35686 
L 134.950073 233.759588 
L 135.557134 224.387562 
L 136.164196 221.158182 
L 136.771258 224.387562 
L 137.378319 233.759588 
L 137.985381 248.35686 
L 139.199504 287.14 
L 140.413627 325.92314 
L 141.020689 340.520412 
L 141.62775 349.892438 
L 142.234812 353.121818 
L 142.841874 349.892438 
L 143.448935 340.520412 
L 144.055997 325.92314 
L 145.27012 287.14 
L 146.484243 248.35686 
L 147.091305 233.759588 
L 147.698367 224.387562 
L 148.305428 221.158182 
L 148.91249 224.387562 
L 149.519551 233.759588 
L 150.126613 248.35686 
L 151.340736 287.14 
L 152.554859 325.92314 
L 153.161921 340.520412 
L 153.768983 349.892438 
L 154.376044 353.121818 
L 154.983106 349.892438 
L 155.590167 340.520412 
L 156.197229 325.92314 
L 157.411352 287.14 
L 158.625475 248.35686 
L 159.232537 233.759588 
L 159.839599 224.387562 
L 160.44666 221.158182 
L 161.053722 224.387562 
L 161.660784 233.759588 
L 162.267845 248.35686 
L 163.481968 287.14 
L 164.696092 325.92314 
L 165.303153 340.520412 
L 165.910215 349.892438 
L 166.517276 353.121818 
L 167.124338 349.892438 
L 167.7314 340.520412 
L 168.338461 325.92314 
L 169.552584 287.14 
L 170.766708 248.35686 
L 171.373769 233.759588 
L 171.980831 224.387562 
L 172.587892 221.158182 
L 173.194954 224.387562 
L 173.802016 233.759588 
L 174.409077 248.35686 
L 175.6232 287.14 
L 176.837324 325.92314 
L 177.444385 340.520412 
L 178.051447 349.892438 
L 178.658509 353.121818 
L 179.26557 349.892438 
L 179.872632 340.520412 
L 180.479693 325.92314 
L 181.693817 287.14 
L 182.90794 248.35686 
L 183.515001 233.759588 
L 184.122063 224.387562 
L 184.729125 221.158182 
L 185.336186 224.387562 
L 185.943248 233.759588 
L 186.550309 248.35686 
L 187.764433 287.14 
L 188.978556 325.92314 
L 189.585617 340.520412 
L 190.192679 349.892438 
L 190.799741 353.121818 
L 191.406802 349.892438 
L 192.013864 340.520412 
L 192.620925 325.92314 
L 193.835049 287.14 
L 195.049172 248.35686 
L 195.656234 233.759588 
L 196.263295 224.387562 
L 196.870357 221.158182 
L 197.477418 224.387562 
L 198.08448 233.759588 
L 198.691542 248.35686 
L 199.905665 287.14 
L 201.119788 325.92314 
L 201.72685 340.520412 
L 202.333911 349.892438 
L 202.940973 353.121818 
L 203.548034 349.892438 
L 204.155096 340.520412 
L 204.762158 325.92314 
L 205.976281 287.14 
L 207.190404 248.35686 
L 207.797466 233.759588 
L 208.404527 224.387562 
L 209.011589 221.158182 
L 209.61865 224.387562 
L 210.225712 233.759588 
L 210.832774 248.35686 
L 212.046897 287.14 
L 213.26102 325.92314 
L 213.868082 340.520412 
L 214.475143 349.892438 
L 215.082205 353.121818 
L 215.689267 349.892438 
L 216.296328 340.520412 
L 216.90339 325.92314 
L 218.117513 287.14 
L 219.331636 248.35686 
L 219.938698 233.759588 
L 220.545759 224.387562 
L 221.152821 221.158182 
L 221.759883 224.387562 
L 222.366944 233.759588 
L 222.974006 248.35686 
L 224.188129 287.14 
L 225.402252 325.92314 
L 226.009314 340.520412 
L 226.616375 349.892438 
L 227.223437 353.121818 
L 227.830499 349.892438 
L 228.43756 340.520412 
L 229.044622 325.92314 
L 230.258745 287.14 
L 231.472868 248.35686 
L 232.07993 233.759588 
L 232.686992 224.387562 
L 233.294053 221.158182 
L 233.901115 224.387562 
L 234.508176 233.759588 
L 235.115238 248.35686 
L 236.329361 287.14 
L 237.543484 325.92314 
L 238.150546 340.520412 
L 238.757608 349.892438 
L 239.364669 353.121818 
L 239.971731 349.892438 
L 240.578792 340.520412 
L 241.185854 325.92314 
L 242.399977 287.14 
L 243.6141 248.35686 
L 244.221162 233.759588 
L 244.828224 224.387562 
L 245.435285 221.158182 
L 246.042347 224.387562 
L 246.649408 233.759588 
L 247.25647 248.35686 
L 248.470593 287.14 
L 249.684717 325.92314 
L 250.291778 340.520412 
L 250.89884 349.892438 
L 251.505901 353.121818 
L 252.112963 349.892438 
L 252.720025 340.520412 
L 253.327086 325.92314 
L 254.541209 287.14 
L 255.755333 248.35686 
L 256.362394 233.759588 
L 256.969456 224.387562 
L 257.576517 221.158182 
L 258.183579 224.387562 
L 258.790641 233.759588 
L 259.397702 248.35686 
L 260.611825 287.14 
L 261.825949 325.92314 
L 262.43301 340.520412 
L 263.040072 349.892438 
L 263.647133 353.121818 
L 264.254195 349.892438 
L 264.861257 340.520412 
L 265.468318 325.92314 
L 266.682442 287.14 
L 267.896565 248.35686 
L 268.503626 233.759588 
L 269.110688 224.387562 
L 269.71775 221.158182 
L 270.324811 224.387562 
L 270.931873 233.759588 
L 271.538934 248.35686 
L 272.753058 287.14 
L 273.967181 325.92314 
L 274.574242 340.520412 
L 275.181304 349.892438 
L 275.788366 353.121818 
L 276.395427 349.892438 
L 277.002489 340.520412 
L 277.60955 325.92314 
L 278.823674 287.14 
L 280.037797 248.35686 
L 280.644858 233.759588 
L 281.25192 224.387562 
L 281.858982 221.158182 
L 282.466043 224.387562 
L 283.073105 233.759588 
L 283.680167 248.35686 
L 284.89429 287.14 
L 286.108413 325.92314 
L 286.715475 340.520412 
L 287.322536 349.892438 
L 287.929598 353.121818 
L 288.536659 349.892438 
L 289.143721 340.520412 
L 289.750783 325.92314 
L 290.964906 287.14 
L 292.179029 248.35686 
L 292.786091 233.759588 
L 293.393152 224.387562 
L 294.000214 221.158182 
L 294.607275 224.387562 
L 295.214337 233.759588 
L 295.821399 248.35686 
L 297.035522 287.14 
L 298.249645 325.92314 
L 298.856707 340.520412 
L 299.463768 349.892438 
L 300.07083 353.121818 
L 300.677892 349.892438 
L 301.284953 340.520412 
L 301.892015 325.92314 
L 303.106138 287.14 
L 304.320261 248.35686 
L 304.927323 233.759588 
L 305.534384 224.387562 
L 306.141446 221.158182 
L 306.748508 224.387562 
L 307.355569 233.759588 
L 307.962631 248.35686 
L 309.176754 287.14 
L 310.390877 325.92314 
L 310.997939 340.520412 
L 311.605 349.892438 
L 312.212062 353.121818 
L 312.819124 349.892438 
L 313.426185 340.520412 
L 314.033247 325.92314 
L 315.24737 287.14 
L 316.461493 248.35686 
L 317.068555 233.759588 
L 317.675617 224.387562 
L 318.282678 221.158182 
L 318.88974 224.387562 
L 319.496801 233.759588 
L 320.103863 248.35686 
L 321.317986 287.14 
L 322.532109 325.92314 
L 323.139171 340.520412 
L 323.746233 349.892438 
L 324.353294 353.121818 
L 324.960356 349.892438 
L 325.567417 340.520412 
L 326.174479 325.92314 
L 327.388602 287.14 
L 328.602725 248.35686 
L 329.209787 233.759588 
L 329.816849 224.387562 
L 330.42391 221.158182 
L 331.030972 224.387562 
L 331.638033 233.759588 
L 332.245095 248.35686 
L 333.459218 287.14 
L 334.673342 325.92314 
L 335.280403 340.520412 
L 335.887465 349.892438 
L 336.494526 353.121818 
L 337.101588 349.892438 
L 337.70865 340.520412 
L 338.315711 325.92314 
L 339.529834 287.14 
L 340.743958 248.35686 
L 341.351019 233.759588 
L 341.958081 224.387562 
L 342.565142 221.158182 
L 343.172204 224.387562 
L 343.779266 233.759588 
L 344.386327 248.35686 
L 345.60045 287.14 
L 346.814574 325.92314 
L 347.421635 340.520412 
L 348.028697 349.892438 
L 348.635758 353.121818 
L 349.24282 349.892438 
L 349.849882 340.520412 
L 350.456943 325.92314 
L 351.671067 287.14 
L 352.88519 248.35686 
L 353.492251 233.759588 
L 354.099313 224.387562 
L 354.706375 221.158182 
L 355.313436 224.387562 
L 355.920498 233.759588 
L 356.527559 248.35686 
L 357.741683 287.14 
L 358.955806 325.92314 
L 359.562867 340.520412 
L 360.169929 349.892438 
L 360.776991 353.121818 
L 361.384052 349.892438 
L 361.991114 340.520412 
L 362.598175 325.92314 
L 363.812299 287.14 
L 365.026422 248.35686 
L 365.633483 233.759588 
L 366.240545 224.387562 
L 366.847607 221.158182 
L 367.454668 224.387562 
L 368.06173 233.759588 
L 368.668792 248.35686 
L 369.882915 287.14 
L 371.097038 325.92314 
L 371.7041 340.520412 
L 372.311161 349.892438 
L 372.918223 353.121818 
L 373.525284 349.892438 
L 374.132346 340.520412 
L 374.739408 325.92314 
L 375.953531 287.14 
L 377.167654 248.35686 
L 377.774716 233.759588 
L 378.381777 224.387562 
L 378.988839 221.158182 
L 379.5959 224.387562 
L 380.202962 233.759588 
L 380.810024 248.35686 
L 382.024147 287.14 
L 383.23827 325.92314 
L 383.845332 340.520412 
L 384.452393 349.892438 
L 385.059455 353.121818 
L 385.666517 349.892438 
L 386.273578 340.520412 
L 386.88064 325.92314 
L 388.094763 287.14 
L 389.308886 248.35686 
L 389.915948 233.759588 
L 390.523009 224.387562 
L 391.130071 221.158182 
L 391.737133 224.387562 
L 392.344194 233.759588 
L 392.951256 248.35686 
L 394.165379 287.14 
L 395.379502 325.92314 
L 395.986564 340.520412 
L 396.593625 349.892438 
L 397.200687 353.121818 
L 397.807749 349.892438 
L 398.41481 340.520412 
L 399.021872 325.92314 
L 400.235995 287.14 
L 401.450118 248.35686 
L 402.05718 233.759588 
L 402.664242 224.387562 
L 403.271303 221.158182 
L 403.878365 224.387562 
L 404.485426 233.759588 
L 405.092488 248.35686 
L 406.306611 287.14 
L 407.520734 325.92314 
L 408.127796 340.520412 
L 408.734858 349.892438 
L 409.341919 353.121818 
L 409.948981 349.892438 
L 410.556042 340.520412 
L 411.163104 325.92314 
L 412.377227 287.14 
L 413.59135 248.35686 
L 414.198412 233.759588 
L 414.805474 224.387562 
L 415.412535 221.158182 
L 416.019597 224.387562 
L 416.626658 233.759588 
L 417.23372 248.35686 
L 418.447843 287.14 
L 419.661967 325.92314 
L 420.269028 340.520412 
L 420.87609 349.892438 
L 421.483151 353.121818 
L 422.090213 349.892438 
L 422.697275 340.520412 
L 423.304336 325.92314 
L 424.518459 287.14 
L 425.732583 248.35686 
L 426.339644 233.759588 
L 426.946706 224.387562 
L 427.553767 221.158182 
L 428.160829 224.387562 
L 428.767891 233.759588 
L 429.374952 248.35686 
L 430.589075 287.14 
L 431.803199 325.92314 
L 432.41026 340.520412 
L 433.017322 349.892438 
L 433.624383 353.121818 
L 434.231445 349.892438 
L 434.838507 340.520412 
L 435.445568 325.92314 
L 436.659692 287.14 
L 437.873815 248.35686 
L 438.480876 233.759588 
L 439.087938 224.387562 
L 439.695 221.158182 
L 440.302061 224.387562 
L 440.909123 233.759588 
L 441.516184 248.35686 
L 442.730308 287.14 
L 443.944431 325.92314 
L 444.551492 340.520412 
L 445.158554 349.892438 
L 445.765616 353.121818 
L 446.372677 349.892438 
L 446.979739 340.520412 
L 447.5868 325.92314 
L 448.800924 287.14 
L 450.015047 248.35686 
L 450.622108 233.759588 
L 451.22917 224.387562 
L 451.836232 221.158182 
L 452.443293 224.387562 
L 453.050355 233.759588 
L 453.657417 248.35686 
L 454.87154 287.14 
L 456.085663 325.92314 
L 456.692725 340.520412 
L 457.299786 349.892438 
L 457.906848 353.121818 
L 458.513909 349.892438 
L 459.120971 340.520412 
L 459.728033 325.92314 
L 460.942156 287.14 
L 462.156279 248.35686 
L 462.763341 233.759588 
L 463.370402 224.387562 
L 463.977464 221.158182 
L 464.584525 224.387562 
L 465.191587 233.759588 
L 465.798649 248.35686 
L 467.012772 287.14 
L 468.226895 325.92314 
L 468.833957 340.520412 
L 469.441018 349.892438 
L 470.04808 353.121818 
L 470.655142 349.892438 
L 471.262203 340.520412 
L 471.869265 325.92314 
L 473.083388 287.14 
L 474.297511 248.35686 
L 474.904573 233.759588 
L 475.511634 224.387562 
L 476.118696 221.158182 
L 476.725758 224.387562 
L 477.332819 233.759588 
L 477.939881 248.35686 
L 479.154004 287.14 
L 480.368127 325.92314 
L 480.975189 340.520412 
L 481.58225 349.892438 
L 482.189312 353.121818 
L 482.796374 349.892438 
L 483.403435 340.520412 
L 484.010497 325.92314 
L 485.22462 287.14 
L 486.438743 248.35686 
L 487.045805 233.759588 
L 487.652867 224.387562 
L 488.259928 221.158182 
L 488.86699 224.387562 
L 489.474051 233.759588 
L 490.081113 248.35686 
L 491.295236 287.14 
L 492.509359 325.92314 
L 493.116421 340.520412 
L 493.723483 349.892438 
L 494.330544 353.121818 
L 494.937606 349.892438 
L 495.544667 340.520412 
L 496.151729 325.92314 
L 497.365852 287.14 
L 498.579975 248.35686 
L 499.187037 233.759588 
L 499.794099 224.387562 
L 500.40116 221.158182 
L 501.008222 224.387562 
L 501.615283 233.759588 
L 502.222345 248.35686 
L 503.436468 287.14 
L 504.650592 325.92314 
L 505.257653 340.520412 
L 505.864715 349.892438 
L 506.471776 353.121818 
L 507.078838 349.892438 
L 507.6859 340.520412 
L 508.292961 325.92314 
L 509.507084 287.14 
L 510.721208 248.35686 
L 511.328269 233.759588 
L 511.935331 224.387562 
L 512.542392 221.158182 
L 513.149454 224.387562 
L 513.756516 233.759588 
L 514.363577 248.35686 
L 515.5777 287.14 
L 516.791824 325.92314 
L 517.398885 340.520412 
L 518.005947 349.892438 
L 518.613008 353.121818 
L 519.22007 349.892438 
L 519.827132 340.520412 
L 520.434193 325.92314 
L 521.648316 287.14 
L 522.86244 248.35686 
L 523.469501 233.759588 
L 524.076563 224.387562 
L 524.683625 221.158182 
L 525.290686 224.387562 
L 525.897748 233.759588 
L 526.504809 248.35686 
L 527.718933 287.14 
L 528.933056 325.92314 
L 529.540117 340.520412 
L 530.147179 349.892438 
L 530.754241 353.121818 
L 531.361302 349.892438 
L 531.968364 340.520412 
L 532.575425 325.92314 
L 533.789549 287.14 
L 535.003672 248.35686 
L 535.610733 233.759588 
L 536.217795 224.387562 
L 536.824857 221.158182 
L 537.431918 224.387562 
L 538.03898 233.759588 
L 538.646041 248.35686 
L 539.860165 287.14 
L 541.074288 325.92314 
L 541.68135 340.520412 
L 542.288411 349.892438 
L 542.895473 353.121818 
L 543.502534 349.892438 
L 544.109596 340.520412 
L 544.716658 325.92314 
L 545.930781 287.14 
L 547.144904 248.35686 
L 547.751966 233.759588 
L 548.359027 224.387562 
L 548.966089 221.158182 
L 549.57315 224.387562 
L 550.180212 233.759588 
L 550.787274 248.35686 
L 552.001397 287.14 
L 553.21552 325.92314 
L 553.822582 340.520412 
L 554.429643 349.892438 
L 555.036705 353.121818 
L 555.643766 349.892438 
L 556.250828 340.520412 
L 556.85789 325.92314 
L 558.072013 287.14 
L 559.286136 248.35686 
L 559.893198 233.759588 
L 560.500259 224.387562 
L 561.107321 221.158182 
L 561.714383 224.387562 
L 562.321444 233.759588 
L 562.928506 248.35686 
L 564.142629 287.14 
L 565.356752 325.92314 
L 565.963814 340.520412 
L 566.570875 349.892438 
L 567.177937 353.121818 
L 567.784999 349.892438 
L 568.39206 340.520412 
L 568.999122 325.92314 
L 570.213245 287.14 
L 571.427368 248.35686 
L 572.03443 233.759588 
L 572.641491 224.387562 
L 573.248553 221.158182 
L 573.855615 224.387562 
L 574.462676 233.759588 
L 575.069738 248.35686 
L 576.283861 287.14 
L 577.497984 325.92314 
L 578.105046 340.520412 
L 578.712108 349.892438 
L 579.319169 353.121818 
L 579.926231 349.892438 
L 580.533292 340.520412 
L 581.140354 325.92314 
L 582.354477 287.14 
L 583.5686 248.35686 
L 584.175662 233.759588 
L 584.782724 224.387562 
L 585.389785 221.158182 
L 585.996847 224.387562 
L 586.603908 233.759588 
L 587.21097 248.35686 
L 588.425093 287.14 
L 589.639216 325.92314 
L 590.246278 340.520412 
L 590.85334 349.892438 
L 591.460401 353.121818 
L 592.067463 349.892438 
L 592.674525 340.520412 
L 593.281586 325.92314 
L 594.495709 287.14 
L 595.709833 248.35686 
L 596.316894 233.759588 
L 596.923956 224.387562 
L 597.531017 221.158182 
L 598.138079 224.387562 
L 598.745141 233.759588 
L 599.352202 248.35686 
L 600.566325 287.14 
L 601.780449 325.92314 
L 602.38751 340.520412 
L 602.994572 349.892438 
L 603.601633 353.121818 
L 604.208695 349.892438 
L 604.815757 340.520412 
L 605.422818 325.92314 
L 606.636941 287.14 
L 607.851065 248.35686 
L 608.458126 233.759588 
L 609.065188 224.387562 
L 609.67225 221.158182 
L 610.279311 224.387562 
L 610.886373 233.759588 
L 611.493434 248.35686 
L 612.707558 287.14 
L 613.921681 325.92314 
L 614.528742 340.520412 
L 615.135804 349.892438 
L 615.742866 353.121818 
L 616.349927 349.892438 
L 616.956989 340.520412 
L 617.56405 325.92314 
L 618.778174 287.14 
L 619.992297 248.35686 
L 620.599358 233.759588 
L 621.20642 224.387562 
L 621.813482 221.158182 
L 622.420543 224.387562 
L 623.027605 233.759588 
L 623.634666 248.35686 
L 624.84879 287.14 
L 626.062913 325.92314 
L 626.669975 340.520412 
L 627.277036 349.892438 
L 627.884098 353.121818 
L 628.491159 349.892438 
L 629.098221 340.520412 
L 629.705283 325.92314 
L 630.919406 287.14 
L 632.133529 248.35686 
L 632.740591 233.759588 
L 633.347652 224.387562 
L 633.954714 221.158182 
L 634.561775 224.387562 
L 635.168837 233.759588 
L 635.775899 248.35686 
L 636.990022 287.14 
L 638.204145 325.92314 
L 638.811207 340.520412 
L 639.418268 349.892438 
L 640.02533 353.121818 
L 640.632391 349.892438 
L 641.239453 340.520412 
L 641.846515 325.92314 
L 643.060638 287.14 
L 644.274761 248.35686 
L 644.881823 233.759588 
L 645.488884 224.387562 
L 646.095946 221.158182 
L 646.703008 224.387562 
L 647.310069 233.759588 
L 647.917131 248.35686 
L 649.131254 287.14 
L 650.345377 325.92314 
L 650.952439 340.520412 
L 651.5595 349.892438 
L 652.166562 353.121818 
L 652.773624 349.892438 
L 653.380685 340.520412 
L 653.987747 325.92314 
L 655.20187 287.14 
L 656.415993 248.35686 
L 657.023055 233.759588 
L 657.630116 224.387562 
L 658.237178 221.158182 
L 658.84424 224.387562 
L 659.451301 233.759588 
L 660.058363 248.35686 
L 661.272486 287.14 
L 662.486609 325.92314 
L 663.093671 340.520412 
L 663.700733 349.892438 
L 664.307794 353.121818 
L 664.914856 349.892438 
L 665.521917 340.520412 
L 666.128979 325.92314 
L 667.343102 287.14 
L 668.557225 248.35686 
L 669.164287 233.759588 
L 669.771349 224.387562 
L 670.37841 221.158182 
L 670.985472 224.387562 
L 671.592533 233.759588 
L 672.199595 248.35686 
L 673.413718 287.14 
L 674.627841 325.92314 
L 675.234903 340.520412 
L 675.841965 349.892438 
L 676.449026 353.121818 
L 677.056088 349.892438 
L 677.66315 340.520412 
L 678.270211 325.92314 
L 678.877273 307.529503 
L 678.877273 307.529503 
" clip-path="url(#pf55124d4f1)" style="fill: none; stroke: #ffa500; stroke-width: 1.5; stroke-linecap: square"/>
   </g>
   <g id="patch_9">
    <path d="M 42.1 359.72 
L 42.1 214.56 
" style="fill: none; stroke: #000000; stroke-width: 0.8; stroke-linejoin: miter; stroke-linecap: square"/>
   </g>
   <g id="patch_10">
    <path d="M 709.2 359.72 
L 709.2 214.56 
" style="fill: none; stroke: #000000; stroke-width: 0.8; stroke-linejoin: miter; stroke-linecap: square"/>
   </g>
   <g id="patch_11">
    <path d="M 42.1 359.72 
L 709.2 359.72 
" style="fill: none; stroke: #000000; stroke-width: 0.8; stroke-linejoin: miter; stroke-linecap: square"/>
   </g>
   <g id="patch_12">
    <path d="M 42.1 214.56 
L 709.2 214.56 
" style="fill: none; stroke: #000000; stroke-width: 0.8; stroke-linejoin: miter; stroke-linecap: square"/>
   </g>
   <g id="text_25">
    <!-- Seasonal Component -->
    <g transform="translate(311.7875 208.56) scale(0.12 -0.12)">
     <defs>
      <path id="DejaVuSans-53" d="M 3425 4513 
L 3425 3897 
Q 3066 4069 2747 4153 
Q 2428 4238 2131 4238 
Q 1616 4238 1336 4038 
Q 1056 3838 1056 3469 
Q 1056 3159 1242 3001 
Q 1428 2844 1947 2747 
L 2328 2669 
Q 3034 2534 3370 2195 
Q 3706 1856 3706 1288 
Q 3706 609 3251 259 
Q 2797 -91 1919 -91 
Q 1588 -91 1214 -16 
Q 841 59 441 206 
L 441 856 
Q 825 641 1194 531 
Q 1563 422 1919 422 
Q 2459 422 2753 634 
Q 3047 847 3047 1241 
Q 3047 1584 2836 1778 
Q 2625 1972 2144 2069 
L 1759 2144 
Q 1053 2284 737 2584 
Q 422 2884 422 3419 
Q 422 4038 858 4394 
Q 1294 4750 2059 4750 
Q 2388 4750 2728 4690 
Q 3069 4631 3425 4513 
z
" transform="scale(0.015625)"/>
      <path id="DejaVuSans-61" d="M 2194 1759 
Q 1497 1759 1228 1600 
Q 959 1441 959 1056 
Q 959 750 1161 570 
Q 1363 391 1709 391 
Q 2188 391 2477 730 
Q 2766 1069 2766 1631 
L 2766 1759 
L 2194 1759 
z
M 3341 1997 
L 3341 0 
L 2766 0 
L 2766 531 
Q 2569 213 2275 61 
Q 1981 -91 1556 -91 
Q 1019 -91 701 211 
Q 384 513 384 1019 
Q 384 1609 779 1909 
Q 1175 2209 1959 2209 
L 2766 2209 
L 2766 2266 
Q 2766 2663 2505 2880 
Q 2244 3097 1772 3097 
Q 1472 3097 1187 3025 
Q 903 2953 641 2809 
L 641 3341 
Q 956 3463 1253 3523 
Q 1550 3584 1831 3584 
Q 2591 3584 2966 3190 
Q 3341 2797 3341 1997 
z
" transform="scale(0.015625)"/>
      <path id="DejaVuSans-73" d="M 2834 3397 
L 2834 2853 
Q 2591 2978 2328 3040 
Q 2066 3103 1784 3103 
Q 1356 3103 1142 2972 
Q 928 2841 928 2578 
Q 928 2378 1081 2264 
Q 1234 2150 1697 2047 
L 1894 2003 
Q 2506 1872 2764 1633 
Q 3022 1394 3022 966 
Q 3022 478 2636 193 
Q 2250 -91 1575 -91 
Q 1294 -91 989 -36 
Q 684 19 347 128 
L 347 722 
Q 666 556 975 473 
Q 1284 391 1588 391 
Q 1994 391 2212 530 
Q 2431 669 2431 922 
Q 2431 1156 2273 1281 
Q 2116 1406 1581 1522 
L 1381 1569 
Q 847 1681 609 1914 
Q 372 2147 372 2553 
Q 372 3047 722 3315 
Q 1072 3584 1716 3584 
Q 2034 3584 2315 3537 
Q 2597 3491 2834 3397 
z
" transform="scale(0.015625)"/>
      <path id="DejaVuSans-6c" d="M 603 4863 
L 1178 4863 
L 1178 0 
L 603 0 
L 603 4863 
z
" transform="scale(0.015625)"/>
     </defs>
     <use xlink:href="#DejaVuSans-53"/>
     <use xlink:href="#DejaVuSans-65" transform="translate(63.476562 0)"/>
     <use xlink:href="#DejaVuSans-61" transform="translate(125 0)"/>
     <use xlink:href="#DejaVuSans-73" transform="translate(186.279297 0)"/>
     <use xlink:href="#DejaVuSans-6f" transform="translate(238.378906 0)"/>
     <use xlink:href="#DejaVuSans-6e" transform="translate(299.560547 0)"/>
     <use xlink:href="#DejaVuSans-61" transform="translate(362.939453 0)"/>
     <use xlink:href="#DejaVuSans-6c" transform="translate(424.21875 0)"/>
     <use xlink:href="#DejaVuSans-20" transform="translate(452.001953 0)"/>
     <use xlink:href="#DejaVuSans-43" transform="translate(483.789062 0)"/>
     <use xlink:href="#DejaVuSans-6f" transform="translate(553.613281 0)"/>
     <use xlink:href="#DejaVuSans-6d" transform="translate(614.794922 0)"/>
     <use xlink:href="#DejaVuSans-70" transform="translate(712.207031 0)"/>
     <use xlink:href="#DejaVuSans-6f" transform="translate(775.683594 0)"/>
     <use xlink:href="#DejaVuSans-6e" transform="translate(836.865234 0)"/>
     <use xlink:href="#DejaVuSans-65" transform="translate(900.244141 0)"/>
     <use xlink:href="#DejaVuSans-6e" transform="translate(961.767578 0)"/>
     <use xlink:href="#DejaVuSans-74" transform="translate(1025.146484 0)"/>
    </g>
   </g>
   <g id="legend_2">
    <g id="patch_13">
     <path d="M 624.998438 295.979063 
L 702.2 295.979063 
Q 704.2 295.979063 704.2 293.979063 
L 704.2 280.300938 
Q 704.2 278.300938 702.2 278.300938 
L 624.998438 278.300938 
Q 622.998438 278.300938 622.998438 280.300938 
L 622.998438 293.979063 
Q 622.998438 295.979063 624.998438 295.979063 
z
" style="fill: #ffffff; opacity: 0.8; stroke: #cccccc; stroke-linejoin: miter"/>
    </g>
    <g id="line2d_48">
     <path d="M 626.998438 286.399375 
L 636.998438 286.399375 
L 646.998438 286.399375 
" style="fill: none; stroke: #ffa500; stroke-width: 1.5; stroke-linecap: square"/>
    </g>
    <g id="text_26">
     <!-- Seasonal -->
     <g transform="translate(654.998438 289.899375) scale(0.1 -0.1)">
      <use xlink:href="#DejaVuSans-53"/>
      <use xlink:href="#DejaVuSans-65" transform="translate(63.476562 0)"/>
      <use xlink:href="#DejaVuSans-61" transform="translate(125 0)"/>
      <use xlink:href="#DejaVuSans-73" transform="translate(186.279297 0)"/>
      <use xlink:href="#DejaVuSans-6f" transform="translate(238.378906 0)"/>
      <use xlink:href="#DejaVuSans-6e" transform="translate(299.560547 0)"/>
      <use xlink:href="#DejaVuSans-61" transform="translate(362.939453 0)"/>
      <use xlink:href="#DejaVuSans-6c" transform="translate(424.21875 0)"/>
     </g>
    </g>
   </g>
  </g>
  <g id="axes_3">
   <g id="patch_14">
    <path d="M 42.1 548.12 
L 709.2 548.12 
L 709.2 402.96 
L 42.1 402.96 
z
" style="fill: #ffffff"/>
   </g>
   <g id="matplotlib.axis_5">
    <g id="xtick_13">
     <g id="line2d_49">
      <path d="M 72.422727 548.12 
L 72.422727 402.96 
" clip-path="url(#p80b1464e19)" style="fill: none; stroke: #b0b0b0; stroke-width: 0.8; stroke-linecap: square"/>
     </g>
     <g id="line2d_50">
      <g>
       <use xlink:href="#m96ca3d654e" x="72.422727" y="548.12" style="stroke: #000000; stroke-width: 0.8"/>
      </g>
     </g>
     <g id="text_27">
      <!-- 0 -->
      <g transform="translate(69.241477 562.718438) scale(0.1 -0.1)">
       <use xlink:href="#DejaVuSans-30"/>
      </g>
     </g>
    </g>
    <g id="xtick_14">
     <g id="line2d_51">
      <path d="M 193.835049 548.12 
L 193.835049 402.96 
" clip-path="url(#p80b1464e19)" style="fill: none; stroke: #b0b0b0; stroke-width: 0.8; stroke-linecap: square"/>
     </g>
     <g id="line2d_52">
      <g>
       <use xlink:href="#m96ca3d654e" x="193.835049" y="548.12" style="stroke: #000000; stroke-width: 0.8"/>
      </g>
     </g>
     <g id="text_28">
      <!-- 200 -->
      <g transform="translate(184.291299 562.718438) scale(0.1 -0.1)">
       <use xlink:href="#DejaVuSans-32"/>
       <use xlink:href="#DejaVuSans-30" transform="translate(63.623047 0)"/>
       <use xlink:href="#DejaVuSans-30" transform="translate(127.246094 0)"/>
      </g>
     </g>
    </g>
    <g id="xtick_15">
     <g id="line2d_53">
      <path d="M 315.24737 548.12 
L 315.24737 402.96 
" clip-path="url(#p80b1464e19)" style="fill: none; stroke: #b0b0b0; stroke-width: 0.8; stroke-linecap: square"/>
     </g>
     <g id="line2d_54">
      <g>
       <use xlink:href="#m96ca3d654e" x="315.24737" y="548.12" style="stroke: #000000; stroke-width: 0.8"/>
      </g>
     </g>
     <g id="text_29">
      <!-- 400 -->
      <g transform="translate(305.70362 562.718438) scale(0.1 -0.1)">
       <use xlink:href="#DejaVuSans-34"/>
       <use xlink:href="#DejaVuSans-30" transform="translate(63.623047 0)"/>
       <use xlink:href="#DejaVuSans-30" transform="translate(127.246094 0)"/>
      </g>
     </g>
    </g>
    <g id="xtick_16">
     <g id="line2d_55">
      <path d="M 436.659692 548.12 
L 436.659692 402.96 
" clip-path="url(#p80b1464e19)" style="fill: none; stroke: #b0b0b0; stroke-width: 0.8; stroke-linecap: square"/>
     </g>
     <g id="line2d_56">
      <g>
       <use xlink:href="#m96ca3d654e" x="436.659692" y="548.12" style="stroke: #000000; stroke-width: 0.8"/>
      </g>
     </g>
     <g id="text_30">
      <!-- 600 -->
      <g transform="translate(427.115942 562.718438) scale(0.1 -0.1)">
       <use xlink:href="#DejaVuSans-36"/>
       <use xlink:href="#DejaVuSans-30" transform="translate(63.623047 0)"/>
       <use xlink:href="#DejaVuSans-30" transform="translate(127.246094 0)"/>
      </g>
     </g>
    </g>
    <g id="xtick_17">
     <g id="line2d_57">
      <path d="M 558.072013 548.12 
L 558.072013 402.96 
" clip-path="url(#p80b1464e19)" style="fill: none; stroke: #b0b0b0; stroke-width: 0.8; stroke-linecap: square"/>
     </g>
     <g id="line2d_58">
      <g>
       <use xlink:href="#m96ca3d654e" x="558.072013" y="548.12" style="stroke: #000000; stroke-width: 0.8"/>
      </g>
     </g>
     <g id="text_31">
      <!-- 800 -->
      <g transform="translate(548.528263 562.718438) scale(0.1 -0.1)">
       <use xlink:href="#DejaVuSans-38"/>
       <use xlink:href="#DejaVuSans-30" transform="translate(63.623047 0)"/>
       <use xlink:href="#DejaVuSans-30" transform="translate(127.246094 0)"/>
      </g>
     </g>
    </g>
    <g id="xtick_18">
     <g id="line2d_59">
      <path d="M 679.484334 548.12 
L 679.484334 402.96 
" clip-path="url(#p80b1464e19)" style="fill: none; stroke: #b0b0b0; stroke-width: 0.8; stroke-linecap: square"/>
     </g>
     <g id="line2d_60">
      <g>
       <use xlink:href="#m96ca3d654e" x="679.484334" y="548.12" style="stroke: #000000; stroke-width: 0.8"/>
      </g>
     </g>
     <g id="text_32">
      <!-- 1000 -->
      <g transform="translate(666.759334 562.718438) scale(0.1 -0.1)">
       <use xlink:href="#DejaVuSans-31"/>
       <use xlink:href="#DejaVuSans-30" transform="translate(63.623047 0)"/>
       <use xlink:href="#DejaVuSans-30" transform="translate(127.246094 0)"/>
       <use xlink:href="#DejaVuSans-30" transform="translate(190.869141 0)"/>
      </g>
     </g>
    </g>
   </g>
   <g id="matplotlib.axis_6">
    <g id="ytick_11">
     <g id="line2d_61">
      <path d="M 42.1 523.599503 
L 709.2 523.599503 
" clip-path="url(#p80b1464e19)" style="fill: none; stroke: #b0b0b0; stroke-width: 0.8; stroke-linecap: square"/>
     </g>
     <g id="line2d_62">
      <g>
       <use xlink:href="#mc7a03d22e7" x="42.1" y="523.599503" style="stroke: #000000; stroke-width: 0.8"/>
      </g>
     </g>
     <g id="text_33">
      <!-- 25 -->
      <g transform="translate(22.375 527.398721) scale(0.1 -0.1)">
       <use xlink:href="#DejaVuSans-32"/>
       <use xlink:href="#DejaVuSans-35" transform="translate(63.623047 0)"/>
      </g>
     </g>
    </g>
    <g id="ytick_12">
     <g id="line2d_63">
      <path d="M 42.1 496.120696 
L 709.2 496.120696 
" clip-path="url(#p80b1464e19)" style="fill: none; stroke: #b0b0b0; stroke-width: 0.8; stroke-linecap: square"/>
     </g>
     <g id="line2d_64">
      <g>
       <use xlink:href="#mc7a03d22e7" x="42.1" y="496.120696" style="stroke: #000000; stroke-width: 0.8"/>
      </g>
     </g>
     <g id="text_34">
      <!-- 30 -->
      <g transform="translate(22.375 499.919915) scale(0.1 -0.1)">
       <use xlink:href="#DejaVuSans-33"/>
       <use xlink:href="#DejaVuSans-30" transform="translate(63.623047 0)"/>
      </g>
     </g>
    </g>
    <g id="ytick_13">
     <g id="line2d_65">
      <path d="M 42.1 468.64189 
L 709.2 468.64189 
" clip-path="url(#p80b1464e19)" style="fill: none; stroke: #b0b0b0; stroke-width: 0.8; stroke-linecap: square"/>
     </g>
     <g id="line2d_66">
      <g>
       <use xlink:href="#mc7a03d22e7" x="42.1" y="468.64189" style="stroke: #000000; stroke-width: 0.8"/>
      </g>
     </g>
     <g id="text_35">
      <!-- 35 -->
      <g transform="translate(22.375 472.441109) scale(0.1 -0.1)">
       <use xlink:href="#DejaVuSans-33"/>
       <use xlink:href="#DejaVuSans-35" transform="translate(63.623047 0)"/>
      </g>
     </g>
    </g>
    <g id="ytick_14">
     <g id="line2d_67">
      <path d="M 42.1 441.163084 
L 709.2 441.163084 
" clip-path="url(#p80b1464e19)" style="fill: none; stroke: #b0b0b0; stroke-width: 0.8; stroke-linecap: square"/>
     </g>
     <g id="line2d_68">
      <g>
       <use xlink:href="#mc7a03d22e7" x="42.1" y="441.163084" style="stroke: #000000; stroke-width: 0.8"/>
      </g>
     </g>
     <g id="text_36">
      <!-- 40 -->
      <g transform="translate(22.375 444.962303) scale(0.1 -0.1)">
       <use xlink:href="#DejaVuSans-34"/>
       <use xlink:href="#DejaVuSans-30" transform="translate(63.623047 0)"/>
      </g>
     </g>
    </g>
    <g id="ytick_15">
     <g id="line2d_69">
      <path d="M 42.1 413.684278 
L 709.2 413.684278 
" clip-path="url(#p80b1464e19)" style="fill: none; stroke: #b0b0b0; stroke-width: 0.8; stroke-linecap: square"/>
     </g>
     <g id="line2d_70">
      <g>
       <use xlink:href="#mc7a03d22e7" x="42.1" y="413.684278" style="stroke: #000000; stroke-width: 0.8"/>
      </g>
     </g>
     <g id="text_37">
      <!-- 45 -->
      <g transform="translate(22.375 417.483497) scale(0.1 -0.1)">
       <use xlink:href="#DejaVuSans-34"/>
       <use xlink:href="#DejaVuSans-35" transform="translate(63.623047 0)"/>
      </g>
     </g>
    </g>
   </g>
   <g id="line2d_71">
    <path d="M 72.422727 529.353853 
L 73.63685 520.816659 
L 74.243912 524.360202 
L 74.850974 518.818769 
L 75.458035 510.479216 
L 76.065097 519.934689 
L 76.672159 517.846182 
L 77.27922 511.919112 
L 77.886282 523.469663 
L 78.493343 523.99191 
L 79.100405 534.106689 
L 79.707467 529.90485 
L 80.314528 532.143703 
L 80.92159 524.585034 
L 81.528651 536.022721 
L 82.135713 518.555044 
L 82.742775 531.191049 
L 83.349836 536.97436 
L 83.956898 523.919292 
L 85.171021 516.166495 
L 85.778083 513.263414 
L 86.385144 513.041298 
L 86.992206 518.537928 
L 87.599267 522.691497 
L 88.206329 512.315901 
L 88.813391 524.896249 
L 90.027514 508.466573 
L 90.634575 529.532224 
L 91.241637 525.49366 
L 91.848699 530.371878 
L 92.45576 523.642619 
L 93.669884 539.473407 
L 95.491068 523.865939 
L 96.09813 524.119145 
L 96.705192 514.057202 
L 97.312253 519.361112 
L 98.526376 515.093254 
L 99.133438 511.817225 
L 99.7405 511.916326 
L 100.347561 523.216581 
L 100.954623 524.270921 
L 101.561684 520.165843 
L 102.168746 531.817361 
L 102.775808 529.809392 
L 103.382869 526.298325 
L 103.989931 522.01295 
L 104.596992 532.853816 
L 105.204054 527.794635 
L 105.811116 534.303072 
L 106.418177 531.301444 
L 107.025239 529.610015 
L 107.6323 521.043384 
L 108.239362 523.466676 
L 108.846424 520.979079 
L 109.453485 529.133419 
L 110.060547 516.063695 
L 110.667609 523.805522 
L 111.27467 518.075308 
L 111.881732 509.146009 
L 112.488793 522.144407 
L 113.095855 520.635661 
L 113.702917 520.092075 
L 114.309978 523.723671 
L 114.91704 532.527821 
L 115.524101 522.905135 
L 116.131163 530.834924 
L 116.738225 536.845127 
L 117.345286 525.752584 
L 117.952348 538.916404 
L 118.559409 523.623162 
L 119.166471 525.059408 
L 119.773533 516.358176 
L 120.380594 532.02221 
L 120.987656 515.443593 
L 121.594717 518.454177 
L 122.201779 524.69259 
L 122.808841 511.874719 
L 123.415902 529.206673 
L 124.022964 517.515685 
L 124.630025 518.587804 
L 125.237087 524.405822 
L 125.844149 515.404165 
L 126.45121 523.458853 
L 127.058272 527.294127 
L 127.665334 532.958094 
L 128.272395 526.253198 
L 128.879457 521.684369 
L 129.486518 528.842086 
L 130.09358 520.005589 
L 130.700642 528.262883 
L 131.307703 533.777462 
L 131.914765 517.746855 
L 132.521826 528.05248 
L 133.128888 526.532916 
L 133.73595 512.358105 
L 134.343011 513.195718 
L 134.950073 501.110475 
L 135.557134 521.398243 
L 136.164196 521.2467 
L 136.771258 517.737476 
L 137.378319 519.389697 
L 137.985381 514.857073 
L 138.592442 529.785388 
L 139.199504 519.01511 
L 139.806566 523.005487 
L 140.413627 520.239056 
L 141.020689 528.71454 
L 141.62775 512.091429 
L 142.234812 528.932863 
L 142.841874 531.172735 
L 144.055997 531.479606 
L 144.663059 527.990426 
L 145.27012 530.178069 
L 145.877182 520.96587 
L 146.484243 517.610627 
L 147.091305 523.092186 
L 148.305428 516.691191 
L 148.91249 518.554775 
L 149.519551 508.79454 
L 150.126613 513.859022 
L 150.733675 521.413842 
L 151.947798 529.924739 
L 152.554859 529.882683 
L 153.161921 529.248737 
L 153.768983 523.114645 
L 154.376044 531.97514 
L 154.983106 528.645548 
L 155.590167 526.908985 
L 156.197229 527.745228 
L 156.804291 532.28096 
L 157.411352 521.351819 
L 158.018414 521.835067 
L 158.625475 512.177713 
L 159.232537 509.332012 
L 159.839599 511.989183 
L 160.44666 517.215266 
L 161.053722 519.832444 
L 161.660784 505.760651 
L 162.267845 526.080653 
L 162.874907 517.727112 
L 163.481968 526.274168 
L 164.08903 516.897472 
L 164.696092 518.600861 
L 165.303153 532.187265 
L 165.910215 526.787303 
L 167.124338 535.931901 
L 167.7314 521.089082 
L 168.338461 529.900995 
L 168.945523 518.301038 
L 169.552584 522.702778 
L 170.159646 524.199146 
L 170.766708 522.767219 
L 171.373769 518.929889 
L 171.980831 505.91838 
L 172.587892 519.004246 
L 173.194954 519.376966 
L 173.802016 515.731558 
L 174.409077 515.536407 
L 175.016139 521.289104 
L 175.6232 518.613435 
L 176.230262 519.019094 
L 176.837324 520.545119 
L 177.444385 524.820861 
L 178.051447 541.521818 
L 178.658509 525.832261 
L 179.26557 521.582545 
L 179.872632 528.822501 
L 180.479693 526.190596 
L 181.086755 512.409249 
L 181.693817 516.571495 
L 182.300878 514.95686 
L 182.90794 516.726873 
L 183.515001 515.750665 
L 184.122063 522.746284 
L 184.729125 513.183247 
L 185.336186 526.533137 
L 186.550309 513.945925 
L 187.157371 521.813035 
L 187.764433 524.453247 
L 188.371494 529.834486 
L 188.978556 521.023344 
L 189.585617 516.791345 
L 190.192679 521.897646 
L 190.799741 520.563675 
L 191.406802 518.855675 
L 192.013864 532.606823 
L 192.620925 523.432625 
L 193.227987 520.067497 
L 193.835049 523.579193 
L 194.44211 511.680062 
L 195.049172 521.098217 
L 195.656234 523.950986 
L 196.263295 510.159817 
L 196.870357 504.803686 
L 197.477418 522.846306 
L 198.08448 510.069993 
L 198.691542 516.267926 
L 199.298603 530.930066 
L 199.905665 520.901395 
L 200.512726 513.913132 
L 201.119788 518.445574 
L 201.72685 521.068719 
L 202.333911 529.877202 
L 202.940973 517.515989 
L 203.548034 529.791829 
L 204.155096 529.745175 
L 204.762158 517.483614 
L 205.369219 519.996515 
L 205.976281 518.257098 
L 206.583342 517.863312 
L 207.190404 517.769975 
L 207.797466 521.476662 
L 208.404527 511.533792 
L 209.011589 505.145086 
L 209.61865 512.59019 
L 210.225712 511.73382 
L 210.832774 522.126867 
L 211.439835 519.152479 
L 212.046897 522.37161 
L 212.653959 520.038342 
L 213.26102 524.088867 
L 213.868082 531.83552 
L 214.475143 520.860381 
L 215.082205 529.515872 
L 215.689267 529.702019 
L 216.296328 518.218888 
L 216.90339 518.311613 
L 217.510451 521.650559 
L 218.117513 524.269006 
L 218.724575 512.18121 
L 219.331636 514.210192 
L 219.938698 524.926889 
L 220.545759 519.253854 
L 221.152821 521.268912 
L 221.759883 510.508896 
L 222.366944 509.55498 
L 222.974006 507.563039 
L 223.581067 508.27879 
L 224.188129 520.881476 
L 224.795191 521.416259 
L 225.402252 524.141987 
L 226.009314 511.833826 
L 226.616375 526.806646 
L 227.223437 522.183479 
L 227.830499 531.130529 
L 228.43756 516.197492 
L 229.044622 527.276178 
L 229.651684 509.029261 
L 230.258745 504.664963 
L 230.865807 512.695536 
L 231.472868 510.199991 
L 232.07993 512.765287 
L 232.686992 511.389049 
L 233.294053 515.713642 
L 233.901115 513.393623 
L 234.508176 520.883671 
L 235.115238 521.830095 
L 235.7223 517.346389 
L 236.329361 526.025466 
L 236.936423 510.444474 
L 237.543484 517.12653 
L 238.150546 513.27465 
L 238.757608 514.82829 
L 239.364669 526.950134 
L 239.971731 516.33888 
L 240.578792 529.216389 
L 241.185854 519.328843 
L 241.792916 520.587619 
L 242.399977 519.765441 
L 243.007039 512.72182 
L 243.6141 510.758571 
L 244.221162 517.241003 
L 244.828224 512.435195 
L 245.435285 511.08743 
L 246.042347 509.297874 
L 246.649408 509.52744 
L 247.25647 510.089671 
L 247.863532 504.160988 
L 248.470593 508.159243 
L 249.077655 508.897184 
L 249.684717 521.510982 
L 250.291778 522.899722 
L 250.89884 518.810109 
L 251.505901 515.594772 
L 252.112963 521.103878 
L 252.720025 523.008484 
L 253.327086 521.515568 
L 253.934148 519.074287 
L 254.541209 524.558628 
L 255.148271 512.981757 
L 255.755333 516.134445 
L 256.362394 512.425389 
L 256.969456 515.181564 
L 258.183579 501.444894 
L 258.790641 508.897745 
L 259.397702 503.535957 
L 260.004764 509.279349 
L 260.611825 511.65729 
L 261.218887 515.075488 
L 261.825949 520.782774 
L 262.43301 518.309918 
L 263.040072 521.447352 
L 263.647133 510.564726 
L 264.254195 511.865412 
L 264.861257 508.358547 
L 265.468318 526.185172 
L 266.07538 517.884205 
L 266.682442 513.990549 
L 267.289503 508.314729 
L 267.896565 514.954826 
L 268.503626 510.064339 
L 269.110688 510.714756 
L 269.71775 512.134656 
L 270.324811 499.920862 
L 270.931873 509.783414 
L 271.538934 508.272917 
L 272.145996 501.546507 
L 272.753058 517.423014 
L 273.360119 513.589388 
L 273.967181 520.444892 
L 274.574242 521.904141 
L 275.181304 521.395879 
L 275.788366 515.356216 
L 277.002489 517.513785 
L 277.60955 507.736355 
L 278.216612 509.816377 
L 278.823674 503.175231 
L 279.430735 507.677907 
L 280.037797 507.619541 
L 280.644858 499.922127 
L 281.25192 502.756288 
L 281.858982 503.254332 
L 282.466043 510.722422 
L 283.073105 505.335508 
L 283.680167 516.588042 
L 284.89429 497.598726 
L 285.501351 514.922734 
L 286.108413 522.716835 
L 286.715475 513.024839 
L 287.322536 508.550533 
L 287.929598 519.121403 
L 288.536659 516.820322 
L 289.143721 522.641084 
L 289.750783 506.76205 
L 290.357844 517.950308 
L 290.964906 509.47953 
L 291.571967 508.757627 
L 292.179029 501.456565 
L 292.786091 511.637385 
L 293.393152 509.970674 
L 294.000214 507.750903 
L 294.607275 502.000703 
L 295.214337 502.12048 
L 295.821399 506.148006 
L 296.42846 500.027001 
L 297.035522 501.379363 
L 297.642583 513.239311 
L 298.249645 516.619435 
L 298.856707 506.993078 
L 299.463768 513.408413 
L 300.07083 513.233057 
L 300.677892 518.845805 
L 301.284953 512.050213 
L 301.892015 507.522616 
L 302.499076 507.259288 
L 303.106138 506.518822 
L 303.7132 498.955474 
L 304.320261 505.410227 
L 304.927323 498.0159 
L 305.534384 502.527269 
L 306.141446 497.400305 
L 306.748508 500.858509 
L 307.355569 498.481124 
L 307.962631 504.13273 
L 308.569692 512.37338 
L 309.176754 505.862328 
L 309.783816 515.847733 
L 310.390877 516.023899 
L 310.997939 516.887647 
L 311.605 512.991708 
L 312.212062 516.177334 
L 312.819124 507.095054 
L 313.426185 513.818596 
L 314.033247 512.672411 
L 314.640308 510.74503 
L 315.24737 507.307775 
L 315.854432 507.164823 
L 316.461493 502.360638 
L 317.068555 495.247667 
L 317.675617 495.977753 
L 318.282678 504.381126 
L 318.88974 508.837871 
L 319.496801 502.545066 
L 320.103863 502.077068 
L 320.710925 501.858598 
L 321.317986 504.307658 
L 321.925048 509.537904 
L 322.532109 506.781048 
L 323.139171 513.281889 
L 323.746233 510.416943 
L 324.353294 503.930497 
L 324.960356 513.473333 
L 325.567417 510.106887 
L 326.174479 514.795452 
L 326.781541 502.692022 
L 327.388602 506.085618 
L 327.995664 493.469002 
L 328.602725 494.524685 
L 329.209787 506.83024 
L 329.816849 489.44954 
L 330.42391 513.759507 
L 331.030972 495.887873 
L 331.638033 496.215053 
L 332.852157 507.200114 
L 333.459218 506.660087 
L 334.06628 507.923571 
L 334.673342 507.830977 
L 335.280403 497.580387 
L 335.887465 521.440678 
L 336.494526 518.268689 
L 337.101588 508.749642 
L 337.70865 501.531485 
L 338.315711 507.574986 
L 338.922773 507.672747 
L 339.529834 512.379485 
L 340.136896 503.502404 
L 340.743958 503.496391 
L 341.351019 499.742991 
L 341.958081 499.235269 
L 342.565142 487.465605 
L 343.172204 500.317588 
L 343.779266 505.036478 
L 344.386327 508.143111 
L 344.993389 505.490146 
L 345.60045 505.3375 
L 346.207512 507.38046 
L 346.814574 502.985807 
L 347.421635 497.062864 
L 348.028697 508.32763 
L 348.635758 504.636695 
L 349.24282 516.678069 
L 349.849882 520.5459 
L 351.064005 505.188574 
L 351.671067 502.965244 
L 352.278128 503.319664 
L 352.88519 493.906451 
L 353.492251 494.34947 
L 354.099313 490.171448 
L 354.706375 496.332791 
L 355.313436 493.246198 
L 355.920498 511.600728 
L 356.527559 493.0224 
L 357.741683 513.78181 
L 358.348744 496.978207 
L 358.955806 499.546592 
L 359.562867 495.079639 
L 360.169929 502.284458 
L 361.384052 510.024472 
L 361.991114 502.349656 
L 362.598175 509.407918 
L 363.205237 498.436753 
L 363.812299 500.19553 
L 364.41936 501.078683 
L 365.026422 502.19915 
L 365.633483 495.744141 
L 366.240545 483.556679 
L 366.847607 501.452471 
L 367.454668 496.277785 
L 368.06173 496.849538 
L 368.668792 497.955854 
L 369.275853 490.539987 
L 369.882915 495.532501 
L 370.489976 499.040635 
L 371.097038 490.738874 
L 371.7041 500.424696 
L 372.311161 508.161613 
L 372.918223 500.507516 
L 373.525284 506.958405 
L 374.132346 509.813028 
L 374.739408 501.560161 
L 375.346469 503.559455 
L 375.953531 499.248565 
L 376.560592 504.133298 
L 377.167654 491.431823 
L 377.774716 487.736353 
L 378.381777 494.507627 
L 378.988839 497.060795 
L 379.5959 481.663562 
L 380.810024 495.344358 
L 381.417085 497.503741 
L 382.024147 487.737943 
L 382.631208 509.764773 
L 383.23827 489.809137 
L 383.845332 504.939823 
L 384.452393 502.044544 
L 385.059455 493.296891 
L 385.666517 500.573302 
L 386.273578 487.362199 
L 386.88064 489.936906 
L 387.487701 497.977753 
L 388.094763 514.860804 
L 388.701825 485.760751 
L 389.915948 489.476725 
L 390.523009 483.831083 
L 391.130071 494.731637 
L 391.737133 496.414985 
L 392.344194 484.980257 
L 392.951256 485.962656 
L 393.558317 487.424826 
L 394.165379 485.296168 
L 394.772441 492.416405 
L 395.379502 501.943375 
L 395.986564 507.235031 
L 396.593625 498.461305 
L 397.200687 494.705079 
L 397.807749 505.156503 
L 398.41481 491.315431 
L 399.021872 497.06402 
L 399.628933 496.768016 
L 400.235995 500.515117 
L 400.843057 490.602693 
L 401.450118 490.545547 
L 402.05718 493.246522 
L 402.664242 487.71021 
L 403.271303 498.596795 
L 403.878365 475.160967 
L 405.092488 502.277554 
L 405.69955 491.670916 
L 406.306611 500.408454 
L 406.913673 497.288446 
L 407.520734 494.969515 
L 408.127796 489.436839 
L 408.734858 505.776269 
L 409.341919 499.395266 
L 409.948981 507.381564 
L 410.556042 503.590685 
L 411.163104 501.771691 
L 411.770166 488.043021 
L 412.377227 492.782924 
L 412.984289 489.32392 
L 413.59135 488.056672 
L 414.198412 485.903809 
L 414.805474 488.416545 
L 415.412535 478.883045 
L 416.019597 486.535635 
L 416.626658 483.068554 
L 417.840782 497.99823 
L 418.447843 487.39626 
L 419.054905 492.776569 
L 419.661967 492.116784 
L 420.269028 496.372479 
L 420.87609 482.917309 
L 421.483151 485.398144 
L 422.090213 487.028567 
L 422.697275 497.187173 
L 423.304336 502.228794 
L 424.518459 483.471475 
L 425.125521 494.773404 
L 425.732583 478.302886 
L 426.946706 485.512534 
L 427.553767 484.106474 
L 428.160829 479.421041 
L 428.767891 486.929591 
L 429.374952 483.34685 
L 429.982014 488.172649 
L 430.589075 489.44845 
L 431.196137 487.547449 
L 431.803199 487.449912 
L 432.41026 485.384783 
L 433.017322 493.568299 
L 433.624383 489.870851 
L 434.231445 489.736999 
L 434.838507 493.398251 
L 435.445568 494.174864 
L 436.05263 482.892558 
L 436.659692 486.02309 
L 437.266753 485.993767 
L 437.873815 479.550454 
L 438.480876 481.743843 
L 439.087938 478.049743 
L 439.695 485.165525 
L 440.302061 472.707012 
L 440.909123 475.140906 
L 441.516184 485.121755 
L 442.123246 472.857828 
L 442.730308 486.463168 
L 443.337369 488.648753 
L 443.944431 485.049069 
L 444.551492 488.372074 
L 445.158554 495.302705 
L 445.765616 476.547899 
L 446.372677 482.311058 
L 446.979739 492.085906 
L 447.5868 495.926581 
L 448.193862 478.358318 
L 448.800924 472.64909 
L 449.407985 486.082258 
L 450.015047 472.595288 
L 450.622108 477.789935 
L 451.22917 485.360512 
L 451.836232 476.481108 
L 452.443293 472.984146 
L 453.657417 483.695581 
L 454.264478 477.50657 
L 454.87154 481.289756 
L 455.478601 480.484173 
L 456.085663 482.071302 
L 456.692725 479.061136 
L 457.299786 478.141685 
L 457.906848 486.321326 
L 458.513909 483.607167 
L 459.120971 483.45822 
L 459.728033 483.095362 
L 460.335094 479.697401 
L 460.942156 487.100821 
L 462.156279 481.784055 
L 462.763341 474.886066 
L 463.370402 480.992424 
L 463.977464 468.597908 
L 464.584525 473.524442 
L 465.191587 483.848103 
L 465.798649 474.363292 
L 466.40571 477.881875 
L 467.012772 483.650681 
L 467.619833 471.781055 
L 468.226895 474.677269 
L 468.833957 488.150411 
L 469.441018 491.410553 
L 470.04808 483.486284 
L 470.655142 479.315287 
L 471.262203 482.611998 
L 471.869265 483.574683 
L 472.476326 479.359813 
L 473.083388 474.349551 
L 473.69045 478.565056 
L 474.297511 469.324461 
L 474.904573 466.783525 
L 475.511634 474.070312 
L 476.118696 469.974735 
L 476.725758 470.328383 
L 477.332819 469.682248 
L 477.939881 461.893551 
L 478.546942 470.797502 
L 479.154004 485.03653 
L 479.761066 473.443446 
L 480.368127 487.436369 
L 480.975189 477.650828 
L 481.58225 477.285914 
L 482.189312 478.772446 
L 482.796374 476.498909 
L 483.403435 463.677609 
L 484.617558 490.298931 
L 485.22462 475.673242 
L 485.831682 467.996142 
L 486.438743 467.528403 
L 487.045805 470.092374 
L 487.652867 475.979887 
L 488.259928 476.380876 
L 488.86699 477.72287 
L 490.081113 455.506485 
L 490.688175 468.073909 
L 491.295236 472.979887 
L 491.902298 468.530142 
L 492.509359 468.452034 
L 493.116421 483.006784 
L 493.723483 482.439591 
L 494.330544 480.966521 
L 494.937606 476.20851 
L 495.544667 465.661391 
L 496.758791 480.82901 
L 497.365852 476.749968 
L 497.972914 474.705077 
L 498.579975 466.598728 
L 499.187037 467.816268 
L 499.794099 462.041374 
L 501.008222 473.507125 
L 501.615283 469.824673 
L 502.222345 473.230235 
L 502.829407 478.552002 
L 503.436468 468.652324 
L 504.04353 469.29128 
L 504.650592 480.132125 
L 505.257653 479.42454 
L 505.864715 468.311174 
L 506.471776 486.925447 
L 507.078838 469.26787 
L 507.6859 479.737729 
L 508.292961 465.762181 
L 508.900023 470.171243 
L 509.507084 461.163603 
L 510.114146 472.044197 
L 510.721208 466.147502 
L 511.328269 473.687979 
L 511.935331 458.079366 
L 512.542392 462.649248 
L 513.149454 472.733445 
L 513.756516 459.374242 
L 514.363577 464.731283 
L 514.970639 467.58394 
L 515.5777 462.016501 
L 516.184762 471.746345 
L 516.791824 467.486287 
L 517.398885 470.010511 
L 518.613008 472.482941 
L 519.22007 471.947427 
L 519.827132 475.652823 
L 520.434193 468.8657 
L 521.041255 474.371095 
L 521.648316 471.218438 
L 522.255378 453.206738 
L 522.86244 469.402346 
L 523.469501 455.025261 
L 524.076563 460.110595 
L 524.683625 461.079727 
L 525.290686 473.743864 
L 525.897748 465.937781 
L 526.504809 455.688813 
L 527.111871 456.15748 
L 527.718933 467.232631 
L 528.325994 461.586097 
L 528.933056 458.920808 
L 529.540117 463.70579 
L 530.147179 466.602179 
L 530.754241 461.717867 
L 531.361302 478.556046 
L 531.968364 467.198262 
L 532.575425 461.968782 
L 533.182487 459.184488 
L 533.789549 466.204799 
L 534.39661 461.956576 
L 535.003672 454.869621 
L 535.610733 453.18329 
L 536.217795 453.785666 
L 536.824857 458.617798 
L 537.431918 455.707482 
L 538.03898 438.692022 
L 538.646041 457.085206 
L 539.253103 456.629944 
L 539.860165 453.050704 
L 540.467226 466.002449 
L 541.074288 454.11253 
L 541.68135 460.076069 
L 542.288411 469.28123 
L 542.895473 458.985584 
L 543.502534 466.500402 
L 544.109596 460.843285 
L 544.716658 468.2625 
L 545.323719 469.128183 
L 545.930781 465.640283 
L 546.537842 456.277289 
L 547.144904 451.413897 
L 547.751966 457.540262 
L 548.359027 456.844793 
L 548.966089 459.029385 
L 549.57315 451.502214 
L 550.180212 449.498825 
L 550.787274 459.130534 
L 551.394335 452.707238 
L 552.001397 466.638318 
L 552.608458 470.60941 
L 553.21552 460.562609 
L 553.822582 459.665027 
L 554.429643 465.199551 
L 555.036705 459.949764 
L 555.643766 462.162916 
L 556.250828 460.52164 
L 556.85789 462.312264 
L 557.464951 447.517822 
L 558.072013 454.65094 
L 558.679075 455.731589 
L 559.286136 455.369016 
L 559.893198 456.271306 
L 560.500259 454.622811 
L 561.107321 450.919558 
L 561.714383 442.459192 
L 562.321444 448.559023 
L 562.928506 452.29682 
L 563.535567 454.388965 
L 564.142629 446.916395 
L 564.749691 462.888542 
L 565.356752 446.894914 
L 565.963814 450.328228 
L 566.570875 456.709439 
L 567.177937 470.436993 
L 567.784999 454.869281 
L 568.39206 459.792654 
L 568.999122 467.990597 
L 569.606183 456.742746 
L 570.213245 448.786541 
L 570.820307 457.156167 
L 571.427368 437.931466 
L 572.03443 456.089047 
L 572.641491 447.51851 
L 573.248553 448.784894 
L 573.855615 450.741833 
L 574.462676 442.276781 
L 575.069738 441.1758 
L 576.283861 452.209364 
L 576.890923 445.264429 
L 577.497984 459.183531 
L 578.105046 450.666775 
L 578.712108 452.519481 
L 579.319169 455.513349 
L 579.926231 461.583991 
L 580.533292 446.659648 
L 581.140354 453.09817 
L 581.747416 445.269281 
L 582.354477 446.785971 
L 582.961539 456.885062 
L 583.5686 440.006412 
L 584.175662 447.552653 
L 584.782724 434.038711 
L 585.389785 441.428206 
L 585.996847 441.150041 
L 586.603908 446.532117 
L 587.21097 439.522993 
L 587.818032 440.422622 
L 588.425093 446.919544 
L 589.032155 444.710417 
L 589.639216 445.093256 
L 590.246278 449.902963 
L 590.85334 445.96286 
L 591.460401 453.195241 
L 592.067463 451.107325 
L 592.674525 452.336706 
L 593.281586 448.498592 
L 593.888648 447.524588 
L 594.495709 457.945364 
L 595.102771 450.329161 
L 595.709833 436.694947 
L 596.316894 440.586156 
L 596.923956 443.095655 
L 597.531017 450.739128 
L 598.138079 436.529904 
L 598.745141 440.417603 
L 599.959264 435.158608 
L 600.566325 443.36883 
L 601.780449 455.461566 
L 602.38751 439.950468 
L 602.994572 449.064934 
L 603.601633 449.065708 
L 604.208695 447.01655 
L 604.815757 448.574547 
L 605.422818 442.359455 
L 606.02988 444.545228 
L 606.636941 437.654734 
L 607.244003 438.985585 
L 607.851065 433.913679 
L 608.458126 430.767028 
L 609.065188 440.159604 
L 609.67225 424.090014 
L 610.279311 437.121242 
L 610.886373 432.563124 
L 611.493434 434.748449 
L 612.100496 439.350424 
L 612.707558 441.285299 
L 613.314619 442.342973 
L 613.921681 447.738513 
L 614.528742 441.086072 
L 615.135804 445.37426 
L 615.742866 441.420398 
L 616.349927 435.654405 
L 616.956989 444.314076 
L 617.56405 442.205338 
L 618.171112 447.275677 
L 618.778174 439.564787 
L 619.385235 433.890817 
L 619.992297 433.54815 
L 620.599358 430.518481 
L 621.20642 426.570778 
L 621.813482 428.614961 
L 622.420543 425.751491 
L 623.027605 420.215972 
L 623.634666 434.924356 
L 624.241728 436.192485 
L 624.84879 436.163541 
L 625.455851 442.48898 
L 626.062913 430.969769 
L 626.669975 441.314442 
L 627.277036 440.106432 
L 627.884098 443.274217 
L 628.491159 439.552449 
L 629.098221 433.985421 
L 629.705283 440.008639 
L 630.312344 419.855116 
L 630.919406 439.616168 
L 631.526467 433.617822 
L 632.133529 429.920997 
L 632.740591 428.757026 
L 633.347652 418.621614 
L 633.954714 419.628621 
L 634.561775 417.386397 
L 635.168837 425.082981 
L 635.775899 428.523058 
L 636.38296 438.447288 
L 636.990022 433.751287 
L 637.597083 422.586335 
L 638.811207 438.022374 
L 639.418268 438.699752 
L 640.02533 436.679209 
L 641.239453 422.982867 
L 641.846515 434.824138 
L 642.453576 426.612579 
L 643.060638 432.446163 
L 643.6677 431.034479 
L 644.274761 433.929382 
L 645.488884 417.73154 
L 646.095946 423.794071 
L 646.703008 420.650531 
L 647.310069 428.653665 
L 647.917131 421.054738 
L 648.524192 432.772856 
L 649.131254 418.639477 
L 649.738316 423.829106 
L 650.345377 421.45633 
L 650.952439 437.751922 
L 651.5595 422.911871 
L 652.166562 434.987877 
L 652.773624 426.92855 
L 653.380685 428.989505 
L 654.594808 428.004169 
L 655.20187 433.058504 
L 655.808932 424.536679 
L 656.415993 424.756846 
L 657.023055 417.939637 
L 657.630116 415.750738 
L 658.237178 419.836891 
L 658.84424 421.478467 
L 659.451301 412.293105 
L 660.058363 428.105898 
L 660.665425 422.135886 
L 661.272486 418.612755 
L 661.879548 421.330151 
L 662.486609 420.016661 
L 663.093671 432.235223 
L 663.700733 426.545411 
L 664.307794 433.163645 
L 664.914856 418.154891 
L 665.521917 432.159295 
L 666.128979 420.395229 
L 666.736041 424.033989 
L 667.343102 421.35731 
L 667.950164 423.88488 
L 668.557225 418.867113 
L 669.164287 411.652315 
L 669.771349 409.558182 
L 670.37841 418.624214 
L 670.985472 420.41784 
L 671.592533 416.157389 
L 672.199595 414.96442 
L 672.806657 411.909093 
L 673.413718 412.432179 
L 674.02078 419.82045 
L 674.627841 419.437479 
L 675.234903 428.979228 
L 675.841965 425.756774 
L 676.449026 428.207514 
L 677.056088 421.334563 
L 677.66315 425.210596 
L 678.270211 420.793795 
L 678.877273 424.442852 
L 678.877273 424.442852 
" clip-path="url(#p80b1464e19)" style="fill: none; stroke: #008000; stroke-width: 1.5; stroke-linecap: square"/>
   </g>
   <g id="patch_15">
    <path d="M 42.1 548.12 
L 42.1 402.96 
" style="fill: none; stroke: #000000; stroke-width: 0.8; stroke-linejoin: miter; stroke-linecap: square"/>
   </g>
   <g id="patch_16">
    <path d="M 709.2 548.12 
L 709.2 402.96 
" style="fill: none; stroke: #000000; stroke-width: 0.8; stroke-linejoin: miter; stroke-linecap: square"/>
   </g>
   <g id="patch_17">
    <path d="M 42.1 548.12 
L 709.2 548.12 
" style="fill: none; stroke: #000000; stroke-width: 0.8; stroke-linejoin: miter; stroke-linecap: square"/>
   </g>
   <g id="patch_18">
    <path d="M 42.1 402.96 
L 709.2 402.96 
" style="fill: none; stroke: #000000; stroke-width: 0.8; stroke-linejoin: miter; stroke-linecap: square"/>
   </g>
   <g id="text_38">
    <!-- Observed Data (Trend + Seasonal + Noise) -->
    <g transform="translate(246.096875 396.96) scale(0.12 -0.12)">
     <defs>
      <path id="DejaVuSans-4f" d="M 2522 4238 
Q 1834 4238 1429 3725 
Q 1025 3213 1025 2328 
Q 1025 1447 1429 934 
Q 1834 422 2522 422 
Q 3209 422 3611 934 
Q 4013 1447 4013 2328 
Q 4013 3213 3611 3725 
Q 3209 4238 2522 4238 
z
M 2522 4750 
Q 3503 4750 4090 4092 
Q 4678 3434 4678 2328 
Q 4678 1225 4090 567 
Q 3503 -91 2522 -91 
Q 1538 -91 948 565 
Q 359 1222 359 2328 
Q 359 3434 948 4092 
Q 1538 4750 2522 4750 
z
" transform="scale(0.015625)"/>
      <path id="DejaVuSans-62" d="M 3116 1747 
Q 3116 2381 2855 2742 
Q 2594 3103 2138 3103 
Q 1681 3103 1420 2742 
Q 1159 2381 1159 1747 
Q 1159 1113 1420 752 
Q 1681 391 2138 391 
Q 2594 391 2855 752 
Q 3116 1113 3116 1747 
z
M 1159 2969 
Q 1341 3281 1617 3432 
Q 1894 3584 2278 3584 
Q 2916 3584 3314 3078 
Q 3713 2572 3713 1747 
Q 3713 922 3314 415 
Q 2916 -91 2278 -91 
Q 1894 -91 1617 61 
Q 1341 213 1159 525 
L 1159 0 
L 581 0 
L 581 4863 
L 1159 4863 
L 1159 2969 
z
" transform="scale(0.015625)"/>
      <path id="DejaVuSans-76" d="M 191 3500 
L 800 3500 
L 1894 563 
L 2988 3500 
L 3597 3500 
L 2284 0 
L 1503 0 
L 191 3500 
z
" transform="scale(0.015625)"/>
      <path id="DejaVuSans-44" d="M 1259 4147 
L 1259 519 
L 2022 519 
Q 2988 519 3436 956 
Q 3884 1394 3884 2338 
Q 3884 3275 3436 3711 
Q 2988 4147 2022 4147 
L 1259 4147 
z
M 628 4666 
L 1925 4666 
Q 3281 4666 3915 4102 
Q 4550 3538 4550 2338 
Q 4550 1131 3912 565 
Q 3275 0 1925 0 
L 628 0 
L 628 4666 
z
" transform="scale(0.015625)"/>
      <path id="DejaVuSans-28" d="M 1984 4856 
Q 1566 4138 1362 3434 
Q 1159 2731 1159 2009 
Q 1159 1288 1364 580 
Q 1569 -128 1984 -844 
L 1484 -844 
Q 1016 -109 783 600 
Q 550 1309 550 2009 
Q 550 2706 781 3412 
Q 1013 4119 1484 4856 
L 1984 4856 
z
" transform="scale(0.015625)"/>
      <path id="DejaVuSans-2b" d="M 2944 4013 
L 2944 2272 
L 4684 2272 
L 4684 1741 
L 2944 1741 
L 2944 0 
L 2419 0 
L 2419 1741 
L 678 1741 
L 678 2272 
L 2419 2272 
L 2419 4013 
L 2944 4013 
z
" transform="scale(0.015625)"/>
      <path id="DejaVuSans-4e" d="M 628 4666 
L 1478 4666 
L 3547 763 
L 3547 4666 
L 4159 4666 
L 4159 0 
L 3309 0 
L 1241 3903 
L 1241 0 
L 628 0 
L 628 4666 
z
" transform="scale(0.015625)"/>
      <path id="DejaVuSans-69" d="M 603 3500 
L 1178 3500 
L 1178 0 
L 603 0 
L 603 3500 
z
M 603 4863 
L 1178 4863 
L 1178 4134 
L 603 4134 
L 603 4863 
z
" transform="scale(0.015625)"/>
      <path id="DejaVuSans-29" d="M 513 4856 
L 1013 4856 
Q 1481 4119 1714 3412 
Q 1947 2706 1947 2009 
Q 1947 1309 1714 600 
Q 1481 -109 1013 -844 
L 513 -844 
Q 928 -128 1133 580 
Q 1338 1288 1338 2009 
Q 1338 2731 1133 3434 
Q 928 4138 513 4856 
z
" transform="scale(0.015625)"/>
     </defs>
     <use xlink:href="#DejaVuSans-4f"/>
     <use xlink:href="#DejaVuSans-62" transform="translate(78.710938 0)"/>
     <use xlink:href="#DejaVuSans-73" transform="translate(142.1875 0)"/>
     <use xlink:href="#DejaVuSans-65" transform="translate(194.287109 0)"/>
     <use xlink:href="#DejaVuSans-72" transform="translate(255.810547 0)"/>
     <use xlink:href="#DejaVuSans-76" transform="translate(296.923828 0)"/>
     <use xlink:href="#DejaVuSans-65" transform="translate(356.103516 0)"/>
     <use xlink:href="#DejaVuSans-64" transform="translate(417.626953 0)"/>
     <use xlink:href="#DejaVuSans-20" transform="translate(481.103516 0)"/>
     <use xlink:href="#DejaVuSans-44" transform="translate(512.890625 0)"/>
     <use xlink:href="#DejaVuSans-61" transform="translate(589.892578 0)"/>
     <use xlink:href="#DejaVuSans-74" transform="translate(651.171875 0)"/>
     <use xlink:href="#DejaVuSans-61" transform="translate(690.380859 0)"/>
     <use xlink:href="#DejaVuSans-20" transform="translate(751.660156 0)"/>
     <use xlink:href="#DejaVuSans-28" transform="translate(783.447266 0)"/>
     <use xlink:href="#DejaVuSans-54" transform="translate(822.460938 0)"/>
     <use xlink:href="#DejaVuSans-72" transform="translate(868.794922 0)"/>
     <use xlink:href="#DejaVuSans-65" transform="translate(907.658203 0)"/>
     <use xlink:href="#DejaVuSans-6e" transform="translate(969.181641 0)"/>
     <use xlink:href="#DejaVuSans-64" transform="translate(1032.560547 0)"/>
     <use xlink:href="#DejaVuSans-20" transform="translate(1096.037109 0)"/>
     <use xlink:href="#DejaVuSans-2b" transform="translate(1127.824219 0)"/>
     <use xlink:href="#DejaVuSans-20" transform="translate(1211.613281 0)"/>
     <use xlink:href="#DejaVuSans-53" transform="translate(1243.400391 0)"/>
     <use xlink:href="#DejaVuSans-65" transform="translate(1306.876953 0)"/>
     <use xlink:href="#DejaVuSans-61" transform="translate(1368.400391 0)"/>
     <use xlink:href="#DejaVuSans-73" transform="translate(1429.679688 0)"/>
     <use xlink:href="#DejaVuSans-6f" transform="translate(1481.779297 0)"/>
     <use xlink:href="#DejaVuSans-6e" transform="translate(1542.960938 0)"/>
     <use xlink:href="#DejaVuSans-61" transform="translate(1606.339844 0)"/>
     <use xlink:href="#DejaVuSans-6c" transform="translate(1667.619141 0)"/>
     <use xlink:href="#DejaVuSans-20" transform="translate(1695.402344 0)"/>
     <use xlink:href="#DejaVuSans-2b" transform="translate(1727.189453 0)"/>
     <use xlink:href="#DejaVuSans-20" transform="translate(1810.978516 0)"/>
     <use xlink:href="#DejaVuSans-4e" transform="translate(1842.765625 0)"/>
     <use xlink:href="#DejaVuSans-6f" transform="translate(1917.570312 0)"/>
     <use xlink:href="#DejaVuSans-69" transform="translate(1978.751953 0)"/>
     <use xlink:href="#DejaVuSans-73" transform="translate(2006.535156 0)"/>
     <use xlink:href="#DejaVuSans-65" transform="translate(2058.634766 0)"/>
     <use xlink:href="#DejaVuSans-29" transform="translate(2120.158203 0)"/>
    </g>
   </g>
   <g id="legend_3">
    <g id="patch_19">
     <path d="M 49.1 425.638125 
L 156.26875 425.638125 
Q 158.26875 425.638125 158.26875 423.638125 
L 158.26875 409.96 
Q 158.26875 407.96 156.26875 407.96 
L 49.1 407.96 
Q 47.1 407.96 47.1 409.96 
L 47.1 423.638125 
Q 47.1 425.638125 49.1 425.638125 
z
" style="fill: #ffffff; opacity: 0.8; stroke: #cccccc; stroke-linejoin: miter"/>
    </g>
    <g id="line2d_72">
     <path d="M 51.1 416.058437 
L 61.1 416.058437 
L 71.1 416.058437 
" style="fill: none; stroke: #008000; stroke-width: 1.5; stroke-linecap: square"/>
    </g>
    <g id="text_39">
     <!-- Observed Data -->
     <g transform="translate(79.1 419.558437) scale(0.1 -0.1)">
      <use xlink:href="#DejaVuSans-4f"/>
      <use xlink:href="#DejaVuSans-62" transform="translate(78.710938 0)"/>
      <use xlink:href="#DejaVuSans-73" transform="translate(142.1875 0)"/>
      <use xlink:href="#DejaVuSans-65" transform="translate(194.287109 0)"/>
      <use xlink:href="#DejaVuSans-72" transform="translate(255.810547 0)"/>
      <use xlink:href="#DejaVuSans-76" transform="translate(296.923828 0)"/>
      <use xlink:href="#DejaVuSans-65" transform="translate(356.103516 0)"/>
      <use xlink:href="#DejaVuSans-64" transform="translate(417.626953 0)"/>
      <use xlink:href="#DejaVuSans-20" transform="translate(481.103516 0)"/>
      <use xlink:href="#DejaVuSans-44" transform="translate(512.890625 0)"/>
      <use xlink:href="#DejaVuSans-61" transform="translate(589.892578 0)"/>
      <use xlink:href="#DejaVuSans-74" transform="translate(651.171875 0)"/>
      <use xlink:href="#DejaVuSans-61" transform="translate(690.380859 0)"/>
     </g>
    </g>
   </g>
  </g>
 </g>
 <defs>
  <clipPath id="p72f32f8e4f">
   <rect x="42.1" y="26.16" width="667.1" height="145.16"/>
  </clipPath>
  <clipPath id="pf55124d4f1">
   <rect x="42.1" y="214.56" width="667.1" height="145.16"/>
  </clipPath>
  <clipPath id="p80b1464e19">
   <rect x="42.1" y="402.96" width="667.1" height="145.16"/>
  </clipPath>
 </defs>
</svg>
