<?xml version="1.0" encoding="utf-8" standalone="no"?>
<!DOCTYPE svg PUBLIC "-//W3C//DTD SVG 1.1//EN"
  "http://www.w3.org/Graphics/SVG/1.1/DTD/svg11.dtd">
<svg xmlns:xlink="http://www.w3.org/1999/xlink" width="460.8pt" height="345.6pt" viewBox="0 0 460.8 345.6" xmlns="http://www.w3.org/2000/svg" version="1.1">
 <metadata>
  <rdf:RDF xmlns:dc="http://purl.org/dc/elements/1.1/" xmlns:cc="http://creativecommons.org/ns#" xmlns:rdf="http://www.w3.org/1999/02/22-rdf-syntax-ns#">
   <cc:Work>
    <dc:type rdf:resource="http://purl.org/dc/dcmitype/StillImage"/>
    <dc:date>2025-11-25T15:09:04.144424</dc:date>
    <dc:format>image/svg+xml</dc:format>
    <dc:creator>
     <cc:Agent>
      <dc:title>Matplotlib v3.10.6, https://matplotlib.org/</dc:title>
     </cc:Agent>
    </dc:creator>
   </cc:Work>
  </rdf:RDF>
 </metadata>
 <defs>
  <style type="text/css">*{stroke-linejoin: round; stroke-linecap: butt}</style>
 </defs>
 <g id="figure_1">
  <g id="patch_1">
   <path d="M 0 345.6 
L 460.8 345.6 
L 460.8 0 
L 0 0 
z
" style="fill: #ffffff"/>
  </g>
  <g id="axes_1">
   <g id="patch_2">
    <path d="M 51.005 265.481175 
L 450 265.481175 
L 450 26.7 
L 51.005 26.7 
z
" style="fill: #ffffff"/>
   </g>
   <g id="matplotlib.axis_1">
    <g id="xtick_1">
     <g id="line2d_1">
      <path d="M 81.24871 265.481175 
L 81.24871 26.7 
" clip-path="url(#p1d835d6417)" style="fill: none; stroke: #b0b0b0; stroke-opacity: 0.3; stroke-width: 0.8; stroke-linecap: square"/>
     </g>
     <g id="line2d_2">
      <defs>
       <path id="m006ebd2c5f" d="M 0 0 
L 0 3.5 
" style="stroke: #000000; stroke-width: 0.8"/>
      </defs>
      <g>
       <use xlink:href="#m006ebd2c5f" x="81.24871" y="265.481175" style="stroke: #000000; stroke-width: 0.8"/>
      </g>
     </g>
     <g id="text_1">
      <!-- 2012-10-09 -->
      <g transform="translate(62.652907 318.948035) rotate(-45) scale(0.1 -0.1)">
       <defs>
        <path id="DejaVuSans-32" d="M 1228 531 
L 3431 531 
L 3431 0 
L 469 0 
L 469 531 
Q 828 903 1448 1529 
Q 2069 2156 2228 2338 
Q 2531 2678 2651 2914 
Q 2772 3150 2772 3378 
Q 2772 3750 2511 3984 
Q 2250 4219 1831 4219 
Q 1534 4219 1204 4116 
Q 875 4013 500 3803 
L 500 4441 
Q 881 4594 1212 4672 
Q 1544 4750 1819 4750 
Q 2544 4750 2975 4387 
Q 3406 4025 3406 3419 
Q 3406 3131 3298 2873 
Q 3191 2616 2906 2266 
Q 2828 2175 2409 1742 
Q 1991 1309 1228 531 
z
" transform="scale(0.015625)"/>
        <path id="DejaVuSans-30" d="M 2034 4250 
Q 1547 4250 1301 3770 
Q 1056 3291 1056 2328 
Q 1056 1369 1301 889 
Q 1547 409 2034 409 
Q 2525 409 2770 889 
Q 3016 1369 3016 2328 
Q 3016 3291 2770 3770 
Q 2525 4250 2034 4250 
z
M 2034 4750 
Q 2819 4750 3233 4129 
Q 3647 3509 3647 2328 
Q 3647 1150 3233 529 
Q 2819 -91 2034 -91 
Q 1250 -91 836 529 
Q 422 1150 422 2328 
Q 422 3509 836 4129 
Q 1250 4750 2034 4750 
z
" transform="scale(0.015625)"/>
        <path id="DejaVuSans-31" d="M 794 531 
L 1825 531 
L 1825 4091 
L 703 3866 
L 703 4441 
L 1819 4666 
L 2450 4666 
L 2450 531 
L 3481 531 
L 3481 0 
L 794 0 
L 794 531 
z
" transform="scale(0.015625)"/>
        <path id="DejaVuSans-2d" d="M 313 2009 
L 1997 2009 
L 1997 1497 
L 313 1497 
L 313 2009 
z
" transform="scale(0.015625)"/>
        <path id="DejaVuSans-39" d="M 703 97 
L 703 672 
Q 941 559 1184 500 
Q 1428 441 1663 441 
Q 2288 441 2617 861 
Q 2947 1281 2994 2138 
Q 2813 1869 2534 1725 
Q 2256 1581 1919 1581 
Q 1219 1581 811 2004 
Q 403 2428 403 3163 
Q 403 3881 828 4315 
Q 1253 4750 1959 4750 
Q 2769 4750 3195 4129 
Q 3622 3509 3622 2328 
Q 3622 1225 3098 567 
Q 2575 -91 1691 -91 
Q 1453 -91 1209 -44 
Q 966 3 703 97 
z
M 1959 2075 
Q 2384 2075 2632 2365 
Q 2881 2656 2881 3163 
Q 2881 3666 2632 3958 
Q 2384 4250 1959 4250 
Q 1534 4250 1286 3958 
Q 1038 3666 1038 3163 
Q 1038 2656 1286 2365 
Q 1534 2075 1959 2075 
z
" transform="scale(0.015625)"/>
       </defs>
       <use xlink:href="#DejaVuSans-32"/>
       <use xlink:href="#DejaVuSans-30" transform="translate(63.623047 0)"/>
       <use xlink:href="#DejaVuSans-31" transform="translate(127.246094 0)"/>
       <use xlink:href="#DejaVuSans-32" transform="translate(190.869141 0)"/>
       <use xlink:href="#DejaVuSans-2d" transform="translate(254.492188 0)"/>
       <use xlink:href="#DejaVuSans-31" transform="translate(290.576172 0)"/>
       <use xlink:href="#DejaVuSans-30" transform="translate(354.199219 0)"/>
       <use xlink:href="#DejaVuSans-2d" transform="translate(417.822266 0)"/>
       <use xlink:href="#DejaVuSans-30" transform="translate(453.90625 0)"/>
       <use xlink:href="#DejaVuSans-39" transform="translate(517.529297 0)"/>
      </g>
     </g>
    </g>
    <g id="xtick_2">
     <g id="line2d_3">
      <path d="M 129.679005 265.481175 
L 129.679005 26.7 
" clip-path="url(#p1d835d6417)" style="fill: none; stroke: #b0b0b0; stroke-opacity: 0.3; stroke-width: 0.8; stroke-linecap: square"/>
     </g>
     <g id="line2d_4">
      <g>
       <use xlink:href="#m006ebd2c5f" x="129.679005" y="265.481175" style="stroke: #000000; stroke-width: 0.8"/>
      </g>
     </g>
     <g id="text_2">
      <!-- 2012-10-13 -->
      <g transform="translate(111.083201 318.948035) rotate(-45) scale(0.1 -0.1)">
       <defs>
        <path id="DejaVuSans-33" d="M 2597 2516 
Q 3050 2419 3304 2112 
Q 3559 1806 3559 1356 
Q 3559 666 3084 287 
Q 2609 -91 1734 -91 
Q 1441 -91 1130 -33 
Q 819 25 488 141 
L 488 750 
Q 750 597 1062 519 
Q 1375 441 1716 441 
Q 2309 441 2620 675 
Q 2931 909 2931 1356 
Q 2931 1769 2642 2001 
Q 2353 2234 1838 2234 
L 1294 2234 
L 1294 2753 
L 1863 2753 
Q 2328 2753 2575 2939 
Q 2822 3125 2822 3475 
Q 2822 3834 2567 4026 
Q 2313 4219 1838 4219 
Q 1578 4219 1281 4162 
Q 984 4106 628 3988 
L 628 4550 
Q 988 4650 1302 4700 
Q 1616 4750 1894 4750 
Q 2613 4750 3031 4423 
Q 3450 4097 3450 3541 
Q 3450 3153 3228 2886 
Q 3006 2619 2597 2516 
z
" transform="scale(0.015625)"/>
       </defs>
       <use xlink:href="#DejaVuSans-32"/>
       <use xlink:href="#DejaVuSans-30" transform="translate(63.623047 0)"/>
       <use xlink:href="#DejaVuSans-31" transform="translate(127.246094 0)"/>
       <use xlink:href="#DejaVuSans-32" transform="translate(190.869141 0)"/>
       <use xlink:href="#DejaVuSans-2d" transform="translate(254.492188 0)"/>
       <use xlink:href="#DejaVuSans-31" transform="translate(290.576172 0)"/>
       <use xlink:href="#DejaVuSans-30" transform="translate(354.199219 0)"/>
       <use xlink:href="#DejaVuSans-2d" transform="translate(417.822266 0)"/>
       <use xlink:href="#DejaVuSans-31" transform="translate(453.90625 0)"/>
       <use xlink:href="#DejaVuSans-33" transform="translate(517.529297 0)"/>
      </g>
     </g>
    </g>
    <g id="xtick_3">
     <g id="line2d_5">
      <path d="M 178.109299 265.481175 
L 178.109299 26.7 
" clip-path="url(#p1d835d6417)" style="fill: none; stroke: #b0b0b0; stroke-opacity: 0.3; stroke-width: 0.8; stroke-linecap: square"/>
     </g>
     <g id="line2d_6">
      <g>
       <use xlink:href="#m006ebd2c5f" x="178.109299" y="265.481175" style="stroke: #000000; stroke-width: 0.8"/>
      </g>
     </g>
     <g id="text_3">
      <!-- 2012-10-17 -->
      <g transform="translate(159.513496 318.948035) rotate(-45) scale(0.1 -0.1)">
       <defs>
        <path id="DejaVuSans-37" d="M 525 4666 
L 3525 4666 
L 3525 4397 
L 1831 0 
L 1172 0 
L 2766 4134 
L 525 4134 
L 525 4666 
z
" transform="scale(0.015625)"/>
       </defs>
       <use xlink:href="#DejaVuSans-32"/>
       <use xlink:href="#DejaVuSans-30" transform="translate(63.623047 0)"/>
       <use xlink:href="#DejaVuSans-31" transform="translate(127.246094 0)"/>
       <use xlink:href="#DejaVuSans-32" transform="translate(190.869141 0)"/>
       <use xlink:href="#DejaVuSans-2d" transform="translate(254.492188 0)"/>
       <use xlink:href="#DejaVuSans-31" transform="translate(290.576172 0)"/>
       <use xlink:href="#DejaVuSans-30" transform="translate(354.199219 0)"/>
       <use xlink:href="#DejaVuSans-2d" transform="translate(417.822266 0)"/>
       <use xlink:href="#DejaVuSans-31" transform="translate(453.90625 0)"/>
       <use xlink:href="#DejaVuSans-37" transform="translate(517.529297 0)"/>
      </g>
     </g>
    </g>
    <g id="xtick_4">
     <g id="line2d_7">
      <path d="M 226.539594 265.481175 
L 226.539594 26.7 
" clip-path="url(#p1d835d6417)" style="fill: none; stroke: #b0b0b0; stroke-opacity: 0.3; stroke-width: 0.8; stroke-linecap: square"/>
     </g>
     <g id="line2d_8">
      <g>
       <use xlink:href="#m006ebd2c5f" x="226.539594" y="265.481175" style="stroke: #000000; stroke-width: 0.8"/>
      </g>
     </g>
     <g id="text_4">
      <!-- 2012-10-21 -->
      <g transform="translate(207.94379 318.948035) rotate(-45) scale(0.1 -0.1)">
       <use xlink:href="#DejaVuSans-32"/>
       <use xlink:href="#DejaVuSans-30" transform="translate(63.623047 0)"/>
       <use xlink:href="#DejaVuSans-31" transform="translate(127.246094 0)"/>
       <use xlink:href="#DejaVuSans-32" transform="translate(190.869141 0)"/>
       <use xlink:href="#DejaVuSans-2d" transform="translate(254.492188 0)"/>
       <use xlink:href="#DejaVuSans-31" transform="translate(290.576172 0)"/>
       <use xlink:href="#DejaVuSans-30" transform="translate(354.199219 0)"/>
       <use xlink:href="#DejaVuSans-2d" transform="translate(417.822266 0)"/>
       <use xlink:href="#DejaVuSans-32" transform="translate(453.90625 0)"/>
       <use xlink:href="#DejaVuSans-31" transform="translate(517.529297 0)"/>
      </g>
     </g>
    </g>
    <g id="xtick_5">
     <g id="line2d_9">
      <path d="M 274.969888 265.481175 
L 274.969888 26.7 
" clip-path="url(#p1d835d6417)" style="fill: none; stroke: #b0b0b0; stroke-opacity: 0.3; stroke-width: 0.8; stroke-linecap: square"/>
     </g>
     <g id="line2d_10">
      <g>
       <use xlink:href="#m006ebd2c5f" x="274.969888" y="265.481175" style="stroke: #000000; stroke-width: 0.8"/>
      </g>
     </g>
     <g id="text_5">
      <!-- 2012-10-25 -->
      <g transform="translate(256.374085 318.948035) rotate(-45) scale(0.1 -0.1)">
       <defs>
        <path id="DejaVuSans-35" d="M 691 4666 
L 3169 4666 
L 3169 4134 
L 1269 4134 
L 1269 2991 
Q 1406 3038 1543 3061 
Q 1681 3084 1819 3084 
Q 2600 3084 3056 2656 
Q 3513 2228 3513 1497 
Q 3513 744 3044 326 
Q 2575 -91 1722 -91 
Q 1428 -91 1123 -41 
Q 819 9 494 109 
L 494 744 
Q 775 591 1075 516 
Q 1375 441 1709 441 
Q 2250 441 2565 725 
Q 2881 1009 2881 1497 
Q 2881 1984 2565 2268 
Q 2250 2553 1709 2553 
Q 1456 2553 1204 2497 
Q 953 2441 691 2322 
L 691 4666 
z
" transform="scale(0.015625)"/>
       </defs>
       <use xlink:href="#DejaVuSans-32"/>
       <use xlink:href="#DejaVuSans-30" transform="translate(63.623047 0)"/>
       <use xlink:href="#DejaVuSans-31" transform="translate(127.246094 0)"/>
       <use xlink:href="#DejaVuSans-32" transform="translate(190.869141 0)"/>
       <use xlink:href="#DejaVuSans-2d" transform="translate(254.492188 0)"/>
       <use xlink:href="#DejaVuSans-31" transform="translate(290.576172 0)"/>
       <use xlink:href="#DejaVuSans-30" transform="translate(354.199219 0)"/>
       <use xlink:href="#DejaVuSans-2d" transform="translate(417.822266 0)"/>
       <use xlink:href="#DejaVuSans-32" transform="translate(453.90625 0)"/>
       <use xlink:href="#DejaVuSans-35" transform="translate(517.529297 0)"/>
      </g>
     </g>
    </g>
    <g id="xtick_6">
     <g id="line2d_11">
      <path d="M 323.400183 265.481175 
L 323.400183 26.7 
" clip-path="url(#p1d835d6417)" style="fill: none; stroke: #b0b0b0; stroke-opacity: 0.3; stroke-width: 0.8; stroke-linecap: square"/>
     </g>
     <g id="line2d_12">
      <g>
       <use xlink:href="#m006ebd2c5f" x="323.400183" y="265.481175" style="stroke: #000000; stroke-width: 0.8"/>
      </g>
     </g>
     <g id="text_6">
      <!-- 2012-10-29 -->
      <g transform="translate(304.80438 318.948035) rotate(-45) scale(0.1 -0.1)">
       <use xlink:href="#DejaVuSans-32"/>
       <use xlink:href="#DejaVuSans-30" transform="translate(63.623047 0)"/>
       <use xlink:href="#DejaVuSans-31" transform="translate(127.246094 0)"/>
       <use xlink:href="#DejaVuSans-32" transform="translate(190.869141 0)"/>
       <use xlink:href="#DejaVuSans-2d" transform="translate(254.492188 0)"/>
       <use xlink:href="#DejaVuSans-31" transform="translate(290.576172 0)"/>
       <use xlink:href="#DejaVuSans-30" transform="translate(354.199219 0)"/>
       <use xlink:href="#DejaVuSans-2d" transform="translate(417.822266 0)"/>
       <use xlink:href="#DejaVuSans-32" transform="translate(453.90625 0)"/>
       <use xlink:href="#DejaVuSans-39" transform="translate(517.529297 0)"/>
      </g>
     </g>
    </g>
    <g id="xtick_7">
     <g id="line2d_13">
      <path d="M 359.722904 265.481175 
L 359.722904 26.7 
" clip-path="url(#p1d835d6417)" style="fill: none; stroke: #b0b0b0; stroke-opacity: 0.3; stroke-width: 0.8; stroke-linecap: square"/>
     </g>
     <g id="line2d_14">
      <g>
       <use xlink:href="#m006ebd2c5f" x="359.722904" y="265.481175" style="stroke: #000000; stroke-width: 0.8"/>
      </g>
     </g>
     <g id="text_7">
      <!-- 2012-11-01 -->
      <g transform="translate(341.1271 318.948035) rotate(-45) scale(0.1 -0.1)">
       <use xlink:href="#DejaVuSans-32"/>
       <use xlink:href="#DejaVuSans-30" transform="translate(63.623047 0)"/>
       <use xlink:href="#DejaVuSans-31" transform="translate(127.246094 0)"/>
       <use xlink:href="#DejaVuSans-32" transform="translate(190.869141 0)"/>
       <use xlink:href="#DejaVuSans-2d" transform="translate(254.492188 0)"/>
       <use xlink:href="#DejaVuSans-31" transform="translate(290.576172 0)"/>
       <use xlink:href="#DejaVuSans-31" transform="translate(354.199219 0)"/>
       <use xlink:href="#DejaVuSans-2d" transform="translate(417.822266 0)"/>
       <use xlink:href="#DejaVuSans-30" transform="translate(453.90625 0)"/>
       <use xlink:href="#DejaVuSans-31" transform="translate(517.529297 0)"/>
      </g>
     </g>
    </g>
    <g id="xtick_8">
     <g id="line2d_15">
      <path d="M 408.153199 265.481175 
L 408.153199 26.7 
" clip-path="url(#p1d835d6417)" style="fill: none; stroke: #b0b0b0; stroke-opacity: 0.3; stroke-width: 0.8; stroke-linecap: square"/>
     </g>
     <g id="line2d_16">
      <g>
       <use xlink:href="#m006ebd2c5f" x="408.153199" y="265.481175" style="stroke: #000000; stroke-width: 0.8"/>
      </g>
     </g>
     <g id="text_8">
      <!-- 2012-11-05 -->
      <g transform="translate(389.557395 318.948035) rotate(-45) scale(0.1 -0.1)">
       <use xlink:href="#DejaVuSans-32"/>
       <use xlink:href="#DejaVuSans-30" transform="translate(63.623047 0)"/>
       <use xlink:href="#DejaVuSans-31" transform="translate(127.246094 0)"/>
       <use xlink:href="#DejaVuSans-32" transform="translate(190.869141 0)"/>
       <use xlink:href="#DejaVuSans-2d" transform="translate(254.492188 0)"/>
       <use xlink:href="#DejaVuSans-31" transform="translate(290.576172 0)"/>
       <use xlink:href="#DejaVuSans-31" transform="translate(354.199219 0)"/>
       <use xlink:href="#DejaVuSans-2d" transform="translate(417.822266 0)"/>
       <use xlink:href="#DejaVuSans-30" transform="translate(453.90625 0)"/>
       <use xlink:href="#DejaVuSans-35" transform="translate(517.529297 0)"/>
      </g>
     </g>
    </g>
    <g id="text_9">
     <!-- Data -->
     <g transform="translate(238.564219 332.017033) scale(0.1 -0.1)">
      <defs>
       <path id="DejaVuSans-44" d="M 1259 4147 
L 1259 519 
L 2022 519 
Q 2988 519 3436 956 
Q 3884 1394 3884 2338 
Q 3884 3275 3436 3711 
Q 2988 4147 2022 4147 
L 1259 4147 
z
M 628 4666 
L 1925 4666 
Q 3281 4666 3915 4102 
Q 4550 3538 4550 2338 
Q 4550 1131 3912 565 
Q 3275 0 1925 0 
L 628 0 
L 628 4666 
z
" transform="scale(0.015625)"/>
       <path id="DejaVuSans-61" d="M 2194 1759 
Q 1497 1759 1228 1600 
Q 959 1441 959 1056 
Q 959 750 1161 570 
Q 1363 391 1709 391 
Q 2188 391 2477 730 
Q 2766 1069 2766 1631 
L 2766 1759 
L 2194 1759 
z
M 3341 1997 
L 3341 0 
L 2766 0 
L 2766 531 
Q 2569 213 2275 61 
Q 1981 -91 1556 -91 
Q 1019 -91 701 211 
Q 384 513 384 1019 
Q 384 1609 779 1909 
Q 1175 2209 1959 2209 
L 2766 2209 
L 2766 2266 
Q 2766 2663 2505 2880 
Q 2244 3097 1772 3097 
Q 1472 3097 1187 3025 
Q 903 2953 641 2809 
L 641 3341 
Q 956 3463 1253 3523 
Q 1550 3584 1831 3584 
Q 2591 3584 2966 3190 
Q 3341 2797 3341 1997 
z
" transform="scale(0.015625)"/>
       <path id="DejaVuSans-74" d="M 1172 4494 
L 1172 3500 
L 2356 3500 
L 2356 3053 
L 1172 3053 
L 1172 1153 
Q 1172 725 1289 603 
Q 1406 481 1766 481 
L 2356 481 
L 2356 0 
L 1766 0 
Q 1100 0 847 248 
Q 594 497 594 1153 
L 594 3053 
L 172 3053 
L 172 3500 
L 594 3500 
L 594 4494 
L 1172 4494 
z
" transform="scale(0.015625)"/>
      </defs>
      <use xlink:href="#DejaVuSans-44"/>
      <use xlink:href="#DejaVuSans-61" transform="translate(77.001953 0)"/>
      <use xlink:href="#DejaVuSans-74" transform="translate(138.28125 0)"/>
      <use xlink:href="#DejaVuSans-61" transform="translate(177.490234 0)"/>
     </g>
    </g>
   </g>
   <g id="matplotlib.axis_2">
    <g id="ytick_1">
     <g id="line2d_17">
      <path d="M 51.005 256.82015 
L 450 256.82015 
" clip-path="url(#p1d835d6417)" style="fill: none; stroke: #b0b0b0; stroke-opacity: 0.3; stroke-width: 0.8; stroke-linecap: square"/>
     </g>
     <g id="line2d_18">
      <defs>
       <path id="m80fdc94955" d="M 0 0 
L -3.5 0 
" style="stroke: #000000; stroke-width: 0.8"/>
      </defs>
      <g>
       <use xlink:href="#m80fdc94955" x="51.005" y="256.82015" style="stroke: #000000; stroke-width: 0.8"/>
      </g>
     </g>
     <g id="text_10">
      <!-- 0 -->
      <g transform="translate(37.6425 260.619369) scale(0.1 -0.1)">
       <use xlink:href="#DejaVuSans-30"/>
      </g>
     </g>
    </g>
    <g id="ytick_2">
     <g id="line2d_19">
      <path d="M 51.005 229.411843 
L 450 229.411843 
" clip-path="url(#p1d835d6417)" style="fill: none; stroke: #b0b0b0; stroke-opacity: 0.3; stroke-width: 0.8; stroke-linecap: square"/>
     </g>
     <g id="line2d_20">
      <g>
       <use xlink:href="#m80fdc94955" x="51.005" y="229.411843" style="stroke: #000000; stroke-width: 0.8"/>
      </g>
     </g>
     <g id="text_11">
      <!-- 25 -->
      <g transform="translate(31.28 233.211061) scale(0.1 -0.1)">
       <use xlink:href="#DejaVuSans-32"/>
       <use xlink:href="#DejaVuSans-35" transform="translate(63.623047 0)"/>
      </g>
     </g>
    </g>
    <g id="ytick_3">
     <g id="line2d_21">
      <path d="M 51.005 202.003535 
L 450 202.003535 
" clip-path="url(#p1d835d6417)" style="fill: none; stroke: #b0b0b0; stroke-opacity: 0.3; stroke-width: 0.8; stroke-linecap: square"/>
     </g>
     <g id="line2d_22">
      <g>
       <use xlink:href="#m80fdc94955" x="51.005" y="202.003535" style="stroke: #000000; stroke-width: 0.8"/>
      </g>
     </g>
     <g id="text_12">
      <!-- 50 -->
      <g transform="translate(31.28 205.802754) scale(0.1 -0.1)">
       <use xlink:href="#DejaVuSans-35"/>
       <use xlink:href="#DejaVuSans-30" transform="translate(63.623047 0)"/>
      </g>
     </g>
    </g>
    <g id="ytick_4">
     <g id="line2d_23">
      <path d="M 51.005 174.595228 
L 450 174.595228 
" clip-path="url(#p1d835d6417)" style="fill: none; stroke: #b0b0b0; stroke-opacity: 0.3; stroke-width: 0.8; stroke-linecap: square"/>
     </g>
     <g id="line2d_24">
      <g>
       <use xlink:href="#m80fdc94955" x="51.005" y="174.595228" style="stroke: #000000; stroke-width: 0.8"/>
      </g>
     </g>
     <g id="text_13">
      <!-- 75 -->
      <g transform="translate(31.28 178.394446) scale(0.1 -0.1)">
       <use xlink:href="#DejaVuSans-37"/>
       <use xlink:href="#DejaVuSans-35" transform="translate(63.623047 0)"/>
      </g>
     </g>
    </g>
    <g id="ytick_5">
     <g id="line2d_25">
      <path d="M 51.005 147.18692 
L 450 147.18692 
" clip-path="url(#p1d835d6417)" style="fill: none; stroke: #b0b0b0; stroke-opacity: 0.3; stroke-width: 0.8; stroke-linecap: square"/>
     </g>
     <g id="line2d_26">
      <g>
       <use xlink:href="#m80fdc94955" x="51.005" y="147.18692" style="stroke: #000000; stroke-width: 0.8"/>
      </g>
     </g>
     <g id="text_14">
      <!-- 100 -->
      <g transform="translate(24.9175 150.986139) scale(0.1 -0.1)">
       <use xlink:href="#DejaVuSans-31"/>
       <use xlink:href="#DejaVuSans-30" transform="translate(63.623047 0)"/>
       <use xlink:href="#DejaVuSans-30" transform="translate(127.246094 0)"/>
      </g>
     </g>
    </g>
    <g id="ytick_6">
     <g id="line2d_27">
      <path d="M 51.005 119.778612 
L 450 119.778612 
" clip-path="url(#p1d835d6417)" style="fill: none; stroke: #b0b0b0; stroke-opacity: 0.3; stroke-width: 0.8; stroke-linecap: square"/>
     </g>
     <g id="line2d_28">
      <g>
       <use xlink:href="#m80fdc94955" x="51.005" y="119.778612" style="stroke: #000000; stroke-width: 0.8"/>
      </g>
     </g>
     <g id="text_15">
      <!-- 125 -->
      <g transform="translate(24.9175 123.577831) scale(0.1 -0.1)">
       <use xlink:href="#DejaVuSans-31"/>
       <use xlink:href="#DejaVuSans-32" transform="translate(63.623047 0)"/>
       <use xlink:href="#DejaVuSans-35" transform="translate(127.246094 0)"/>
      </g>
     </g>
    </g>
    <g id="ytick_7">
     <g id="line2d_29">
      <path d="M 51.005 92.370305 
L 450 92.370305 
" clip-path="url(#p1d835d6417)" style="fill: none; stroke: #b0b0b0; stroke-opacity: 0.3; stroke-width: 0.8; stroke-linecap: square"/>
     </g>
     <g id="line2d_30">
      <g>
       <use xlink:href="#m80fdc94955" x="51.005" y="92.370305" style="stroke: #000000; stroke-width: 0.8"/>
      </g>
     </g>
     <g id="text_16">
      <!-- 150 -->
      <g transform="translate(24.9175 96.169524) scale(0.1 -0.1)">
       <use xlink:href="#DejaVuSans-31"/>
       <use xlink:href="#DejaVuSans-35" transform="translate(63.623047 0)"/>
       <use xlink:href="#DejaVuSans-30" transform="translate(127.246094 0)"/>
      </g>
     </g>
    </g>
    <g id="ytick_8">
     <g id="line2d_31">
      <path d="M 51.005 64.961997 
L 450 64.961997 
" clip-path="url(#p1d835d6417)" style="fill: none; stroke: #b0b0b0; stroke-opacity: 0.3; stroke-width: 0.8; stroke-linecap: square"/>
     </g>
     <g id="line2d_32">
      <g>
       <use xlink:href="#m80fdc94955" x="51.005" y="64.961997" style="stroke: #000000; stroke-width: 0.8"/>
      </g>
     </g>
     <g id="text_17">
      <!-- 175 -->
      <g transform="translate(24.9175 68.761216) scale(0.1 -0.1)">
       <use xlink:href="#DejaVuSans-31"/>
       <use xlink:href="#DejaVuSans-37" transform="translate(63.623047 0)"/>
       <use xlink:href="#DejaVuSans-35" transform="translate(127.246094 0)"/>
      </g>
     </g>
    </g>
    <g id="ytick_9">
     <g id="line2d_33">
      <path d="M 51.005 37.55369 
L 450 37.55369 
" clip-path="url(#p1d835d6417)" style="fill: none; stroke: #b0b0b0; stroke-opacity: 0.3; stroke-width: 0.8; stroke-linecap: square"/>
     </g>
     <g id="line2d_34">
      <g>
       <use xlink:href="#m80fdc94955" x="51.005" y="37.55369" style="stroke: #000000; stroke-width: 0.8"/>
      </g>
     </g>
     <g id="text_18">
      <!-- 200 -->
      <g transform="translate(24.9175 41.352909) scale(0.1 -0.1)">
       <use xlink:href="#DejaVuSans-32"/>
       <use xlink:href="#DejaVuSans-30" transform="translate(63.623047 0)"/>
       <use xlink:href="#DejaVuSans-30" transform="translate(127.246094 0)"/>
      </g>
     </g>
    </g>
    <g id="text_19">
     <!-- Numărul de vehicule -->
     <g transform="translate(18.837813 197.953869) rotate(-90) scale(0.1 -0.1)">
      <defs>
       <path id="DejaVuSans-4e" d="M 628 4666 
L 1478 4666 
L 3547 763 
L 3547 4666 
L 4159 4666 
L 4159 0 
L 3309 0 
L 1241 3903 
L 1241 0 
L 628 0 
L 628 4666 
z
" transform="scale(0.015625)"/>
       <path id="DejaVuSans-75" d="M 544 1381 
L 544 3500 
L 1119 3500 
L 1119 1403 
Q 1119 906 1312 657 
Q 1506 409 1894 409 
Q 2359 409 2629 706 
Q 2900 1003 2900 1516 
L 2900 3500 
L 3475 3500 
L 3475 0 
L 2900 0 
L 2900 538 
Q 2691 219 2414 64 
Q 2138 -91 1772 -91 
Q 1169 -91 856 284 
Q 544 659 544 1381 
z
M 1991 3584 
L 1991 3584 
z
" transform="scale(0.015625)"/>
       <path id="DejaVuSans-6d" d="M 3328 2828 
Q 3544 3216 3844 3400 
Q 4144 3584 4550 3584 
Q 5097 3584 5394 3201 
Q 5691 2819 5691 2113 
L 5691 0 
L 5113 0 
L 5113 2094 
Q 5113 2597 4934 2840 
Q 4756 3084 4391 3084 
Q 3944 3084 3684 2787 
Q 3425 2491 3425 1978 
L 3425 0 
L 2847 0 
L 2847 2094 
Q 2847 2600 2669 2842 
Q 2491 3084 2119 3084 
Q 1678 3084 1418 2786 
Q 1159 2488 1159 1978 
L 1159 0 
L 581 0 
L 581 3500 
L 1159 3500 
L 1159 2956 
Q 1356 3278 1631 3431 
Q 1906 3584 2284 3584 
Q 2666 3584 2933 3390 
Q 3200 3197 3328 2828 
z
" transform="scale(0.015625)"/>
       <path id="DejaVuSans-103" d="M 870 4897 
L 1239 4897 
Q 1273 4663 1424 4545 
Q 1576 4428 1848 4428 
Q 2117 4428 2267 4544 
Q 2417 4660 2457 4897 
L 2826 4897 
Q 2795 4450 2548 4225 
Q 2301 4000 1848 4000 
Q 1395 4000 1148 4225 
Q 901 4450 870 4897 
z
M 2194 1759 
Q 1497 1759 1228 1600 
Q 959 1441 959 1056 
Q 959 750 1161 570 
Q 1363 391 1709 391 
Q 2188 391 2477 730 
Q 2766 1069 2766 1631 
L 2766 1759 
L 2194 1759 
z
M 3341 1997 
L 3341 0 
L 2766 0 
L 2766 531 
Q 2569 213 2275 61 
Q 1981 -91 1556 -91 
Q 1019 -91 701 211 
Q 384 513 384 1019 
Q 384 1609 779 1909 
Q 1175 2209 1959 2209 
L 2766 2209 
L 2766 2266 
Q 2766 2663 2505 2880 
Q 2244 3097 1772 3097 
Q 1472 3097 1187 3025 
Q 903 2953 641 2809 
L 641 3341 
Q 956 3463 1253 3523 
Q 1550 3584 1831 3584 
Q 2591 3584 2966 3190 
Q 3341 2797 3341 1997 
z
" transform="scale(0.015625)"/>
       <path id="DejaVuSans-72" d="M 2631 2963 
Q 2534 3019 2420 3045 
Q 2306 3072 2169 3072 
Q 1681 3072 1420 2755 
Q 1159 2438 1159 1844 
L 1159 0 
L 581 0 
L 581 3500 
L 1159 3500 
L 1159 2956 
Q 1341 3275 1631 3429 
Q 1922 3584 2338 3584 
Q 2397 3584 2469 3576 
Q 2541 3569 2628 3553 
L 2631 2963 
z
" transform="scale(0.015625)"/>
       <path id="DejaVuSans-6c" d="M 603 4863 
L 1178 4863 
L 1178 0 
L 603 0 
L 603 4863 
z
" transform="scale(0.015625)"/>
       <path id="DejaVuSans-20" transform="scale(0.015625)"/>
       <path id="DejaVuSans-64" d="M 2906 2969 
L 2906 4863 
L 3481 4863 
L 3481 0 
L 2906 0 
L 2906 525 
Q 2725 213 2448 61 
Q 2172 -91 1784 -91 
Q 1150 -91 751 415 
Q 353 922 353 1747 
Q 353 2572 751 3078 
Q 1150 3584 1784 3584 
Q 2172 3584 2448 3432 
Q 2725 3281 2906 2969 
z
M 947 1747 
Q 947 1113 1208 752 
Q 1469 391 1925 391 
Q 2381 391 2643 752 
Q 2906 1113 2906 1747 
Q 2906 2381 2643 2742 
Q 2381 3103 1925 3103 
Q 1469 3103 1208 2742 
Q 947 2381 947 1747 
z
" transform="scale(0.015625)"/>
       <path id="DejaVuSans-65" d="M 3597 1894 
L 3597 1613 
L 953 1613 
Q 991 1019 1311 708 
Q 1631 397 2203 397 
Q 2534 397 2845 478 
Q 3156 559 3463 722 
L 3463 178 
Q 3153 47 2828 -22 
Q 2503 -91 2169 -91 
Q 1331 -91 842 396 
Q 353 884 353 1716 
Q 353 2575 817 3079 
Q 1281 3584 2069 3584 
Q 2775 3584 3186 3129 
Q 3597 2675 3597 1894 
z
M 3022 2063 
Q 3016 2534 2758 2815 
Q 2500 3097 2075 3097 
Q 1594 3097 1305 2825 
Q 1016 2553 972 2059 
L 3022 2063 
z
" transform="scale(0.015625)"/>
       <path id="DejaVuSans-76" d="M 191 3500 
L 800 3500 
L 1894 563 
L 2988 3500 
L 3597 3500 
L 2284 0 
L 1503 0 
L 191 3500 
z
" transform="scale(0.015625)"/>
       <path id="DejaVuSans-68" d="M 3513 2113 
L 3513 0 
L 2938 0 
L 2938 2094 
Q 2938 2591 2744 2837 
Q 2550 3084 2163 3084 
Q 1697 3084 1428 2787 
Q 1159 2491 1159 1978 
L 1159 0 
L 581 0 
L 581 4863 
L 1159 4863 
L 1159 2956 
Q 1366 3272 1645 3428 
Q 1925 3584 2291 3584 
Q 2894 3584 3203 3211 
Q 3513 2838 3513 2113 
z
" transform="scale(0.015625)"/>
       <path id="DejaVuSans-69" d="M 603 3500 
L 1178 3500 
L 1178 0 
L 603 0 
L 603 3500 
z
M 603 4863 
L 1178 4863 
L 1178 4134 
L 603 4134 
L 603 4863 
z
" transform="scale(0.015625)"/>
       <path id="DejaVuSans-63" d="M 3122 3366 
L 3122 2828 
Q 2878 2963 2633 3030 
Q 2388 3097 2138 3097 
Q 1578 3097 1268 2742 
Q 959 2388 959 1747 
Q 959 1106 1268 751 
Q 1578 397 2138 397 
Q 2388 397 2633 464 
Q 2878 531 3122 666 
L 3122 134 
Q 2881 22 2623 -34 
Q 2366 -91 2075 -91 
Q 1284 -91 818 406 
Q 353 903 353 1747 
Q 353 2603 823 3093 
Q 1294 3584 2113 3584 
Q 2378 3584 2631 3529 
Q 2884 3475 3122 3366 
z
" transform="scale(0.015625)"/>
      </defs>
      <use xlink:href="#DejaVuSans-4e"/>
      <use xlink:href="#DejaVuSans-75" transform="translate(74.804688 0)"/>
      <use xlink:href="#DejaVuSans-6d" transform="translate(138.183594 0)"/>
      <use xlink:href="#DejaVuSans-103" transform="translate(235.595703 0)"/>
      <use xlink:href="#DejaVuSans-72" transform="translate(296.875 0)"/>
      <use xlink:href="#DejaVuSans-75" transform="translate(337.988281 0)"/>
      <use xlink:href="#DejaVuSans-6c" transform="translate(401.367188 0)"/>
      <use xlink:href="#DejaVuSans-20" transform="translate(429.150391 0)"/>
      <use xlink:href="#DejaVuSans-64" transform="translate(460.9375 0)"/>
      <use xlink:href="#DejaVuSans-65" transform="translate(524.414062 0)"/>
      <use xlink:href="#DejaVuSans-20" transform="translate(585.9375 0)"/>
      <use xlink:href="#DejaVuSans-76" transform="translate(617.724609 0)"/>
      <use xlink:href="#DejaVuSans-65" transform="translate(676.904297 0)"/>
      <use xlink:href="#DejaVuSans-68" transform="translate(738.427734 0)"/>
      <use xlink:href="#DejaVuSans-69" transform="translate(801.806641 0)"/>
      <use xlink:href="#DejaVuSans-63" transform="translate(829.589844 0)"/>
      <use xlink:href="#DejaVuSans-75" transform="translate(884.570312 0)"/>
      <use xlink:href="#DejaVuSans-6c" transform="translate(947.949219 0)"/>
      <use xlink:href="#DejaVuSans-65" transform="translate(975.732422 0)"/>
     </g>
    </g>
   </g>
   <g id="line2d_35">
    <path d="M 69.141136 252.434821 
L 69.645619 245.856827 
L 70.150101 252.434821 
L 70.654583 254.627486 
L 71.159065 243.664163 
L 71.663548 252.434821 
L 72.16803 250.242156 
L 72.672512 239.278833 
L 73.176994 245.856827 
L 73.681476 237.086169 
L 74.185959 237.086169 
L 74.690441 221.737517 
L 75.194923 215.159523 
L 75.699405 230.508175 
L 76.203888 237.086169 
L 76.70837 228.31551 
L 77.212852 230.508175 
L 77.717334 234.893504 
L 78.221817 234.893504 
L 78.726299 215.159523 
L 79.230781 232.70084 
L 79.735263 237.086169 
L 80.744228 241.471498 
L 81.24871 237.086169 
L 82.257674 254.627486 
L 82.762157 254.627486 
L 83.771121 250.242156 
L 84.275603 252.434821 
L 84.780086 252.434821 
L 85.284568 248.049492 
L 85.78905 248.049492 
L 86.293532 252.434821 
L 87.302497 252.434821 
L 87.806979 254.627486 
L 88.311461 254.627486 
L 88.815944 250.242156 
L 89.320426 252.434821 
L 90.833872 245.856827 
L 91.338355 254.627486 
L 91.842837 254.627486 
L 92.347319 241.471498 
L 92.851801 250.242156 
L 94.86973 250.242156 
L 95.374213 252.434821 
L 96.887659 252.434821 
L 97.392142 239.278833 
L 97.896624 239.278833 
L 98.401106 206.388864 
L 99.41007 234.893504 
L 99.914553 228.31551 
L 100.419035 241.471498 
L 100.923517 248.049492 
L 101.427999 237.086169 
L 101.932482 234.893504 
L 102.436964 243.664163 
L 102.941446 226.122846 
L 103.445928 248.049492 
L 103.950411 245.856827 
L 104.454893 239.278833 
L 105.463857 252.434821 
L 106.472822 252.434821 
L 106.977304 254.627486 
L 107.986268 250.242156 
L 108.490751 252.434821 
L 108.995233 250.242156 
L 109.499715 250.242156 
L 110.004197 254.627486 
L 110.50868 250.242156 
L 111.013162 250.242156 
L 111.517644 243.664163 
L 112.022126 252.434821 
L 112.526609 248.049492 
L 113.031091 232.70084 
L 113.535573 250.242156 
L 114.544538 250.242156 
L 115.04902 230.508175 
L 115.553502 252.434821 
L 116.057984 254.627486 
L 116.562466 243.664163 
L 117.066949 243.664163 
L 117.571431 239.278833 
L 118.075913 252.434821 
L 118.580395 254.627486 
L 119.084878 254.627486 
L 119.58936 250.242156 
L 120.093842 254.627486 
L 120.598324 250.242156 
L 121.607289 254.627486 
L 122.111771 254.627486 
L 122.616253 248.049492 
L 123.120736 254.627486 
L 123.625218 250.242156 
L 124.1297 252.434821 
L 124.634182 250.242156 
L 125.138664 243.664163 
L 125.643147 252.434821 
L 126.147629 250.242156 
L 126.652111 252.434821 
L 127.156593 245.856827 
L 127.661076 243.664163 
L 128.165558 250.242156 
L 128.67004 221.737517 
L 129.174522 234.893504 
L 129.679005 239.278833 
L 130.183487 234.893504 
L 130.687969 245.856827 
L 131.192451 248.049492 
L 131.696934 252.434821 
L 132.201416 252.434821 
L 132.705898 248.049492 
L 133.21038 252.434821 
L 133.714862 245.856827 
L 134.219345 254.627486 
L 134.723827 252.434821 
L 135.228309 248.049492 
L 135.732791 250.242156 
L 136.237274 254.627486 
L 136.741756 248.049492 
L 137.246238 252.434821 
L 137.75072 252.434821 
L 138.255203 250.242156 
L 138.759685 254.627486 
L 139.264167 248.049492 
L 139.768649 254.627486 
L 140.273132 245.856827 
L 141.282096 250.242156 
L 141.786578 248.049492 
L 142.291061 254.627486 
L 143.300025 250.242156 
L 143.804507 241.471498 
L 144.308989 254.627486 
L 144.813472 254.627486 
L 145.317954 252.434821 
L 145.822436 245.856827 
L 146.326918 245.856827 
L 146.831401 250.242156 
L 147.335883 241.471498 
L 147.840365 248.049492 
L 148.344847 248.049492 
L 148.84933 250.242156 
L 149.353812 241.471498 
L 149.858294 239.278833 
L 150.362776 230.508175 
L 150.867259 237.086169 
L 151.371741 212.966858 
L 151.876223 217.352187 
L 152.380705 219.544852 
L 152.885187 230.508175 
L 153.38967 234.893504 
L 153.894152 243.664163 
L 154.398634 228.31551 
L 154.903116 243.664163 
L 155.407599 245.856827 
L 155.912081 245.856827 
L 156.416563 252.434821 
L 157.425528 252.434821 
L 157.93001 245.856827 
L 158.434492 245.856827 
L 158.938974 228.31551 
L 159.443457 239.278833 
L 159.947939 232.70084 
L 160.452421 239.278833 
L 160.956903 239.278833 
L 161.461385 234.893504 
L 161.965868 250.242156 
L 162.47035 241.471498 
L 162.974832 243.664163 
L 163.479314 241.471498 
L 164.488279 241.471498 
L 164.992761 250.242156 
L 165.497243 230.508175 
L 166.001726 239.278833 
L 166.506208 245.856827 
L 167.01069 239.278833 
L 167.515172 254.627486 
L 168.524137 245.856827 
L 169.028619 252.434821 
L 169.533101 250.242156 
L 170.037583 243.664163 
L 170.542066 239.278833 
L 171.046548 226.122846 
L 171.55103 239.278833 
L 172.055512 237.086169 
L 172.559995 241.471498 
L 173.064477 241.471498 
L 173.568959 252.434821 
L 174.073441 221.737517 
L 174.577924 245.856827 
L 175.082406 239.278833 
L 176.09137 230.508175 
L 176.595853 230.508175 
L 177.100335 232.70084 
L 177.604817 250.242156 
L 178.109299 254.627486 
L 179.118264 245.856827 
L 179.622746 252.434821 
L 180.63171 252.434821 
L 181.136193 254.627486 
L 181.640675 250.242156 
L 182.145157 250.242156 
L 182.649639 254.627486 
L 183.154122 241.471498 
L 183.658604 248.049492 
L 184.163086 250.242156 
L 184.667568 254.627486 
L 185.172051 250.242156 
L 185.676533 250.242156 
L 186.181015 248.049492 
L 186.685497 250.242156 
L 187.189979 245.856827 
L 187.694462 250.242156 
L 188.198944 252.434821 
L 188.703426 248.049492 
L 189.712391 252.434821 
L 190.216873 250.242156 
L 190.721355 250.242156 
L 191.225837 243.664163 
L 191.73032 250.242156 
L 192.739284 250.242156 
L 193.243766 241.471498 
L 193.748249 250.242156 
L 194.252731 250.242156 
L 194.757213 237.086169 
L 195.261695 212.966858 
L 195.766177 230.508175 
L 196.27066 239.278833 
L 196.775142 243.664163 
L 197.279624 245.856827 
L 197.784106 245.856827 
L 198.288589 248.049492 
L 198.793071 245.856827 
L 199.297553 245.856827 
L 199.802035 248.049492 
L 200.306518 245.856827 
L 200.811 232.70084 
L 201.315482 245.856827 
L 201.819964 239.278833 
L 202.324447 250.242156 
L 202.828929 248.049492 
L 203.333411 254.627486 
L 203.837893 250.242156 
L 204.342375 250.242156 
L 204.846858 254.627486 
L 205.35134 248.049492 
L 205.855822 252.434821 
L 206.360304 245.856827 
L 207.369269 245.856827 
L 207.873751 230.508175 
L 208.378233 252.434821 
L 208.882716 243.664163 
L 209.387198 245.856827 
L 209.89168 232.70084 
L 210.396162 182.269554 
L 210.900645 206.388864 
L 211.405127 199.81087 
L 211.909609 164.728237 
L 212.414091 195.425541 
L 212.918573 206.388864 
L 213.423056 221.737517 
L 213.927538 221.737517 
L 214.43202 219.544852 
L 214.936502 245.856827 
L 215.945467 245.856827 
L 216.954431 250.242156 
L 217.458914 250.242156 
L 217.963396 248.049492 
L 218.467878 248.049492 
L 218.97236 239.278833 
L 219.476843 248.049492 
L 219.981325 250.242156 
L 220.485807 243.664163 
L 220.990289 239.278833 
L 221.494771 252.434821 
L 221.999254 241.471498 
L 222.503736 234.893504 
L 223.008218 230.508175 
L 223.5127 234.893504 
L 224.017183 223.930181 
L 224.521665 208.581529 
L 225.026147 202.003535 
L 225.530629 226.122846 
L 226.035112 230.508175 
L 226.539594 223.930181 
L 227.044076 245.856827 
L 227.548558 250.242156 
L 228.053041 252.434821 
L 228.557523 250.242156 
L 229.062005 245.856827 
L 229.566487 248.049492 
L 230.070969 252.434821 
L 230.575452 243.664163 
L 231.079934 232.70084 
L 231.584416 243.664163 
L 232.088898 228.31551 
L 232.593381 230.508175 
L 233.097863 239.278833 
L 233.602345 234.893504 
L 234.106827 237.086169 
L 234.61131 248.049492 
L 235.115792 245.856827 
L 235.620274 230.508175 
L 236.124756 232.70084 
L 236.629239 241.471498 
L 237.133721 234.893504 
L 237.638203 237.086169 
L 238.142685 230.508175 
L 240.160614 248.049492 
L 240.665096 248.049492 
L 241.169579 239.278833 
L 241.674061 245.856827 
L 242.683025 241.471498 
L 243.187508 234.893504 
L 243.69199 232.70084 
L 244.196472 243.664163 
L 244.700954 230.508175 
L 245.205437 239.278833 
L 245.709919 234.893504 
L 246.214401 232.70084 
L 246.718883 243.664163 
L 247.223365 237.086169 
L 247.727848 245.856827 
L 248.736812 232.70084 
L 249.241294 245.856827 
L 249.745777 232.70084 
L 250.250259 234.893504 
L 250.754741 239.278833 
L 251.259223 241.471498 
L 251.763706 239.278833 
L 252.268188 241.471498 
L 252.77267 252.434821 
L 253.277152 254.627486 
L 253.781635 254.627486 
L 254.286117 241.471498 
L 254.790599 248.049492 
L 255.295081 245.856827 
L 255.799563 241.471498 
L 256.304046 245.856827 
L 256.808528 243.664163 
L 257.31301 250.242156 
L 257.817492 248.049492 
L 258.321975 248.049492 
L 258.826457 245.856827 
L 259.330939 250.242156 
L 259.835421 245.856827 
L 260.339904 245.856827 
L 260.844386 241.471498 
L 261.348868 245.856827 
L 261.85335 237.086169 
L 262.357833 234.893504 
L 262.862315 234.893504 
L 263.366797 239.278833 
L 263.871279 252.434821 
L 264.375761 250.242156 
L 264.880244 252.434821 
L 265.384726 248.049492 
L 265.889208 250.242156 
L 266.39369 245.856827 
L 266.898173 252.434821 
L 267.402655 248.049492 
L 267.907137 252.434821 
L 268.411619 250.242156 
L 269.420584 241.471498 
L 269.925066 250.242156 
L 270.429548 237.086169 
L 270.934031 250.242156 
L 271.438513 237.086169 
L 271.942995 245.856827 
L 272.447477 239.278833 
L 272.951959 241.471498 
L 273.456442 248.049492 
L 273.960924 250.242156 
L 274.969888 245.856827 
L 275.474371 248.049492 
L 275.978853 239.278833 
L 276.483335 239.278833 
L 276.987817 245.856827 
L 277.996782 250.242156 
L 278.501264 250.242156 
L 279.005746 252.434821 
L 279.510229 248.049492 
L 280.014711 239.278833 
L 280.519193 245.856827 
L 281.023675 237.086169 
L 281.528157 250.242156 
L 282.03264 248.049492 
L 283.041604 252.434821 
L 283.546086 239.278833 
L 284.050569 245.856827 
L 284.555051 241.471498 
L 285.564015 250.242156 
L 286.57298 226.122846 
L 287.077462 241.471498 
L 287.581944 243.664163 
L 288.086427 250.242156 
L 288.590909 248.049492 
L 289.599873 252.434821 
L 290.608838 252.434821 
L 291.11332 254.627486 
L 291.617802 248.049492 
L 292.122284 252.434821 
L 292.626767 250.242156 
L 293.635731 241.471498 
L 294.644696 250.242156 
L 295.149178 243.664163 
L 295.65366 239.278833 
L 296.158142 230.508175 
L 296.662625 239.278833 
L 297.167107 245.856827 
L 297.671589 239.278833 
L 298.176071 248.049492 
L 298.680553 243.664163 
L 299.185036 248.049492 
L 299.689518 248.049492 
L 300.194 252.434821 
L 300.698482 252.434821 
L 301.202965 250.242156 
L 301.707447 250.242156 
L 302.211929 245.856827 
L 302.716411 254.627486 
L 303.220894 254.627486 
L 303.725376 250.242156 
L 304.229858 252.434821 
L 304.73434 252.434821 
L 305.238823 250.242156 
L 306.247787 254.627486 
L 306.752269 250.242156 
L 307.256751 252.434821 
L 307.761234 243.664163 
L 308.265716 241.471498 
L 308.770198 248.049492 
L 309.27468 250.242156 
L 309.779163 250.242156 
L 310.283645 252.434821 
L 310.788127 252.434821 
L 311.292609 245.856827 
L 311.797092 245.856827 
L 312.301574 239.278833 
L 312.806056 252.434821 
L 313.815021 252.434821 
L 314.319503 245.856827 
L 314.823985 252.434821 
L 315.328467 248.049492 
L 315.832949 252.434821 
L 316.337432 243.664163 
L 316.841914 252.434821 
L 317.346396 252.434821 
L 317.850878 250.242156 
L 318.355361 250.242156 
L 318.859843 245.856827 
L 319.364325 250.242156 
L 319.868807 243.664163 
L 320.37329 241.471498 
L 320.877772 217.352187 
L 321.382254 237.086169 
L 321.886736 234.893504 
L 322.391219 226.122846 
L 322.895701 250.242156 
L 323.400183 243.664163 
L 323.904665 241.471498 
L 324.409147 250.242156 
L 324.91363 241.471498 
L 325.418112 254.627486 
L 325.922594 252.434821 
L 326.427076 248.049492 
L 326.931559 252.434821 
L 327.436041 243.664163 
L 327.940523 232.70084 
L 328.445005 241.471498 
L 328.949488 234.893504 
L 329.45397 239.278833 
L 329.958452 250.242156 
L 330.462934 234.893504 
L 330.967417 232.70084 
L 331.471899 237.086169 
L 331.976381 234.893504 
L 332.480863 241.471498 
L 332.985345 230.508175 
L 333.489828 230.508175 
L 333.99431 234.893504 
L 334.498792 245.856827 
L 335.003274 239.278833 
L 335.507757 241.471498 
L 336.012239 248.049492 
L 336.516721 250.242156 
L 337.021203 254.627486 
L 338.030168 250.242156 
L 338.53465 252.434821 
L 339.039132 250.242156 
L 339.543615 250.242156 
L 340.048097 243.664163 
L 340.552579 232.70084 
L 341.057061 245.856827 
L 341.561543 252.434821 
L 342.570508 232.70084 
L 343.07499 223.930181 
L 343.579472 228.31551 
L 344.083955 221.737517 
L 344.588437 245.856827 
L 345.092919 230.508175 
L 345.597401 230.508175 
L 346.606366 239.278833 
L 347.110848 217.352187 
L 347.61533 219.544852 
L 348.624295 245.856827 
L 350.137741 252.434821 
L 350.642224 248.049492 
L 351.146706 248.049492 
L 351.651188 243.664163 
L 352.15567 248.049492 
L 352.660153 212.966858 
L 353.164635 221.737517 
L 353.669117 221.737517 
L 354.678082 234.893504 
L 355.182564 234.893504 
L 355.687046 226.122846 
L 356.191528 237.086169 
L 356.696011 234.893504 
L 357.200493 245.856827 
L 357.704975 248.049492 
L 358.209457 232.70084 
L 358.713939 243.664163 
L 359.218422 241.471498 
L 359.722904 243.664163 
L 360.227386 248.049492 
L 360.731868 243.664163 
L 361.236351 254.627486 
L 361.740833 250.242156 
L 362.749797 250.242156 
L 363.25428 245.856827 
L 363.758762 243.664163 
L 364.263244 243.664163 
L 364.767726 239.278833 
L 365.272209 250.242156 
L 365.776691 234.893504 
L 366.281173 239.278833 
L 366.785655 234.893504 
L 367.290138 243.664163 
L 367.79462 241.471498 
L 368.299102 230.508175 
L 368.803584 248.049492 
L 369.308066 239.278833 
L 369.812549 239.278833 
L 370.317031 234.893504 
L 370.821513 243.664163 
L 371.325995 237.086169 
L 371.830478 239.278833 
L 372.33496 250.242156 
L 372.839442 252.434821 
L 373.343924 245.856827 
L 373.848407 250.242156 
L 374.352889 252.434821 
L 374.857371 252.434821 
L 375.361853 250.242156 
L 375.866336 254.627486 
L 376.370818 245.856827 
L 376.8753 245.856827 
L 377.379782 239.278833 
L 377.884264 248.049492 
L 378.388747 245.856827 
L 379.397711 232.70084 
L 379.902193 169.113566 
L 380.406676 37.55369 
L 380.911158 50.709677 
L 381.920122 149.379585 
L 382.424605 173.498895 
L 382.929087 129.645603 
L 383.433569 186.654883 
L 383.938051 193.232877 
L 384.947016 226.122846 
L 385.451498 223.930181 
L 385.95598 230.508175 
L 386.460462 241.471498 
L 386.964945 239.278833 
L 387.469427 243.664163 
L 387.973909 234.893504 
L 388.478391 241.471498 
L 388.982874 241.471498 
L 389.487356 221.737517 
L 389.991838 245.856827 
L 390.49632 241.471498 
L 391.000803 245.856827 
L 391.505285 237.086169 
L 392.009767 237.086169 
L 392.514249 248.049492 
L 393.018732 230.508175 
L 393.523214 239.278833 
L 394.027696 210.774194 
L 394.532178 193.232877 
L 395.03666 221.737517 
L 395.541143 226.122846 
L 396.045625 215.159523 
L 397.054589 239.278833 
L 397.559072 230.508175 
L 398.063554 241.471498 
L 398.568036 243.664163 
L 399.072518 252.434821 
L 399.577001 245.856827 
L 400.081483 243.664163 
L 400.585965 230.508175 
L 401.090447 241.471498 
L 401.59493 248.049492 
L 402.099412 239.278833 
L 402.603894 248.049492 
L 403.108376 241.471498 
L 403.612858 250.242156 
L 404.117341 239.278833 
L 404.621823 243.664163 
L 405.126305 208.581529 
L 405.630787 228.31551 
L 406.13527 226.122846 
L 406.639752 230.508175 
L 407.144234 221.737517 
L 407.648716 232.70084 
L 408.153199 226.122846 
L 408.657681 223.930181 
L 409.162163 232.70084 
L 409.666645 245.856827 
L 410.171128 239.278833 
L 410.67561 226.122846 
L 411.180092 232.70084 
L 411.684574 234.893504 
L 412.189056 239.278833 
L 412.693539 237.086169 
L 413.702503 228.31551 
L 414.206985 228.31551 
L 414.711468 219.544852 
L 415.21595 219.544852 
L 415.720432 232.70084 
L 416.224914 232.70084 
L 416.729397 219.544852 
L 417.233879 215.159523 
L 417.738361 226.122846 
L 418.242843 182.269554 
L 418.747326 208.581529 
L 419.251808 221.737517 
L 419.75629 215.159523 
L 420.260772 226.122846 
L 421.269737 239.278833 
L 421.774219 248.049492 
L 422.278701 248.049492 
L 422.783183 243.664163 
L 423.287666 248.049492 
L 423.792148 250.242156 
L 424.29663 241.471498 
L 424.801112 230.508175 
L 425.305595 210.774194 
L 425.810077 226.122846 
L 426.314559 237.086169 
L 427.323524 228.31551 
L 427.828006 237.086169 
L 428.332488 228.31551 
L 428.83697 232.70084 
L 429.341452 230.508175 
L 429.845935 230.508175 
L 430.350417 237.086169 
L 430.854899 241.471498 
L 431.359381 226.122846 
L 431.863864 237.086169 
L 431.863864 237.086169 
" clip-path="url(#p1d835d6417)" style="fill: none; stroke: #1f77b4; stroke-width: 1.5; stroke-linecap: square"/>
   </g>
   <g id="patch_3">
    <path d="M 51.005 265.481175 
L 51.005 26.7 
" style="fill: none; stroke: #000000; stroke-width: 0.8; stroke-linejoin: miter; stroke-linecap: square"/>
   </g>
   <g id="patch_4">
    <path d="M 450 265.481175 
L 450 26.7 
" style="fill: none; stroke: #000000; stroke-width: 0.8; stroke-linejoin: miter; stroke-linecap: square"/>
   </g>
   <g id="patch_5">
    <path d="M 51.005 265.481175 
L 450 265.481175 
" style="fill: none; stroke: #000000; stroke-width: 0.8; stroke-linejoin: miter; stroke-linecap: square"/>
   </g>
   <g id="patch_6">
    <path d="M 51.005 26.7 
L 450 26.7 
" style="fill: none; stroke: #000000; stroke-width: 0.8; stroke-linejoin: miter; stroke-linecap: square"/>
   </g>
   <g id="text_20">
    <!-- Trafic pentru o lună începând din 08 October 2012 (Monday) -->
    <g transform="translate(68.670625 20.7) scale(0.12 -0.12)">
     <defs>
      <path id="DejaVuSans-54" d="M -19 4666 
L 3928 4666 
L 3928 4134 
L 2272 4134 
L 2272 0 
L 1638 0 
L 1638 4134 
L -19 4134 
L -19 4666 
z
" transform="scale(0.015625)"/>
      <path id="DejaVuSans-66" d="M 2375 4863 
L 2375 4384 
L 1825 4384 
Q 1516 4384 1395 4259 
Q 1275 4134 1275 3809 
L 1275 3500 
L 2222 3500 
L 2222 3053 
L 1275 3053 
L 1275 0 
L 697 0 
L 697 3053 
L 147 3053 
L 147 3500 
L 697 3500 
L 697 3744 
Q 697 4328 969 4595 
Q 1241 4863 1831 4863 
L 2375 4863 
z
" transform="scale(0.015625)"/>
      <path id="DejaVuSans-70" d="M 1159 525 
L 1159 -1331 
L 581 -1331 
L 581 3500 
L 1159 3500 
L 1159 2969 
Q 1341 3281 1617 3432 
Q 1894 3584 2278 3584 
Q 2916 3584 3314 3078 
Q 3713 2572 3713 1747 
Q 3713 922 3314 415 
Q 2916 -91 2278 -91 
Q 1894 -91 1617 61 
Q 1341 213 1159 525 
z
M 3116 1747 
Q 3116 2381 2855 2742 
Q 2594 3103 2138 3103 
Q 1681 3103 1420 2742 
Q 1159 2381 1159 1747 
Q 1159 1113 1420 752 
Q 1681 391 2138 391 
Q 2594 391 2855 752 
Q 3116 1113 3116 1747 
z
" transform="scale(0.015625)"/>
      <path id="DejaVuSans-6e" d="M 3513 2113 
L 3513 0 
L 2938 0 
L 2938 2094 
Q 2938 2591 2744 2837 
Q 2550 3084 2163 3084 
Q 1697 3084 1428 2787 
Q 1159 2491 1159 1978 
L 1159 0 
L 581 0 
L 581 3500 
L 1159 3500 
L 1159 2956 
Q 1366 3272 1645 3428 
Q 1925 3584 2291 3584 
Q 2894 3584 3203 3211 
Q 3513 2838 3513 2113 
z
" transform="scale(0.015625)"/>
      <path id="DejaVuSans-6f" d="M 1959 3097 
Q 1497 3097 1228 2736 
Q 959 2375 959 1747 
Q 959 1119 1226 758 
Q 1494 397 1959 397 
Q 2419 397 2687 759 
Q 2956 1122 2956 1747 
Q 2956 2369 2687 2733 
Q 2419 3097 1959 3097 
z
M 1959 3584 
Q 2709 3584 3137 3096 
Q 3566 2609 3566 1747 
Q 3566 888 3137 398 
Q 2709 -91 1959 -91 
Q 1206 -91 779 398 
Q 353 888 353 1747 
Q 353 2609 779 3096 
Q 1206 3584 1959 3584 
z
" transform="scale(0.015625)"/>
      <path id="DejaVuSans-ee" d="M 603 3500 
L 1178 3500 
L 1178 0 
L 603 0 
L 603 3500 
z
M 891 3584 
L 891 3584 
z
M 657 5119 
L 1119 5119 
L 1885 3944 
L 1451 3944 
L 888 4709 
L 326 3944 
L -109 3944 
L 657 5119 
z
" transform="scale(0.015625)"/>
      <path id="DejaVuSans-e2" d="M 2194 1759 
Q 1497 1759 1228 1600 
Q 959 1441 959 1056 
Q 959 750 1161 570 
Q 1363 391 1709 391 
Q 2188 391 2477 730 
Q 2766 1069 2766 1631 
L 2766 1759 
L 2194 1759 
z
M 3341 1997 
L 3341 0 
L 2766 0 
L 2766 531 
Q 2569 213 2275 61 
Q 1981 -91 1556 -91 
Q 1019 -91 701 211 
Q 384 513 384 1019 
Q 384 1609 779 1909 
Q 1175 2209 1959 2209 
L 2766 2209 
L 2766 2266 
Q 2766 2663 2505 2880 
Q 2244 3097 1772 3097 
Q 1472 3097 1187 3025 
Q 903 2953 641 2809 
L 641 3341 
Q 956 3463 1253 3523 
Q 1550 3584 1831 3584 
Q 2591 3584 2966 3190 
Q 3341 2797 3341 1997 
z
M 1625 5119 
L 2087 5119 
L 2853 3944 
L 2419 3944 
L 1856 4709 
L 1294 3944 
L 859 3944 
L 1625 5119 
z
" transform="scale(0.015625)"/>
      <path id="DejaVuSans-38" d="M 2034 2216 
Q 1584 2216 1326 1975 
Q 1069 1734 1069 1313 
Q 1069 891 1326 650 
Q 1584 409 2034 409 
Q 2484 409 2743 651 
Q 3003 894 3003 1313 
Q 3003 1734 2745 1975 
Q 2488 2216 2034 2216 
z
M 1403 2484 
Q 997 2584 770 2862 
Q 544 3141 544 3541 
Q 544 4100 942 4425 
Q 1341 4750 2034 4750 
Q 2731 4750 3128 4425 
Q 3525 4100 3525 3541 
Q 3525 3141 3298 2862 
Q 3072 2584 2669 2484 
Q 3125 2378 3379 2068 
Q 3634 1759 3634 1313 
Q 3634 634 3220 271 
Q 2806 -91 2034 -91 
Q 1263 -91 848 271 
Q 434 634 434 1313 
Q 434 1759 690 2068 
Q 947 2378 1403 2484 
z
M 1172 3481 
Q 1172 3119 1398 2916 
Q 1625 2713 2034 2713 
Q 2441 2713 2670 2916 
Q 2900 3119 2900 3481 
Q 2900 3844 2670 4047 
Q 2441 4250 2034 4250 
Q 1625 4250 1398 4047 
Q 1172 3844 1172 3481 
z
" transform="scale(0.015625)"/>
      <path id="DejaVuSans-4f" d="M 2522 4238 
Q 1834 4238 1429 3725 
Q 1025 3213 1025 2328 
Q 1025 1447 1429 934 
Q 1834 422 2522 422 
Q 3209 422 3611 934 
Q 4013 1447 4013 2328 
Q 4013 3213 3611 3725 
Q 3209 4238 2522 4238 
z
M 2522 4750 
Q 3503 4750 4090 4092 
Q 4678 3434 4678 2328 
Q 4678 1225 4090 567 
Q 3503 -91 2522 -91 
Q 1538 -91 948 565 
Q 359 1222 359 2328 
Q 359 3434 948 4092 
Q 1538 4750 2522 4750 
z
" transform="scale(0.015625)"/>
      <path id="DejaVuSans-62" d="M 3116 1747 
Q 3116 2381 2855 2742 
Q 2594 3103 2138 3103 
Q 1681 3103 1420 2742 
Q 1159 2381 1159 1747 
Q 1159 1113 1420 752 
Q 1681 391 2138 391 
Q 2594 391 2855 752 
Q 3116 1113 3116 1747 
z
M 1159 2969 
Q 1341 3281 1617 3432 
Q 1894 3584 2278 3584 
Q 2916 3584 3314 3078 
Q 3713 2572 3713 1747 
Q 3713 922 3314 415 
Q 2916 -91 2278 -91 
Q 1894 -91 1617 61 
Q 1341 213 1159 525 
L 1159 0 
L 581 0 
L 581 4863 
L 1159 4863 
L 1159 2969 
z
" transform="scale(0.015625)"/>
      <path id="DejaVuSans-28" d="M 1984 4856 
Q 1566 4138 1362 3434 
Q 1159 2731 1159 2009 
Q 1159 1288 1364 580 
Q 1569 -128 1984 -844 
L 1484 -844 
Q 1016 -109 783 600 
Q 550 1309 550 2009 
Q 550 2706 781 3412 
Q 1013 4119 1484 4856 
L 1984 4856 
z
" transform="scale(0.015625)"/>
      <path id="DejaVuSans-4d" d="M 628 4666 
L 1569 4666 
L 2759 1491 
L 3956 4666 
L 4897 4666 
L 4897 0 
L 4281 0 
L 4281 4097 
L 3078 897 
L 2444 897 
L 1241 4097 
L 1241 0 
L 628 0 
L 628 4666 
z
" transform="scale(0.015625)"/>
      <path id="DejaVuSans-79" d="M 2059 -325 
Q 1816 -950 1584 -1140 
Q 1353 -1331 966 -1331 
L 506 -1331 
L 506 -850 
L 844 -850 
Q 1081 -850 1212 -737 
Q 1344 -625 1503 -206 
L 1606 56 
L 191 3500 
L 800 3500 
L 1894 763 
L 2988 3500 
L 3597 3500 
L 2059 -325 
z
" transform="scale(0.015625)"/>
      <path id="DejaVuSans-29" d="M 513 4856 
L 1013 4856 
Q 1481 4119 1714 3412 
Q 1947 2706 1947 2009 
Q 1947 1309 1714 600 
Q 1481 -109 1013 -844 
L 513 -844 
Q 928 -128 1133 580 
Q 1338 1288 1338 2009 
Q 1338 2731 1133 3434 
Q 928 4138 513 4856 
z
" transform="scale(0.015625)"/>
     </defs>
     <use xlink:href="#DejaVuSans-54"/>
     <use xlink:href="#DejaVuSans-72" transform="translate(46.333984 0)"/>
     <use xlink:href="#DejaVuSans-61" transform="translate(87.447266 0)"/>
     <use xlink:href="#DejaVuSans-66" transform="translate(148.726562 0)"/>
     <use xlink:href="#DejaVuSans-69" transform="translate(183.931641 0)"/>
     <use xlink:href="#DejaVuSans-63" transform="translate(211.714844 0)"/>
     <use xlink:href="#DejaVuSans-20" transform="translate(266.695312 0)"/>
     <use xlink:href="#DejaVuSans-70" transform="translate(298.482422 0)"/>
     <use xlink:href="#DejaVuSans-65" transform="translate(361.958984 0)"/>
     <use xlink:href="#DejaVuSans-6e" transform="translate(423.482422 0)"/>
     <use xlink:href="#DejaVuSans-74" transform="translate(486.861328 0)"/>
     <use xlink:href="#DejaVuSans-72" transform="translate(526.070312 0)"/>
     <use xlink:href="#DejaVuSans-75" transform="translate(567.183594 0)"/>
     <use xlink:href="#DejaVuSans-20" transform="translate(630.5625 0)"/>
     <use xlink:href="#DejaVuSans-6f" transform="translate(662.349609 0)"/>
     <use xlink:href="#DejaVuSans-20" transform="translate(723.53125 0)"/>
     <use xlink:href="#DejaVuSans-6c" transform="translate(755.318359 0)"/>
     <use xlink:href="#DejaVuSans-75" transform="translate(783.101562 0)"/>
     <use xlink:href="#DejaVuSans-6e" transform="translate(846.480469 0)"/>
     <use xlink:href="#DejaVuSans-103" transform="translate(909.859375 0)"/>
     <use xlink:href="#DejaVuSans-20" transform="translate(971.138672 0)"/>
     <use xlink:href="#DejaVuSans-ee" transform="translate(1002.925781 0)"/>
     <use xlink:href="#DejaVuSans-6e" transform="translate(1030.708984 0)"/>
     <use xlink:href="#DejaVuSans-63" transform="translate(1094.087891 0)"/>
     <use xlink:href="#DejaVuSans-65" transform="translate(1149.068359 0)"/>
     <use xlink:href="#DejaVuSans-70" transform="translate(1210.591797 0)"/>
     <use xlink:href="#DejaVuSans-e2" transform="translate(1274.068359 0)"/>
     <use xlink:href="#DejaVuSans-6e" transform="translate(1335.347656 0)"/>
     <use xlink:href="#DejaVuSans-64" transform="translate(1398.726562 0)"/>
     <use xlink:href="#DejaVuSans-20" transform="translate(1462.203125 0)"/>
     <use xlink:href="#DejaVuSans-64" transform="translate(1493.990234 0)"/>
     <use xlink:href="#DejaVuSans-69" transform="translate(1557.466797 0)"/>
     <use xlink:href="#DejaVuSans-6e" transform="translate(1585.25 0)"/>
     <use xlink:href="#DejaVuSans-20" transform="translate(1648.628906 0)"/>
     <use xlink:href="#DejaVuSans-30" transform="translate(1680.416016 0)"/>
     <use xlink:href="#DejaVuSans-38" transform="translate(1744.039062 0)"/>
     <use xlink:href="#DejaVuSans-20" transform="translate(1807.662109 0)"/>
     <use xlink:href="#DejaVuSans-4f" transform="translate(1839.449219 0)"/>
     <use xlink:href="#DejaVuSans-63" transform="translate(1918.160156 0)"/>
     <use xlink:href="#DejaVuSans-74" transform="translate(1973.140625 0)"/>
     <use xlink:href="#DejaVuSans-6f" transform="translate(2012.349609 0)"/>
     <use xlink:href="#DejaVuSans-62" transform="translate(2073.53125 0)"/>
     <use xlink:href="#DejaVuSans-65" transform="translate(2137.007812 0)"/>
     <use xlink:href="#DejaVuSans-72" transform="translate(2198.53125 0)"/>
     <use xlink:href="#DejaVuSans-20" transform="translate(2239.644531 0)"/>
     <use xlink:href="#DejaVuSans-32" transform="translate(2271.431641 0)"/>
     <use xlink:href="#DejaVuSans-30" transform="translate(2335.054688 0)"/>
     <use xlink:href="#DejaVuSans-31" transform="translate(2398.677734 0)"/>
     <use xlink:href="#DejaVuSans-32" transform="translate(2462.300781 0)"/>
     <use xlink:href="#DejaVuSans-20" transform="translate(2525.923828 0)"/>
     <use xlink:href="#DejaVuSans-28" transform="translate(2557.710938 0)"/>
     <use xlink:href="#DejaVuSans-4d" transform="translate(2596.724609 0)"/>
     <use xlink:href="#DejaVuSans-6f" transform="translate(2683.003906 0)"/>
     <use xlink:href="#DejaVuSans-6e" transform="translate(2744.185547 0)"/>
     <use xlink:href="#DejaVuSans-64" transform="translate(2807.564453 0)"/>
     <use xlink:href="#DejaVuSans-61" transform="translate(2871.041016 0)"/>
     <use xlink:href="#DejaVuSans-79" transform="translate(2932.320312 0)"/>
     <use xlink:href="#DejaVuSans-29" transform="translate(2991.5 0)"/>
    </g>
   </g>
  </g>
 </g>
 <defs>
  <clipPath id="p1d835d6417">
   <rect x="51.005" y="26.7" width="398.995" height="238.781175"/>
  </clipPath>
 </defs>
</svg>
